<svg width="41" height="36" viewBox="0 0 41 36" fill="none" xmlns="http://www.w3.org/2000/svg">
<g clip-path="url(#clip0_112_7383)">
<mask id="mask0_112_7383" style="mask-type:luminance" maskUnits="userSpaceOnUse" x="1" y="-5" width="41" height="46">
<path d="M41.2051 -4.3999H1.20508V40.4001H41.2051V-4.3999Z" fill="white"/>
</mask>
<g mask="url(#mask0_112_7383)">
<g opacity="0.1">
<path d="M21.0712 0.414551C30.7537 0.414551 38.6151 8.2563 38.6151 17.9146C38.6151 27.5728 30.7537 35.4146 21.0712 35.4146C11.3887 35.4146 3.52734 27.5728 3.52734 17.9146C3.52734 8.2563 11.3887 0.414551 21.0712 0.414551Z" fill="#69B04B"/>
</g>
<g opacity="0.2">
<path d="M21.0691 2.55176C29.569 2.55176 36.4703 9.43576 36.4703 17.9144C36.4703 26.3931 29.569 33.2771 21.0691 33.2771C12.5692 33.2771 5.66797 26.3931 5.66797 17.9144C5.66797 9.43576 12.5692 2.55176 21.0691 2.55176Z" fill="#69B04B"/>
</g>
<path d="M21.0719 5.49121C27.9457 5.49121 33.5267 11.0582 33.5267 17.9148C33.5267 24.7714 27.9457 30.3385 21.0719 30.3385C14.1982 30.3385 8.61719 24.7714 8.61719 17.9148C8.61719 11.0582 14.1982 5.49121 21.0719 5.49121Z" fill="#69B04B"/>
<path d="M14.5527 19.4852C16.0618 20.6921 19.0802 23.1059 19.0802 23.1059C19.0802 23.1059 24.6216 16.9481 27.3923 13.8693" stroke="white" stroke-width="2" stroke-linecap="round" stroke-linejoin="round"/>
</g>
</g>
<defs>
<clipPath id="clip0_112_7383">
<rect width="40" height="35" fill="white" transform="translate(0.503906 0.5)"/>
</clipPath>
</defs>
</svg>
