<svg width="24" height="24" viewBox="0 0 24 24" fill="none" xmlns="http://www.w3.org/2000/svg">
<path d="M8.61538 16C8.16794 16 7.78685 15.8426 7.4721 15.5279C7.15737 15.2131 7 14.8321 7 14.3846V9.61537C7 9.16794 7.15737 8.78685 7.4721 8.4721C7.78685 8.15737 8.16794 8 8.61538 8H9.38463L10.3846 7H13.6154L14.6154 8H15.3846C15.8321 8 16.2132 8.15737 16.5279 8.4721C16.8426 8.78685 17 9.16794 17 9.61537V14.3846C17 14.8321 16.8426 15.2131 16.5279 15.5279C16.2132 15.8426 15.8321 16 15.3846 16H8.61538ZM8.61538 15H15.3846C15.5641 15 15.7115 14.9423 15.8269 14.8269C15.9423 14.7115 16 14.5641 16 14.3846V9.61537C16 9.43589 15.9423 9.28846 15.8269 9.17307C15.7115 9.05769 15.5641 9 15.3846 9H8.61538C8.43589 9 8.28846 9.05769 8.17308 9.17307C8.05769 9.28846 8 9.43589 8 9.61537V14.3846C8 14.5641 8.05769 14.7115 8.17308 14.8269C8.28846 14.9423 8.43589 15 8.61538 15ZM12 13.4231C12.3962 13.4231 12.7324 13.2849 13.0087 13.0087C13.2849 12.7324 13.4231 12.3962 13.4231 12C13.4231 11.6039 13.2849 11.2676 13.0087 10.9914C12.7324 10.7151 12.3962 10.5769 12 10.5769C11.6039 10.5769 11.2676 10.7151 10.9914 10.9914C10.7151 11.2676 10.5769 11.6039 10.5769 12C10.5769 12.3962 10.7151 12.7324 10.9914 13.0087C11.2676 13.2849 11.6039 13.4231 12 13.4231ZM9.9346 1.1923C10.2705 1.11153 10.6074 1.05929 10.9452 1.03557C11.283 1.01186 11.6218 1 11.9616 1C13.3872 1 14.7381 1.25352 16.0144 1.76057C17.2907 2.26762 18.4247 2.96891 19.4163 3.86443C20.408 4.75994 21.2199 5.81763 21.8519 7.0375C22.484 8.25737 22.8667 9.5782 23 11H22C21.8705 9.7359 21.525 8.56058 20.9635 7.47405C20.4019 6.3875 19.6817 5.44519 18.8029 4.64713C17.924 3.84904 16.918 3.21602 15.7846 2.74807C14.6513 2.28012 13.4462 2.03462 12.1692 2.01155L14.1039 3.94615L13.3962 4.65385L9.9346 1.1923ZM14.0654 22.8077C13.7295 22.8885 13.3926 22.9407 13.0548 22.9645C12.717 22.9881 12.3782 23 12.0385 23C10.6128 23 9.26186 22.7465 7.98558 22.2394C6.70929 21.7324 5.57532 21.0311 4.58365 20.1356C3.59198 19.2401 2.78012 18.1824 2.14807 16.9625C1.51602 15.7426 1.13333 14.4218 1 13H2C2.13333 14.2641 2.47981 15.4394 3.03943 16.5259C3.59904 17.6125 4.31827 18.5548 5.19712 19.3529C6.07596 20.151 7.08204 20.784 8.21537 21.2519C9.34871 21.7199 10.5538 21.9654 11.8308 21.9885L9.89615 20.0539L10.6039 19.3462L14.0654 22.8077Z" fill="#3E3C42"/>
</svg>
