<svg xmlns="http://www.w3.org/2000/svg" width="20" height="20" viewBox="0 0 20 20" fill="none">
  <path d="M3.7896 16.25C3.36865 16.25 3.01235 16.1041 2.72068 15.8125C2.42903 15.5208 2.2832 15.1645 2.2832 14.7436V5.25644C2.2832 4.8355 2.42903 4.47919 2.72068 4.18752C3.01235 3.89586 3.36865 3.75002 3.7896 3.75002H13.2767C13.6977 3.75002 14.054 3.89586 14.3456 4.18752C14.6373 4.47919 14.7831 4.8355 14.7831 5.25644V9.07054L17.7158 6.13788V13.8621L14.7831 10.9295V14.7436C14.7831 15.1645 14.6373 15.5208 14.3456 15.8125C14.054 16.1041 13.6977 16.25 13.2767 16.25H3.7896Z" fill="#3A74CA"/>
</svg>