<svg width="17" height="14" viewBox="0 0 17 14" fill="none" xmlns="http://www.w3.org/2000/svg">
<path d="M16 9.5V10H16.5V9.5H16ZM0.646447 9.14645C0.451184 9.34171 0.451184 9.65829 0.646447 9.85355L3.82843 13.0355C4.02369 13.2308 4.34027 13.2308 4.53553 13.0355C4.7308 12.8403 4.7308 12.5237 4.53553 12.3284L1.70711 9.5L4.53553 6.67157C4.7308 6.47631 4.7308 6.15973 4.53553 5.96447C4.34027 5.7692 4.02369 5.7692 3.82843 5.96447L0.646447 9.14645ZM15.5 0.5V9.5H16.5V0.5H15.5ZM16 9H1V10H16V9Z" fill="#AEA9B1"/>
</svg>
