<svg width="37" height="52" viewBox="0 0 37 52" fill="none" xmlns="http://www.w3.org/2000/svg">
<path d="M36.353 19.4445C35.4512 30.7323 26.0611 34.1358 26.0611 34.1358C25.37 35.8535 24.4707 40.219 24.4707 40.219H11.9293C11.9293 40.219 11.03 35.8535 10.339 34.1358C10.339 34.1358 0.946362 30.7323 0.0470452 19.4445C-0.577821 11.5921 4.99942 0.00245387 18.1314 0H18.2662C31.3982 0.0122694 36.9778 11.6093 36.353 19.4445Z" fill="#FFC107"/>
<g opacity="0.7">
<path d="M34.7993 19.5107C33.9784 29.8366 25.3871 32.9408 25.3871 32.9408C24.7549 34.5113 23.934 40.2214 23.934 40.2214H12.4659C12.4659 40.2214 11.6425 34.5113 11.0103 32.9408C11.0103 32.9408 2.41901 29.8293 1.59566 19.5034C1.0247 12.3283 6.129 1.72999 18.1362 1.72754H18.2612C30.2709 1.72999 35.3752 12.3283 34.7993 19.5107Z" fill="#FFC107"/>
</g>
<path d="M11.8291 21.4532L11.1064 21.5884L14.7936 41.356L15.5162 41.2208L11.8291 21.4532Z" fill="white"/>
<path d="M24.5649 21.4541L20.8916 41.2242L21.6143 41.3589L25.2877 21.5887L24.5649 21.4541Z" fill="white"/>
<path d="M18.2004 28.0625C17.0781 28.0625 16.0489 27.0122 15.326 25.6699C15.2024 25.8411 15.0434 25.9835 14.8599 26.0877C14.6764 26.1919 14.4727 26.2553 14.2625 26.2736C12.432 26.2736 11.692 22.4652 11.6602 22.3032L11.9052 22.2591C11.9052 22.2959 12.6403 26.0282 14.265 26.0282C14.5885 26.0282 14.9144 25.8024 15.2109 25.4393C14.648 24.3469 14.3318 23.1439 14.2846 21.9155C14.2846 20.8628 14.6742 20.2592 15.3579 20.2592C16.1543 20.2592 16.6101 20.9021 16.6101 22.021C16.5707 23.248 16.1859 24.4389 15.5 25.4565C16.1837 26.7717 17.159 27.8195 18.1955 27.8195C18.9797 27.8195 19.7638 27.2061 20.4009 26.1018C20.4573 26.0012 20.5136 25.8981 20.5676 25.7926C19.8324 25.0025 19.4232 23.7068 19.4232 22.4725C19.4232 21.1156 19.928 20.2641 20.7391 20.2641C20.8951 20.2638 21.0481 20.3071 21.181 20.389C21.3139 20.4709 21.4213 20.5882 21.4914 20.7278C22.0403 21.6775 21.7364 23.9596 20.8616 25.746C21.2027 26.0904 21.6662 26.2854 22.1506 26.2883C23.5473 26.2883 24.601 22.5339 24.6157 22.4971L24.8608 22.5633C24.8142 22.7253 23.7409 26.5337 22.1653 26.5337C21.6436 26.5288 21.1433 26.3253 20.766 25.9644L20.6264 26.2098C20.1363 27.0515 19.3227 28.0625 18.2004 28.0625ZM20.7513 20.5045C19.9598 20.5045 19.6805 21.5573 19.6805 22.4676C19.6805 23.4492 20.0089 24.7596 20.6925 25.5571C21.4889 23.8663 21.7879 21.7118 21.2929 20.853C21.2455 20.7491 21.1692 20.6609 21.0732 20.5992C20.9772 20.5374 20.8655 20.5045 20.7513 20.5045ZM15.3603 20.5045C14.6399 20.5045 14.5321 21.3879 14.5321 21.9155C14.5798 23.0626 14.8696 24.1866 15.3824 25.2135C15.9934 24.2595 16.3324 23.1564 16.3626 22.0235C16.3626 21.4542 16.2303 20.5045 15.3554 20.5045H15.3603Z" fill="white"/>
<path d="M26.0541 40.2435H10.3467V48.9008H26.0541V40.2435Z" fill="#ADC4CF"/>
<path d="M24.2631 48.891C23.3393 50.5326 21.5676 52.0001 18.1909 52.0001C14.8142 52.0001 13.0449 50.5277 12.1162 48.891H24.2631Z" fill="#ADC4CF"/>
<path d="M24.2631 48.891C23.9886 49.3816 23.6453 49.8303 23.2437 50.2234L12.4323 49.3916C12.3186 49.2335 12.2131 49.0697 12.1162 48.9008L24.2631 48.891Z" fill="#CDDCE3"/>
<path d="M26.5121 41.8949L9.88574 43.4335V42.6777L26.5121 41.1392V41.8949Z" fill="#CDDCE3"/>
<path d="M26.5121 44.1795L9.88574 45.7181V44.9647L26.5121 43.4237V44.1795Z" fill="#CDDCE3"/>
<path d="M26.5121 46.464L9.88574 48.0026V47.2493L26.5121 45.7083V46.464Z" fill="#CDDCE3"/>
<g opacity="0.5">
<path d="M4.00193 16.8164C4.57778 16.9121 5.32517 13.9356 8.52056 10.4904C9.93938 8.9616 15.3255 7.05494 14.9383 5.28079C14.5511 3.50664 9.74579 5.32987 7.3272 8.13464C3.43342 12.6473 3.47263 16.7256 4.00193 16.8164Z" fill="white"/>
<path d="M32.3493 17.4349C33.4079 17.4349 33.4103 15.7859 32.3493 15.7859C31.2882 15.7859 31.2784 17.4349 32.3493 17.4349Z" fill="white"/>
<path d="M27.1564 29.8319C27.7347 30.276 30.5454 27.6774 31.8123 24.5781C32.866 22.0065 33.0375 18.7551 32.3391 18.5661C31.6407 18.3772 31.1727 22.8383 30.3224 24.4824C29.2491 26.5608 26.5365 29.3607 27.1564 29.8319Z" fill="white"/>
</g>
</svg>
