<svg width="54" height="52" viewBox="0 0 54 52" fill="none" xmlns="http://www.w3.org/2000/svg">
<path d="M18.1425 3.03461C15.6026 2.75351 15.1341 5.84076 12.7831 6.86044C11.381 7.46858 10.3614 7.19495 9.03162 7.95353C7.08993 9.06118 6.14705 10.2364 5.2801 12.3259C4.46047 14.3014 5.43506 15.7653 4.74417 17.7914C4.00056 19.972 1.67501 20.4064 1.52858 22.7103C1.43003 24.2609 1.82371 25.1993 2.60044 26.5361C3.58411 28.229 5.64472 27.9845 6.35196 29.8154C7.3223 32.3273 3.95323 33.6867 4.20824 36.3739C4.40679 38.4663 4.95821 39.7441 6.35196 41.2929C8.06189 43.193 9.97773 42.8878 12.2472 44.0256C15.0204 45.4159 16.2674 48.7998 19.2143 47.8514C20.7732 47.3497 22.4299 45.1187 22.4299 45.1187V6.86044C22.4299 6.86044 20.3543 3.27941 18.1425 3.03461Z" fill="#16FCD2" stroke="#C0FFFF" stroke-width="1.08321"/>
<path d="M11.7109 7.40686C11.7109 7.40686 14.2115 7.61282 15.4625 8.49995C16.5627 9.28022 17.6062 11.2327 17.6062 11.2327" stroke="#C0FFFF" stroke-width="1.08321"/>
<path d="M12.7832 14.4902C12.7832 14.4902 16.5325 16.6037 18.9847 16.0636C20.6398 15.699 22.43 13.9657 22.43 13.9657" stroke="#C0FFFF" stroke-width="1.08321"/>
<path d="M17.0703 29.8167C17.0703 29.8167 13.9293 28.8298 12.2469 28.1759C10.6702 27.5632 5.81575 29.272 5.81575 29.272" stroke="#C0FFFF" stroke-width="1.08321"/>
<path d="M5.2793 17.2449C5.2793 17.2449 7.04429 19.2091 8.49488 19.9776C9.84702 20.6939 12.2464 21.0707 12.2464 21.0707" stroke="#C0FFFF" stroke-width="1.08321"/>
<path d="M10.6387 42.9325C10.6387 42.9325 12.7499 43.0319 13.8543 42.3859C15.0167 41.7059 15.998 39.6532 15.998 39.6532" stroke="#C0FFFF" stroke-width="1.08321"/>
<path d="M22.43 34.1877C22.43 34.1877 19.9776 35.9968 18.1425 36.3739C16.0806 36.7976 12.7832 35.8274 12.7832 35.8274" stroke="#C0FFFF" stroke-width="1.08321"/>
<rect x="17.0703" y="10.6865" width="2.14373" height="2.18619" rx="1.07186" fill="#48FFFF"/>
<rect x="11.7109" y="12.8723" width="2.14373" height="2.18619" rx="1.07186" fill="#48FFFF"/>
<rect x="11.7109" y="20.524" width="2.14373" height="2.18619" rx="1.07186" fill="#48FFFF"/>
<rect x="15.998" y="29.2692" width="2.14373" height="2.18619" rx="1.07186" fill="#48FFFF"/>
<rect x="14.9258" y="38.0138" width="2.14373" height="2.18619" rx="1.07186" fill="#48FFFF"/>
<rect x="11.7109" y="34.7346" width="2.14373" height="2.18619" rx="1.07186" fill="#48FFFF"/>
<path d="M22.4289 22.7103L20.2852 23.8034" stroke="#C0FFFF" stroke-width="1.08321"/>
<path d="M30.1119 35.4634L29.8261 33.1314C29.6713 33.0707 29.5254 32.9978 29.3884 32.9128C29.2514 32.8278 29.1175 32.7367 28.9865 32.6395L26.8606 33.5505L24.8955 30.089L26.7355 28.668C26.7236 28.583 26.7177 28.501 26.7177 28.422V27.9301C26.7177 27.8512 26.7236 27.7692 26.7355 27.6842L24.8955 26.2632L26.8606 22.8017L28.9865 23.7126C29.1175 23.6155 29.2544 23.5244 29.3973 23.4393C29.5402 23.3543 29.6832 23.2815 29.8261 23.2207L30.1119 20.8888H34.0421L34.3279 23.2207C34.4827 23.2815 34.6286 23.3543 34.7656 23.4393C34.9025 23.5244 35.0365 23.6155 35.1675 23.7126L37.2934 22.8017L39.2585 26.2632L37.4184 27.6842C37.4303 27.7692 37.4363 27.8512 37.4363 27.9301V28.422C37.4363 28.501 37.4244 28.583 37.4006 28.668L39.2406 30.089L37.2755 33.5505L35.1675 32.6395C35.0365 32.7367 34.8996 32.8278 34.7566 32.9128C34.6137 32.9978 34.4708 33.0707 34.3279 33.1314L34.0421 35.4634H30.1119ZM32.1127 30.7266C32.8035 30.7266 33.393 30.4776 33.8813 29.9797C34.3696 29.4817 34.6137 28.8805 34.6137 28.1761C34.6137 27.4716 34.3696 26.8704 33.8813 26.3725C33.393 25.8745 32.8035 25.6255 32.1127 25.6255C31.4101 25.6255 30.8176 25.8745 30.3352 26.3725C29.8529 26.8704 29.6117 27.4716 29.6117 28.1761C29.6117 28.8805 29.8529 29.4817 30.3352 29.9797C30.8176 30.4776 31.4101 30.7266 32.1127 30.7266Z" fill="#C0FFFF"/>
<path d="M38.5196 21.5264L38.2873 19.6317C38.1615 19.5824 38.043 19.5232 37.9317 19.4541C37.8204 19.385 37.7116 19.311 37.6051 19.2321L35.8779 19.9722L34.2812 17.1597L35.7763 16.0052C35.7666 15.9361 35.7618 15.8695 35.7618 15.8053V15.4057C35.7618 15.3415 35.7666 15.2749 35.7763 15.2058L34.2812 14.0512L35.8779 11.2388L37.6051 11.9789C37.7116 11.9 37.8229 11.826 37.939 11.7569C38.0551 11.6878 38.1712 11.6286 38.2873 11.5793L38.5196 9.68457H41.7128L41.9451 11.5793C42.0709 11.6286 42.1894 11.6878 42.3007 11.7569C42.412 11.826 42.5208 11.9 42.6273 11.9789L44.3545 11.2388L45.9512 14.0512L44.4561 15.2058C44.4658 15.2749 44.4706 15.3415 44.4706 15.4057V15.8053C44.4706 15.8695 44.461 15.9361 44.4416 16.0052L45.9366 17.1597L44.34 19.9722L42.6273 19.2321C42.5208 19.311 42.4095 19.385 42.2934 19.4541C42.1773 19.5232 42.0612 19.5824 41.9451 19.6317L41.7128 21.5264H38.5196ZM40.1452 17.6778C40.7065 17.6778 41.1855 17.4755 41.5822 17.0709C41.9789 16.6663 42.1773 16.1778 42.1773 15.6055C42.1773 15.0331 41.9789 14.5447 41.5822 14.1401C41.1855 13.7355 40.7065 13.5332 40.1452 13.5332C39.5743 13.5332 39.0929 13.7355 38.701 14.1401C38.3091 14.5447 38.1132 15.0331 38.1132 15.6055C38.1132 16.1778 38.3091 16.6663 38.701 17.0709C39.0929 17.4755 39.5743 17.6778 40.1452 17.6778Z" fill="#C0FFFF"/>
<path d="M46.9263 29.4513L46.7476 27.9938C46.6509 27.9559 46.5597 27.9103 46.4741 27.8572C46.3885 27.804 46.3047 27.7471 46.2229 27.6864L44.8942 28.2557L43.666 26.0923L44.816 25.2041C44.8086 25.151 44.8049 25.0998 44.8049 25.0504V24.743C44.8049 24.6937 44.8086 24.6424 44.816 24.5893L43.666 23.7011L44.8942 21.5377L46.2229 22.1071C46.3047 22.0463 46.3903 21.9894 46.4797 21.9363C46.569 21.8831 46.6583 21.8376 46.7476 21.7996L46.9263 20.3422H49.3826L49.5613 21.7996C49.658 21.8376 49.7492 21.8831 49.8348 21.9363C49.9204 21.9894 50.0041 22.0463 50.086 22.1071L51.4147 21.5377L52.6429 23.7011L51.4928 24.5893C51.5003 24.6424 51.504 24.6937 51.504 24.743V25.0504C51.504 25.0998 51.4966 25.151 51.4817 25.2041L52.6317 26.0923L51.4035 28.2557L50.086 27.6864C50.0041 27.7471 49.9185 27.804 49.8292 27.8572C49.7399 27.9103 49.6506 27.9559 49.5613 27.9938L49.3826 29.4513H46.9263ZM48.1768 26.4908C48.6085 26.4908 48.9769 26.3352 49.2821 26.024C49.5873 25.7127 49.7399 25.337 49.7399 24.8967C49.7399 24.4564 49.5873 24.0807 49.2821 23.7695C48.9769 23.4582 48.6085 23.3026 48.1768 23.3026C47.7376 23.3026 47.3673 23.4582 47.0658 23.7695C46.7644 24.0807 46.6136 24.4564 46.6136 24.8967C46.6136 25.337 46.7644 25.7127 47.0658 26.024C47.3673 26.3352 47.7376 26.4908 48.1768 26.4908Z" fill="#C0FFFF"/>
<path d="M42.3937 40.1998L42.1794 38.4509C42.0633 38.4054 41.9538 38.3507 41.8511 38.2869C41.7484 38.2232 41.6479 38.1549 41.5497 38.082L39.9553 38.7652L38.4814 36.1691L39.8615 35.1033C39.8525 35.0395 39.8481 34.9781 39.8481 34.9188V34.5499C39.8481 34.4907 39.8525 34.4292 39.8615 34.3655L38.4814 33.2997L39.9553 30.7036L41.5497 31.3868C41.6479 31.3139 41.7506 31.2456 41.8578 31.1818C41.965 31.1181 42.0722 31.0634 42.1794 31.0179L42.3937 29.2689H45.3414L45.5557 31.0179C45.6719 31.0634 45.7813 31.1181 45.884 31.1818C45.9867 31.2456 46.0872 31.3139 46.1855 31.3868L47.7799 30.7036L49.2537 33.2997L47.8736 34.3655C47.8826 34.4292 47.887 34.4907 47.887 34.5499V34.9188C47.887 34.9781 47.8781 35.0395 47.8602 35.1033L49.2403 36.1691L47.7665 38.7652L46.1855 38.082C46.0872 38.1549 45.9845 38.2232 45.8773 38.2869C45.7701 38.3507 45.6629 38.4054 45.5557 38.4509L45.3414 40.1998H42.3937ZM43.8944 36.6473C44.4124 36.6473 44.8546 36.4606 45.2208 36.0871C45.587 35.7136 45.7701 35.2627 45.7701 34.7344C45.7701 34.2061 45.587 33.7552 45.2208 33.3817C44.8546 33.0082 44.4124 32.8215 43.8944 32.8215C43.3674 32.8215 42.923 33.0082 42.5612 33.3817C42.1995 33.7552 42.0186 34.2061 42.0186 34.7344C42.0186 35.2627 42.1995 35.7136 42.5612 36.0871C42.923 36.4606 43.3674 36.6473 43.8944 36.6473Z" fill="#C0FFFF"/>
<path d="M32.1668 44.9365L32.0239 43.7705C31.9465 43.7401 31.8735 43.7037 31.805 43.6612C31.7366 43.6187 31.6696 43.5731 31.6041 43.5245L30.5411 43.98L29.5586 42.2493L30.4786 41.5388C30.4727 41.4962 30.4697 41.4553 30.4697 41.4158V41.1698C30.4697 41.1304 30.4727 41.0894 30.4786 41.0469L29.5586 40.3364L30.5411 38.6056L31.6041 39.0611C31.6696 39.0125 31.738 38.967 31.8095 38.9244C31.881 38.8819 31.9524 38.8455 32.0239 38.8151L32.1668 37.6492H34.1319L34.2748 38.8151C34.3522 38.8455 34.4251 38.8819 34.4936 38.9244C34.5621 38.967 34.6291 39.0125 34.6946 39.0611L35.7575 38.6056L36.7401 40.3364L35.8201 41.0469C35.826 41.0894 35.829 41.1304 35.829 41.1698V41.4158C35.829 41.4553 35.823 41.4962 35.8111 41.5388L36.7311 42.2493L35.7486 43.98L34.6946 43.5245C34.6291 43.5731 34.5606 43.6187 34.4892 43.6612C34.4177 43.7037 34.3462 43.7401 34.2748 43.7705L34.1319 44.9365H32.1668ZM33.1672 42.5681C33.5126 42.5681 33.8073 42.4436 34.0515 42.1946C34.2956 41.9456 34.4177 41.645 34.4177 41.2928C34.4177 40.9406 34.2956 40.64 34.0515 40.391C33.8073 40.142 33.5126 40.0175 33.1672 40.0175C32.8159 40.0175 32.5196 40.142 32.2784 40.391C32.0373 40.64 31.9167 40.9406 31.9167 41.2928C31.9167 41.645 32.0373 41.9456 32.2784 42.1946C32.5196 42.4436 32.8159 42.5681 33.1672 42.5681Z" fill="#C0FFFF"/>
<path d="M28.2916 16.4251L28.1309 15.1134C28.0438 15.0793 27.9617 15.0383 27.8847 14.9904C27.8076 14.9426 27.7323 14.8914 27.6586 14.8367L26.4628 15.3491L25.3574 13.402L26.3924 12.6027C26.3857 12.5549 26.3824 12.5088 26.3824 12.4644V12.1877C26.3824 12.1433 26.3857 12.0972 26.3924 12.0493L25.3574 11.25L26.4628 9.30294L27.6586 9.81533C27.7323 9.76067 27.8093 9.70944 27.8897 9.66161C27.9701 9.61379 28.0505 9.5728 28.1309 9.53864L28.2916 8.22693H30.5024L30.6631 9.53864C30.7502 9.5728 30.8323 9.61379 30.9093 9.66161C30.9864 9.70944 31.0617 9.76067 31.1354 9.81533L32.3312 9.30294L33.4366 11.25L32.4016 12.0493C32.4083 12.0972 32.4116 12.1433 32.4116 12.1877V12.4644C32.4116 12.5088 32.4049 12.5549 32.3915 12.6027L33.4265 13.402L32.3212 15.3491L31.1354 14.8367C31.0617 14.8914 30.9847 14.9426 30.9043 14.9904C30.8239 15.0383 30.7435 15.0793 30.6631 15.1134L30.5024 16.4251H28.2916ZM29.4171 13.7607C29.8057 13.7607 30.1373 13.6207 30.4119 13.3406C30.6866 13.0604 30.8239 12.7223 30.8239 12.326C30.8239 11.9298 30.6866 11.5916 30.4119 11.3115C30.1373 11.0314 29.8057 10.8913 29.4171 10.8913C29.0219 10.8913 28.6886 11.0314 28.4173 11.3115C28.1459 11.5916 28.0103 11.9298 28.0103 12.326C28.0103 12.7223 28.1459 13.0604 28.4173 13.3406C28.6886 13.6207 29.0219 13.7607 29.4171 13.7607Z" fill="#C0FFFF"/>
<rect x="19.2139" y="22.7103" width="2.14373" height="2.18619" rx="1.07186" fill="#48FFFF"/>
</svg>
