<svg width="93" height="92" viewBox="0 0 93 92" fill="none" xmlns="http://www.w3.org/2000/svg">
<path d="M46.4998 0C21.1998 0 0.499756 20.6999 0.499756 45.9998C0.499756 71.2996 21.1998 91.9995 46.4998 91.9995C71.7998 91.9995 92.4998 71.2996 92.4998 45.9998C92.4998 20.6999 71.7998 0 46.4998 0ZM46.4998 82.7996C26.2138 82.7996 9.69976 66.2856 9.69976 45.9998C9.69976 25.7139 26.2138 9.19995 46.4998 9.19995C66.7858 9.19995 83.2998 25.7139 83.2998 45.9998C83.2998 66.2856 66.7858 82.7996 46.4998 82.7996ZM67.6138 25.6679L37.2998 55.9817L25.3858 44.1138L18.8998 50.5997L37.2998 68.9996L74.0998 32.1998L67.6138 25.6679Z" fill="#034D86"/>
</svg>
