<svg width="29" height="28" viewBox="0 0 29 28" fill="none" xmlns="http://www.w3.org/2000/svg">
<g clip-path="url(#clip0_20_1003)">
<path d="M15.2575 6.03625C15.2218 5.3683 14.5391 5.48193 13.873 5.48193C14.3651 5.61298 14.8305 5.79529 15.2575 6.03625Z" fill="white"/>
<path d="M8.13712 4.3623C5.55138 4.3623 4.3612 7.63517 6.42826 9.28125C7.13291 7.3997 8.53567 6.04868 10.3746 5.51543C9.87158 4.81998 9.05884 4.3623 8.13712 4.3623Z" fill="white"/>
<path d="M2.79529 8.76861C2.90066 9.10675 3.03719 9.43114 3.19939 9.73848L2.35 10.5883C2.12191 10.8164 2.12191 11.1867 2.35 11.4152L3.84717 12.9129C3.9562 13.0219 4.10559 13.0833 4.2613 13.0833C4.41529 13.0833 4.56368 13.0219 4.6746 12.9129L5.52304 12.063C5.65037 12.1304 5.7915 12.1717 5.92337 12.2298C5.92337 12.2201 5.92242 12.2101 5.92242 12.2004C5.92242 11.5059 6.00219 10.8508 6.14421 10.2356C5.11983 9.57628 4.43629 8.43189 4.43629 7.1253C4.43629 5.08433 6.09653 3.42362 8.13704 3.42362C9.51873 3.42362 10.7117 4.19282 11.3485 5.31662C12.0284 5.2323 12.667 5.2323 13.4357 5.37756C13.3368 5.07843 13.2205 4.78566 13.0747 4.51125L13.9241 3.66098C14.0349 3.55147 14.0963 3.40255 14.0963 3.24773C14.0963 3.09285 14.0349 2.94399 13.9241 2.83449L12.4278 1.3378C12.3133 1.22328 12.1639 1.16646 12.0146 1.16646C11.8652 1.16646 11.7159 1.22328 11.6023 1.3378L10.7502 2.18807C10.4423 2.02499 10.1189 1.88846 9.77993 1.78538V0.584114C9.77993 0.261612 9.51968 0 9.19623 0H7.07879C6.75717 0 6.49415 0.261612 6.49415 0.584114V1.78532C6.15607 1.8884 5.83256 2.02493 5.52381 2.18801L4.6746 1.33868C4.56002 1.22416 4.41069 1.16734 4.2613 1.16734C4.11196 1.16734 3.96175 1.22416 3.84811 1.33821L2.35 2.8349C2.24097 2.94488 2.17961 3.09327 2.17961 3.24862C2.17961 3.40391 2.24097 3.55236 2.35 3.66186L3.19939 4.51166C3.03714 4.81953 2.90067 5.14345 2.79718 5.48152H1.59685C1.27341 5.48152 1.01221 5.74355 1.01221 6.06652V8.18403C1.01221 8.50605 1.27341 8.76861 1.59685 8.76861H2.79529Z" fill="white"/>
<path d="M21.1381 20.0989C22.0745 19.5853 22.7177 18.6022 22.7177 17.4614C22.7177 15.7965 21.3626 14.4424 19.6978 14.4424C19.1123 14.4424 18.5698 14.6174 18.1062 14.9069C17.8286 16.0119 17.3915 17.0688 16.8198 17.9869C18.4406 18.2916 19.9277 19.0296 21.1381 20.0989Z" fill="white"/>
<path d="M27.3867 16.3188C27.3867 15.9702 27.1035 15.6879 26.7562 15.6879H25.4607C25.3489 15.3228 25.2005 14.9728 25.0246 14.6406L25.9417 13.7235C26.0609 13.6053 26.1268 13.445 26.1268 13.2778C26.1268 13.1105 26.0608 12.9501 25.9417 12.8315L24.3272 11.2166C24.2045 11.0933 24.0423 11.0315 23.8811 11.0315C23.7198 11.0315 23.5585 11.0933 23.4358 11.2166L22.5168 12.1342C22.185 11.9583 21.836 11.8108 21.4695 11.6994V10.4039C21.4695 10.0557 21.1882 9.77344 20.84 9.77344H18.5558C18.4028 9.77344 18.2681 9.8348 18.1582 9.92554C18.3505 10.6274 18.4559 11.3884 18.4559 12.2002C18.4559 12.7155 18.4157 13.2388 18.3405 13.7592C18.7656 13.6025 19.2182 13.504 19.6975 13.504C21.88 13.504 23.6557 15.2793 23.6557 17.4613C23.6557 18.8559 22.9273 20.0781 21.8342 20.7832C22.6295 21.6555 23.2617 22.6904 23.6731 23.8499C23.7409 23.8732 23.8114 23.8902 23.882 23.8902C24.0432 23.8902 24.2045 23.8289 24.3282 23.7056L25.9436 22.0906C26.0619 21.9724 26.1269 21.8121 26.1269 21.6449C26.1269 21.4777 26.0619 21.3174 25.9436 21.1986L25.0246 20.2811C25.2006 19.9494 25.3489 19.5993 25.4608 19.2338H26.7563C26.923 19.2338 27.0852 19.1678 27.2025 19.0486C27.3208 18.9309 27.3877 18.7701 27.3877 18.6029L27.3867 16.3188Z" fill="white"/>
<path d="M22.3869 24.4213C21.4073 21.5392 18.819 19.5569 15.8311 19.2871C14.8305 20.3467 13.5917 21.0189 12.1888 21.0189C10.787 21.0189 9.54729 20.3467 8.54768 19.2871C5.55796 19.5569 2.96951 21.5392 1.98997 24.4218L1.44852 26.0156C1.29364 26.4742 1.3678 26.9795 1.65006 27.373C1.93227 27.7666 2.38676 28.0003 2.87051 28.0003H21.5063C21.991 28.0003 22.4455 27.7666 22.7277 27.373C23.009 26.9795 23.0842 26.4742 22.9283 26.0156L22.3869 24.4213Z" fill="white"/>
<path d="M7.33008 12.2009C7.33008 15.7757 9.50623 19.6116 12.189 19.6116C14.8728 19.6116 17.0488 15.7757 17.0488 12.2009C17.0488 4.79065 7.33008 4.77596 7.33008 12.2009Z" fill="white"/>
</g>
<defs>
<clipPath id="clip0_20_1003">
<rect width="28" height="28" fill="white" transform="translate(0.200195)"/>
</clipPath>
</defs>
</svg>
