<svg width="28" height="28" viewBox="0 0 28 28" fill="none" xmlns="http://www.w3.org/2000/svg">
<path d="M15.0573 6.03625C15.0216 5.3683 14.3389 5.48193 13.6729 5.48193C14.1649 5.61298 14.6303 5.79529 15.0573 6.03625Z" fill="white"/>
<path d="M7.93717 4.3623C5.35143 4.3623 4.16125 7.63517 6.22831 9.28125C6.93296 7.3997 8.33572 6.04868 10.1747 5.51543C9.67163 4.81998 8.85889 4.3623 7.93717 4.3623Z" fill="#024D87"/>
<path d="M2.59534 8.76861C2.70071 9.10675 2.83724 9.43114 2.99944 9.73848L2.15005 10.5883C1.92195 10.8164 1.92195 11.1867 2.15005 11.4152L3.64721 12.9129C3.75625 13.0219 3.90564 13.0833 4.06135 13.0833C4.21534 13.0833 4.36373 13.0219 4.47465 12.9129L5.32309 12.063C5.45042 12.1304 5.59155 12.1717 5.72341 12.2298C5.72341 12.2201 5.72247 12.2101 5.72247 12.2004C5.72247 11.5059 5.80224 10.8508 5.94426 10.2356C4.91987 9.57628 4.23634 8.43189 4.23634 7.1253C4.23634 5.08433 5.89658 3.42362 7.93709 3.42362C9.31878 3.42362 10.5117 4.19282 11.1485 5.31662C11.8284 5.2323 12.467 5.2323 13.2358 5.37756C13.1369 5.07843 13.0205 4.78566 12.8748 4.51125L13.7242 3.66098C13.835 3.55147 13.8963 3.40255 13.8963 3.24773C13.8963 3.09285 13.835 2.94399 13.7242 2.83449L12.2278 1.3378C12.1134 1.22328 11.964 1.16646 11.8147 1.16646C11.6653 1.16646 11.5159 1.22328 11.4023 1.3378L10.5502 2.18807C10.2424 2.02499 9.91894 1.88846 9.57998 1.78538V0.584114C9.57998 0.261612 9.31973 0 8.99628 0H6.87884C6.55722 0 6.29419 0.261612 6.29419 0.584114V1.78532C5.95612 1.8884 5.63261 2.02493 5.32386 2.18801L4.47465 1.33868C4.36007 1.22416 4.21074 1.16734 4.06135 1.16734C3.91201 1.16734 3.7618 1.22416 3.64816 1.33821L2.15005 2.8349C2.04102 2.94488 1.97966 3.09327 1.97966 3.24862C1.97966 3.40391 2.04102 3.55236 2.15005 3.66186L2.99944 4.51166C2.83718 4.81953 2.70071 5.14345 2.59723 5.48152H1.3969C1.07346 5.48152 0.812256 5.74355 0.812256 6.06652V8.18403C0.812256 8.50605 1.07346 8.76861 1.3969 8.76861H2.59534Z" fill="#024D87"/>
<path d="M20.9379 20.0989C21.8744 19.5853 22.5175 18.6022 22.5175 17.4614C22.5175 15.7965 21.1624 14.4424 19.4976 14.4424C18.9121 14.4424 18.3696 14.6174 17.906 14.9069C17.6284 16.0119 17.1914 17.0688 16.6196 17.9869C18.2404 18.2916 19.7275 19.0296 20.9379 20.0989Z" fill="#024D87"/>
<path d="M27.1867 16.3188C27.1867 15.9702 26.9036 15.6879 26.5563 15.6879H25.2608C25.1489 15.3228 25.0005 14.9728 24.8246 14.6406L25.7417 13.7235C25.8609 13.6053 25.9268 13.445 25.9268 13.2778C25.9268 13.1105 25.8608 12.9501 25.7417 12.8315L24.1273 11.2166C24.0045 11.0933 23.8423 11.0315 23.6812 11.0315C23.5198 11.0315 23.3586 11.0933 23.2359 11.2166L22.3169 12.1342C21.9851 11.9583 21.636 11.8108 21.2695 11.6994V10.4039C21.2695 10.0557 20.9882 9.77344 20.64 9.77344H18.3559C18.2028 9.77344 18.0681 9.8348 17.9583 9.92554C18.1506 10.6274 18.256 11.3884 18.256 12.2002C18.256 12.7155 18.2157 13.2388 18.1406 13.7592C18.5657 13.6025 19.0183 13.504 19.4975 13.504C21.68 13.504 23.4557 15.2793 23.4557 17.4613C23.4557 18.8559 22.7273 20.0781 21.6342 20.7832C22.4296 21.6555 23.0618 22.6904 23.4732 23.8499C23.5409 23.8732 23.6115 23.8902 23.682 23.8902C23.8433 23.8902 24.0046 23.8289 24.1283 23.7056L25.7437 22.0906C25.8619 21.9724 25.9269 21.8121 25.9269 21.6449C25.9269 21.4777 25.8619 21.3174 25.7437 21.1986L24.8247 20.2811C25.0006 19.9494 25.149 19.5993 25.2609 19.2338H26.5563C26.7231 19.2338 26.8853 19.1678 27.0026 19.0486C27.1208 18.9309 27.1877 18.7701 27.1877 18.6029L27.1867 16.3188Z" fill="#024D87"/>
<path d="M22.1869 24.4213C21.2074 21.5392 18.619 19.5569 15.6311 19.2871C14.6306 20.3467 13.3918 21.0189 11.9889 21.0189C10.5871 21.0189 9.34733 20.3467 8.34773 19.2871C5.35801 19.5569 2.76956 21.5392 1.79002 24.4218L1.24856 26.0156C1.09369 26.4742 1.16785 26.9795 1.45011 27.373C1.73232 27.7666 2.18681 28.0003 2.67056 28.0003H21.3063C21.791 28.0003 22.2455 27.7666 22.5278 27.373C22.809 26.9795 22.8842 26.4742 22.7284 26.0156L22.1869 24.4213Z" fill="#024D87"/>
<path d="M7.12988 12.2009C7.12988 15.7757 9.30603 19.6116 11.9888 19.6116C14.6726 19.6116 16.8486 15.7757 16.8486 12.2009C16.8487 4.79065 7.12988 4.77596 7.12988 12.2009Z" fill="#024D87"/>
</svg>
