<svg width="27" height="27" viewBox="0 0 27 27" fill="none" xmlns="http://www.w3.org/2000/svg">
<path d="M18.2216 7.64553V19.058C18.2216 21.2512 16.4453 23.0275 14.2521 23.0275C12.0589 23.0275 10.2825 21.2512 10.2825 19.058V6.65315C10.2825 5.28365 11.394 4.17218 12.7635 4.17218C14.133 4.17218 15.2445 5.28365 15.2445 6.65315V17.0732C15.2445 17.619 14.7979 18.0656 14.2521 18.0656C13.7063 18.0656 13.2597 17.619 13.2597 17.0732V7.64553H11.7711V17.0732C11.7711 18.4427 12.8826 19.5542 14.2521 19.5542C15.6216 19.5542 16.7331 18.4427 16.7331 17.0732V6.65315C16.7331 4.45997 14.9567 2.68359 12.7635 2.68359C10.5703 2.68359 8.79395 4.45997 8.79395 6.65315V19.058C8.79395 22.0749 11.2352 24.5161 14.2521 24.5161C17.2689 24.5161 19.7102 22.0749 19.7102 19.058V7.64553H18.2216Z" fill="black" fill-opacity="0.54"/>
</svg>
