<svg width="27" height="27" viewBox="0 0 27 27" fill="none" xmlns="http://www.w3.org/2000/svg">
<path d="M6.68889 8.08889H1.4C1.0287 8.08889 0.672601 7.94139 0.41005 7.67884C0.1475 7.41629 0 7.06019 0 6.68889V1.4C0 1.0287 0.1475 0.672601 0.41005 0.41005C0.672601 0.1475 1.0287 0 1.4 0H6.68889C7.06019 0 7.41629 0.1475 7.67884 0.41005C7.94139 0.672601 8.08889 1.0287 8.08889 1.4V6.68889C8.08889 7.06019 7.94139 7.41629 7.67884 7.67884C7.41629 7.94139 7.06019 8.08889 6.68889 8.08889ZM16.0222 8.08889H10.7333C10.362 8.08889 10.0059 7.94139 9.74338 7.67884C9.48083 7.41629 9.33333 7.06019 9.33333 6.68889V1.4C9.33333 1.0287 9.48083 0.672601 9.74338 0.41005C10.0059 0.1475 10.362 0 10.7333 0H16.0222C16.3935 0 16.7496 0.1475 17.0122 0.41005C17.2747 0.672601 17.4222 1.0287 17.4222 1.4V6.68889C17.4222 7.06019 17.2747 7.41629 17.0122 7.67884C16.7496 7.94139 16.3935 8.08889 16.0222 8.08889ZM6.68889 17.4222H1.4C1.0287 17.4222 0.672601 17.2747 0.41005 17.0122C0.1475 16.7496 0 16.3935 0 16.0222V10.7333C0 10.362 0.1475 10.0059 0.41005 9.74338C0.672601 9.48083 1.0287 9.33333 1.4 9.33333H6.68889C7.06019 9.33333 7.41629 9.48083 7.67884 9.74338C7.94139 10.0059 8.08889 10.362 8.08889 10.7333V16.0222C8.08889 16.3935 7.94139 16.7496 7.67884 17.0122C7.41629 17.2747 7.06019 17.4222 6.68889 17.4222ZM16.0222 17.4222H10.7333C10.362 17.4222 10.0059 17.2747 9.74338 17.0122C9.48083 16.7496 9.33333 16.3935 9.33333 16.0222V10.7333C9.33333 10.362 9.48083 10.0059 9.74338 9.74338C10.0059 9.48083 10.362 9.33333 10.7333 9.33333H16.0222C16.3935 9.33333 16.7496 9.48083 17.0122 9.74338C17.2747 10.0059 17.4222 10.362 17.4222 10.7333V16.0222C17.4222 16.3935 17.2747 16.7496 17.0122 17.0122C16.7496 17.2747 16.3935 17.4222 16.0222 17.4222Z" fill="#024D87"/>
<path d="M16.061 8.08889H10.7721C10.4008 8.08889 10.0447 7.94139 9.78212 7.67884C9.51957 7.41629 9.37207 7.06019 9.37207 6.68889V1.4C9.37207 1.0287 9.51957 0.672601 9.78212 0.41005C10.0447 0.1475 10.4008 0 10.7721 0H16.061C16.4323 0 16.7884 0.1475 17.0509 0.41005C17.3135 0.672601 17.461 1.0287 17.461 1.4V6.68889C17.461 7.06019 17.3135 7.41629 17.0509 7.67884C16.7884 7.94139 16.4323 8.08889 16.061 8.08889ZM25.3943 8.08889H20.1054C19.7341 8.08889 19.378 7.94139 19.1155 7.67884C18.8529 7.41629 18.7054 7.06019 18.7054 6.68889V1.4C18.7054 1.0287 18.8529 0.672601 19.1155 0.41005C19.378 0.1475 19.7341 0 20.1054 0H25.3943C25.7656 0 26.1217 0.1475 26.3842 0.41005C26.6468 0.672601 26.7943 1.0287 26.7943 1.4V6.68889C26.7943 7.06019 26.6468 7.41629 26.3842 7.67884C26.1217 7.94139 25.7656 8.08889 25.3943 8.08889ZM16.061 17.4222H10.7721C10.4008 17.4222 10.0447 17.2747 9.78212 17.0122C9.51957 16.7496 9.37207 16.3935 9.37207 16.0222V10.7333C9.37207 10.362 9.51957 10.0059 9.78212 9.74338C10.0447 9.48083 10.4008 9.33333 10.7721 9.33333H16.061C16.4323 9.33333 16.7884 9.48083 17.0509 9.74338C17.3135 10.0059 17.461 10.362 17.461 10.7333V16.0222C17.461 16.3935 17.3135 16.7496 17.0509 17.0122C16.7884 17.2747 16.4323 17.4222 16.061 17.4222ZM25.3943 17.4222H20.1054C19.7341 17.4222 19.378 17.2747 19.1155 17.0122C18.8529 16.7496 18.7054 16.3935 18.7054 16.0222V10.7333C18.7054 10.362 18.8529 10.0059 19.1155 9.74338C19.378 9.48083 19.7341 9.33333 20.1054 9.33333H25.3943C25.7656 9.33333 26.1217 9.48083 26.3842 9.74338C26.6468 10.0059 26.7943 10.362 26.7943 10.7333V16.0222C26.7943 16.3935 26.6468 16.7496 26.3842 17.0122C26.1217 17.2747 25.7656 17.4222 25.3943 17.4222Z" fill="#024D87"/>
<path d="M6.68889 17.4219H1.4C1.0287 17.4219 0.672601 17.2744 0.41005 17.0118C0.1475 16.7493 0 16.3932 0 16.0219V10.733C0 10.3617 0.1475 10.0056 0.41005 9.74306C0.672601 9.48051 1.0287 9.33301 1.4 9.33301H6.68889C7.06019 9.33301 7.41629 9.48051 7.67884 9.74306C7.94139 10.0056 8.08889 10.3617 8.08889 10.733V16.0219C8.08889 16.3932 7.94139 16.7493 7.67884 17.0118C7.41629 17.2744 7.06019 17.4219 6.68889 17.4219ZM16.0222 17.4219H10.7333C10.362 17.4219 10.0059 17.2744 9.74338 17.0118C9.48083 16.7493 9.33333 16.3932 9.33333 16.0219V10.733C9.33333 10.3617 9.48083 10.0056 9.74338 9.74306C10.0059 9.48051 10.362 9.33301 10.7333 9.33301H16.0222C16.3935 9.33301 16.7496 9.48051 17.0122 9.74306C17.2747 10.0056 17.4222 10.3617 17.4222 10.733V16.0219C17.4222 16.3932 17.2747 16.7493 17.0122 17.0118C16.7496 17.2744 16.3935 17.4219 16.0222 17.4219ZM6.68889 26.7552H1.4C1.0287 26.7552 0.672601 26.6077 0.41005 26.3452C0.1475 26.0826 0 25.7265 0 25.3552V20.0663C0 19.695 0.1475 19.3389 0.41005 19.0764C0.672601 18.8138 1.0287 18.6663 1.4 18.6663H6.68889C7.06019 18.6663 7.41629 18.8138 7.67884 19.0764C7.94139 19.3389 8.08889 19.695 8.08889 20.0663V25.3552C8.08889 25.7265 7.94139 26.0826 7.67884 26.3452C7.41629 26.6077 7.06019 26.7552 6.68889 26.7552ZM16.0222 26.7552H10.7333C10.362 26.7552 10.0059 26.6077 9.74338 26.3452C9.48083 26.0826 9.33333 25.7265 9.33333 25.3552V20.0663C9.33333 19.695 9.48083 19.3389 9.74338 19.0764C10.0059 18.8138 10.362 18.6663 10.7333 18.6663H16.0222C16.3935 18.6663 16.7496 18.8138 17.0122 19.0764C17.2747 19.3389 17.4222 19.695 17.4222 20.0663V25.3552C17.4222 25.7265 17.2747 26.0826 17.0122 26.3452C16.7496 26.6077 16.3935 26.7552 16.0222 26.7552Z" fill="#024D87"/>
<path d="M16.061 17.4219H10.7721C10.4008 17.4219 10.0447 17.2744 9.78212 17.0118C9.51957 16.7493 9.37207 16.3932 9.37207 16.0219V10.733C9.37207 10.3617 9.51957 10.0056 9.78212 9.74306C10.0447 9.48051 10.4008 9.33301 10.7721 9.33301H16.061C16.4323 9.33301 16.7884 9.48051 17.0509 9.74306C17.3135 10.0056 17.461 10.3617 17.461 10.733V16.0219C17.461 16.3932 17.3135 16.7493 17.0509 17.0118C16.7884 17.2744 16.4323 17.4219 16.061 17.4219ZM25.3943 17.4219H20.1054C19.7341 17.4219 19.378 17.2744 19.1155 17.0118C18.8529 16.7493 18.7054 16.3932 18.7054 16.0219V10.733C18.7054 10.3617 18.8529 10.0056 19.1155 9.74306C19.378 9.48051 19.7341 9.33301 20.1054 9.33301H25.3943C25.7656 9.33301 26.1217 9.48051 26.3842 9.74306C26.6468 10.0056 26.7943 10.3617 26.7943 10.733V16.0219C26.7943 16.3932 26.6468 16.7493 26.3842 17.0118C26.1217 17.2744 25.7656 17.4219 25.3943 17.4219ZM16.061 26.7552H10.7721C10.4008 26.7552 10.0447 26.6077 9.78212 26.3452C9.51957 26.0826 9.37207 25.7265 9.37207 25.3552V20.0663C9.37207 19.695 9.51957 19.3389 9.78212 19.0764C10.0447 18.8138 10.4008 18.6663 10.7721 18.6663H16.061C16.4323 18.6663 16.7884 18.8138 17.0509 19.0764C17.3135 19.3389 17.461 19.695 17.461 20.0663V25.3552C17.461 25.7265 17.3135 26.0826 17.0509 26.3452C16.7884 26.6077 16.4323 26.7552 16.061 26.7552ZM25.3943 26.7552H20.1054C19.7341 26.7552 19.378 26.6077 19.1155 26.3452C18.8529 26.0826 18.7054 25.7265 18.7054 25.3552V20.0663C18.7054 19.695 18.8529 19.3389 19.1155 19.0764C19.378 18.8138 19.7341 18.6663 20.1054 18.6663H25.3943C25.7656 18.6663 26.1217 18.8138 26.3842 19.0764C26.6468 19.3389 26.7943 19.695 26.7943 20.0663V25.3552C26.7943 25.7265 26.6468 26.0826 26.3842 26.3452C26.1217 26.6077 25.7656 26.7552 25.3943 26.7552Z" fill="#024D87"/>
</svg>
