<svg width="39" height="43" viewBox="0 0 39 43" fill="none" xmlns="http://www.w3.org/2000/svg">
<path d="M7.76931 42.2504C6.52252 42.2504 5.45762 41.8089 4.57462 40.9259C3.69158 40.0429 3.25006 38.978 3.25006 37.7312V6.0005H0.750061V2.25056H12V0.0390625H27V2.25056H38.2499V6.0005H35.7499V37.7312C35.7499 38.994 35.3124 40.0629 34.4374 40.9379C33.5624 41.8129 32.4935 42.2504 31.2307 42.2504H7.76931ZM32 6.0005H7V37.7312C7 37.9556 7.07212 38.1399 7.21637 38.2841C7.36062 38.4284 7.54494 38.5005 7.76931 38.5005H31.2307C31.423 38.5005 31.5993 38.4204 31.7596 38.2601C31.9199 38.0998 32 37.9235 32 37.7312V6.0005ZM13.0097 33.5005H16.7596V11.0005H13.0097V33.5005ZM22.2404 33.5005H25.9903V11.0005H22.2404V33.5005Z" fill="#DC362E"/>
</svg>
