<svg xmlns="http://www.w3.org/2000/svg" width="188" height="194" viewBox="0 0 188 194" fill="none">
  <g clip-path="url(#clip0_851_12607)">
    <path d="M171.793 69.3716C170.488 62.4611 168.814 55.6254 166.778 48.8938C160.676 29.4128 148.527 9.69901 127.659 3.0704C112.262 -1.82262 95.6295 1.5524 82.6253 11.5155C62.2133 27.1408 47.3571 48.4535 25.0172 61.9941C6.36609 73.2981 -3.39971 91.5546 2.87469 117.361C9.14909 143.167 30.0772 158.22 53.0142 156.358C72.0702 154.84 91.9762 156.464 108.457 165.709C123.171 173.972 149.18 166.797 170.695 144.214C183.228 131.058 182.014 114.33 177.93 98.6741C175.39 89.0449 173.746 79.1678 171.793 69.3716Z" fill="#6494FC"/>
    <path opacity="0.7" d="M169.793 69.3716C168.488 62.4611 166.814 55.6254 164.778 48.8938C158.676 29.4128 146.527 9.69901 125.659 3.0704C110.262 -1.82262 93.6295 1.5524 80.6253 11.5155C60.2133 27.1408 45.3571 48.4535 23.0172 61.9941C4.36609 73.2981 -5.39971 91.5546 0.87469 117.361C7.14909 143.167 28.0772 158.22 51.0142 156.358C70.0702 154.84 89.9762 156.464 106.457 165.709C121.171 173.972 147.18 166.797 168.695 144.214C181.228 131.058 180.014 114.33 175.93 98.6741C173.39 89.0449 171.746 79.1678 169.793 69.3716Z" fill="#FFFFED"/>
    <path d="M19.0898 43.4641V166.63" stroke="#263238" stroke-width="0.506" stroke-linecap="round" stroke-linejoin="round"/>
    <path d="M23.207 44.5874V167.753" stroke="#263238" stroke-width="0.506" stroke-linecap="round" stroke-linejoin="round"/>
    <path d="M117.172 54.3228V177.483" stroke="#263238" stroke-width="0.506" stroke-linecap="round" stroke-linejoin="round"/>
    <path d="M121.285 55.4412V178.607" stroke="#263238" stroke-width="0.506" stroke-linecap="round" stroke-linejoin="round"/>
    <path d="M7.23828 165.456L180.113 184.881" stroke="#263238" stroke-width="0.506" stroke-linecap="round" stroke-linejoin="round"/>
    <path d="M7.23828 107.433L187.126 118.661" stroke="#263238" stroke-width="0.506" stroke-linecap="round" stroke-linejoin="round"/>
    <path d="M153.274 193.944C165.508 193.944 175.426 191.631 175.426 188.777C175.426 185.924 165.508 183.611 153.274 183.611C141.039 183.611 131.121 185.924 131.121 188.777C131.121 191.631 141.039 193.944 153.274 193.944Z" fill="#6494FC"/>
    <path opacity="0.5" d="M153.274 193.944C165.508 193.944 175.426 191.631 175.426 188.777C175.426 185.924 165.508 183.611 153.274 183.611C141.039 183.611 131.121 185.924 131.121 188.777C131.121 191.631 141.039 193.944 153.274 193.944Z" fill="white"/>
    <path d="M135.438 178.966V187.467C135.438 189.683 142.709 191.474 151.68 191.474C160.651 191.474 167.918 189.683 167.918 187.467V178.966H135.438Z" fill="#426078"/>
    <path d="M166.131 177.549C163.181 176.34 157.812 175.525 151.68 175.525C145.547 175.525 140.178 176.335 137.223 177.549H134.805V179.695C134.805 181.997 142.359 183.859 151.68 183.859C161 183.859 168.55 181.997 168.55 179.695V177.549H166.131Z" fill="#6A88A0"/>
    <path d="M151.68 181.714C161 181.714 168.555 179.849 168.555 177.549C168.555 175.249 161 173.385 151.68 173.385C142.36 173.385 134.805 175.249 134.805 177.549C134.805 179.849 142.36 181.714 151.68 181.714Z" fill="#426078"/>
    <path opacity="0.39" d="M166.866 177.286C166.866 179.224 160.06 180.798 151.686 180.798C143.311 180.798 136.48 179.224 136.48 177.286C136.48 175.348 143.286 173.769 151.686 173.769C160.085 173.769 166.866 175.343 166.866 177.286Z" fill="black"/>
    <path opacity="0.39" d="M151.683 180.798C159.913 180.798 166.585 179.536 166.585 177.979C166.585 176.423 159.913 175.161 151.683 175.161C143.453 175.161 136.781 176.423 136.781 177.979C136.781 179.536 143.453 180.798 151.683 180.798Z" fill="black"/>
    <path d="M147.387 115.21C147.387 115.21 147.109 113.692 147.078 113.591C146.729 112.488 145.439 110.484 144.179 110.347C143.978 110.327 143.776 110.353 143.587 110.423C143.398 110.493 143.228 110.606 143.09 110.753C142.952 110.9 142.85 111.077 142.791 111.27C142.732 111.463 142.719 111.666 142.752 111.865C142.843 112.756 143.638 113.596 144.351 114.112C145.191 114.734 147.382 115.21 147.387 115.21Z" fill="#6494FC"/>
    <path d="M149.813 105.439C148.634 105.727 148.047 107.848 148.083 108.981C148.083 109.077 148.311 110.61 148.331 110.6C148.24 110.934 148.138 111.293 148.042 111.688C147.86 112.422 147.668 113.252 147.536 114.178C147.363 115.182 147.251 116.196 147.202 117.214C147.137 118.367 147.176 119.524 147.319 120.67C147.319 120.67 147.319 120.7 147.319 120.71C147.167 120.361 146.701 119.389 146.656 119.319C146.044 118.307 144.303 116.667 143.114 116.865C142.915 116.906 142.729 116.993 142.569 117.117C142.408 117.241 142.278 117.399 142.187 117.581C142.097 117.762 142.049 117.962 142.046 118.165C142.043 118.368 142.087 118.568 142.173 118.752C142.492 119.617 143.453 120.24 144.263 120.558C145.168 120.918 147.192 120.842 147.354 120.832C147.528 122.017 147.776 123.19 148.098 124.343C148.285 125.021 148.493 125.699 148.71 126.367C148.564 126.069 148.437 125.801 148.412 125.765C147.799 124.753 146.059 123.114 144.87 123.316C144.67 123.358 144.483 123.445 144.322 123.57C144.161 123.695 144.031 123.855 143.941 124.038C143.852 124.221 143.805 124.422 143.804 124.625C143.804 124.829 143.85 125.03 143.939 125.214C144.257 126.079 145.219 126.701 146.028 127.02C146.838 127.339 148.558 127.313 149.034 127.298C149.12 127.556 149.201 127.804 149.287 128.078C149.702 129.322 150.122 130.562 150.496 131.792C150.628 132.222 150.744 132.652 150.861 133.082C150.734 132.814 150.623 132.576 150.603 132.576C149.985 131.564 148.25 129.929 147.035 130.127C146.836 130.169 146.649 130.257 146.488 130.382C146.327 130.508 146.197 130.668 146.107 130.852C146.017 131.035 145.971 131.236 145.97 131.44C145.97 131.644 146.016 131.846 146.104 132.029C146.428 132.89 147.39 133.512 148.194 133.831C148.999 134.15 150.572 134.124 151.119 134.109C151.225 134.554 151.331 134.995 151.417 135.425C151.468 135.718 151.534 136.001 151.569 136.3L151.691 137.17C151.746 137.727 151.812 138.299 151.853 138.84C151.883 139.215 151.908 139.574 151.934 139.938C151.807 139.503 151.539 138.663 151.508 138.597C151.062 137.66 150.406 136.837 149.591 136.194C149.545 136.088 149.491 135.987 149.429 135.89C148.923 135.121 147.911 134.787 147.243 135.303C146.292 136.017 146.529 138.294 146.965 139.376C146.99 139.442 147.344 140.11 147.577 140.53C147.405 140.297 147.243 140.075 147.071 139.842C146.722 139.371 146.357 138.916 145.973 138.425L145.386 137.722C145.194 137.484 144.961 137.251 144.753 137.013C144.247 136.472 143.716 135.946 143.17 135.425C143.544 135.162 144.855 134.2 145.229 133.492C145.458 133.108 145.6 132.677 145.644 132.232C145.687 131.787 145.632 131.338 145.482 130.916C145.403 130.718 145.286 130.538 145.137 130.385C144.988 130.233 144.81 130.111 144.614 130.028C144.418 129.944 144.207 129.9 143.994 129.898C143.781 129.896 143.57 129.936 143.372 130.015C142.309 130.562 142.203 132.814 142.481 133.932C142.481 133.998 142.78 134.787 142.947 135.222C142.613 134.909 142.289 134.6 141.935 134.296C140.923 133.416 139.911 132.556 138.899 131.69L137.943 130.896C138.074 130.805 139.658 129.697 140.083 128.902C140.312 128.519 140.453 128.09 140.496 127.645C140.54 127.201 140.485 126.753 140.336 126.332C140.176 125.932 139.864 125.612 139.468 125.442C139.073 125.272 138.626 125.267 138.226 125.426C137.163 125.978 137.057 128.224 137.33 129.343C137.33 129.429 137.766 130.562 137.882 130.861C137.199 130.279 136.521 129.687 135.858 129.079C134.978 128.267 134.149 127.401 133.373 126.489C133.434 126.448 135.094 125.305 135.529 124.465C135.758 124.081 135.9 123.65 135.944 123.205C135.987 122.76 135.932 122.311 135.782 121.889C135.703 121.691 135.586 121.511 135.437 121.358C135.288 121.206 135.11 121.084 134.914 121.001C134.718 120.917 134.507 120.873 134.294 120.871C134.081 120.869 133.87 120.909 133.672 120.988C132.609 121.535 132.503 123.787 132.776 124.905C132.776 124.976 133.11 125.841 133.282 126.251L133.222 126.281C132.468 125.349 131.791 124.358 131.198 123.316C130.864 122.749 130.57 122.188 130.302 121.641C130.636 121.464 132.154 120.629 132.63 119.951C132.903 119.603 133.094 119.196 133.186 118.763C133.279 118.33 133.272 117.882 133.166 117.452C133.041 117.038 132.76 116.689 132.382 116.479C132.004 116.269 131.559 116.215 131.142 116.328C130.014 116.748 129.659 118.944 129.816 120.073C129.816 120.133 129.978 120.756 130.095 121.206C129.973 120.958 129.847 120.7 129.74 120.462C129.325 119.562 129.002 118.717 128.728 117.968C128.571 117.543 128.435 117.153 128.313 116.789C128.531 116.429 129.391 114.967 129.472 114.122C129.54 113.664 129.512 113.197 129.391 112.751C129.27 112.304 129.058 111.887 128.769 111.526C128.131 110.868 127.104 110.757 126.563 111.42C125.814 112.341 126.527 114.567 127.175 115.554C127.236 115.64 128.253 116.89 128.263 116.87C128.374 117.224 128.496 117.598 128.637 118.008C128.905 118.762 129.214 119.617 129.609 120.538C130.027 121.527 130.499 122.494 131.021 123.432C131.601 124.497 132.268 125.513 133.014 126.468L133.045 126.504C132.731 126.276 131.835 125.664 131.764 125.623C130.752 125.067 128.48 124.566 127.656 125.421C127.064 126.033 127.276 127.06 127.985 127.642C128.363 127.897 128.792 128.069 129.242 128.147C129.692 128.224 130.153 128.206 130.595 128.093C131.496 127.911 133.014 126.706 133.125 126.61C133.913 127.571 134.758 128.483 135.655 129.343C136.161 129.849 136.708 130.355 137.249 130.825L136.688 130.446C135.676 129.889 133.404 129.388 132.579 130.243C131.987 130.855 132.2 131.883 132.908 132.465C133.286 132.721 133.715 132.893 134.165 132.971C134.615 133.049 135.077 133.029 135.519 132.915C136.328 132.748 137.649 131.756 137.993 131.483C138.201 131.67 138.408 131.857 138.621 132.039C139.633 132.925 140.645 133.805 141.601 134.691C141.945 135.005 142.269 135.328 142.613 135.647L142.107 135.318C141.095 134.762 138.828 134.261 138.003 135.116C137.406 135.728 137.624 136.755 138.332 137.337C138.71 137.593 139.137 137.766 139.587 137.843C140.036 137.921 140.497 137.902 140.938 137.788C141.712 137.631 142.962 136.725 143.352 136.406C143.681 136.74 144.004 137.079 144.308 137.418C144.51 137.651 144.718 137.864 144.91 138.111L145.482 138.825C145.831 139.29 146.195 139.771 146.529 140.232C146.762 140.55 146.975 140.859 147.192 141.168C146.858 140.854 146.18 140.247 146.13 140.206C145.178 139.503 142.992 138.688 142.031 139.376C141.338 139.882 141.404 140.894 142.031 141.583C142.376 141.891 142.781 142.125 143.221 142.269C143.661 142.414 144.126 142.466 144.586 142.423C145.497 142.382 147.147 141.492 147.349 141.38C147.708 141.886 148.052 142.392 148.361 142.898C149.469 144.553 150.335 145.97 150.927 146.946L150.987 147.047L151.756 146.764L151.635 146.567C151.013 145.555 150.117 144.153 148.958 142.519C148.594 142.013 148.194 141.446 147.779 140.879C148.209 140.462 148.608 140.014 148.973 139.538C149.923 139.899 150.917 140.131 151.928 140.227C151.969 140.829 151.999 141.411 152.025 141.957C152.1 143.855 152.095 145.433 152.075 146.511V146.582L152.92 146.268C152.92 145.17 152.875 143.683 152.763 141.922C152.728 141.314 152.677 140.662 152.617 139.994C152.849 139.963 154.762 139.685 155.481 139.189C156.199 138.693 156.827 137.97 156.801 137.084C156.794 136.649 156.621 136.234 156.317 135.922C156.013 135.611 155.602 135.427 155.167 135.409C153.922 135.409 152.88 137.322 152.672 138.405C152.672 138.466 152.606 139.179 152.581 139.635C152.581 139.361 152.536 139.093 152.505 138.815C152.45 138.258 152.379 137.707 152.303 137.11L152.166 136.239C152.126 135.946 152.045 135.642 151.989 135.339C151.837 134.64 151.65 133.937 151.448 133.229C151.954 133.229 153.629 133.229 154.357 132.885C155.086 132.54 155.875 131.903 156.007 131.038C156.06 130.606 155.945 130.17 155.686 129.821C155.427 129.471 155.044 129.235 154.615 129.16C153.36 128.993 152.025 130.678 151.655 131.69C151.63 131.756 151.453 132.525 151.362 132.95C151.235 132.525 151.114 132.1 150.972 131.675C150.567 130.441 150.122 129.201 149.682 127.966C149.545 127.587 149.419 127.207 149.287 126.828C149.454 126.828 151.483 126.863 152.323 126.484C153.047 126.15 153.841 125.507 153.968 124.642C154.021 124.21 153.906 123.774 153.647 123.425C153.388 123.076 153.005 122.839 152.576 122.765C151.321 122.592 149.985 124.283 149.616 125.295C149.591 125.37 149.333 126.479 149.282 126.762C148.989 125.927 148.71 125.097 148.462 124.267C148.129 123.154 147.864 122.022 147.668 120.877C147.749 120.877 149.869 120.923 150.704 120.538C151.428 120.199 152.222 119.556 152.348 118.691C152.403 118.259 152.289 117.823 152.029 117.473C151.77 117.124 151.386 116.887 150.957 116.814C149.702 116.642 148.366 118.332 147.997 119.344C147.972 119.41 147.779 120.255 147.693 120.66H147.622C147.458 119.524 147.394 118.376 147.43 117.229C147.43 116.606 147.491 116.009 147.552 115.438C147.951 115.483 149.773 115.691 150.588 115.438C151.402 115.185 152.237 114.648 152.445 113.808C152.543 113.386 152.474 112.942 152.251 112.57C152.028 112.198 151.669 111.927 151.25 111.815C150.011 111.506 148.478 113.004 147.997 113.965C147.972 114.016 147.764 114.582 147.622 114.977C147.653 114.719 147.678 114.471 147.713 114.203C147.84 113.277 148.012 112.442 148.174 111.703C148.27 111.288 148.366 110.909 148.457 110.56C148.847 110.408 150.426 109.76 150.962 109.153C151.273 108.843 151.507 108.465 151.647 108.049C151.786 107.632 151.827 107.189 151.767 106.755C151.68 106.322 151.426 105.942 151.06 105.696C150.695 105.449 150.247 105.357 149.813 105.439Z" fill="#FFFFD8"/>
    <path d="M127.12 122.249C128.101 122.319 130.064 121.53 130.064 121.53C130.064 121.53 129.007 120.321 128.916 120.27C128.04 119.471 125.936 118.403 124.868 118.98C124.114 119.395 124.058 120.412 124.61 121.145C124.931 121.491 125.319 121.766 125.751 121.956C126.182 122.146 126.648 122.245 127.12 122.249Z" fill="#6494FC"/>
    <g opacity="0.3">
      <path d="M140.387 115.21C140.387 115.21 140.109 113.692 140.078 113.591C139.729 112.488 138.439 110.484 137.179 110.347C136.978 110.327 136.776 110.353 136.587 110.423C136.398 110.493 136.228 110.606 136.09 110.753C135.952 110.9 135.85 111.077 135.791 111.27C135.732 111.463 135.719 111.666 135.752 111.865C135.843 112.756 136.638 113.596 137.351 114.112C138.191 114.734 140.382 115.21 140.387 115.21Z" fill="white"/>
      <path d="M148.813 105.439C147.634 105.727 147.047 107.848 147.083 108.981C147.083 109.077 147.311 110.61 147.331 110.6C147.24 110.934 147.138 111.293 147.042 111.688C146.86 112.422 146.668 113.252 146.536 114.178C146.363 115.182 146.251 116.196 146.202 117.214C146.137 118.367 146.176 119.524 146.319 120.67C146.319 120.67 146.319 120.7 146.319 120.71C146.167 120.361 145.701 119.389 145.656 119.319C145.044 118.307 143.303 116.667 142.114 116.865C141.915 116.906 141.729 116.993 141.569 117.117C141.408 117.241 141.278 117.399 141.187 117.581C141.097 117.762 141.049 117.962 141.046 118.165C141.043 118.368 141.087 118.568 141.173 118.752C141.492 119.617 142.453 120.24 143.263 120.558C144.168 120.918 146.192 120.842 146.354 120.832C146.528 122.017 146.776 123.19 147.098 124.343C147.285 125.021 147.493 125.699 147.71 126.367C147.564 126.069 147.437 125.801 147.412 125.765C146.799 124.753 145.059 123.114 143.87 123.316C143.67 123.358 143.483 123.445 143.322 123.57C143.161 123.695 143.031 123.855 142.941 124.038C142.852 124.221 142.805 124.422 142.804 124.625C142.804 124.829 142.85 125.03 142.939 125.214C143.257 126.079 144.219 126.701 145.028 127.02C145.838 127.339 147.558 127.313 148.034 127.298C148.12 127.556 148.201 127.804 148.287 128.078C148.702 129.322 149.122 130.562 149.496 131.792C149.628 132.222 149.744 132.652 149.861 133.082C149.734 132.814 149.623 132.576 149.603 132.576C148.985 131.564 147.25 129.929 146.035 130.127C145.836 130.169 145.649 130.257 145.488 130.382C145.327 130.508 145.197 130.668 145.107 130.852C145.017 131.035 144.971 131.236 144.97 131.44C144.97 131.644 145.016 131.846 145.104 132.029C145.428 132.89 146.39 133.512 147.194 133.831C147.999 134.15 149.572 134.124 150.119 134.109C150.225 134.554 150.331 134.995 150.417 135.425C150.468 135.718 150.534 136.001 150.569 136.3L150.691 137.17C150.746 137.727 150.812 138.299 150.853 138.84C150.883 139.215 150.908 139.574 150.934 139.938C150.807 139.503 150.539 138.663 150.508 138.597C150.062 137.66 149.406 136.837 148.591 136.194C148.545 136.088 148.491 135.987 148.429 135.89C147.923 135.121 146.911 134.787 146.243 135.303C145.292 136.017 145.529 138.294 145.965 139.376C145.99 139.442 146.344 140.11 146.577 140.53C146.405 140.297 146.243 140.075 146.071 139.842C145.722 139.371 145.357 138.916 144.973 138.425L144.386 137.722C144.194 137.484 143.961 137.251 143.753 137.013C143.247 136.472 142.716 135.946 142.17 135.425C142.544 135.162 143.855 134.2 144.229 133.492C144.458 133.108 144.6 132.677 144.644 132.232C144.687 131.787 144.632 131.338 144.482 130.916C144.403 130.718 144.286 130.538 144.137 130.385C143.988 130.233 143.81 130.111 143.614 130.028C143.418 129.944 143.207 129.9 142.994 129.898C142.781 129.896 142.57 129.936 142.372 130.015C141.309 130.562 141.203 132.814 141.481 133.932C141.481 133.998 141.78 134.787 141.947 135.222C141.613 134.909 141.289 134.6 140.935 134.296C139.923 133.416 138.911 132.556 137.899 131.69L136.943 130.896C137.074 130.805 138.658 129.697 139.083 128.902C139.312 128.519 139.453 128.09 139.496 127.645C139.54 127.201 139.485 126.753 139.336 126.332C139.176 125.932 138.864 125.612 138.468 125.442C138.073 125.272 137.626 125.267 137.226 125.426C136.163 125.978 136.057 128.224 136.33 129.343C136.33 129.429 136.766 130.562 136.882 130.861C136.199 130.279 135.521 129.687 134.858 129.079C133.978 128.267 133.149 127.401 132.373 126.489C132.434 126.448 134.094 125.305 134.529 124.465C134.758 124.081 134.9 123.65 134.944 123.205C134.987 122.76 134.932 122.311 134.782 121.889C134.703 121.691 134.586 121.511 134.437 121.358C134.288 121.206 134.11 121.084 133.914 121.001C133.718 120.917 133.507 120.873 133.294 120.871C133.081 120.869 132.87 120.909 132.672 120.988C131.609 121.535 131.503 123.787 131.776 124.905C131.776 124.976 132.11 125.841 132.282 126.251L132.222 126.281C131.468 125.349 130.791 124.358 130.198 123.316C129.864 122.749 129.57 122.188 129.302 121.641C129.636 121.464 131.154 120.629 131.63 119.951C131.903 119.603 132.094 119.196 132.186 118.763C132.279 118.33 132.272 117.882 132.166 117.452C132.041 117.038 131.76 116.689 131.382 116.479C131.004 116.269 130.559 116.215 130.142 116.328C129.014 116.748 128.659 118.944 128.816 120.073C128.816 120.133 128.978 120.756 129.095 121.206C128.973 120.958 128.847 120.7 128.74 120.462C128.325 119.562 128.002 118.717 127.728 117.968C127.571 117.543 127.435 117.153 127.313 116.789C127.531 116.429 128.391 114.967 128.472 114.122C128.54 113.664 128.512 113.197 128.391 112.751C128.27 112.304 128.058 111.887 127.769 111.526C127.131 110.868 126.104 110.757 125.563 111.42C124.814 112.341 125.527 114.567 126.175 115.554C126.236 115.64 127.253 116.89 127.263 116.87C127.374 117.224 127.496 117.598 127.637 118.008C127.905 118.762 128.214 119.617 128.609 120.538C129.027 121.527 129.499 122.494 130.021 123.432C130.601 124.497 131.268 125.513 132.014 126.468L132.045 126.504C131.731 126.276 130.835 125.664 130.764 125.623C129.752 125.067 127.48 124.566 126.656 125.421C126.064 126.033 126.276 127.06 126.985 127.642C127.363 127.897 127.792 128.069 128.242 128.147C128.692 128.224 129.153 128.206 129.595 128.093C130.496 127.911 132.014 126.706 132.125 126.61C132.913 127.571 133.758 128.483 134.655 129.343C135.161 129.849 135.708 130.355 136.249 130.825L135.688 130.446C134.676 129.889 132.404 129.388 131.579 130.243C130.987 130.855 131.2 131.883 131.908 132.465C132.286 132.721 132.715 132.893 133.165 132.971C133.615 133.049 134.077 133.029 134.519 132.915C135.328 132.748 136.649 131.756 136.993 131.483C137.201 131.67 137.408 131.857 137.621 132.039C138.633 132.925 139.645 133.805 140.601 134.691C140.945 135.005 141.269 135.328 141.613 135.647L141.107 135.318C140.095 134.762 137.828 134.261 137.003 135.116C136.406 135.728 136.624 136.755 137.332 137.337C137.71 137.593 138.137 137.766 138.587 137.843C139.036 137.921 139.497 137.902 139.938 137.788C140.712 137.631 141.962 136.725 142.352 136.406C142.681 136.74 143.004 137.079 143.308 137.418C143.51 137.651 143.718 137.864 143.91 138.111L144.482 138.825C144.831 139.29 145.195 139.771 145.529 140.232C145.762 140.55 145.975 140.859 146.192 141.168C145.858 140.854 145.18 140.247 145.13 140.206C144.178 139.503 141.992 138.688 141.031 139.376C140.338 139.882 140.404 140.894 141.031 141.583C141.376 141.891 141.781 142.125 142.221 142.269C142.661 142.414 143.126 142.466 143.586 142.423C144.497 142.382 146.147 141.492 146.349 141.38C146.708 141.886 147.052 142.392 147.361 142.898C148.469 144.553 149.335 145.97 149.927 146.946L149.987 147.047L150.756 146.764L150.635 146.567C150.013 145.555 149.117 144.153 147.958 142.519C147.594 142.013 147.194 141.446 146.779 140.879C147.209 140.462 147.608 140.014 147.973 139.538C148.923 139.899 149.917 140.131 150.928 140.227C150.969 140.829 150.999 141.411 151.025 141.957C151.1 143.855 151.095 145.433 151.075 146.511V146.582L151.92 146.268C151.92 145.17 151.875 143.683 151.763 141.922C151.728 141.314 151.677 140.662 151.617 139.994C151.849 139.963 153.762 139.685 154.481 139.189C155.199 138.693 155.827 137.97 155.801 137.084C155.794 136.649 155.621 136.234 155.317 135.922C155.013 135.611 154.602 135.427 154.167 135.409C152.922 135.409 151.88 137.322 151.672 138.405C151.672 138.466 151.606 139.179 151.581 139.635C151.581 139.361 151.536 139.093 151.505 138.815C151.45 138.258 151.379 137.707 151.303 137.11L151.166 136.239C151.126 135.946 151.045 135.642 150.989 135.339C150.837 134.64 150.65 133.937 150.448 133.229C150.954 133.229 152.629 133.229 153.357 132.885C154.086 132.54 154.875 131.903 155.007 131.038C155.06 130.606 154.945 130.17 154.686 129.821C154.427 129.471 154.044 129.235 153.615 129.16C152.36 128.993 151.025 130.678 150.655 131.69C150.63 131.756 150.453 132.525 150.362 132.95C150.235 132.525 150.114 132.1 149.972 131.675C149.567 130.441 149.122 129.201 148.682 127.966C148.545 127.587 148.419 127.207 148.287 126.828C148.454 126.828 150.483 126.863 151.323 126.484C152.047 126.15 152.841 125.507 152.968 124.642C153.021 124.21 152.906 123.774 152.647 123.425C152.388 123.076 152.005 122.839 151.576 122.765C150.321 122.592 148.985 124.283 148.616 125.295C148.591 125.37 148.333 126.479 148.282 126.762C147.989 125.927 147.71 125.097 147.462 124.267C147.129 123.154 146.864 122.022 146.668 120.877C146.749 120.877 148.869 120.923 149.704 120.538C150.428 120.199 151.222 119.556 151.348 118.691C151.403 118.259 151.289 117.823 151.029 117.473C150.77 117.124 150.386 116.887 149.957 116.814C148.702 116.642 147.366 118.332 146.997 119.344C146.972 119.41 146.779 120.255 146.693 120.66H146.622C146.458 119.524 146.394 118.376 146.43 117.229C146.43 116.606 146.491 116.009 146.552 115.438C146.951 115.483 148.773 115.691 149.588 115.438C150.402 115.185 151.237 114.648 151.445 113.808C151.543 113.386 151.474 112.942 151.251 112.57C151.028 112.198 150.669 111.927 150.25 111.815C149.011 111.506 147.478 113.004 146.997 113.965C146.972 114.016 146.764 114.582 146.622 114.977C146.653 114.719 146.678 114.471 146.713 114.203C146.84 113.277 147.012 112.442 147.174 111.703C147.27 111.288 147.366 110.909 147.457 110.56C147.847 110.408 149.426 109.76 149.962 109.153C150.273 108.843 150.507 108.465 150.647 108.049C150.786 107.632 150.827 107.189 150.767 106.755C150.68 106.322 150.426 105.942 150.06 105.696C149.695 105.449 149.247 105.357 148.813 105.439Z" fill="white"/>
      <path d="M120.12 122.249C121.101 122.319 123.064 121.53 123.064 121.53C123.064 121.53 122.007 120.321 121.916 120.27C121.04 119.471 118.936 118.403 117.868 118.98C117.114 119.395 117.058 120.412 117.61 121.145C117.931 121.491 118.319 121.766 118.751 121.956C119.182 122.146 119.648 122.245 120.12 122.249Z" fill="white"/>
    </g>
    <path d="M147.885 142.711C147.885 142.711 153.835 129.049 157.17 130.026C160.505 131.002 151.457 152.29 151.457 152.29C151.457 152.29 161.931 133.704 169.076 134.504C176.221 135.303 166.455 156.049 157.408 162.334C157.408 162.334 171.692 148.545 180.026 152.806C188.36 157.066 163.358 169.863 163.358 169.863C163.358 169.863 177.881 166.913 176.216 170.263C174.551 173.612 155.353 173.238 155.353 173.238L151.346 172.904C151.346 172.904 134.142 170.232 132.411 159.748C131.718 155.558 143.837 164.15 143.837 164.15C143.837 164.15 130.266 147.594 132.887 142.281C135.508 136.968 147.171 154.071 147.171 154.071C147.171 154.071 137.649 132.819 139.551 129.509C141.454 126.2 147.885 142.711 147.885 142.711Z" fill="#FFC107"/>
    <g opacity="0.3">
      <path d="M149.885 142.711C149.885 142.711 155.835 129.049 159.17 130.026C162.505 131.002 153.457 152.29 153.457 152.29C153.457 152.29 163.931 133.704 171.076 134.504C178.221 135.303 168.455 156.049 159.408 162.334C159.408 162.334 173.692 148.545 182.026 152.806C190.36 157.066 165.358 169.863 165.358 169.863C165.358 169.863 179.881 166.913 178.216 170.263C176.551 173.613 157.353 173.238 157.353 173.238L153.346 172.904C153.346 172.904 136.142 170.233 134.411 159.748C133.718 155.559 145.837 164.15 145.837 164.15C145.837 164.15 132.266 147.594 134.887 142.281C137.508 136.968 149.171 154.071 149.171 154.071C149.171 154.071 139.649 132.819 141.551 129.51C143.454 126.2 149.885 142.711 149.885 142.711Z" fill="white"/>
    </g>
    <path d="M145.984 143.258C151.221 159.318 151.221 170.268 151.221 170.268C151.221 170.268 145.028 169.812 138.602 164.332" stroke="#263238" stroke-width="0.506" stroke-linecap="round" stroke-linejoin="round"/>
    <path d="M148.598 151.885C149.666 147.41 151.1 143.03 152.883 138.79" stroke="#263238" stroke-width="0.506" stroke-linecap="round" stroke-linejoin="round"/>
    <path d="M164.079 144.558L150.746 162.824C150.746 162.824 141.698 154.192 138.602 149.562" stroke="#263238" stroke-width="0.506" stroke-linecap="round" stroke-linejoin="round"/>
    <path d="M150.984 167.621C150.984 167.621 165.031 162.531 170.744 159.358" stroke="#263238" stroke-width="0.506" stroke-linecap="round" stroke-linejoin="round"/>
    <path d="M151.22 170.268C151.22 170.268 151.129 174.685 151.164 176.487" stroke="#263238" stroke-width="0.506" stroke-linecap="round" stroke-linejoin="round"/>
    <path d="M178.266 109.355L76.3881 105.596C75.554 105.564 74.7645 105.211 74.1852 104.61C73.606 104.009 73.282 103.207 73.2813 102.373V28.4308C73.2807 27.5957 73.6043 26.7931 74.1838 26.1918C74.7633 25.5906 75.5536 25.2377 76.3881 25.2076L178.266 21.4379C178.699 21.4223 179.131 21.494 179.536 21.6489C179.941 21.8039 180.311 22.0387 180.623 22.3395C180.935 22.6403 181.183 23.0009 181.353 23.3998C181.523 23.7986 181.61 24.2276 181.611 24.6611V106.127C181.612 106.561 181.525 106.991 181.356 107.391C181.187 107.791 180.938 108.152 180.626 108.454C180.314 108.755 179.944 108.99 179.538 109.145C179.133 109.3 178.7 109.372 178.266 109.355Z" fill="#263238" stroke="#263238" stroke-width="0.763949" stroke-linecap="round" stroke-linejoin="round"/>
    <path d="M177.184 105.707L76.0195 102.064V29.1798L177.184 25.5366V105.707Z" fill="white"/>
    <mask id="mask0_851_12607" style="mask-type:luminance" maskUnits="userSpaceOnUse" x="76" y="25" width="102" height="81">
      <path d="M177.188 105.707L76.0234 102.064V29.1798L177.188 25.5366V105.707Z" fill="white"/>
    </mask>
    <g mask="url(#mask0_851_12607)">
      <path d="M118.435 33.4603C118.435 33.4603 115.399 31.7753 114.195 34.8568C112.99 37.9384 113.689 40.4228 110.546 44.6732C107.404 48.9236 108.259 54.2872 111.649 57.7887C115.04 61.2903 119.113 61.6445 122.164 61.3712C125.215 61.098 125.301 61.8772 128.013 62.2618C130.726 62.6463 130.726 62.9095 132.679 61.9025C134.632 60.8956 136.727 60.1619 137.678 54.7831C138.629 49.4043 134.202 40.6151 129.628 36.4001C125.053 32.1851 123.014 32.3521 121.658 32.8581C120.746 33.2568 119.934 33.8531 119.28 34.6038L118.435 33.4603Z" fill="#263238" stroke="#263238" stroke-width="0.506" stroke-linecap="round" stroke-linejoin="round"/>
      <path d="M118.405 59.4838C118.018 59.5112 117.63 59.4976 117.246 59.4434" stroke="white" stroke-width="0.3795" stroke-linecap="round" stroke-linejoin="round"/>
      <path d="M117.279 38.9858C117.279 38.9858 114.577 39.4362 113.676 44.1673C112.775 48.8984 113.448 51.8231 112.998 54.5302C112.704 56.3012 113.767 57.976 115.422 58.8565" stroke="white" stroke-width="0.3795" stroke-linecap="round" stroke-linejoin="round"/>
      <path d="M110.523 54.0444C110.698 54.3968 110.928 54.7181 111.207 54.9957" stroke="white" stroke-width="0.3795" stroke-linecap="round" stroke-linejoin="round"/>
      <path d="M117.501 37.1843C116.407 37.2337 115.358 37.6323 114.507 38.3217C113.656 39.0111 113.049 39.9549 112.774 41.0147C111.646 44.8401 112.997 45.0627 111.196 48.6705C110.524 49.875 110.175 51.233 110.184 52.6123" stroke="white" stroke-width="0.3795" stroke-linecap="round" stroke-linejoin="round"/>
      <path d="M116.499 47.9471C116.499 47.9471 114.212 45.7966 113.969 47.5676C113.888 48.4134 114.015 49.2662 114.339 50.0514C114.664 50.8366 115.176 51.5301 115.832 52.071C116.935 52.8908 117.613 52.577 117.613 52.577L116.499 47.9471Z" fill="white" stroke="#263238" stroke-width="0.506" stroke-linecap="round" stroke-linejoin="round"/>
      <path d="M75.0312 92.1816H83.2234V47.3348H90.6312V80.8725H96.4806V60.2024H101.161V37.9789H105.452V75.0232H108.569V60.2024H111.691V83.3013H117.93V63.7141H142.886V82.8206H149.514V37.1946H152.242V55.527H156.533V28.2283H160.044V73.8543H169.4V82.0414H173.302V45.7764H179.93V108.95H75.0312V92.1816Z" fill="#6CA6FC"/>
      <path opacity="0.7" d="M74.0312 92.1816H82.2234V47.3348H89.6312V80.8725H95.4806V60.2024H100.161V37.9789H104.452V75.0232H107.569V60.2024H110.691V83.3013H116.93V63.7141H141.886V82.8206H148.514V37.1946H151.242V55.527H155.533V28.2283H159.044V73.8543H168.4V82.0414H172.302V45.7764H178.93V108.95H74.0312V92.1816Z" fill="white"/>
      <path d="M128.949 55.2739C128.949 55.2739 127.937 59.5446 129.202 62.4085C130.467 65.2725 133.695 66.7045 136.24 67.681C138.786 68.6576 143.532 67.2003 143.871 71.3748C144.21 75.5493 143.785 83.5796 144.296 87.9312C144.807 92.2828 144.716 95.2429 143.871 98.0815C143.026 100.92 139.884 103.222 139.884 103.222L135.39 98.8405C135.39 98.8405 137.849 93.6237 138.021 90.9166C138.194 88.2095 136.24 90.9975 135.562 92.3182C134.884 93.6388 136.24 100.495 136.24 100.495C136.24 100.495 132.845 107.701 130.133 109.426C127.421 111.152 121.485 109.426 119.279 107.098C117.073 104.771 113.855 98.6837 113.941 96.9784C114.027 95.2732 116.248 91.1341 115.636 90.532C114.629 89.4272 113.825 88.1526 113.263 86.7674C113.263 86.7674 112.585 89.0241 113.005 90.8154C113.5 92.545 114.095 94.2446 114.786 95.9057C113.809 96.0179 112.909 96.4863 112.256 97.2213L109.539 99.9638C109.539 99.9638 106.827 97.2011 106.063 94.3624C105.298 91.5238 106.402 88.3613 106.402 82.1678C106.402 75.9744 105.47 71.1016 107.08 68.8904C108.689 66.6792 112.934 68.0858 116.41 67.0738C119.886 66.0618 121.243 64.6046 122.007 62.1859C122.458 60.8872 122.63 59.5078 122.513 58.1379C122.513 58.1379 127.927 56.3213 128.949 55.2739Z" fill="#447ED4" stroke="#263238" stroke-width="0.506" stroke-linecap="round" stroke-linejoin="round"/>
      <path d="M116.645 67.0232C119.934 66.0112 121.249 64.5741 121.998 62.2111C122.449 60.9124 122.622 59.533 122.504 58.1631C122.504 58.1631 127.928 56.3162 128.95 55.2688C128.95 55.2688 127.938 59.5394 129.203 62.4034C130.145 64.5185 132.148 65.8493 134.157 66.8005C133.074 68.6424 130.109 72.6803 124.877 72.6145C120.359 72.5588 117.874 69.5532 116.645 67.0232Z" fill="white" stroke="#263238" stroke-width="0.506" stroke-linecap="round" stroke-linejoin="round"/>
      <path d="M120.471 39.8158C120.471 39.8158 122.93 36.4661 125.728 37.6248C128.526 38.7835 132.255 43.6968 132.255 49.4854C132.255 55.2741 126.927 59.8635 123.436 59.9748C121.549 60.0355 117.845 55.35 116.656 51.56C115.466 47.7701 116.008 43.0441 116.767 41.5564C117.098 40.8917 117.644 40.3583 118.316 40.0424C118.988 39.7265 119.748 39.6466 120.471 39.8158Z" fill="white" stroke="#263238" stroke-width="0.506" stroke-linecap="round" stroke-linejoin="round"/>
      <path d="M120.468 39.8156C120.468 39.8156 122.589 38.2976 123.773 39.9826C124.957 41.6675 127.507 47.2943 129.708 53.2549C131.909 59.2156 130.811 61.8569 130.644 62.3629C130.477 62.8689 134.798 62.9145 137.936 58.4971C141.073 54.0797 140.972 50.4264 138.867 45.4828C136.762 40.5392 132.253 30.7683 126.89 29.903C121.526 29.0378 118.753 32.2863 118.414 33.445L120.468 39.8156Z" fill="#263238" stroke="#263238" stroke-width="0.506" stroke-linecap="round" stroke-linejoin="round"/>
      <path d="M135.328 59.8078C135.835 59.8236 136.338 59.7151 136.793 59.492C137.248 59.2689 137.641 58.9378 137.939 58.5276" stroke="white" stroke-width="0.3795" stroke-linecap="round" stroke-linejoin="round"/>
      <path d="M120.66 36.5115C120.66 36.5115 120.66 34.2548 123.813 35.6058C126.965 36.9568 130.795 57.0197 133.497 59.0437" stroke="white" stroke-width="0.3795" stroke-linecap="round" stroke-linejoin="round"/>
      <path d="M124.906 32.3623C126.647 31.8918 128.772 31.9019 130.341 33.8044C133.493 37.6349 133.493 50.4721 135.294 54.0748C137.096 57.6775 139.125 54.5302 139.125 54.5302" stroke="white" stroke-width="0.3795" stroke-linecap="round" stroke-linejoin="round"/>
      <path d="M121.781 33.8044C122.317 33.4472 122.882 33.1374 123.471 32.8784" stroke="white" stroke-width="0.3795" stroke-linecap="round" stroke-linejoin="round"/>
      <path d="M122.418 46.4646C122.418 46.4646 122.676 48.9339 122.418 49.9408C122.16 50.9478 121.234 50.7251 122.079 51.3627C122.924 52.0002 124.199 50.8567 124.199 50.8567" stroke="#263238" stroke-width="0.506" stroke-linecap="round" stroke-linejoin="round"/>
      <path d="M119.539 47.3349C119.539 47.8965 119.726 48.3469 119.959 48.3469C120.192 48.3469 120.384 47.9117 120.384 47.3349C120.384 46.758 120.197 46.3228 119.959 46.2975C119.721 46.2722 119.539 46.7732 119.539 47.3349Z" fill="#263238"/>
      <path d="M125.371 47.4613C125.371 48.023 125.558 48.4733 125.796 48.4733C126.034 48.4733 126.216 48.0382 126.216 47.4613C126.216 46.8845 126.029 46.4493 125.796 46.424C125.563 46.3987 125.371 46.8997 125.371 47.4613Z" fill="#263238"/>
      <path d="M113.264 86.7827C113.264 86.7827 112.667 86.4993 113.178 83.3014C113.689 80.1035 114.109 78.1756 113.942 77.4925C113.648 76.6107 113.311 75.7443 112.93 74.8967" stroke="#263238" stroke-width="0.506" stroke-linecap="round" stroke-linejoin="round"/>
      <path d="M137.68 89.7123C138.184 89.1484 138.571 88.4898 138.819 87.7749C139.066 87.06 139.169 86.303 139.122 85.5479C138.955 83.0179 137.852 80.1438 137.938 79.5518C138.024 78.9598 139.38 76.6575 139.38 76.6575" stroke="#263238" stroke-width="0.506" stroke-linecap="round" stroke-linejoin="round"/>
      <path d="M136.411 96.6041C136.411 96.6041 139.209 96.5737 140.818 97.8438C141.289 98.2112 141.682 98.669 141.974 99.1903C142.266 99.7116 142.451 100.286 142.518 100.88C140.477 102.828 138.605 104.945 136.922 107.21C134.898 110.16 129.711 113.12 129.711 113.12C129.711 113.12 130.815 112.072 128.355 113.474C125.896 114.876 125.137 115.346 125.137 115.346L120.047 115.007C120.047 115.007 120.3 111.88 122.931 110.914C125.562 109.947 128.866 109.684 129.119 109.613C129.372 109.542 134.802 99.9993 135.566 98.4813L136.325 96.9937L136.411 96.6041Z" fill="white" stroke="#263238" stroke-width="0.506" stroke-linecap="round" stroke-linejoin="round"/>
      <path d="M114.787 95.9311C114.787 95.9311 120.313 103.572 122.337 105.641C124.361 107.711 124.361 107.949 124.867 107.974C125.373 107.999 129.957 108.48 130.635 109.623C131.313 110.767 132.755 114.734 132.755 114.734L125.97 114.643C125.792 113.881 125.411 113.181 124.867 112.619C124.021 111.809 122.843 111.496 121.901 110.261C120.96 109.026 120.626 108.5 120.626 108.5C120.626 108.5 111.554 102.428 109.52 99.969C109.53 99.9892 111.908 95.1923 114.787 95.9311Z" fill="white" stroke="#263238" stroke-width="0.506" stroke-linecap="round" stroke-linejoin="round"/>
      <path d="M121.74 70.2517L120.637 72.9942" stroke="#263238" stroke-width="1.58973" stroke-linecap="round" stroke-linejoin="round"/>
      <path d="M118.324 45.2146C118.324 45.2146 119.007 42.715 121.284 43.7826" stroke="#263238" stroke-width="0.506" stroke-linecap="round" stroke-linejoin="round"/>
      <path d="M123.996 43.9447C123.996 43.9447 125.555 42.2446 127.442 44.6734" stroke="#263238" stroke-width="0.506" stroke-linecap="round" stroke-linejoin="round"/>
      <path d="M120.664 53.4775C120.664 53.4775 122.774 55.1372 125 53.5838" stroke="#263238" stroke-width="0.506" stroke-linecap="round" stroke-linejoin="round"/>
    </g>
    <path d="M177.184 105.707L76.0195 102.064V29.1798L177.184 25.5366V105.707Z" stroke="#263238" stroke-width="0.506" stroke-linecap="round" stroke-linejoin="round"/>
    <path d="M171.79 97.9502H164.119C162.895 97.9502 161.902 98.9425 161.902 100.166V101.33C161.902 102.554 162.895 103.547 164.119 103.547H171.79C173.014 103.547 174.006 102.554 174.006 101.33V100.166C174.006 98.9425 173.014 97.9502 171.79 97.9502Z" fill="#263238" stroke="#263238" stroke-width="0.831125" stroke-linecap="round" stroke-linejoin="round"/>
    <path d="M163.711 99.124H164.303V101.872H165.639V102.378H163.711V99.124Z" fill="white"/>
    <path d="M166.674 99.124V102.367H166.082V99.124H166.674Z" fill="white"/>
    <path d="M168.095 102.367L167.043 99.124H167.691L168.131 100.596C168.257 101.006 168.364 101.386 168.45 101.781C168.541 101.384 168.653 100.992 168.784 100.607L169.254 99.124H169.897L168.779 102.367H168.095Z" fill="white"/>
    <path d="M172.058 100.93H170.838V101.882H172.204V102.388H170.246V99.1443H172.133V99.6503H170.838V100.49H172.058V100.93Z" fill="white"/>
    <path d="M49.6253 190.199C61.8599 190.199 71.778 187.886 71.778 185.033C71.778 182.18 61.8599 179.867 49.6253 179.867C37.3907 179.867 27.4727 182.18 27.4727 185.033C27.4727 187.886 37.3907 190.199 49.6253 190.199Z" fill="#6494FC"/>
    <path opacity="0.5" d="M49.6253 190.199C61.8599 190.199 71.778 187.886 71.778 185.033C71.778 182.18 61.8599 179.867 49.6253 179.867C37.3907 179.867 27.4727 182.18 27.4727 185.033C27.4727 187.886 37.3907 190.199 49.6253 190.199Z" fill="white"/>
    <path d="M48.8579 177.59C48.8579 177.59 57.1057 180.297 58.1785 180.489C59.2512 180.681 58.9324 181.81 57.6725 182.629C56.4125 183.449 54.5251 183.697 50.0521 183.07C45.5791 182.442 44.7644 181.622 44.4507 181.744C44.137 181.865 43.378 182.503 42.3103 181.997C41.2426 181.491 40.7316 179.467 41.8043 178.536C42.877 177.605 48.8579 177.59 48.8579 177.59Z" fill="#6494FC" stroke="#263238" stroke-width="0.506" stroke-linecap="round" stroke-linejoin="round"/>
    <path d="M58.8222 181.122C56.3934 183.06 50.0128 182.402 46.83 181.521C45.0893 181.037 43.2714 180.895 41.4766 181.101C41.6453 181.486 41.9397 181.802 42.3115 181.997C43.3791 182.503 44.1381 181.87 44.4518 181.744C44.7656 181.617 45.5853 182.437 50.0533 183.07C54.5212 183.702 56.4137 183.444 57.6736 182.629C58.4124 182.149 58.8222 181.562 58.8222 181.122Z" fill="#263238" stroke="#263238" stroke-width="0.506" stroke-linecap="round" stroke-linejoin="round"/>
    <path d="M43.1243 179.543C44.7445 181.022 46.4938 182.353 48.3513 183.52C50.6839 184.841 51.5036 185.721 50.3752 187.062C49.2469 188.403 48.3513 188.074 43.6961 187.062C41.0601 186.537 38.5426 185.534 36.268 184.102C36.268 184.102 36.0808 184.729 34.5678 184.289C33.0549 183.849 33.1814 182.655 33.5558 181.648C33.9303 180.641 38.7828 177.448 43.1243 179.543Z" fill="#6494FC" stroke="#263238" stroke-width="0.506" stroke-linecap="round" stroke-linejoin="round"/>
    <path d="M50.3698 187.062C50.5203 186.885 50.6478 186.689 50.7493 186.48C50.0661 186.856 49.3025 187.063 48.5229 187.082C46.676 187.107 40.8367 185.276 38.4636 183.92C36.5155 182.806 34.1069 182.837 33.3125 182.882C33.3249 183.225 33.4564 183.554 33.6845 183.81C33.9126 184.067 34.223 184.236 34.5623 184.289C36.0803 184.729 36.2625 184.102 36.2625 184.102C38.5371 185.534 41.0546 186.537 43.6906 187.062C48.3508 188.044 49.2363 188.357 50.3698 187.062Z" fill="#263238" stroke="#263238" stroke-width="0.506" stroke-linecap="round" stroke-linejoin="round"/>
    <path d="M57.1729 113.11C57.1729 113.11 56.6669 120.665 54.906 132.125C53.1451 143.586 48.6063 152.148 48.328 156.494C48.0497 160.841 48.2015 169.403 48.2015 171.168C48.2015 172.934 48.7682 172.363 48.834 173.936C48.8998 175.51 48.834 177.59 48.834 177.59C47.7979 178.094 46.7235 178.515 45.6209 178.85C45.0002 179.015 44.3699 179.142 43.7335 179.229C43.7335 179.229 43.9865 179.735 42.6608 176.522C41.3351 173.309 40.7734 167.702 40.7734 162.227C40.7734 156.753 43.1668 146.987 44.0473 141.446C44.9277 135.905 47.4476 121.712 47.7006 118.777C47.9029 116.789 48.3029 114.826 48.8947 112.918C50.4824 113.142 52.0938 113.142 53.6815 112.918C56.2267 112.543 57.1729 113.11 57.1729 113.11Z" fill="#263238" stroke="#263238" stroke-width="0.506" stroke-linecap="round" stroke-linejoin="round"/>
    <path d="M31.4158 112.23C31.4158 112.23 32.8629 139.366 31.9218 143.774C30.9806 148.181 30.4038 148.94 30.4746 152.654C30.5454 156.368 31.1678 170.915 31.9218 175.196C32.6757 179.477 33.4398 179.669 33.3082 180.803C33.1766 181.936 33.5612 182.756 33.8142 182.943C34.0672 183.13 34.0014 183.889 37.4625 182.629C39.6707 181.816 41.8358 180.891 43.9494 179.856C44.1173 178.541 44.1816 177.215 44.1417 175.889C44.1417 172.929 42.6237 170.728 42.6237 168.461C42.6237 166.194 42.1177 155.993 44.0101 148.874C45.9026 141.755 48.3516 126.458 48.9841 121.985C49.6166 117.512 49.8645 114.997 49.8645 114.997C46.5198 114.948 43.196 114.461 39.9773 113.55C34.6238 112.032 31.2893 111.218 31.1628 111.663C31.1417 111.717 31.1315 111.774 31.1328 111.832C31.1341 111.89 31.1469 111.946 31.1705 111.999C31.194 112.052 31.2278 112.099 31.27 112.139C31.3121 112.179 31.3616 112.209 31.4158 112.23Z" fill="#263238" stroke="#263238" stroke-width="0.506" stroke-linecap="round" stroke-linejoin="round"/>
    <path d="M44.9401 177.144C44.8945 177.883 44.8945 178.399 44.8945 178.399" stroke="white" stroke-width="0.3795" stroke-linecap="round" stroke-linejoin="round"/>
    <path d="M49.9112 119.602C49.9112 119.602 47.2345 133.578 45.7114 143.5C44.1883 153.423 41.5268 163.336 44.5729 172.914C45.0066 173.743 45.1828 174.682 45.0789 175.611" stroke="white" stroke-width="0.3795" stroke-linecap="round" stroke-linejoin="round"/>
    <path d="M78.1992 77.594C78.6124 75.9854 79.1383 74.4078 79.7729 72.873C80.4661 71.4865 82.3029 70.9198 83.4262 70.0394C84.5495 69.1589 85.0656 67.7067 85.5059 68.3999C85.9461 69.0932 85.6324 70.3531 85.1871 70.9299C84.7418 71.5068 84.1751 71.8762 83.8664 72.3164L83.5527 72.7566C83.5527 72.7566 87.96 73.7686 88.9062 74.0165C89.8524 74.2645 92.5544 73.89 91.5475 75.0285C89.9443 76.6043 87.9047 77.662 85.6931 78.0645C84.0749 78.3394 82.476 78.718 80.9063 79.198L79.5199 80.4579L78.1992 77.594Z" fill="white" stroke="#263238" stroke-width="0.506" stroke-linecap="round" stroke-linejoin="round"/>
    <path d="M76.5 78.4135C76.5 78.4135 78.018 77.0878 78.018 77.28C78.018 77.4723 80.6593 81.6873 80.6593 81.6873L78.5847 83.1345L76.5 78.4135Z" fill="white" stroke="#263238" stroke-width="0.506" stroke-linecap="round" stroke-linejoin="round"/>
    <path d="M57.9879 64.1797C58.1802 64.4985 59.5615 66.3859 60.447 72.2403C61.3325 78.0947 64.0346 85.7808 64.0346 85.7808L76.4417 78.1605L79.1488 83.8277C79.1488 83.8277 68.2546 94.7218 64.9808 97.0494C61.707 99.377 59.8145 99.2556 58.2409 97.9349C56.6672 96.6143 57.1074 75.3876 57.1074 72.6805C57.1074 69.9734 57.9879 64.1797 57.9879 64.1797Z" fill="#6494FC" stroke="#263238" stroke-width="0.506" stroke-linecap="round" stroke-linejoin="round"/>
    <path d="M92.2407 73.5662C92.2407 73.5662 92.3065 69.0122 91.7347 69.9129C91.1629 70.8135 91.168 72.4935 91.168 73.5004C91.168 74.5073 92.2407 73.5662 92.2407 73.5662Z" fill="white" stroke="#263238" stroke-width="0.506" stroke-linecap="round" stroke-linejoin="round"/>
    <path d="M91.93 72.2405C91.93 72.2405 93.19 70.4138 93.2507 71.4865C93.3114 72.5592 92.6233 74.5225 91.8693 75.0741C91.5147 75.3835 91.0762 75.5807 90.6094 75.6408L91.93 72.2405Z" fill="white" stroke="#263238" stroke-width="0.506" stroke-linecap="round" stroke-linejoin="round"/>
    <path d="M89.4745 74.2543C89.4745 74.2543 91.4226 70.9198 91.6756 71.6737C91.9286 72.4277 91.3011 74.821 90.6079 75.6408C90.103 76.1801 89.4768 76.5912 88.7812 76.84L89.4745 74.2543Z" fill="white" stroke="#263238" stroke-width="0.506" stroke-linecap="round" stroke-linejoin="round"/>
    <path d="M86.6415 76.7133C86.8287 76.5211 89.7888 70.0392 89.9153 71.5471C90.0418 73.055 89.1563 76.3338 88.7819 76.8398C88.4074 77.3458 86.4492 77.6545 86.4492 77.6545" fill="white"/>
    <path d="M86.6415 76.7133C86.8287 76.5211 89.7888 70.0392 89.9153 71.5471C90.0418 73.055 89.1563 76.3338 88.7819 76.8398C88.4074 77.3458 86.4492 77.6545 86.4492 77.6545" stroke="#263238" stroke-width="0.506" stroke-linecap="round" stroke-linejoin="round"/>
    <path d="M80.3359 77.4673C80.3359 77.4673 80.4017 76.3338 81.9754 75.8329C83.549 75.3319 84.5054 75.7064 84.6167 75.8936" stroke="#263238" stroke-width="0.506" stroke-linecap="round" stroke-linejoin="round"/>
    <path d="M37.899 56.6253C37.899 56.6253 30.6581 61.1793 28.5835 62.2318C26.5089 63.2842 26.3166 63.5524 26.2508 64.9389C26.1851 66.3253 29.9649 95.8555 29.9649 95.8555L27.2578 112.984C27.2578 112.984 41.5523 118.084 44.5124 118.211C47.4725 118.337 49.6786 118.337 49.6786 118.337L51.1966 114.618L52.0164 118.16C52.0164 118.16 54.597 117.219 56.9296 116.136C59.2623 115.053 62.0908 112.235 62.2831 112.295C62.4754 112.356 58.9941 95.476 58.9941 95.476C58.9941 95.476 59.3129 67.14 58.4881 64.7466C57.6633 62.3532 48.0341 58.3254 48.0341 58.3254C46.069 57.7131 44.0725 57.2064 42.0532 56.8074C39.9786 56.514 38.4707 56.3116 37.899 56.6253Z" fill="#6494FC" stroke="#263238" stroke-width="0.506" stroke-linecap="round" stroke-linejoin="round"/>
    <path d="M42.0585 56.8124C39.9789 56.4987 38.4659 56.3064 37.9043 56.6252L37.5703 56.8327L44.7656 81.2472L47.3462 85.1484L49.4259 79.2839C49.4259 79.2839 50.1191 70.0898 50.1191 66.0621C50.1005 63.7167 49.9569 61.374 49.689 59.0439C48.677 58.5935 48.0395 58.3152 48.0395 58.3152C46.074 57.708 44.0775 57.2063 42.0585 56.8124Z" fill="white" stroke="#263238" stroke-width="0.506" stroke-linecap="round" stroke-linejoin="round"/>
    <path d="M42.6875 63.8053L46.0271 67.9595L44.7672 81.2471L47.3478 85.1484C47.3478 85.1484 49.1744 79.2332 49.1744 79.4204C49.1744 79.6077 47.034 67.2764 47.034 67.2764L49.1744 63.4359L46.8468 59.0894L42.6875 63.8053Z" fill="#263238" stroke="#263238" stroke-width="0.506" stroke-linecap="round" stroke-linejoin="round"/>
    <path d="M47.0898 61.2196L50.1157 66.0722L49.9892 57.9458L47.7831 55.8054L47.0898 61.2196Z" fill="white" stroke="#263238" stroke-width="0.506" stroke-linecap="round" stroke-linejoin="round"/>
    <path d="M40.043 46.2977C40.043 46.2977 40.1037 56.2457 40.1037 56.6859C40.1037 57.1261 46.6513 64.3062 46.6513 64.3062L49.237 53.2248C49.237 53.2248 44.3237 51.6512 42.9373 49.6373C41.5508 47.6234 40.3617 45.8575 40.043 46.2977Z" fill="white" stroke="#263238" stroke-width="0.506" stroke-linecap="round" stroke-linejoin="round"/>
    <path d="M39.6614 53.6045L45.5816 60.3394L42.1813 66.9528L37.3945 56.2458L39.6614 53.6045Z" fill="white" stroke="#263238" stroke-width="0.506" stroke-linecap="round" stroke-linejoin="round"/>
    <path d="M45.5842 60.3391L46.6518 64.3061L44.3242 62.859L45.5842 60.3391Z" fill="white" stroke="#263238" stroke-width="0.506" stroke-linecap="round" stroke-linejoin="round"/>
    <path d="M50.1177 84.0149C50.1177 84.0149 49.4852 85.4013 48.038 89.0749C46.5909 92.7485 40.5442 104.543 40.868 104.483C41.1918 104.422 44.0811 103.349 50.315 101.775C56.5489 100.202 59.0688 98.1222 61.022 95.7288C62.9751 93.3354 67.5038 87.5417 67.5038 87.5417C67.5038 87.5417 60.4553 87.6075 56.6754 86.6006C54.3976 85.9931 52.1972 85.1255 50.1177 84.0149Z" fill="white" stroke="#263238" stroke-width="0.253" stroke-linecap="round" stroke-linejoin="round"/>
    <path d="M37.5228 100.956L37.6796 100.738L39.2634 98.5776L37.0117 97.9653L37.5228 100.956Z" fill="white" stroke="#263238" stroke-width="0.506" stroke-linecap="round" stroke-linejoin="round"/>
    <path d="M35.821 101.209L36.8077 100.526L35.5781 100.015L35.821 101.209Z" fill="#6494FC" stroke="#263238" stroke-width="0.506" stroke-linecap="round" stroke-linejoin="round"/>
    <path d="M39.5991 94.8484L41.7445 95.1621C41.7445 95.1621 46.339 90.6081 46.6527 90.6891C46.9664 90.77 54.0859 93.9679 54.2124 94.1552C54.2895 94.3009 54.3298 94.4634 54.3298 94.6283C54.3298 94.7932 54.2895 94.9556 54.2124 95.1014L54.0201 95.4151C54.0201 95.4151 54.4603 96.4271 54.1466 96.7358C53.9559 96.9261 53.7456 97.0957 53.5191 97.2418C53.5191 97.2418 53.6456 97.4897 53.1396 98.0564C52.92 98.3442 52.6402 98.5808 52.3199 98.7496C51.7727 98.9516 51.2009 99.0792 50.6198 99.1291C49.7393 99.1949 47.0322 99.2556 46.0658 99.3821C45.0993 99.5086 44.2391 100.263 42.6655 100.263C41.0918 100.263 39.8976 99.3821 39.3916 99.3821C38.7731 99.3078 38.162 99.1808 37.565 99.0026C37.565 99.0026 36.7655 95.6681 39.5991 94.8484Z" fill="white" stroke="#263238" stroke-width="0.506" stroke-linecap="round" stroke-linejoin="round"/>
    <path d="M47.3438 93.2749L54.0179 95.4153" stroke="#263238" stroke-width="0.506" stroke-linecap="round" stroke-linejoin="round"/>
    <path d="M47.1602 95.7947L53.5206 97.2418" stroke="#263238" stroke-width="0.506" stroke-linecap="round" stroke-linejoin="round"/>
    <path d="M47.0312 97.9958L52.6985 98.1831" stroke="#263238" stroke-width="0.506" stroke-linecap="round" stroke-linejoin="round"/>
    <path d="M37.5854 93.7151L39.6094 94.8485C39.6094 94.8485 38.5974 95.3545 38.0358 97.3026C37.6919 98.4897 37.5215 99.7201 37.5298 100.956L34.9998 99.8225C34.9998 99.8225 33.9979 95.2887 37.5854 93.7151Z" fill="white" stroke="#263238" stroke-width="0.506" stroke-linecap="round" stroke-linejoin="round"/>
    <path d="M33.4908 75.7065L27.7629 89.1813L37.9639 93.8416C37.9639 93.8416 36.1979 96.1692 35.8235 97.8086C35.6056 98.9316 35.6056 100.086 35.8235 101.209C32.3097 100.873 28.8568 100.068 25.5567 98.8156C22.162 97.5042 18.947 95.7683 15.9883 93.6493C15.9883 93.6493 25.0558 66.1988 25.6883 64.5594C26.3208 62.9199 27.1355 63.2994 28.0817 63.6789C29.0279 64.0584 32.4282 67.646 32.8684 70.854" fill="#6494FC"/>
    <path d="M33.4908 75.7065L27.7629 89.1813L37.9639 93.8416C37.9639 93.8416 36.1979 96.1692 35.8235 97.8086C35.6056 98.9316 35.6056 100.086 35.8235 101.209C32.3097 100.873 28.8568 100.068 25.5567 98.8156C22.162 97.5042 18.947 95.7683 15.9883 93.6493C15.9883 93.6493 25.0558 66.1988 25.6883 64.5594C26.3208 62.9199 27.1355 63.2994 28.0817 63.6789C29.0279 64.0584 32.4282 67.646 32.8684 70.854" stroke="#263238" stroke-width="0.506" stroke-linecap="round" stroke-linejoin="round"/>
    <path d="M54.8387 33.2631C54.8387 33.2631 55.0917 36.6635 55.0917 43.5248C55.0917 50.3862 54.272 54.2925 51.7521 54.3583C49.2323 54.4241 43.2513 53.0376 41.7435 51.5247C40.7666 50.4381 40.093 49.1136 39.7903 47.6841C39.7903 47.6841 37.7663 48.1901 36.9567 45.7917C36.1471 43.3933 37.0832 41.8247 38.0244 41.3844C38.9655 40.9442 41.111 41.7032 41.1768 39.4971C41.2425 37.2909 38.9706 35.7172 40.1648 34.0829C41.3589 32.4485 44.9515 31.31 48.4176 31.3758C50.5918 31.4468 52.7222 32.0053 54.6515 33.0101L54.8387 33.2631Z" fill="white" stroke="#263238" stroke-width="0.506" stroke-linecap="round" stroke-linejoin="round"/>
    <path d="M52.6388 40.6306C52.6388 40.6306 53.9595 44.2839 53.833 44.8507C53.7065 45.4174 50.1797 45.3567 50.1797 45.3567" stroke="#263238" stroke-width="0.506" stroke-linecap="round" stroke-linejoin="round"/>
    <path d="M53.0119 47.4919C51.7769 47.7821 50.4833 47.6957 49.2979 47.2439C47.2739 46.4849 46.8438 45.6045 46.8438 45.6045" stroke="#263238" stroke-width="0.506" stroke-linecap="round" stroke-linejoin="round"/>
    <path d="M47.2843 44.9771L46.2773 45.984" stroke="#263238" stroke-width="0.506" stroke-linecap="round" stroke-linejoin="round"/>
    <path d="M47.1484 46.0701C47.1484 46.0701 47.7253 48.3774 48.545 49.1061C49.3647 49.8347 50.4324 47.6589 50.4324 47.6589C50.4324 47.6589 47.7759 46.6975 47.1484 46.0701Z" fill="#263238" stroke="#263238" stroke-width="0.506" stroke-linecap="round" stroke-linejoin="round"/>
    <path d="M50.3369 40.8279C50.3369 41.3845 50.1243 41.8399 49.8663 41.8399C49.6082 41.8399 49.3906 41.3896 49.3906 40.8279C49.3906 40.2663 49.6031 39.8159 49.8663 39.8159C50.1294 39.8159 50.3369 40.2612 50.3369 40.8279Z" fill="#263238"/>
    <path d="M54.497 40.7571C54.497 41.3137 54.2845 41.7691 54.0214 41.7691C53.7582 41.7691 53.5508 41.3188 53.5508 40.7571C53.5508 40.1955 53.7633 39.7451 54.0214 39.7451C54.2794 39.7451 54.497 40.2005 54.497 40.7571Z" fill="#263238"/>
    <path d="M46.3398 38.298C46.3398 38.298 47.2861 36.4714 49.7402 37.1646" stroke="#263238" stroke-width="0.506" stroke-linecap="round" stroke-linejoin="round"/>
    <path d="M52.5078 37.4833C52.5078 37.4833 53.7678 36.2841 54.7089 37.6705" stroke="#263238" stroke-width="0.506" stroke-linecap="round" stroke-linejoin="round"/>
    <path d="M55.543 30.7079C54.2141 29.3157 52.4614 28.4029 50.5589 28.1121C44.2743 27.0091 35.1815 27.3076 36.0367 37.3821C36.2119 39.1078 36.5924 40.8065 37.1701 42.4421C37.4007 42.2197 37.6956 42.076 38.0128 42.0314C38.33 41.9869 38.6532 42.0439 38.936 42.1941C39.8772 42.7608 39.5635 43.955 40.7576 43.5755C41.9518 43.196 41.7696 41.7539 41.7696 40.9949C41.7696 40.2359 44.411 40.8077 44.411 39.4212C44.411 37.8122 41.6178 36.6281 42.8373 34.9229C43.7785 33.6073 45.848 34.3511 47.0624 34.7256C49.056 35.3378 51.0092 35.9653 53.1344 35.9653C54.9864 35.9653 57.6884 35.9147 57.0154 33.4353C56.7541 32.4198 56.2486 31.4835 55.543 30.7079Z" fill="#263238" stroke="#263238" stroke-width="0.506" stroke-linecap="round" stroke-linejoin="round"/>
    <path d="M47.7528 32.3473C47.7528 32.3473 45.4354 30.7534 47.7528 31.6237C50.0703 32.4941 49.2203 33.5212 46.8927 33.9463C44.5651 34.3713 41.6657 32.2006 39.7783 32.6357C37.8909 33.0709 36.8789 35.1 36.8789 35.1" stroke="white" stroke-width="0.3795" stroke-linecap="round" stroke-linejoin="round"/>
    <path d="M37.168 38.8696C37.168 38.8696 39.3134 37.4123 42.825 37.8576" stroke="white" stroke-width="0.3795" stroke-linecap="round" stroke-linejoin="round"/>
  </g>
  <defs>
    <clipPath id="clip0_851_12607">
      <rect width="187" height="194" fill="white" transform="translate(0.5)"/>
    </clipPath>
  </defs>
</svg>