<svg width="80" height="80" viewBox="0 0 80 80" fill="none" xmlns="http://www.w3.org/2000/svg">
<path d="M52.6183 7.09863H48.3126C51.2839 8.44687 53.3543 11.4324 53.3543 14.9078V28.0192H61.1967V15.6772C61.1967 10.9395 57.356 7.09863 52.6183 7.09863ZM18.7959 15.6772V28.0191H26.6383V14.9078C26.6383 11.4324 28.7087 8.44687 31.68 7.09863H27.3743C22.6366 7.09863 18.7959 10.9395 18.7959 15.6772Z" fill="#5F566A"/>
<path d="M78.7877 78.4375H1.21191C1.21191 67.0418 9.13082 57.1928 20.2489 54.7339C41.5736 50.0315 57.3792 54.486 59.7506 54.7339C70.8688 57.1928 78.7877 67.0418 78.7877 78.4375Z" fill="#6CA6FC"/>
<path d="M40.0001 65.7595C32.7533 65.7595 27.5079 59.3216 28.0491 53.3722C32.0152 52.8435 36.0076 52.579 40.0001 52.579C43.9926 52.579 47.9851 52.8433 51.9512 53.3722C52.489 59.285 47.2932 65.7595 40.0001 65.7595Z" fill="#CED7DC"/>
<path d="M48.4513 40.3656V52.5309C48.4513 57.4966 44.7811 61.5203 40.2517 61.5203H39.7485C35.219 61.5203 31.5488 57.4966 31.5488 52.5309V40.3656H48.4513Z" fill="#F8A771"/>
<path d="M57.9927 26.1592C57.9927 39.7368 47.6164 50.7564 39.997 50.7564C32.3776 50.7564 22.001 39.7368 22.001 26.1592C22.001 24.9887 22.0604 23.8436 22.179 22.7236C22.2146 22.3418 22.2621 21.973 22.3093 21.604V21.5912C23.8753 10.1898 31.1946 1.56238 39.997 1.56238C48.799 1.56238 56.1183 10.2026 57.6843 21.604C57.7318 21.973 57.7793 22.3418 57.8147 22.7236C57.9333 23.8436 57.9927 24.9887 57.9927 26.1592Z" fill="#FAB687"/>
<path d="M57.9918 26.1585C57.9918 39.7343 47.616 50.7525 39.9918 50.7525C32.3797 50.7525 22.0039 39.7342 22.0039 26.1585C22.0039 25.2131 22.0403 24.2919 22.1251 23.3949C22.1372 23.1768 22.1494 22.9465 22.1736 22.7282C22.1978 22.498 22.2221 22.2677 22.2463 22.0493C22.2706 21.904 22.2827 21.7463 22.3069 21.6009V21.5888C23.8706 10.195 31.1918 1.56458 39.9918 1.56458C48.8039 1.56458 56.113 10.2069 57.6888 21.6009C57.713 21.7463 57.7251 21.904 57.7372 22.0493C57.7615 22.2677 57.7857 22.4979 57.81 22.7282C57.8342 22.9584 57.8584 23.1768 57.8584 23.4071C57.9555 24.304 57.9918 25.2252 57.9918 26.1585Z" fill="#FAB687"/>
<path d="M47.8339 27.4328C48.98 27.4328 49.9091 26.5037 49.9091 25.3576C49.9091 24.2115 48.98 23.2825 47.8339 23.2825C46.6879 23.2825 45.7588 24.2115 45.7588 25.3576C45.7588 26.5037 46.6879 27.4328 47.8339 27.4328Z" fill="#0F1619"/>
<path d="M57.8583 23.4069C57.8583 23.1767 57.8341 22.9583 57.8098 22.728C57.7856 22.4978 57.7614 22.2675 57.7371 22.0491L53.9189 22.8493C53.6159 22.0977 53.1674 21.407 52.5977 20.8127C51.3856 19.5402 49.7371 18.8249 47.9917 18.7643C45.3129 18.7159 42.9977 20.231 41.9311 22.4492C41.9286 22.4534 41.9272 22.458 41.9249 22.4625C40.6667 21.6585 39.348 21.6382 38.056 22.3977C38.0546 22.3948 38.0537 22.3915 38.0523 22.3885C36.9492 20.1948 34.6705 18.7157 32.0159 18.7642C30.2462 18.8248 28.622 19.5401 27.3977 20.8126C26.828 21.4068 26.3917 22.0976 26.0765 22.8492L22.2462 22.0489C22.222 22.2674 22.1977 22.4976 22.1735 22.7279C22.1492 22.9463 22.1371 23.1765 22.125 23.3945L25.6038 24.8368C25.5795 25.0674 25.5795 25.2854 25.5795 25.5157C25.6644 29.0793 28.5977 31.9522 32.1735 31.9522C32.222 31.9522 32.2705 31.9401 32.3189 31.9401C35.9432 31.8551 38.8401 28.8248 38.7432 25.2128C38.7312 24.5473 38.6223 23.9303 38.4409 23.3372C39.5028 22.6576 40.5004 22.6801 41.5311 23.4083V23.4189C41.3614 23.9886 41.2644 24.5825 41.24 25.2128C41.1673 28.8249 44.0521 31.8552 47.6885 31.9401C47.737 31.9401 47.7855 31.9522 47.834 31.9522C51.3976 31.9522 54.3309 29.0794 54.4159 25.5157C54.4279 25.2856 54.4159 25.0674 54.3917 24.8368L57.8583 23.4069ZM32.2948 30.9342H32.1251C29.1191 30.9342 26.6585 28.4978 26.5736 25.4796C26.5494 24.0008 27.0948 22.5825 28.1251 21.4917C29.1554 20.4252 30.5372 19.807 32.0281 19.7828C32.0766 19.7828 32.1251 19.7706 32.1736 19.7706C35.1918 19.7706 37.6766 22.1949 37.7494 25.2373C37.8221 28.3039 35.3735 30.8613 32.2948 30.9342ZM53.4098 25.4796C53.3371 28.5705 50.7795 31.0434 47.7129 30.9342C44.6341 30.8613 42.1856 28.304 42.2583 25.2372C42.3189 22.1948 44.8159 19.7705 47.8341 19.7705C47.8705 19.7705 47.9189 19.7826 47.9674 19.7826C49.4462 19.8069 50.8401 20.4251 51.8705 21.4916C52.8644 22.5463 53.4098 23.9037 53.4098 25.3464V25.4796Z" fill="#0F1619"/>
<path d="M32.166 27.4328C33.312 27.4328 34.2411 26.5037 34.2411 25.3576C34.2411 24.2115 33.312 23.2825 32.166 23.2825C31.0199 23.2825 30.0908 24.2115 30.0908 25.3576C30.0908 26.5037 31.0199 27.4328 32.166 27.4328Z" fill="#0F1619"/>
<path d="M59.1493 22.5763C56.9676 22.5763 55.0084 25.1592 54.7796 28.2574C54.5578 31.2624 56.0562 33.6333 58.1207 33.6333C60.1852 33.6333 62.1248 31.2625 62.4619 28.2574C62.8097 25.1592 61.3309 22.5763 59.1493 22.5763ZM20.8497 22.5763C18.668 22.5763 17.1893 25.1592 17.537 28.2574C17.8741 31.2624 19.8138 33.6333 21.8782 33.6333C23.9425 33.6333 25.4412 31.2625 25.2193 28.2574C24.9905 25.1592 23.0313 22.5763 20.8497 22.5763Z" fill="#FAB687"/>
<path d="M45.5358 41.8248C44.8476 44.2331 42.5001 45.8125 40.0327 45.8125C37.5708 45.8125 35.1693 44.2255 34.4933 41.8369C34.3115 41.2429 34.7236 40.6248 35.3661 40.6248H44.663C45.2933 40.6248 45.7176 41.2429 45.5358 41.8248Z" fill="#663430"/>
<path d="M42.1658 45.4006C39.9903 46.3319 37.0161 45.6755 35.3779 43.5703C37.6216 42.5686 40.5005 43.1989 42.1658 45.4006Z" fill="#EF4F63"/>
</svg>
