<svg width="27" height="27" viewBox="0 0 27 27" fill="none" xmlns="http://www.w3.org/2000/svg">
<path fill-rule="evenodd" clip-rule="evenodd" d="M7.39466 23.0292C6.68014 23.0292 6.02516 22.6521 5.67782 22.0368L3.33579 17.968C2.97853 17.3527 2.98845 16.5985 3.34571 15.9832L9.63745 5.15629C9.99471 4.55094 10.6497 4.17383 11.3543 4.17383H13.145H13.6765H16.0088C16.7134 4.17383 17.3684 4.55094 17.7256 5.15629L24.0174 15.9832C24.3746 16.5985 24.3846 17.3527 24.0273 17.968L21.6853 22.0368C21.3379 22.6521 20.683 23.0292 19.9684 23.0292H13.6866L13.6765 22.992V23.0292H7.39466ZM13.145 21.0444H13.6765H19.9684L22.3005 16.9856L16.0088 6.1586H13.6866L13.6765 6.12143V6.1586H11.3543L5.06254 16.9856L7.39466 21.0444H13.145ZM8.97255 18.5635L8.24811 17.3031L12.7932 9.38387H13.145H13.6765H14.5698L19.115 17.3031L18.3905 18.5635H13.6765H13.145H8.97255ZM13.145 16.5787H13.6765H16.4058L13.6866 11.8053L13.6765 11.7599V11.8053L10.9573 16.5787H13.145Z" fill="black" fill-opacity="0.54"/>
</svg>
