<svg width="27" height="27" viewBox="0 0 27 27" fill="none" xmlns="http://www.w3.org/2000/svg">
<path d="M13.0331 3.67773C7.55512 3.67773 3.11914 8.12363 3.11914 13.6016C3.11914 19.0796 7.55512 23.5255 13.0331 23.5255C18.521 23.5255 22.9669 19.0796 22.9669 13.6016C22.9669 8.12363 18.521 3.67773 13.0331 3.67773ZM13.043 21.5407C8.65667 21.5407 5.10392 17.988 5.10392 13.6016C5.10392 9.21526 8.65667 5.66251 13.043 5.66251C17.4294 5.66251 20.9821 9.21526 20.9821 13.6016C20.9821 17.988 17.4294 21.5407 13.043 21.5407ZM16.5164 12.6092C17.3401 12.6092 18.005 11.9443 18.005 11.1206C18.005 10.297 17.3401 9.63206 16.5164 9.63206C15.6927 9.63206 15.0278 10.297 15.0278 11.1206C15.0278 11.9443 15.6927 12.6092 16.5164 12.6092ZM9.56966 12.6092C10.3933 12.6092 11.0582 11.9443 11.0582 11.1206C11.0582 10.297 10.3933 9.63206 9.56966 9.63206C8.74598 9.63206 8.08108 10.297 8.08108 11.1206C8.08108 11.9443 8.74598 12.6092 9.56966 12.6092ZM13.043 19.0598C15.3553 19.0598 17.3202 17.6109 18.1141 15.5864H7.97192C8.76583 17.6109 10.7308 19.0598 13.043 19.0598Z" fill="black" fill-opacity="0.54"/>
</svg>
