<svg xmlns="http://www.w3.org/2000/svg" width="21" height="20" viewBox="0 0 21 20" fill="none">
  <path d="M10.6669 12.029C11.685 12.029 12.5105 11.2036 12.5105 10.1854C12.5105 9.16721 11.685 8.3418 10.6669 8.3418C9.64865 8.3418 8.82324 9.16721 8.82324 10.1854C8.82324 11.2036 9.64865 12.029 10.6669 12.029Z" fill="#3A74CA"/>
  <path d="M18.2775 9.62126C17.42 8.29516 16.3075 7.16869 15.0605 6.36337C13.6809 5.47152 12.1578 5 10.656 5C9.27807 5 7.92313 5.39375 6.62878 6.17022C5.30884 6.96193 4.11301 8.11854 3.07436 9.60765C2.95711 9.77594 2.89253 9.9753 2.88884 10.1804C2.88515 10.3855 2.9425 10.587 3.05362 10.7594C3.9095 12.0988 5.01102 13.2269 6.2386 14.0212C7.62077 14.9166 9.10826 15.3703 10.656 15.3703C12.1698 15.3703 13.6961 14.9027 15.0699 14.0183C16.3163 13.2155 17.4265 12.0849 18.2808 10.7477C18.3881 10.5793 18.4448 10.3837 18.4442 10.184C18.4436 9.98435 18.3858 9.78904 18.2775 9.62126ZM10.667 13.2962C10.0517 13.2962 9.45023 13.1138 8.93861 12.7719C8.427 12.4301 8.02824 11.9442 7.79277 11.3757C7.5573 10.8072 7.49569 10.1817 7.61573 9.5782C7.73577 8.97471 8.03208 8.42037 8.46717 7.98528C8.90226 7.55018 9.45661 7.25388 10.0601 7.13384C10.6636 7.0138 11.2891 7.07541 11.8576 7.31088C12.4261 7.54635 12.912 7.9451 13.2538 8.45672C13.5957 8.96834 13.7781 9.56983 13.7781 10.1851C13.7772 11.01 13.4491 11.8007 12.8659 12.384C12.2826 12.9672 11.4919 13.2953 10.667 13.2962Z" fill="#3A74CA"/>
</svg>