<svg width="31" height="31" viewBox="0 0 31 31" fill="none" xmlns="http://www.w3.org/2000/svg">
<g clip-path="url(#clip0_1_155)">
<path d="M5.20001 16.35C6.57501 16.35 7.70001 15.225 7.70001 13.85C7.70001 12.475 6.57501 11.35 5.20001 11.35C3.82501 11.35 2.70001 12.475 2.70001 13.85C2.70001 15.225 3.82501 16.35 5.20001 16.35ZM6.61251 17.725C6.15001 17.65 5.68751 17.6 5.20001 17.6C3.96251 17.6 2.78751 17.8625 1.72501 18.325C0.800012 18.725 0.200012 19.625 0.200012 20.6375V22.6H5.82501V20.5875C5.82501 19.55 6.11251 18.575 6.61251 17.725ZM25.2 16.35C26.575 16.35 27.7 15.225 27.7 13.85C27.7 12.475 26.575 11.35 25.2 11.35C23.825 11.35 22.7 12.475 22.7 13.85C22.7 15.225 23.825 16.35 25.2 16.35ZM30.2 20.6375C30.2 19.625 29.6 18.725 28.675 18.325C27.6125 17.8625 26.4375 17.6 25.2 17.6C24.7125 17.6 24.25 17.65 23.7875 17.725C24.2875 18.575 24.575 19.55 24.575 20.5875V22.6H30.2V20.6375ZM20.5 17.1625C19.0375 16.5125 17.2375 16.0375 15.2 16.0375C13.1625 16.0375 11.3625 16.525 9.90001 17.1625C8.55001 17.7625 7.70001 19.1125 7.70001 20.5875V22.6H22.7V20.5875C22.7 19.1125 21.85 17.7625 20.5 17.1625ZM10.2875 20.1C10.4 19.8125 10.45 19.6125 11.425 19.2375C12.6375 18.7625 13.9125 18.5375 15.2 18.5375C16.4875 18.5375 17.7625 18.7625 18.975 19.2375C19.9375 19.6125 19.9875 19.8125 20.1125 20.1H10.2875ZM15.2 10.1C15.8875 10.1 16.45 10.6625 16.45 11.35C16.45 12.0375 15.8875 12.6 15.2 12.6C14.5125 12.6 13.95 12.0375 13.95 11.35C13.95 10.6625 14.5125 10.1 15.2 10.1ZM15.2 7.59998C13.125 7.59998 11.45 9.27498 11.45 11.35C11.45 13.425 13.125 15.1 15.2 15.1C17.275 15.1 18.95 13.425 18.95 11.35C18.95 9.27498 17.275 7.59998 15.2 7.59998Z" fill="white"/>
</g>
<g clip-path="url(#clip1_1_155)">
<path d="M8.88898 4.38876H5.77787C5.56398 4.38876 5.38898 4.56376 5.38898 4.77765V8.27765L6.16675 7.49987H8.88898C9.10287 7.49987 9.27787 7.32487 9.27787 7.11099V4.77765C9.27787 4.56376 9.10287 4.38876 8.88898 4.38876Z" fill="white"/>
</g>
<g clip-path="url(#clip2_1_155)">
<path d="M19.0891 2.46655H23.4446C23.7441 2.46655 23.9891 2.67655 23.9891 2.93322V7.13322L22.9002 6.19989H19.0891C18.7896 6.19989 18.5446 5.98989 18.5446 5.73322V2.93322C18.5446 2.67655 18.7896 2.46655 19.0891 2.46655Z" fill="white"/>
</g>
<defs>
<clipPath id="clip0_1_155">
<rect width="30" height="30" fill="white" transform="translate(0.200012 0.0999756)"/>
</clipPath>
<clipPath id="clip1_1_155">
<rect width="4.66667" height="4.66667" fill="white" transform="translate(5.00006 3.99988)"/>
</clipPath>
<clipPath id="clip2_1_155">
<rect width="6.53333" height="5.6" fill="white" transform="matrix(-1 0 0 1 24.5335 1.99988)"/>
</clipPath>
</defs>
</svg>
