<svg width="30" height="28" viewBox="0 0 30 28" fill="none" xmlns="http://www.w3.org/2000/svg">
<path d="M0.00797653 13.4736C0.00797653 14.4229 0.789227 15.1664 1.67464 15.1664H3.34131L3.30485 23.6145C3.30485 23.7568 3.31527 23.8992 3.33089 24.0416V24.8906C3.33089 26.0561 4.26319 27 5.41423 27H6.24756C6.30485 27 6.36214 27 6.41943 26.9947C6.49235 27 6.56527 27 6.63818 27H9.58089C10.7319 27 12.4976 27.1654 12.4976 26V23C12.4976 22.0666 12.5757 17.5 13.4976 17.5H16.4976C17.4194 17.5 16.9976 22.0666 16.9976 23V26C16.9976 27.1654 19.2632 27 20.4142 27H23.3257C23.4038 27 23.4819 26.9947 23.5601 26.9895C23.6226 26.9947 23.6851 27 23.7476 27H24.5809C25.7319 27 26.6642 26.0561 26.6642 24.8906V18.9844C26.6642 18.9369 26.6642 18.8842 26.659 18.8367V15.1664H28.3309C29.2684 15.1664 29.9976 14.4281 29.9976 13.4736C29.9976 12.999 29.8413 12.5771 29.4767 12.208L16.1226 0.421875C15.758 0.0527344 15.3413 0 14.9767 0C14.6121 0 14.1955 0.105469 13.883 0.369141L0.580893 12.208C0.164227 12.5771 -0.0441074 12.999 0.00797653 13.4736Z" fill="white"/>
</svg>
