<svg width="30" height="28" viewBox="0 0 30 28" fill="none" xmlns="http://www.w3.org/2000/svg">
<path d="M0.0104179 13.4736C0.0104179 14.4229 0.791668 15.1664 1.67708 15.1664H3.34375L3.30729 23.6145C3.30729 23.7568 3.31771 23.8992 3.33333 24.0416V24.8906C3.33333 26.0561 4.26563 27 5.41667 27H6.25C6.30729 27 6.36458 27 6.42188 26.9947C6.49479 27 6.56771 27 6.64062 27H9.58333C10.7344 27 12.5 27.1654 12.5 26V23C12.5 22.0666 12.5781 17.5 13.5 17.5H16.5C17.4219 17.5 17 22.0666 17 23V26C17 27.1654 19.2656 27 20.4167 27H23.3281C23.4062 27 23.4844 26.9947 23.5625 26.9895C23.625 26.9947 23.6875 27 23.75 27H24.5833C25.7344 27 26.6667 26.0561 26.6667 24.8906V18.9844C26.6667 18.9369 26.6667 18.8842 26.6615 18.8367V15.1664H28.3333C29.2708 15.1664 30 14.4281 30 13.4736C30 12.999 29.8438 12.5771 29.4792 12.208L16.125 0.421875C15.7604 0.0527344 15.3438 0 14.9792 0C14.6146 0 14.1979 0.105469 13.8854 0.369141L0.583334 12.208C0.166668 12.5771 -0.041666 12.999 0.0104179 13.4736Z" fill="#0B295F"/>
</svg>
