<svg width="29" height="29" viewBox="0 0 29 29" fill="none" xmlns="http://www.w3.org/2000/svg">
<path d="M18.5808 16.7308H17.6592L17.3325 16.4158C18.4758 15.0858 19.1642 13.3591 19.1642 11.4808C19.1642 7.29246 15.7692 3.89746 11.5808 3.89746C7.3925 3.89746 3.9975 7.29246 3.9975 11.4808C3.9975 15.6691 7.3925 19.0641 11.5808 19.0641C13.4592 19.0641 15.1858 18.3758 16.5158 17.2325L16.8308 17.5591V18.4808L22.6642 24.3025L24.4025 22.5641L18.5808 16.7308ZM11.5808 16.7308C8.67583 16.7308 6.33083 14.3858 6.33083 11.4808C6.33083 8.57579 8.67583 6.23079 11.5808 6.23079C14.4858 6.23079 16.8308 8.57579 16.8308 11.4808C16.8308 14.3858 14.4858 16.7308 11.5808 16.7308Z" fill="white"/>
<path d="M11.7294 9.98236L7.61176 13.2765" stroke="white" stroke-width="0.7"/>
<path d="M11.1804 12.7107L10.8347 12.6557L10.6929 13.5485L11.399 12.984L11.1804 12.7107ZM15.8498 9.29438C15.8712 9.10227 15.7328 8.92918 15.5407 8.90777L12.4101 8.55893C12.218 8.53753 12.0449 8.67591 12.0235 8.86802C12.0021 9.06013 12.1405 9.23322 12.3326 9.25463L15.1154 9.56471L14.8053 12.3475C14.7839 12.5396 14.9223 12.7127 15.1144 12.7341C15.3065 12.7555 15.4796 12.6171 15.501 12.425L15.8498 9.29438ZM11.399 12.984L15.7205 9.52899L15.2834 8.98225L10.9618 12.4373L11.399 12.984ZM11.2465 10.0646L10.8347 12.6557L11.5261 12.7656L11.9378 10.1745L11.2465 10.0646Z" fill="white"/>
</svg>
