<svg width="46" height="42" viewBox="0 0 46 42" fill="none" xmlns="http://www.w3.org/2000/svg">
<rect x="11" y="24" width="24" height="24" rx="12" transform="rotate(-90 11 24)" fill="#DC362E"/>
<path d="M28.9508 10L27.9008 11.075L23.7008 6.875V20H22.2008V6.875L17.9758 11.1L16.9258 10.025L22.9508 4L28.9508 10Z" fill="white"/>
<path d="M2.41016 30.4688V39H1.2793V30.4688H2.41016ZM5.38672 34.0137V39H4.30273V32.6602H5.32812L5.38672 34.0137ZM5.12891 35.5898L4.67773 35.5723C4.68164 35.1387 4.74609 34.7383 4.87109 34.3711C4.99609 34 5.17188 33.6777 5.39844 33.4043C5.625 33.1309 5.89453 32.9199 6.20703 32.7715C6.52344 32.6191 6.87305 32.543 7.25586 32.543C7.56836 32.543 7.84961 32.5859 8.09961 32.6719C8.34961 32.7539 8.5625 32.8867 8.73828 33.0703C8.91797 33.2539 9.05469 33.4922 9.14844 33.7852C9.24219 34.0742 9.28906 34.4277 9.28906 34.8457V39H8.19922V34.834C8.19922 34.502 8.15039 34.2363 8.05273 34.0371C7.95508 33.834 7.8125 33.6875 7.625 33.5977C7.4375 33.5039 7.20703 33.457 6.93359 33.457C6.66406 33.457 6.41797 33.5137 6.19531 33.627C5.97656 33.7402 5.78711 33.8965 5.62695 34.0957C5.4707 34.2949 5.34766 34.5234 5.25781 34.7812C5.17188 35.0352 5.12891 35.3047 5.12891 35.5898ZM13.4727 38.2266C13.7305 38.2266 13.9688 38.1738 14.1875 38.0684C14.4062 37.9629 14.5859 37.8184 14.7266 37.6348C14.8672 37.4473 14.9473 37.2344 14.9668 36.9961H15.998C15.9785 37.3711 15.8516 37.7207 15.6172 38.0449C15.3867 38.3652 15.084 38.625 14.709 38.8242C14.334 39.0195 13.9219 39.1172 13.4727 39.1172C12.9961 39.1172 12.5801 39.0332 12.2246 38.8652C11.873 38.6973 11.5801 38.4668 11.3457 38.1738C11.1152 37.8809 10.9414 37.5449 10.8242 37.166C10.7109 36.7832 10.6543 36.3789 10.6543 35.9531V35.707C10.6543 35.2812 10.7109 34.8789 10.8242 34.5C10.9414 34.1172 11.1152 33.7793 11.3457 33.4863C11.5801 33.1934 11.873 32.9629 12.2246 32.7949C12.5801 32.627 12.9961 32.543 13.4727 32.543C13.9688 32.543 14.4023 32.6445 14.7734 32.8477C15.1445 33.0469 15.4355 33.3203 15.6465 33.668C15.8613 34.0117 15.9785 34.4023 15.998 34.8398H14.9668C14.9473 34.5781 14.873 34.3418 14.7441 34.1309C14.6191 33.9199 14.4473 33.752 14.2285 33.627C14.0137 33.498 13.7617 33.4336 13.4727 33.4336C13.1406 33.4336 12.8613 33.5 12.6348 33.6328C12.4121 33.7617 12.2344 33.9375 12.1016 34.1602C11.9727 34.3789 11.8789 34.623 11.8203 34.8926C11.7656 35.1582 11.7383 35.4297 11.7383 35.707V35.9531C11.7383 36.2305 11.7656 36.5039 11.8203 36.7734C11.875 37.043 11.9668 37.2871 12.0957 37.5059C12.2285 37.7246 12.4062 37.9004 12.6289 38.0332C12.8555 38.1621 13.1367 38.2266 13.4727 38.2266ZM18.3008 33.6562V39H17.2168V32.6602H18.2715L18.3008 33.6562ZM20.2812 32.625L20.2754 33.6328C20.1855 33.6133 20.0996 33.6016 20.0176 33.5977C19.9395 33.5898 19.8496 33.5859 19.748 33.5859C19.498 33.5859 19.2773 33.625 19.0859 33.7031C18.8945 33.7812 18.7324 33.8906 18.5996 34.0312C18.4668 34.1719 18.3613 34.3398 18.2832 34.5352C18.209 34.7266 18.1602 34.9375 18.1367 35.168L17.832 35.3438C17.832 34.9609 17.8691 34.6016 17.9434 34.2656C18.0215 33.9297 18.1406 33.6328 18.3008 33.375C18.4609 33.1133 18.6641 32.9102 18.9102 32.7656C19.1602 32.6172 19.457 32.543 19.8008 32.543C19.8789 32.543 19.9688 32.5527 20.0703 32.5723C20.1719 32.5879 20.2422 32.6055 20.2812 32.625ZM23.7969 39.1172C23.3555 39.1172 22.9551 39.043 22.5957 38.8945C22.2402 38.7422 21.9336 38.5293 21.6758 38.2559C21.4219 37.9824 21.2266 37.6582 21.0898 37.2832C20.9531 36.9082 20.8848 36.498 20.8848 36.0527V35.8066C20.8848 35.291 20.9609 34.832 21.1133 34.4297C21.2656 34.0234 21.4727 33.6797 21.7344 33.3984C21.9961 33.1172 22.293 32.9043 22.625 32.7598C22.957 32.6152 23.3008 32.543 23.6562 32.543C24.1094 32.543 24.5 32.6211 24.8281 32.7773C25.1602 32.9336 25.4316 33.1523 25.6426 33.4336C25.8535 33.7109 26.0098 34.0391 26.1113 34.418C26.2129 34.793 26.2637 35.2031 26.2637 35.6484V36.1348H21.5293V35.25H25.1797V35.168C25.1641 34.8867 25.1055 34.6133 25.0039 34.3477C24.9062 34.082 24.75 33.8633 24.5352 33.6914C24.3203 33.5195 24.0273 33.4336 23.6562 33.4336C23.4102 33.4336 23.1836 33.4863 22.9766 33.5918C22.7695 33.6934 22.5918 33.8457 22.4434 34.0488C22.2949 34.252 22.1797 34.5 22.0977 34.793C22.0156 35.0859 21.9746 35.4238 21.9746 35.8066V36.0527C21.9746 36.3535 22.0156 36.6367 22.0977 36.9023C22.1836 37.1641 22.3066 37.3945 22.4668 37.5938C22.6309 37.793 22.8281 37.9492 23.0586 38.0625C23.293 38.1758 23.5586 38.2324 23.8555 38.2324C24.2383 38.2324 24.5625 38.1543 24.8281 37.998C25.0938 37.8418 25.3262 37.6328 25.5254 37.3711L26.1816 37.8926C26.0449 38.0996 25.8711 38.2969 25.6602 38.4844C25.4492 38.6719 25.1895 38.8242 24.8809 38.9414C24.5762 39.0586 24.2148 39.1172 23.7969 39.1172ZM31.2676 37.916V34.6523C31.2676 34.4023 31.2168 34.1855 31.1152 34.002C31.0176 33.8145 30.8691 33.6699 30.6699 33.5684C30.4707 33.4668 30.2246 33.416 29.9316 33.416C29.6582 33.416 29.418 33.4629 29.2109 33.5566C29.0078 33.6504 28.8477 33.7734 28.7305 33.9258C28.6172 34.0781 28.5605 34.2422 28.5605 34.418H27.4766C27.4766 34.1914 27.5352 33.9668 27.6523 33.7441C27.7695 33.5215 27.9375 33.3203 28.1562 33.1406C28.3789 32.957 28.6445 32.8125 28.9531 32.707C29.2656 32.5977 29.6133 32.543 29.9961 32.543C30.457 32.543 30.8633 32.6211 31.2148 32.7773C31.5703 32.9336 31.8477 33.1699 32.0469 33.4863C32.25 33.7988 32.3516 34.1914 32.3516 34.6641V37.6172C32.3516 37.8281 32.3691 38.0527 32.4043 38.291C32.4434 38.5293 32.5 38.7344 32.5742 38.9062V39H31.4434C31.3887 38.875 31.3457 38.709 31.3145 38.502C31.2832 38.291 31.2676 38.0957 31.2676 37.916ZM31.4551 35.1562L31.4668 35.918H30.3711C30.0625 35.918 29.7871 35.9434 29.5449 35.9941C29.3027 36.041 29.0996 36.1133 28.9355 36.2109C28.7715 36.3086 28.6465 36.4316 28.5605 36.5801C28.4746 36.7246 28.4316 36.8945 28.4316 37.0898C28.4316 37.2891 28.4766 37.4707 28.5664 37.6348C28.6562 37.7988 28.791 37.9297 28.9707 38.0273C29.1543 38.1211 29.3789 38.168 29.6445 38.168C29.9766 38.168 30.2695 38.0977 30.5234 37.957C30.7773 37.8164 30.9785 37.6445 31.127 37.4414C31.2793 37.2383 31.3613 37.041 31.373 36.8496L31.8359 37.3711C31.8086 37.5352 31.7344 37.7168 31.6133 37.916C31.4922 38.1152 31.3301 38.3066 31.127 38.4902C30.9277 38.6699 30.6895 38.8203 30.4121 38.9414C30.1387 39.0586 29.8301 39.1172 29.4863 39.1172C29.0566 39.1172 28.6797 39.0332 28.3555 38.8652C28.0352 38.6973 27.7852 38.4727 27.6055 38.1914C27.4297 37.9062 27.3418 37.5879 27.3418 37.2363C27.3418 36.8965 27.4082 36.5977 27.541 36.3398C27.6738 36.0781 27.8652 35.8613 28.1152 35.6895C28.3652 35.5137 28.666 35.3809 29.0176 35.291C29.3691 35.2012 29.7617 35.1562 30.1953 35.1562H31.4551ZM37.748 37.3184C37.748 37.1621 37.7129 37.0176 37.6426 36.8848C37.5762 36.748 37.4375 36.625 37.2266 36.5156C37.0195 36.4023 36.707 36.3047 36.2891 36.2227C35.9375 36.1484 35.6191 36.0605 35.334 35.959C35.0527 35.8574 34.8125 35.7344 34.6133 35.5898C34.418 35.4453 34.2676 35.2754 34.1621 35.0801C34.0566 34.8848 34.0039 34.6562 34.0039 34.3945C34.0039 34.1445 34.0586 33.9082 34.168 33.6855C34.2812 33.4629 34.4395 33.2656 34.6426 33.0938C34.8496 32.9219 35.0977 32.7871 35.3867 32.6895C35.6758 32.5918 35.998 32.543 36.3535 32.543C36.8613 32.543 37.2949 32.6328 37.6543 32.8125C38.0137 32.9922 38.2891 33.2324 38.4805 33.5332C38.6719 33.8301 38.7676 34.1602 38.7676 34.5234H37.6836C37.6836 34.3477 37.6309 34.1777 37.5254 34.0137C37.4238 33.8457 37.2734 33.707 37.0742 33.5977C36.8789 33.4883 36.6387 33.4336 36.3535 33.4336C36.0527 33.4336 35.8086 33.4805 35.6211 33.5742C35.4375 33.6641 35.3027 33.7793 35.2168 33.9199C35.1348 34.0605 35.0938 34.209 35.0938 34.3652C35.0938 34.4824 35.1133 34.5879 35.1523 34.6816C35.1953 34.7715 35.2695 34.8555 35.375 34.9336C35.4805 35.0078 35.6289 35.0781 35.8203 35.1445C36.0117 35.2109 36.2559 35.2773 36.5527 35.3438C37.0723 35.4609 37.5 35.6016 37.8359 35.7656C38.1719 35.9297 38.4219 36.1309 38.5859 36.3691C38.75 36.6074 38.832 36.8965 38.832 37.2363C38.832 37.5137 38.7734 37.7676 38.6562 37.998C38.543 38.2285 38.377 38.4277 38.1582 38.5957C37.9434 38.7598 37.6855 38.8887 37.3848 38.9824C37.0879 39.0723 36.7539 39.1172 36.3828 39.1172C35.8242 39.1172 35.3516 39.0176 34.9648 38.8184C34.5781 38.6191 34.2852 38.3613 34.0859 38.0449C33.8867 37.7285 33.7871 37.3945 33.7871 37.043H34.877C34.8926 37.3398 34.9785 37.5762 35.1348 37.752C35.291 37.9238 35.4824 38.0469 35.709 38.1211C35.9355 38.1914 36.1602 38.2266 36.3828 38.2266C36.6797 38.2266 36.9277 38.1875 37.127 38.1094C37.3301 38.0312 37.4844 37.9238 37.5898 37.7871C37.6953 37.6504 37.748 37.4941 37.748 37.3184ZM42.8867 39.1172C42.4453 39.1172 42.0449 39.043 41.6855 38.8945C41.3301 38.7422 41.0234 38.5293 40.7656 38.2559C40.5117 37.9824 40.3164 37.6582 40.1797 37.2832C40.043 36.9082 39.9746 36.498 39.9746 36.0527V35.8066C39.9746 35.291 40.0508 34.832 40.2031 34.4297C40.3555 34.0234 40.5625 33.6797 40.8242 33.3984C41.0859 33.1172 41.3828 32.9043 41.7148 32.7598C42.0469 32.6152 42.3906 32.543 42.7461 32.543C43.1992 32.543 43.5898 32.6211 43.918 32.7773C44.25 32.9336 44.5215 33.1523 44.7324 33.4336C44.9434 33.7109 45.0996 34.0391 45.2012 34.418C45.3027 34.793 45.3535 35.2031 45.3535 35.6484V36.1348H40.6191V35.25H44.2695V35.168C44.2539 34.8867 44.1953 34.6133 44.0938 34.3477C43.9961 34.082 43.8398 33.8633 43.625 33.6914C43.4102 33.5195 43.1172 33.4336 42.7461 33.4336C42.5 33.4336 42.2734 33.4863 42.0664 33.5918C41.8594 33.6934 41.6816 33.8457 41.5332 34.0488C41.3848 34.252 41.2695 34.5 41.1875 34.793C41.1055 35.0859 41.0645 35.4238 41.0645 35.8066V36.0527C41.0645 36.3535 41.1055 36.6367 41.1875 36.9023C41.2734 37.1641 41.3965 37.3945 41.5566 37.5938C41.7207 37.793 41.918 37.9492 42.1484 38.0625C42.3828 38.1758 42.6484 38.2324 42.9453 38.2324C43.3281 38.2324 43.6523 38.1543 43.918 37.998C44.1836 37.8418 44.416 37.6328 44.6152 37.3711L45.2715 37.8926C45.1348 38.0996 44.9609 38.2969 44.75 38.4844C44.5391 38.6719 44.2793 38.8242 43.9707 38.9414C43.666 39.0586 43.3047 39.1172 42.8867 39.1172Z" fill="#AEA9B1"/>
</svg>
