<svg width="349" height="289" viewBox="0 0 349 289" fill="none" xmlns="http://www.w3.org/2000/svg">
<path d="M7.05719e-05 285.941H27.835V286.151H7.05719e-05V285.941Z" fill="#EBEBEB"/>
<path d="M99.7416 288.226H107.045V288.436H99.7416V288.226Z" fill="#EBEBEB"/>
<path d="M28.675 278.141H44.8027V278.351H28.675V278.141Z" fill="#EBEBEB"/>
<path d="M297.721 279.553H334.019V279.763H297.721V279.553Z" fill="#EBEBEB"/>
<path d="M284.913 279.553H290.232V279.763H284.913V279.553Z" fill="#EBEBEB"/>
<path d="M188.885 283.1H267.616V283.31H188.885V283.1Z" fill="#EBEBEB"/>
<path d="M136.501 173.054H258.422V250.609H136.501V173.054Z" fill="#EBEBEB"/>
<path d="M136.501 173.054H258.422V178.307H136.501V173.054Z" fill="#E0E0E0"/>
<path d="M139.897 177.265C139.024 177.265 138.317 176.558 138.317 175.685C138.317 174.812 139.024 174.105 139.897 174.105C140.769 174.105 141.477 174.812 141.477 175.685C141.477 176.558 140.769 177.265 139.897 177.265Z" fill="#FAFAFA"/>
<path d="M145.158 177.265C144.286 177.265 143.578 176.558 143.578 175.685C143.578 174.812 144.286 174.105 145.158 174.105C146.031 174.105 146.738 174.812 146.738 175.685C146.738 176.558 146.031 177.265 145.158 177.265Z" fill="#FAFAFA"/>
<path d="M150.419 177.265C149.546 177.265 148.839 176.558 148.839 175.685C148.839 174.812 149.546 174.105 150.419 174.105C151.292 174.105 151.999 174.812 151.999 175.685C151.999 176.558 151.292 177.265 150.419 177.265Z" fill="#FAFAFA"/>
<path d="M68.4017 194.729H190.322V272.283H68.4017V194.729Z" fill="#F5F5F5"/>
<path d="M68.4017 194.729H190.322V199.982H68.4017V194.729Z" fill="#E0E0E0"/>
<path d="M70.2169 197.351C70.2169 197.664 70.3096 197.969 70.4832 198.229C70.6568 198.489 70.9036 198.691 71.1923 198.811C71.481 198.931 71.7987 198.962 72.1052 198.901C72.4117 198.84 72.6932 198.689 72.9142 198.468C73.1352 198.247 73.2856 197.966 73.3466 197.659C73.4076 197.353 73.3763 197.035 73.2567 196.747C73.1371 196.458 72.9346 196.211 72.6747 196.038C72.4149 195.864 72.1094 195.771 71.797 195.771C71.3779 195.771 70.976 195.938 70.6797 196.234C70.3834 196.53 70.2169 196.932 70.2169 197.351Z" fill="#FAFAFA"/>
<path d="M75.4787 197.351C75.4787 197.664 75.5713 197.969 75.7449 198.229C75.9186 198.489 76.1653 198.691 76.454 198.811C76.7427 198.931 77.0604 198.962 77.3669 198.901C77.6734 198.84 77.9549 198.689 78.1759 198.468C78.3969 198.247 78.5473 197.966 78.6083 197.659C78.6693 197.353 78.638 197.035 78.5184 196.747C78.3988 196.458 78.1963 196.211 77.9365 196.038C77.6766 195.864 77.3712 195.771 77.0587 195.771C76.6396 195.771 76.2377 195.938 75.9414 196.234C75.6451 196.53 75.4787 196.932 75.4787 197.351Z" fill="#FAFAFA"/>
<path d="M80.7394 197.351C80.7395 197.665 80.8333 197.972 81.0089 198.233C81.1844 198.494 81.4337 198.696 81.7249 198.814C82.0161 198.933 82.3359 198.961 82.6434 198.897C82.951 198.832 83.2324 198.678 83.4516 198.453C83.6708 198.227 83.8179 197.942 83.874 197.633C83.9301 197.324 83.8928 197.005 83.7667 196.717C83.6407 196.429 83.4317 196.185 83.1664 196.017C82.9011 195.848 82.5916 195.763 82.2774 195.771C81.8657 195.782 81.4745 195.953 81.1872 196.248C80.9 196.544 80.7393 196.939 80.7394 197.351Z" fill="#FAFAFA"/>
<path d="M155.21 24.0637H155.512C155.378 23.3402 155.307 22.6061 155.302 21.8702C155.305 18.6619 156.581 15.5859 158.85 13.3181C161.119 11.0503 164.196 9.77645 167.404 9.77645H167.497C168.327 8.34795 169.524 7.16791 170.965 6.35908C172.405 5.55026 174.036 5.14221 175.688 5.17739C177.339 5.21257 178.951 5.68969 180.356 6.55911C181.761 7.42853 182.907 8.6585 183.675 10.121C184.517 9.8952 185.384 9.77937 186.255 9.77645C188.886 9.77681 191.415 10.7971 193.31 12.6229C195.205 14.4487 196.318 16.9379 196.416 19.5674C197.958 20.7311 199.097 22.3485 199.672 24.1926C200.248 26.0366 200.231 28.0146 199.624 29.8487C199.018 31.6829 197.852 33.2809 196.291 34.4185C194.73 35.556 192.851 36.1759 190.92 36.191C190.174 36.1894 189.432 36.0963 188.709 35.9137H157.025C156.437 36.0963 155.825 36.1898 155.21 36.191C153.601 36.191 152.057 35.5517 150.919 34.4138C149.781 33.2758 149.142 31.7325 149.142 30.1232C149.142 28.5139 149.781 26.9705 150.919 25.8325C152.057 24.6946 153.601 24.0553 155.21 24.0553V24.0637Z" fill="#EBEBEB"/>
<path d="M58.1654 47.915H58.4007C58.2955 47.3609 58.242 46.7982 58.241 46.2341C58.241 43.7823 59.215 41.4309 60.9487 39.6972C62.6824 37.9635 65.0338 36.9895 67.4857 36.9895H67.5529C68.1857 35.8925 69.1015 34.9857 70.2047 34.3639C71.3079 33.7421 72.5578 33.4281 73.8239 33.4547C75.09 33.4813 76.3257 33.8476 77.4017 34.5153C78.4778 35.1829 79.3547 36.1274 79.9408 37.25C81.0691 36.9449 82.2519 36.8992 83.4004 37.1165C84.5489 37.3338 85.6332 37.8084 86.5721 38.5047C87.511 39.2009 88.2799 40.1008 88.8213 41.1367C89.3627 42.1726 89.6625 43.3177 89.6981 44.4861C90.8934 45.3684 91.7795 46.6058 92.2298 48.0216C92.6801 49.4375 92.6718 50.9594 92.2058 52.3701C91.7399 53.7809 90.8403 55.0085 89.6354 55.8776C88.4304 56.7468 86.9817 57.2131 85.496 57.2101C84.8364 57.2081 84.1802 57.1148 83.5462 56.9328H59.7286C59.0904 57.1637 58.4093 57.2521 57.7333 57.1916C57.0573 57.1312 56.4027 56.9234 55.8156 56.583C55.2285 56.2425 54.7231 55.7775 54.3349 55.2208C53.9467 54.6641 53.6851 54.0291 53.5686 53.3605C53.4521 52.6918 53.4834 52.0058 53.6604 51.3506C53.8374 50.6954 54.1557 50.0869 54.593 49.5678C55.0304 49.0488 55.576 48.6319 56.1918 48.3463C56.8075 48.0608 57.4782 47.9136 58.1569 47.915H58.1654Z" fill="#EBEBEB"/>
<path d="M249.783 54.6384H250.018C249.913 54.0842 249.859 53.5215 249.858 52.9575C249.858 50.5057 250.832 48.1543 252.566 46.4206C254.3 44.6868 256.651 43.7128 259.103 43.7128H259.17C259.803 42.6159 260.719 41.7091 261.822 41.0873C262.925 40.4655 264.175 40.1514 265.441 40.1781C266.707 40.2047 267.943 40.571 269.019 41.2386C270.095 41.9063 270.972 42.8508 271.558 43.9734C272.686 43.6682 273.869 43.6226 275.018 43.8399C276.166 44.0572 277.25 44.5318 278.189 45.2281C279.128 45.9243 279.897 46.8242 280.439 47.8601C280.98 48.896 281.28 50.0411 281.315 51.2094C282.511 52.0918 283.397 53.3292 283.847 54.745C284.297 56.1609 284.289 57.6828 283.823 59.0935C283.357 60.5043 282.457 61.7318 281.253 62.601C280.048 63.4702 278.599 63.9365 277.113 63.9335C276.454 63.9315 275.797 63.8382 275.163 63.6561H251.346C250.708 63.8871 250.026 63.9755 249.35 63.915C248.674 63.8546 248.02 63.6468 247.433 63.3063C246.846 62.9659 246.34 62.5009 245.952 61.9442C245.564 61.3875 245.302 60.7525 245.186 60.0839C245.069 59.4152 245.101 58.7292 245.278 58.074C245.455 57.4188 245.773 56.8103 246.21 56.2912C246.648 55.7722 247.193 55.3553 247.809 55.0697C248.425 54.7842 249.095 54.6369 249.774 54.6384H249.783Z" fill="#EBEBEB"/>
<path d="M311.899 242.482L312.958 240.986C313.15 240.721 313.403 240.506 313.695 240.36C313.988 240.214 314.312 240.14 314.639 240.146H322.051C322.359 240.141 322.664 240.215 322.935 240.363C323.206 240.51 323.434 240.725 323.598 240.986L324.438 242.457C324.602 242.718 324.831 242.932 325.101 243.079C325.372 243.226 325.676 243.301 325.984 243.297H330.472C330.721 243.295 330.967 243.345 331.196 243.443C331.424 243.541 331.63 243.686 331.8 243.867C331.969 244.049 332.1 244.264 332.182 244.499C332.265 244.733 332.298 244.982 332.279 245.23L330.842 270.098C330.806 270.617 330.578 271.103 330.201 271.46C329.825 271.818 329.328 272.022 328.808 272.031H293.586C293.337 272.033 293.091 271.983 292.863 271.885C292.634 271.787 292.428 271.643 292.259 271.461C292.089 271.279 291.959 271.064 291.876 270.83C291.793 270.595 291.76 270.346 291.779 270.098L293.225 245.281C293.256 244.762 293.483 244.275 293.858 243.917C294.234 243.558 294.731 243.355 295.25 243.348H310.252C310.575 243.343 310.892 243.262 311.179 243.111C311.465 242.961 311.711 242.745 311.899 242.482Z" fill="#E0E0E0"/>
<path d="M291.729 245.718H324.001C324.661 245.726 325.295 245.977 325.783 246.421C326.27 246.866 326.578 247.473 326.648 248.13L328.59 269.67C328.622 269.978 328.588 270.29 328.491 270.584C328.393 270.878 328.235 271.148 328.025 271.377C327.815 271.605 327.559 271.786 327.274 271.907C326.989 272.029 326.681 272.088 326.371 272.082H294.065C293.405 272.072 292.771 271.821 292.282 271.377C291.793 270.933 291.483 270.326 291.409 269.67L289.468 248.13C289.434 247.818 289.467 247.502 289.567 247.204C289.666 246.906 289.829 246.633 290.043 246.404C290.258 246.175 290.52 245.995 290.811 245.876C291.102 245.758 291.415 245.704 291.729 245.718Z" fill="#F0F0F0"/>
<path d="M27.0527 242.835L28.1033 241.364C28.2962 241.1 28.5493 240.886 28.8417 240.74C29.1341 240.594 29.4572 240.52 29.7841 240.524H37.2303C37.5389 240.517 37.8439 240.591 38.1151 240.739C38.3863 240.886 38.6143 241.102 38.7766 241.364L39.6675 242.835C39.831 243.096 40.0594 243.311 40.3303 243.458C40.6012 243.606 40.9056 243.68 41.2139 243.675H45.6597C45.9084 243.674 46.1547 243.723 46.3832 243.821C46.6116 243.92 46.8172 244.064 46.987 244.246C47.1568 244.427 47.2871 244.642 47.3697 244.877C47.4522 245.111 47.4852 245.36 47.4666 245.608L46.0211 270.477C45.9894 270.995 45.7631 271.482 45.3875 271.84C45.0119 272.199 44.5148 272.402 43.9957 272.41H8.73985C8.4912 272.411 8.24488 272.362 8.01643 272.264C7.78797 272.165 7.58235 272.021 7.41255 271.839C7.24275 271.658 7.11246 271.443 7.02991 271.208C6.94736 270.974 6.91434 270.725 6.93293 270.477L8.37006 245.608C8.40572 245.09 8.63441 244.604 9.01094 244.246C9.38748 243.888 9.88451 243.685 10.4039 243.675H25.4055C25.7266 243.673 26.0428 243.596 26.3288 243.451C26.6148 243.305 26.8627 243.094 27.0527 242.835Z" fill="#E0E0E0"/>
<path d="M6.88295 246.071H39.1469C39.8077 246.079 40.4426 246.329 40.9319 246.773C41.4211 247.218 41.7308 247.826 41.8026 248.483L43.744 270.023C43.7763 270.331 43.7425 270.643 43.6451 270.937C43.5477 271.231 43.3888 271.501 43.179 271.73C42.9691 271.958 42.7131 272.139 42.428 272.26C42.1429 272.382 41.8352 272.441 41.5253 272.435H9.26134C8.60102 272.425 7.96709 272.174 7.47823 271.73C6.98937 271.286 6.67912 270.679 6.60559 270.023L4.66421 248.483C4.63055 248.174 4.66328 247.862 4.76018 247.567C4.85709 247.272 5.01595 247.002 5.22607 246.773C5.4362 246.545 5.69276 246.364 5.97853 246.243C6.26429 246.122 6.57266 246.063 6.88295 246.071Z" fill="#F0F0F0"/>
<path d="M128.501 222.74L129.56 221.27C129.751 221.005 130.004 220.79 130.297 220.644C130.59 220.497 130.913 220.424 131.24 220.429H138.687C138.995 220.424 139.299 220.499 139.57 220.646C139.841 220.794 140.069 221.008 140.233 221.27L141.107 222.74C141.271 223.001 141.5 223.216 141.77 223.363C142.041 223.51 142.345 223.585 142.653 223.581H147.099C147.348 223.579 147.594 223.629 147.823 223.727C148.051 223.825 148.257 223.969 148.426 224.151C148.596 224.333 148.727 224.548 148.809 224.782C148.892 225.017 148.925 225.266 148.906 225.514L147.469 250.382C147.433 250.9 147.205 251.386 146.828 251.744C146.452 252.102 145.955 252.306 145.435 252.315H110.221C109.972 252.318 109.725 252.269 109.496 252.172C109.267 252.074 109.061 251.929 108.891 251.747C108.721 251.566 108.591 251.35 108.509 251.115C108.427 250.88 108.395 250.63 108.414 250.382L109.852 225.514C109.883 224.996 110.11 224.509 110.485 224.15C110.861 223.792 111.358 223.588 111.877 223.581H126.879C127.195 223.575 127.507 223.496 127.788 223.35C128.069 223.205 128.313 222.996 128.501 222.74Z" fill="#E0E0E0"/>
<path d="M108.33 225.976H140.603C141.262 225.986 141.895 226.237 142.382 226.681C142.87 227.126 143.178 227.732 143.25 228.388L145.191 249.928C145.225 250.237 145.192 250.549 145.095 250.844C144.998 251.139 144.84 251.409 144.629 251.638C144.419 251.866 144.163 252.047 143.877 252.168C143.591 252.289 143.283 252.348 142.973 252.34H110.709C110.048 252.33 109.414 252.079 108.925 251.635C108.437 251.191 108.126 250.584 108.053 249.928L106.145 228.38C106.112 228.074 106.144 227.765 106.239 227.473C106.334 227.181 106.49 226.913 106.696 226.686C106.903 226.458 107.155 226.278 107.437 226.155C107.719 226.033 108.023 225.972 108.33 225.976Z" fill="#F0F0F0"/>
<path d="M251.776 36.9658H346.273C347.514 36.9658 348.52 37.9471 348.52 39.1577V200.226C348.52 201.436 347.514 202.418 346.273 202.418H251.776C250.535 202.418 249.529 201.436 249.529 200.226V39.1577C249.529 37.9471 250.535 36.9658 251.776 36.9658Z" fill="#3C8FD2"/>
<path opacity="0.7" d="M251.776 36.9658H346.273C347.514 36.9658 348.52 37.9471 348.52 39.1577V200.226C348.52 201.436 347.514 202.418 346.273 202.418H251.776C250.535 202.418 249.529 201.436 249.529 200.226V39.1577C249.529 37.9471 250.535 36.9658 251.776 36.9658Z" fill="white"/>
<path d="M323.152 57.9316H341.799V60.4009H323.152V57.9316Z" fill="#3C8FD2"/>
<path d="M323.152 63.4805H341.799V65.9498H323.152V63.4805Z" fill="#3C8FD2"/>
<path d="M256.753 57.9316H275.4V60.4009H256.753V57.9316Z" fill="#3C8FD2"/>
<path d="M291.517 46.5093H310.164V48.9786H291.517V46.5093Z" fill="#3C8FD2"/>
<path d="M256.754 42.2004H341.799V44.6697H256.754V42.2004Z" fill="#3C8FD2"/>
<path d="M256.763 71.175H332.318V73.6443H256.763V71.175Z" fill="#3C8FD2"/>
<path d="M256.754 76.104H341.799V78.5733H256.754V76.104Z" fill="#3C8FD2"/>
<path d="M256.754 81.043H341.799V83.5123H256.754V81.043Z" fill="#3C8FD2"/>
<path d="M256.754 85.9724H341.799V88.4417H256.754V85.9724Z" fill="#3C8FD2"/>
<path d="M266.243 90.9019H341.799V93.3711H266.243V90.9019Z" fill="#3C8FD2"/>
<path d="M256.763 99.863H332.318V102.332H256.763V99.863Z" fill="#3C8FD2"/>
<path d="M256.754 104.793H341.799V107.262H256.754V104.793Z" fill="#3C8FD2"/>
<path d="M256.754 109.731H341.799V112.2H256.754V109.731Z" fill="#3C8FD2"/>
<path d="M256.754 114.66H341.799V117.13H256.754V114.66Z" fill="#3C8FD2"/>
<path d="M266.243 119.59H341.799V122.059H266.243V119.59Z" fill="#3C8FD2"/>
<path d="M256.763 128.552H332.318V131.021H256.763V128.552Z" fill="#3C8FD2"/>
<path d="M256.754 133.48H341.799V135.95H256.754V133.48Z" fill="#3C8FD2"/>
<path d="M256.754 138.42H341.799V140.889H256.754V138.42Z" fill="#3C8FD2"/>
<path d="M256.754 143.348H341.799V145.818H256.754V143.348Z" fill="#3C8FD2"/>
<path d="M266.243 148.278H341.799V150.747H266.243V148.278Z" fill="#3C8FD2"/>
<path d="M256.763 158.164H332.318V160.633H256.763V158.164Z" fill="#3C8FD2"/>
<path d="M256.754 163.094H341.799V165.563H256.754V163.094Z" fill="#3C8FD2"/>
<path d="M256.754 168.032H341.799V170.502H256.754V168.032Z" fill="#3C8FD2"/>
<path d="M256.754 172.961H341.799V175.431H256.754V172.961Z" fill="#3C8FD2"/>
<path d="M266.243 177.891H341.799V180.36H266.243V177.891Z" fill="#3C8FD2"/>
<path d="M256.753 192.115H275.4V194.584H256.753V192.115Z" fill="#3C8FD2"/>
<g opacity="0.2">
<path d="M323.152 57.9319H341.799V60.4012H323.152V57.9319Z" fill="white"/>
<path d="M323.152 63.4807H341.799V65.95H323.152V63.4807Z" fill="white"/>
<path d="M256.753 57.9319H275.4V60.4012H256.753V57.9319Z" fill="white"/>
<path d="M291.517 46.5105H310.164V48.9798H291.517V46.5105Z" fill="white"/>
<path d="M256.754 42.2004H341.799V44.6697H256.754V42.2004Z" fill="white"/>
<path d="M256.763 71.1753H332.318V73.6446H256.763V71.1753Z" fill="white"/>
<path d="M256.754 76.1047H341.799V78.574H256.754V76.1047Z" fill="white"/>
<path d="M256.754 81.0432H341.799V83.5125H256.754V81.0432Z" fill="white"/>
<path d="M256.754 85.9727H341.799V88.4419H256.754V85.9727Z" fill="white"/>
<path d="M266.243 90.9026H341.799V93.3719H266.243V90.9026Z" fill="white"/>
<path d="M256.763 99.8638H332.318V102.333H256.763V99.8638Z" fill="white"/>
<path d="M256.754 104.793H341.799V107.263H256.754V104.793Z" fill="white"/>
<path d="M256.754 109.731H341.799V112.2H256.754V109.731Z" fill="white"/>
<path d="M256.754 114.661H341.799V117.13H256.754V114.661Z" fill="white"/>
<path d="M266.243 119.59H341.799V122.06H266.243V119.59Z" fill="white"/>
<path d="M256.763 128.552H332.318V131.022H256.763V128.552Z" fill="white"/>
<path d="M256.754 133.481H341.799V135.95H256.754V133.481Z" fill="white"/>
<path d="M256.754 138.42H341.799V140.889H256.754V138.42Z" fill="white"/>
<path d="M256.754 143.349H341.799V145.819H256.754V143.349Z" fill="white"/>
<path d="M266.243 148.279H341.799V150.748H266.243V148.279Z" fill="white"/>
<path d="M256.763 158.165H332.318V160.634H256.763V158.165Z" fill="white"/>
<path d="M256.754 163.094H341.799V165.564H256.754V163.094Z" fill="white"/>
<path d="M256.754 168.033H341.799V170.502H256.754V168.033Z" fill="white"/>
<path d="M256.754 172.962H341.799V175.431H256.754V172.962Z" fill="white"/>
<path d="M266.243 177.891H341.799V180.361H266.243V177.891Z" fill="white"/>
<path d="M256.753 192.115H275.4V194.585H256.753V192.115Z" fill="white"/>
</g>
<path opacity="0.1" d="M247.037 164.861H299.745C300.986 164.861 301.992 165.842 301.992 167.052V209.03C301.992 210.241 300.986 211.222 299.745 211.222H247.037C245.796 211.222 244.79 210.241 244.79 209.03V167.052C244.79 165.842 245.796 164.861 247.037 164.861Z" fill="black"/>
<path d="M239.984 173.637H292.693C293.934 173.637 294.939 174.619 294.939 175.829V217.807C294.939 219.018 293.934 219.999 292.693 219.999H239.984C238.743 219.999 237.737 219.018 237.737 217.807V175.829C237.737 174.619 238.743 173.637 239.984 173.637Z" fill="#3C8FD2"/>
<path opacity="0.3" d="M239.984 173.637H292.693C293.934 173.637 294.939 174.619 294.939 175.829V217.807C294.939 219.018 293.934 219.999 292.693 219.999H239.984C238.743 219.999 237.737 219.018 237.737 217.807V175.829C237.737 174.619 238.743 173.637 239.984 173.637Z" fill="white"/>
<path d="M277.97 200.652H289.346V206.201H277.97V200.652Z" fill="#3C8FD2"/>
<path d="M244.789 200.652H277.021V206.201H244.789V200.652Z" fill="#3C8FD2"/>
<path d="M277.97 193.253H289.346V199.727H277.97V193.253Z" fill="#3C8FD2"/>
<path d="M277.97 186.779H289.346V192.328H277.97V186.779Z" fill="#3C8FD2"/>
<path d="M244.789 193.253H277.021V199.727H244.789V193.253Z" fill="#3C8FD2"/>
<path d="M244.789 207.125H277.021V213.599H244.789V207.125Z" fill="#3C8FD2"/>
<path d="M244.789 186.779H277.021V192.328H244.789V186.779Z" fill="#3C8FD2"/>
<path d="M277.97 207.125H289.346V213.599H277.97V207.125Z" fill="#3C8FD2"/>
<path d="M277.97 179.381H289.346V185.854H277.97V179.381Z" fill="#3C8FD2"/>
<path d="M244.789 179.381H277.021V185.854H244.789V179.381Z" fill="#3C8FD2"/>
<path opacity="0.1" d="M230.665 84.6968H283.373C284.614 84.6968 285.62 85.6781 285.62 86.8886V128.867C285.62 130.077 284.614 131.058 283.373 131.058H230.665C229.424 131.058 228.418 130.077 228.418 128.867V86.8886C228.418 85.6781 229.424 84.6968 230.665 84.6968Z" fill="black"/>
<path d="M220.076 82.5044H272.784C274.025 82.5044 275.031 83.4857 275.031 84.6962V126.674C275.031 127.885 274.025 128.866 272.784 128.866H220.076C218.835 128.866 217.829 127.885 217.829 126.674V84.6962C217.829 83.4857 218.835 82.5044 220.076 82.5044Z" fill="#3C8FD2"/>
<path opacity="0.3" d="M220.076 82.5044H272.784C274.025 82.5044 275.031 83.4857 275.031 84.6962V126.674C275.031 127.885 274.025 128.866 272.784 128.866H220.076C218.835 128.866 217.829 127.885 217.829 126.674V84.6962C217.829 83.4857 218.835 82.5044 220.076 82.5044Z" fill="white"/>
<path d="M223.934 88.7473H238.154V95.2211H223.934V88.7473Z" fill="#3C8FD2"/>
<path d="M239.102 88.7473H253.322V95.2211H239.102V88.7473Z" fill="#3C8FD2"/>
<path d="M239.102 95.2209H253.322V122.966H239.102V95.2209Z" fill="#3C8FD2"/>
<path d="M223.934 95.2209H238.154V122.966H223.934V95.2209Z" fill="#3C8FD2"/>
<path d="M254.27 88.7473H268.49V95.2211H254.27V88.7473Z" fill="#3C8FD2"/>
<path d="M254.27 95.2209H268.49V122.966H254.27V95.2209Z" fill="#3C8FD2"/>
<path opacity="0.1" d="M212.748 133.352H265.456C266.697 133.352 267.703 134.333 267.703 135.544V177.522C267.703 178.732 266.697 179.714 265.456 179.714H212.748C211.507 179.714 210.501 178.732 210.501 177.522V135.544C210.501 134.333 211.507 133.352 212.748 133.352Z" fill="black"/>
<path d="M193.532 130.383H246.241C247.481 130.383 248.487 131.364 248.487 132.575V174.553C248.487 175.763 247.481 176.744 246.241 176.744H193.532C192.291 176.744 191.285 175.763 191.285 174.553V132.575C191.285 131.364 192.291 130.383 193.532 130.383Z" fill="#3C8FD2"/>
<path opacity="0.3" d="M193.532 130.383H246.241C247.481 130.383 248.487 131.364 248.487 132.575V174.553C248.487 175.763 247.481 176.744 246.241 176.744H193.532C192.291 176.744 191.285 175.763 191.285 174.553V132.575C191.285 131.364 192.291 130.383 193.532 130.383Z" fill="white"/>
<path d="M197.389 136.838H219.193V152.56H197.389V136.838Z" fill="#3C8FD2"/>
<path d="M220.141 136.838H241.945V152.56H220.141V136.838Z" fill="#3C8FD2"/>
<path d="M220.141 153.485H241.945V171.057H220.141V153.485Z" fill="#3C8FD2"/>
<path d="M197.389 153.485H219.193V171.057H197.389V153.485Z" fill="#3C8FD2"/>
<path opacity="0.2" d="M191.701 132.575V163.659H211.353C211.905 163.676 212.454 163.58 212.965 163.376C213.476 163.172 213.938 162.866 214.32 162.477C214.701 162.088 214.995 161.625 215.181 161.118C215.368 160.611 215.442 160.071 215.401 159.534V130.365H193.531C192.289 130.365 191.701 131.364 191.701 132.575Z" fill="black"/>
<path opacity="0.1" d="M211.553 41.1089H264.262C265.503 41.1089 266.509 42.0902 266.509 43.3007V85.2787C266.509 86.4892 265.503 87.4705 264.262 87.4705H211.553C210.312 87.4705 209.306 86.4892 209.306 85.2787V43.3007C209.306 42.0902 210.312 41.1089 211.553 41.1089Z" fill="black"/>
<path d="M202.064 32.7766H254.773C256.014 32.7766 257.02 33.7579 257.02 34.9685V76.9464C257.02 78.1569 256.014 79.1383 254.773 79.1383H202.064C200.823 79.1383 199.817 78.1569 199.817 76.9464V34.9685C199.817 33.7579 200.823 32.7766 202.064 32.7766Z" fill="#3C8FD2"/>
<path opacity="0.3" d="M202.064 32.7766H254.773C256.014 32.7766 257.02 33.7579 257.02 34.9685V76.9464C257.02 78.1569 256.014 79.1383 254.773 79.1383H202.064C200.823 79.1383 199.817 78.1569 199.817 76.9464V34.9685C199.817 33.7579 200.823 32.7766 202.064 32.7766Z" fill="white"/>
<path d="M216.349 38.8064H234.361V43.4305H216.349V38.8064Z" fill="#3C8FD2"/>
<path d="M225.829 44.3557H234.361V73.0254H225.829V44.3557Z" fill="#3C8FD2"/>
<path d="M205.922 38.8064H215.402V43.4305H205.922V38.8064Z" fill="#3C8FD2"/>
<path d="M205.922 44.3557H215.402V73.0254H205.922V44.3557Z" fill="#3C8FD2"/>
<path d="M216.35 44.3557H224.882V73.0254H216.35V44.3557Z" fill="#3C8FD2"/>
<path d="M235.31 44.3557H250.478V73.0254H235.31V44.3557Z" fill="#3C8FD2"/>
<path d="M235.31 38.8064H250.478V43.4305H235.31V38.8064Z" fill="#3C8FD2"/>
<path d="M44.6757 141.175H109.216C111.682 141.175 113.681 143.125 113.681 145.531V208.493C113.681 210.899 111.682 212.849 109.216 212.849H44.6757C42.2097 212.849 40.2107 210.899 40.2107 208.493V145.531C40.2107 143.125 42.2097 141.175 44.6757 141.175Z" fill="#3C8FD2"/>
<path opacity="0.25" d="M49.5011 150.544H104.087V203.49H49.5011V150.544Z" fill="white"/>
<path opacity="0.25" d="M104.087 203.425L90.1893 192.281L85.6483 195.851L71.2577 183.995L64.1856 190.783L49.5011 178.76V203.425H104.087Z" fill="white"/>
<path opacity="0.25" d="M104.087 203.425L92.3223 181.895L78.5763 183.985L68.2999 170.89L57.7203 172.748L49.5011 164.74V203.425H104.087Z" fill="white"/>
<path opacity="0.25" d="M104.087 203.425L76.9457 200.151L68.1483 195.86L58.6683 196.785L49.5011 192.327V203.425H104.087Z" fill="white"/>
<path opacity="0.2" d="M47.6048 141.462V148.86C47.6561 150.071 48.172 151.218 49.05 152.075C49.9281 152.931 51.1041 153.434 52.3448 153.484H105.433V175.199C105.494 176.367 106.028 177.462 106.916 178.246C107.805 179.03 108.976 179.438 110.173 179.38H113.965V145.531C113.965 143.126 111.69 141.462 109.225 141.462H47.6048Z" fill="black"/>
<path d="M134.157 80.312H198.697C201.163 80.312 203.162 82.2622 203.162 84.6679V147.63C203.162 150.036 201.163 151.986 198.697 151.986H134.157C131.691 151.986 129.692 150.036 129.692 147.63V84.6679C129.692 82.2622 131.691 80.312 134.157 80.312Z" fill="#3C8FD2"/>
<path opacity="0.8" d="M157.09 87.7939H176.059C176.515 87.7939 176.884 88.1542 176.884 88.5985V99.0399C176.884 99.4842 176.515 99.8445 176.059 99.8445H157.09C156.634 99.8445 156.265 99.4842 156.265 99.0399V88.5985C156.265 88.1542 156.634 87.7939 157.09 87.7939Z" fill="white"/>
<path opacity="0.6" d="M171.565 113.717H186.591C187.047 113.717 187.416 114.077 187.416 114.521V122.114C187.416 122.559 187.047 122.919 186.591 122.919H171.565C171.11 122.919 170.741 122.559 170.741 122.114V114.521C170.741 114.077 171.11 113.717 171.565 113.717Z" fill="white"/>
<path opacity="0.6" d="M146.264 113.717H161.29C161.745 113.717 162.114 114.077 162.114 114.521V122.114C162.114 122.559 161.745 122.919 161.29 122.919H146.264C145.808 122.919 145.439 122.559 145.439 122.114V114.521C145.439 114.077 145.808 113.717 146.264 113.717Z" fill="white"/>
<path opacity="0.4" d="M161.82 133.185H168.92C169.376 133.185 169.745 133.545 169.745 133.989V140.241C169.745 140.685 169.376 141.046 168.92 141.046H161.82C161.364 141.046 160.995 140.685 160.995 140.241V133.989C160.995 133.545 161.364 133.185 161.82 133.185Z" fill="white"/>
<path opacity="0.4" d="M150.709 133.185H157.81C158.266 133.185 158.635 133.545 158.635 133.989V140.241C158.635 140.685 158.266 141.046 157.81 141.046H150.709C150.254 141.046 149.885 140.685 149.885 140.241V133.989C149.885 133.545 150.254 133.185 150.709 133.185Z" fill="white"/>
<path opacity="0.4" d="M139.589 133.185H146.69C147.145 133.185 147.515 133.545 147.515 133.989V140.241C147.515 140.685 147.145 141.046 146.69 141.046H139.589C139.134 141.046 138.765 140.685 138.765 140.241V133.989C138.765 133.545 139.134 133.185 139.589 133.185Z" fill="white"/>
<path opacity="0.4" d="M187.54 133.185H194.64C195.096 133.185 195.465 133.545 195.465 133.989V140.241C195.465 140.685 195.096 141.046 194.64 141.046H187.54C187.084 141.046 186.715 140.685 186.715 140.241V133.989C186.715 133.545 187.084 133.185 187.54 133.185Z" fill="white"/>
<path opacity="0.4" d="M175.48 133.185H182.581C183.036 133.185 183.405 133.545 183.405 133.989V140.241C183.405 140.685 183.036 141.046 182.581 141.046H175.48C175.024 141.046 174.655 140.685 174.655 140.241V133.989C174.655 133.545 175.024 133.185 175.48 133.185Z" fill="white"/>
<g opacity="0.3">
<path d="M154.729 113.717H153.781V107.243H166.105V99.8442H167.053V107.243H179.377V113.717H178.429V108.168H154.729V113.717Z" fill="white"/>
<path d="M179.377 128.514H191.701V133.138H190.753V129.439H179.377V133.138H178.429V122.965H179.377V128.514Z" fill="white"/>
<path d="M153.781 129.439V122.965H154.729V129.439H166.105V133.138H165.157V130.364H154.729V133.138H153.781V130.364H143.353V133.138H142.405V129.439H153.781Z" fill="white"/>
</g>
<path opacity="0.2" d="M130.081 84.6682V105.394H182.155C183.405 105.353 184.594 104.855 185.484 103.998C186.375 103.141 186.902 101.988 186.961 100.769V80.4232H134.148C133.588 80.4191 133.034 80.5283 132.519 80.7439C132.005 80.9594 131.542 81.2767 131.16 81.6756C130.778 82.0745 130.485 82.5464 130.299 83.0615C130.113 83.5766 130.039 84.1237 130.081 84.6682Z" fill="black"/>
<path d="M33.413 49.1545H97.9529C100.419 49.1545 102.418 51.1048 102.418 53.5105V116.473C102.418 118.879 100.419 120.829 97.9529 120.829H33.413C30.947 120.829 28.948 118.879 28.948 116.473V53.5105C28.948 51.1048 30.947 49.1545 33.413 49.1545Z" fill="#3C8FD2"/>
<path opacity="0.25" d="M38.3907 58.5137H92.9766V111.46H38.3907V58.5137Z" fill="white"/>
<path opacity="0.35" d="M81.9039 91.0586H87.4023V104.811H81.9039V91.0586Z" fill="white"/>
<path opacity="0.35" d="M81.9039 91.0586H87.4023V111.46H81.9039V91.0586Z" fill="white"/>
<path opacity="0.35" d="M72.4235 81.4216H77.9219V101.666H72.4235V81.4216Z" fill="white"/>
<path opacity="0.35" d="M72.4235 81.4216H77.9219V111.46H72.4235V81.4216Z" fill="white"/>
<path opacity="0.35" d="M62.9342 87.3501H68.4326V103.599H62.9342V87.3501Z" fill="white"/>
<path opacity="0.35" d="M62.9342 87.3501H68.4326V111.46H62.9342V87.3501Z" fill="white"/>
<path opacity="0.35" d="M53.445 79.0269H58.9434V100.89H53.445V79.0269Z" fill="white"/>
<path opacity="0.35" d="M53.445 79.0269H58.9434V111.461H53.445V79.0269Z" fill="white"/>
<path opacity="0.35" d="M43.9645 66.3105H49.4629V96.7374H43.9645V66.3105Z" fill="white"/>
<path opacity="0.35" d="M43.9645 66.3105H49.4629V111.461H43.9645V66.3105Z" fill="white"/>
<path opacity="0.2" d="M82.6809 48.9785V88.1912C82.7107 89.3474 83.2096 90.4449 84.0681 91.2425C84.9266 92.0401 86.0745 92.4728 87.2597 92.4455H102.589V53.5009C102.562 52.3112 102.067 51.1773 101.205 50.3349C100.343 49.4926 99.1821 49.0068 97.9626 48.9785H82.6809Z" fill="black"/>
<path d="M94 0H158.54C161.006 0 163.005 1.95022 163.005 4.35594V67.3183C163.005 69.724 161.006 71.6742 158.54 71.6742H94C91.534 71.6742 89.5349 69.724 89.5349 67.3183V4.35594C89.5349 1.95022 91.534 0 94 0Z" fill="#3C8FD2"/>
<path opacity="0.25" d="M102.479 39.6058C100.347 26.7948 109.265 14.7237 122.397 12.6442C135.529 10.5647 147.902 19.2642 150.034 32.0752C152.166 44.8861 143.248 56.9573 130.116 59.0368C116.984 61.1163 104.611 52.4167 102.479 39.6058Z" fill="white"/>
<path opacity="0.25" d="M126.289 35.8373L102.589 40.221C103.443 44.6007 105.557 48.653 108.684 51.9048C111.81 55.1565 115.82 57.4736 120.246 58.5854C124.671 59.6972 129.33 59.558 133.678 58.1838C138.025 56.8097 141.882 54.2574 144.799 50.825C147.715 47.3926 149.571 43.2216 150.148 38.799C150.726 34.3765 150.003 29.8848 148.062 25.8484C146.121 21.8121 143.043 18.3976 139.188 16.0035C135.333 13.6095 130.859 12.3348 126.289 12.3281V35.8373Z" fill="white"/>
<path opacity="0.25" d="M126.289 35.8373V59.3372C132.596 59.2069 138.599 56.669 143.01 52.2683C147.42 47.8677 149.886 41.9554 149.877 35.8009C149.868 29.6465 147.386 23.7407 142.963 19.352C138.541 14.9632 132.53 12.4414 126.222 12.3281L126.289 35.8373Z" fill="white"/>
<path opacity="0.25" d="M126.289 35.8368L138.982 15.8605C137.099 14.7156 135.06 13.8346 132.925 13.2432C130.792 12.6404 128.585 12.3292 126.365 12.3184L126.289 35.8368Z" fill="white"/>
</svg>
