<svg width="93" height="91" viewBox="0 0 93 91" fill="none" xmlns="http://www.w3.org/2000/svg">
<g clip-path="url(#clip0_237_555)">
<path d="M48.0673 18.8884H48.3699C48.2352 18.1649 48.1649 17.4308 48.1598 16.6949C48.162 13.4867 49.4381 10.4106 51.7074 8.14282C53.9768 5.87505 57.0537 4.60116 60.2619 4.60116H60.3544C61.1842 3.17266 62.3816 1.99262 63.8221 1.18379C65.2625 0.374967 66.8934 -0.0330813 68.5451 0.00209666C70.1967 0.0372746 71.8088 0.514395 73.2135 1.38382C74.6183 2.25324 75.7643 3.4832 76.5326 4.94574C77.3741 4.71991 78.2414 4.60408 79.1127 4.60116C81.744 4.60152 84.2727 5.6218 86.1675 7.44762C88.0623 9.27344 89.1756 11.7626 89.2734 14.3921C90.8154 15.5558 91.9541 17.1732 92.5296 19.0173C93.1051 20.8613 93.0884 22.8393 92.482 24.6735C91.8756 26.5076 90.7098 28.1056 89.1485 29.2432C87.5872 30.3807 85.7087 31.0006 83.777 31.0157C83.0317 31.0141 82.2894 30.921 81.5667 30.7384H49.8827C49.2948 30.921 48.6829 31.0145 48.0673 31.0157C46.4581 31.0157 44.9147 30.3764 43.7767 29.2385C42.6388 28.1006 41.9995 26.5572 41.9995 24.9479C41.9995 23.3386 42.6388 21.7952 43.7767 20.6572C44.9147 19.5193 46.4581 18.88 48.0673 18.88V18.8884Z" fill="#EBEBEB"/>
<path d="M4.46458 19H69.0044C71.4704 19 73.4695 20.9502 73.4695 23.3559V86.3183C73.4695 88.724 71.4704 90.6742 69.0044 90.6742H4.46458C1.99859 90.6742 -0.000488281 88.724 -0.000488281 86.3183V23.3559C-0.000488281 20.9502 1.99859 19 4.46458 19Z" fill="#3C8FD2"/>
<path opacity="0.25" d="M12.9438 58.6057C10.8122 45.7947 19.7297 33.7236 32.8617 31.6441C45.9936 29.5646 58.3672 38.2641 60.4988 51.0751C62.6304 63.886 53.7129 75.9572 40.5809 78.0367C27.449 80.1162 15.0755 71.4166 12.9438 58.6057Z" fill="white"/>
<path opacity="0.25" d="M36.7534 54.8373V78.3372C43.0606 78.2069 49.064 75.669 53.4744 71.2683C57.8847 66.8677 60.3503 60.9554 60.3416 54.8009C60.3329 48.6465 57.8506 42.7407 53.4279 38.352C49.0052 33.9632 42.9946 31.4414 36.687 31.3281L36.7534 54.8373Z" fill="white"/>
<path opacity="0.25" d="M36.7534 54.8368L49.4472 34.8605C47.5635 33.7156 45.5243 32.8346 43.3894 32.2432C41.2571 31.6404 39.0493 31.3292 36.8293 31.3184L36.7534 54.8368Z" fill="white"/>
</g>
<defs>
<clipPath id="clip0_237_555">
<rect width="93" height="91" fill="white"/>
</clipPath>
</defs>
</svg>
