<svg width="93" height="91" viewBox="0 0 93 91" fill="none" xmlns="http://www.w3.org/2000/svg">
<path d="M48.0672 18.8884H48.3698C48.2351 18.1649 48.1648 17.4308 48.1597 16.6949C48.1619 13.4867 49.438 10.4106 51.7073 8.14282C53.9767 5.87505 57.0536 4.60116 60.2618 4.60116H60.3543C61.1841 3.17266 62.3815 1.99262 63.822 1.18379C65.2624 0.374967 66.8933 -0.0330813 68.545 0.00209666C70.1966 0.0372746 71.8087 0.514395 73.2134 1.38382C74.6182 2.25324 75.7642 3.4832 76.5325 4.94574C77.374 4.71991 78.2413 4.60408 79.1126 4.60116C81.7439 4.60152 84.2726 5.6218 86.1674 7.44762C88.0622 9.27344 89.1755 11.7626 89.2733 14.3921C90.8153 15.5558 91.954 17.1732 92.5295 19.0173C93.105 20.8613 93.0883 22.8393 92.4819 24.6735C91.8755 26.5076 90.7097 28.1056 89.1484 29.2432C87.5871 30.3807 85.7086 31.0006 83.7769 31.0157C83.0316 31.0141 82.2893 30.921 81.5666 30.7384H49.8826C49.2947 30.921 48.6828 31.0145 48.0672 31.0157C46.458 31.0157 44.9146 30.3764 43.7766 29.2385C42.6387 28.1006 41.9994 26.5572 41.9994 24.9479C41.9994 23.3386 42.6387 21.7952 43.7766 20.6572C44.9146 19.5193 46.458 18.88 48.0672 18.88V18.8884Z" fill="#EBEBEB"/>
<path d="M4.46482 19H69.0046C71.4706 19 73.4697 20.9502 73.4697 23.3559V86.3183C73.4697 88.724 71.4706 90.6742 69.0046 90.6742H4.46482C1.99883 90.6742 -0.00025177 88.724 -0.00025177 86.3183V23.3559C-0.00025177 20.9502 1.99883 19 4.46482 19Z" fill="#3C8FD2"/>
<path opacity="0.25" d="M12.9438 58.6058C10.8122 45.7948 19.7297 33.7237 32.8617 31.6442C45.9936 29.5647 58.3672 38.2642 60.4988 51.0752C62.6304 63.8861 53.7129 75.9573 40.5809 78.0368C27.449 80.1163 15.0755 71.4167 12.9438 58.6058Z" fill="white"/>
<path opacity="0.25" d="M36.7536 54.8373V78.3372C43.0608 78.2069 49.0642 75.669 53.4746 71.2683C57.8849 66.8677 60.3505 60.9554 60.3418 54.8009C60.3331 48.6465 57.8508 42.7407 53.4281 38.352C49.0054 33.9632 42.9948 31.4414 36.6872 31.3281L36.7536 54.8373Z" fill="white"/>
<path opacity="0.25" d="M36.7535 54.8368L49.4473 34.8605C47.5636 33.7156 45.5244 32.8346 43.3895 32.2432C41.2572 31.6404 39.0494 31.3292 36.8294 31.3184L36.7535 54.8368Z" fill="white"/>
</svg>
