<svg width="108" height="72" viewBox="0 0 108 72" fill="none" xmlns="http://www.w3.org/2000/svg">
<path d="M63.0682 23.8884H63.3708C63.236 23.1649 63.1657 22.4308 63.1607 21.6949C63.1629 18.4867 64.4389 15.4106 66.7083 13.1428C68.9776 10.875 72.0546 9.60116 75.2628 9.60116H75.3552C76.185 8.17266 77.3825 6.99262 78.8229 6.18379C80.2634 5.37497 81.8943 4.96692 83.546 5.0021C85.1976 5.03727 86.8097 5.51439 88.2144 6.38382C89.6191 7.25324 90.7652 8.4832 91.5334 9.94574C92.375 9.71991 93.2422 9.60408 94.1135 9.60116C96.7449 9.60152 99.2736 10.6218 101.168 12.4476C103.063 14.2734 104.176 16.7626 104.274 19.3921C105.816 20.5558 106.955 22.1732 107.53 24.0173C108.106 25.8613 108.089 27.8393 107.483 29.6735C106.876 31.5076 105.711 33.1056 104.149 34.2432C102.588 35.3807 100.71 36.0006 98.7779 36.0157C98.0326 36.0141 97.2902 35.921 96.5676 35.7384H64.8835C64.2957 35.921 63.6838 36.0145 63.0682 36.0157C61.4589 36.0157 59.9155 35.3764 58.7776 34.2385C57.6396 33.1006 57.0004 31.5572 57.0004 29.9479C57.0004 28.3386 57.6396 26.7952 58.7776 25.6572C59.9155 24.5193 61.4589 23.88 63.0682 23.88V23.8884Z" fill="#EBEBEB"/>
<path d="M4.4648 0H69.0047C71.4707 0 73.4697 1.95021 73.4697 4.35593V67.3183C73.4697 69.724 71.4707 71.6742 69.0047 71.6742H4.4648C1.9988 71.6742 -0.000274658 69.724 -0.000274658 67.3183V4.35593C-0.000274658 1.95021 1.9988 0 4.4648 0Z" fill="#3C8FD2"/>
<path opacity="0.8" d="M27.3972 7.48193H46.3667C46.8222 7.48193 47.1914 7.84216 47.1914 8.28653V18.7279C47.1914 19.1722 46.8222 19.5324 46.3667 19.5324H27.3972C26.9417 19.5324 26.5724 19.1722 26.5724 18.7279V8.28653C26.5724 7.84216 26.9417 7.48193 27.3972 7.48193Z" fill="white"/>
<path opacity="0.6" d="M41.8731 33.4048H56.8989C57.3544 33.4048 57.7236 33.765 57.7236 34.2094V41.8022C57.7236 42.2466 57.3544 42.6068 56.8989 42.6068H41.8731C41.4176 42.6068 41.0483 42.2466 41.0483 41.8022V34.2094C41.0483 33.765 41.4176 33.4048 41.8731 33.4048Z" fill="white"/>
<path opacity="0.6" d="M16.5713 33.4048H31.5971C32.0526 33.4048 32.4219 33.765 32.4219 34.2094V41.8022C32.4219 42.2466 32.0526 42.6068 31.5971 42.6068H16.5713C16.1158 42.6068 15.7466 42.2466 15.7466 41.8022V34.2094C15.7466 33.765 16.1158 33.4048 16.5713 33.4048Z" fill="white"/>
<path opacity="0.4" d="M32.1275 52.8726H39.228C39.6835 52.8726 40.0527 53.2328 40.0527 53.6772V59.929C40.0527 60.3734 39.6835 60.7336 39.228 60.7336H32.1275C31.672 60.7336 31.3027 60.3734 31.3027 59.929V53.6772C31.3027 53.2328 31.672 52.8726 32.1275 52.8726Z" fill="white"/>
<path opacity="0.4" d="M21.0171 52.8726H28.1176C28.5731 52.8726 28.9424 53.2328 28.9424 53.6772V59.929C28.9424 60.3734 28.5731 60.7336 28.1176 60.7336H21.0171C20.5616 60.7336 20.1924 60.3734 20.1924 59.929V53.6772C20.1924 53.2328 20.5616 52.8726 21.0171 52.8726Z" fill="white"/>
<path opacity="0.4" d="M9.89697 52.8726H16.9975C17.453 52.8726 17.8223 53.2328 17.8223 53.6772V59.929C17.8223 60.3734 17.453 60.7336 16.9975 60.7336H9.89697C9.44147 60.7336 9.07222 60.3734 9.07222 59.929V53.6772C9.07222 53.2328 9.44147 52.8726 9.89697 52.8726Z" fill="white"/>
<path opacity="0.4" d="M57.8472 52.8726H64.9477C65.4032 52.8726 65.7725 53.2328 65.7725 53.6772V59.929C65.7725 60.3734 65.4032 60.7336 64.9477 60.7336H57.8472C57.3917 60.7336 57.0224 60.3734 57.0224 59.929V53.6772C57.0224 53.2328 57.3917 52.8726 57.8472 52.8726Z" fill="white"/>
<path opacity="0.4" d="M45.7876 52.8726H52.8881C53.3436 52.8726 53.7129 53.2328 53.7129 53.6772V59.929C53.7129 60.3734 53.3436 60.7336 52.8881 60.7336H45.7876C45.3321 60.7336 44.9629 60.3734 44.9629 59.929V53.6772C44.9629 53.2328 45.3321 52.8726 45.7876 52.8726Z" fill="white"/>
<path d="M25.0356 33.4047H24.0876V26.9309H36.4116V19.5322H37.3596V26.9309H49.6836V33.4047H48.7356V27.8557H25.0356V33.4047Z" fill="white"/>
<path d="M49.6838 48.2023H62.0078V52.8264H61.0598V49.1271H49.6838V52.8264H48.7358V42.6533H49.6838V48.2023Z" fill="white"/>
<path d="M24.0881 49.1271V42.6533H25.0361V49.1271H36.4121V52.8264H35.4641V50.0519H25.0361V52.8264H24.0881V50.0519H13.6601V52.8264H12.7121V49.1271H24.0881Z" fill="white"/>
</svg>
