<svg width="25" height="25" viewBox="0 0 25 25" fill="none" xmlns="http://www.w3.org/2000/svg">
<g clip-path="url(#clip0_213_647)">
<path d="M8.17747 11.2675L8.17168 13.6202L18.7588 13.6462L18.7501 17.1752L24.6434 12.4843L18.7732 7.76449L18.7646 11.2935L8.17747 11.2675Z" fill="#3182CE"/>
<path d="M3.44278 23.0192L14.0299 23.0452C15.3274 23.0484 16.3852 21.9958 16.3884 20.6983L16.3999 15.993L14.0472 15.9872L14.0357 20.6926L3.44856 20.6665L3.48904 4.19772L14.0761 4.22375L14.0646 8.92912L16.4173 8.93491L16.4288 4.22953C16.432 2.93203 15.3794 1.87425 14.0819 1.87106L3.49483 1.84504C2.19732 1.84185 1.13954 2.89444 1.13635 4.19194L1.09587 20.6607C1.09268 21.9583 2.14527 23.016 3.44278 23.0192Z" fill="#3182CE"/>
</g>
<defs>
<clipPath id="clip0_213_647">
<rect width="24.1828" height="24.1827" fill="white" transform="translate(24.9404 24.575) rotate(-179.859)"/>
</clipPath>
</defs>
</svg>
