<svg width="29" height="29" viewBox="0 0 29 29" fill="none" xmlns="http://www.w3.org/2000/svg">
<g clip-path="url(#clip0_338_913)">
<path d="M0 11.6001V23.2001C0 23.9692 0.305535 24.7069 0.84939 25.2507C1.39325 25.7946 2.13087 26.1001 2.9 26.1001H26.1C26.8691 26.1001 27.6068 25.7946 28.1506 25.2507C28.6945 24.7069 29 23.9692 29 23.2001V11.6001L14.5 17.4001L0 11.6001Z" fill="#3182CD"/>
<path d="M2.9 2.8999C2.13087 2.8999 1.39325 3.20544 0.84939 3.74929C0.305535 4.29315 0 5.03077 0 5.7999L0 8.6999L14.5 14.4999L29 8.6999V5.7999C29 5.03077 28.6945 4.29315 28.1506 3.74929C27.6068 3.20544 26.8691 2.8999 26.1 2.8999H2.9Z" fill="#3182CD"/>
</g>
<defs>
<clipPath id="clip0_338_913">
<rect width="29" height="29" fill="white"/>
</clipPath>
</defs>
</svg>
