<svg width="34" height="42" viewBox="0 0 34 42" fill="none" xmlns="http://www.w3.org/2000/svg">
<rect x="5" width="24" height="24" rx="12" fill="#69B04B"/>
<path d="M11.65 16.675L7 12.025L11.65 7.375L12.7 8.45L9.875 11.25H24.1L21.275 8.45L22.35 7.375L26.975 12.025L22.325 16.675L21.25 15.6L24.1 12.775H9.85L12.7 15.6L11.65 16.675Z" fill="white"/>
<path d="M5.73828 36.8438C5.73828 36.6445 5.70703 36.4688 5.64453 36.3164C5.58594 36.1602 5.48047 36.0195 5.32812 35.8945C5.17969 35.7695 4.97266 35.6504 4.70703 35.5371C4.44531 35.4238 4.11328 35.3086 3.71094 35.1914C3.28906 35.0664 2.9082 34.9277 2.56836 34.7754C2.22852 34.6191 1.9375 34.4414 1.69531 34.2422C1.45312 34.043 1.26758 33.8145 1.13867 33.5566C1.00977 33.2988 0.945312 33.0039 0.945312 32.6719C0.945312 32.3398 1.01367 32.0332 1.15039 31.752C1.28711 31.4707 1.48242 31.2266 1.73633 31.0195C1.99414 30.8086 2.30078 30.6445 2.65625 30.5273C3.01172 30.4102 3.4082 30.3516 3.8457 30.3516C4.48633 30.3516 5.0293 30.4746 5.47461 30.7207C5.92383 30.9629 6.26562 31.2812 6.5 31.6758C6.73438 32.0664 6.85156 32.4844 6.85156 32.9297H5.72656C5.72656 32.6094 5.6582 32.3262 5.52148 32.0801C5.38477 31.8301 5.17773 31.6348 4.90039 31.4941C4.62305 31.3496 4.27148 31.2773 3.8457 31.2773C3.44336 31.2773 3.11133 31.3379 2.84961 31.459C2.58789 31.5801 2.39258 31.7441 2.26367 31.9512C2.13867 32.1582 2.07617 32.3945 2.07617 32.6602C2.07617 32.8398 2.11328 33.0039 2.1875 33.1523C2.26562 33.2969 2.38477 33.4316 2.54492 33.5566C2.70898 33.6816 2.91602 33.7969 3.16602 33.9023C3.41992 34.0078 3.72266 34.1094 4.07422 34.207C4.55859 34.3438 4.97656 34.4961 5.32812 34.6641C5.67969 34.832 5.96875 35.0215 6.19531 35.2324C6.42578 35.4395 6.5957 35.6758 6.70508 35.9414C6.81836 36.2031 6.875 36.5 6.875 36.832C6.875 37.1797 6.80469 37.4941 6.66406 37.7754C6.52344 38.0566 6.32227 38.2969 6.06055 38.4961C5.79883 38.6953 5.48438 38.8496 5.11719 38.959C4.75391 39.0645 4.34766 39.1172 3.89844 39.1172C3.50391 39.1172 3.11523 39.0625 2.73242 38.9531C2.35352 38.8438 2.00781 38.6797 1.69531 38.4609C1.38672 38.2422 1.13867 37.9727 0.951172 37.6523C0.767578 37.3281 0.675781 36.9531 0.675781 36.5273H1.80078C1.80078 36.8203 1.85742 37.0723 1.9707 37.2832C2.08398 37.4902 2.23828 37.6621 2.43359 37.7988C2.63281 37.9355 2.85742 38.0371 3.10742 38.1035C3.36133 38.166 3.625 38.1973 3.89844 38.1973C4.29297 38.1973 4.62695 38.1426 4.90039 38.0332C5.17383 37.9238 5.38086 37.7676 5.52148 37.5645C5.66602 37.3613 5.73828 37.1211 5.73828 36.8438ZM10.8066 32.6602V33.4922H7.37891V32.6602H10.8066ZM8.53906 31.1191H9.62305V37.4297C9.62305 37.6445 9.65625 37.8066 9.72266 37.916C9.78906 38.0254 9.875 38.0977 9.98047 38.1328C10.0859 38.168 10.1992 38.1855 10.3203 38.1855C10.4102 38.1855 10.5039 38.1777 10.6016 38.1621C10.7031 38.1426 10.7793 38.127 10.8301 38.1152L10.8359 39C10.75 39.0273 10.6367 39.0527 10.4961 39.0762C10.3594 39.1035 10.1934 39.1172 9.99805 39.1172C9.73242 39.1172 9.48828 39.0645 9.26562 38.959C9.04297 38.8535 8.86523 38.6777 8.73242 38.4316C8.60352 38.1816 8.53906 37.8457 8.53906 37.4238V31.1191ZM15.8164 37.916V34.6523C15.8164 34.4023 15.7656 34.1855 15.6641 34.002C15.5664 33.8145 15.418 33.6699 15.2188 33.5684C15.0195 33.4668 14.7734 33.416 14.4805 33.416C14.207 33.416 13.9668 33.4629 13.7598 33.5566C13.5566 33.6504 13.3965 33.7734 13.2793 33.9258C13.166 34.0781 13.1094 34.2422 13.1094 34.418H12.0254C12.0254 34.1914 12.084 33.9668 12.2012 33.7441C12.3184 33.5215 12.4863 33.3203 12.7051 33.1406C12.9277 32.957 13.1934 32.8125 13.502 32.707C13.8145 32.5977 14.1621 32.543 14.5449 32.543C15.0059 32.543 15.4121 32.6211 15.7637 32.7773C16.1191 32.9336 16.3965 33.1699 16.5957 33.4863C16.7988 33.7988 16.9004 34.1914 16.9004 34.6641V37.6172C16.9004 37.8281 16.918 38.0527 16.9531 38.291C16.9922 38.5293 17.0488 38.7344 17.123 38.9062V39H15.9922C15.9375 38.875 15.8945 38.709 15.8633 38.502C15.832 38.291 15.8164 38.0957 15.8164 37.916ZM16.0039 35.1562L16.0156 35.918H14.9199C14.6113 35.918 14.3359 35.9434 14.0938 35.9941C13.8516 36.041 13.6484 36.1133 13.4844 36.2109C13.3203 36.3086 13.1953 36.4316 13.1094 36.5801C13.0234 36.7246 12.9805 36.8945 12.9805 37.0898C12.9805 37.2891 13.0254 37.4707 13.1152 37.6348C13.2051 37.7988 13.3398 37.9297 13.5195 38.0273C13.7031 38.1211 13.9277 38.168 14.1934 38.168C14.5254 38.168 14.8184 38.0977 15.0723 37.957C15.3262 37.8164 15.5273 37.6445 15.6758 37.4414C15.8281 37.2383 15.9102 37.041 15.9219 36.8496L16.3848 37.3711C16.3574 37.5352 16.2832 37.7168 16.1621 37.916C16.041 38.1152 15.8789 38.3066 15.6758 38.4902C15.4766 38.6699 15.2383 38.8203 14.9609 38.9414C14.6875 39.0586 14.3789 39.1172 14.0352 39.1172C13.6055 39.1172 13.2285 39.0332 12.9043 38.8652C12.584 38.6973 12.334 38.4727 12.1543 38.1914C11.9785 37.9062 11.8906 37.5879 11.8906 37.2363C11.8906 36.8965 11.957 36.5977 12.0898 36.3398C12.2227 36.0781 12.4141 35.8613 12.6641 35.6895C12.9141 35.5137 13.2148 35.3809 13.5664 35.291C13.918 35.2012 14.3105 35.1562 14.7441 35.1562H16.0039ZM18.5996 30H19.6895V37.7695L19.5957 39H18.5996V30ZM23.9727 35.7773V35.9004C23.9727 36.3613 23.918 36.7891 23.8086 37.1836C23.6992 37.5742 23.5391 37.9141 23.3281 38.2031C23.1172 38.4922 22.8594 38.7168 22.5547 38.877C22.25 39.0371 21.9004 39.1172 21.5059 39.1172C21.1035 39.1172 20.75 39.0488 20.4453 38.9121C20.1445 38.7715 19.8906 38.5703 19.6836 38.3086C19.4766 38.0469 19.3105 37.7305 19.1855 37.3594C19.0645 36.9883 18.9805 36.5703 18.9336 36.1055V35.5664C18.9805 35.0977 19.0645 34.6777 19.1855 34.3066C19.3105 33.9355 19.4766 33.6191 19.6836 33.3574C19.8906 33.0918 20.1445 32.8906 20.4453 32.7539C20.7461 32.6133 21.0957 32.543 21.4941 32.543C21.8926 32.543 22.2461 32.6211 22.5547 32.7773C22.8633 32.9297 23.1211 33.1484 23.3281 33.4336C23.5391 33.7188 23.6992 34.0605 23.8086 34.459C23.918 34.8535 23.9727 35.293 23.9727 35.7773ZM22.8828 35.9004V35.7773C22.8828 35.4609 22.8535 35.1641 22.7949 34.8867C22.7363 34.6055 22.6426 34.3594 22.5137 34.1484C22.3848 33.9336 22.2148 33.7656 22.0039 33.6445C21.793 33.5195 21.5332 33.457 21.2246 33.457C20.9512 33.457 20.7129 33.5039 20.5098 33.5977C20.3105 33.6914 20.1406 33.8184 20 33.9785C19.8594 34.1348 19.7441 34.3145 19.6543 34.5176C19.5684 34.7168 19.5039 34.9238 19.4609 35.1387V36.5508C19.5234 36.8242 19.625 37.0879 19.7656 37.3418C19.9102 37.5918 20.1016 37.7969 20.3398 37.957C20.582 38.1172 20.8809 38.1973 21.2363 38.1973C21.5293 38.1973 21.7793 38.1387 21.9863 38.0215C22.1973 37.9004 22.3672 37.7344 22.4961 37.5234C22.6289 37.3125 22.7266 37.0684 22.7891 36.791C22.8516 36.5137 22.8828 36.2168 22.8828 35.9004ZM26.5215 30V39H25.4316V30H26.5215ZM30.8926 39.1172C30.4512 39.1172 30.0508 39.043 29.6914 38.8945C29.3359 38.7422 29.0293 38.5293 28.7715 38.2559C28.5176 37.9824 28.3223 37.6582 28.1855 37.2832C28.0488 36.9082 27.9805 36.498 27.9805 36.0527V35.8066C27.9805 35.291 28.0566 34.832 28.209 34.4297C28.3613 34.0234 28.5684 33.6797 28.8301 33.3984C29.0918 33.1172 29.3887 32.9043 29.7207 32.7598C30.0527 32.6152 30.3965 32.543 30.752 32.543C31.2051 32.543 31.5957 32.6211 31.9238 32.7773C32.2559 32.9336 32.5273 33.1523 32.7383 33.4336C32.9492 33.7109 33.1055 34.0391 33.207 34.418C33.3086 34.793 33.3594 35.2031 33.3594 35.6484V36.1348H28.625V35.25H32.2754V35.168C32.2598 34.8867 32.2012 34.6133 32.0996 34.3477C32.002 34.082 31.8457 33.8633 31.6309 33.6914C31.416 33.5195 31.123 33.4336 30.752 33.4336C30.5059 33.4336 30.2793 33.4863 30.0723 33.5918C29.8652 33.6934 29.6875 33.8457 29.5391 34.0488C29.3906 34.252 29.2754 34.5 29.1934 34.793C29.1113 35.0859 29.0703 35.4238 29.0703 35.8066V36.0527C29.0703 36.3535 29.1113 36.6367 29.1934 36.9023C29.2793 37.1641 29.4023 37.3945 29.5625 37.5938C29.7266 37.793 29.9238 37.9492 30.1543 38.0625C30.3887 38.1758 30.6543 38.2324 30.9512 38.2324C31.334 38.2324 31.6582 38.1543 31.9238 37.998C32.1895 37.8418 32.4219 37.6328 32.6211 37.3711L33.2773 37.8926C33.1406 38.0996 32.9668 38.2969 32.7559 38.4844C32.5449 38.6719 32.2852 38.8242 31.9766 38.9414C31.6719 39.0586 31.3105 39.1172 30.8926 39.1172Z" fill="#AEA9B1"/>
</svg>
