<svg width="26" height="28" viewBox="0 0 26 28" fill="none" xmlns="http://www.w3.org/2000/svg">
<path d="M16.1291 23.7998C17.3401 23.7998 17.9799 25.2334 17.1721 26.135C16.6474 26.7222 16.0044 27.1919 15.2855 27.5133C14.5665 27.8346 13.7877 28.0004 13.0001 27.9998C12.2126 28.0004 11.4338 27.8346 10.7148 27.5133C9.99584 27.1919 9.3529 26.7222 8.82813 26.135C8.05533 25.2726 8.60693 23.9244 9.71573 23.8096L9.86973 23.8012L16.1291 23.7998ZM13.0001 -0.000244141C14.9013 -0.000244141 16.5085 1.26396 17.0251 2.99716L17.0895 3.23656L17.1007 3.29676C18.6441 4.16742 19.9592 5.3913 20.9385 6.86815C21.9177 8.34501 22.5331 10.0328 22.7344 11.7934L22.7736 12.1952L22.8001 12.5998V16.7032L22.8295 16.8936C23.0212 17.9251 23.5921 18.8476 24.4298 19.4794L24.6636 19.6432L24.8904 19.7818C26.0944 20.4636 25.6744 22.2542 24.3626 22.3914L24.2002 22.3998H1.80012C0.360922 22.3998 -0.141679 20.4902 1.10992 19.7818C1.64336 19.4799 2.10427 19.0649 2.46028 18.5659C2.81629 18.067 3.05878 17.4962 3.17073 16.8936L3.20013 16.6934L3.20153 12.5354C3.28689 10.7068 3.81915 8.92701 4.75173 7.35181C5.6843 5.77661 6.98876 4.454 8.55093 3.49976L8.89813 3.29536L8.91213 3.23516C9.11017 2.39799 9.56026 1.64173 10.2017 1.06843C10.8431 0.495126 11.6449 0.132384 12.4989 0.0291557L12.7537 0.00535579L13.0001 -0.000244141Z" fill="#3182CE"/>
</svg>
