<svg xmlns="http://www.w3.org/2000/svg" width="21" height="20" viewBox="0 0 21 20" fill="none">
  <path d="M13.1923 13.9185C13.6451 13.9185 14.0936 13.9229 14.5464 13.9185C14.8076 13.9185 15.0688 13.8837 15.3039 13.7574C15.4999 13.653 15.6174 13.4875 15.6871 13.2829C15.809 12.9172 15.8003 12.5427 15.8046 12.1639C15.8046 11.7373 15.8003 11.3106 15.8046 10.8839C15.8046 10.6401 15.9352 10.5095 16.1791 10.5008C16.5099 10.4877 16.8408 10.4659 17.1717 10.4703C17.3372 10.4746 17.5113 10.4921 17.6507 10.5966C17.7813 10.6923 17.8248 10.8404 17.8422 10.984C17.8684 11.2017 17.8814 11.4238 17.8858 11.6458C17.8901 11.9114 17.8945 12.1814 17.8771 12.4469C17.8422 13.0042 17.7856 13.5615 17.5418 14.0796C17.3546 14.4802 17.076 14.798 16.6841 15.0157C16.375 15.1899 16.0484 15.3031 15.7001 15.3553C15.391 15.4032 15.0819 15.4424 14.7728 15.4729C14.5507 15.4946 14.3287 15.5077 14.1066 15.512C13.336 15.5251 12.5654 15.5382 11.7947 15.5425C11.7033 15.5425 11.6031 15.5208 11.5161 15.4859C11.3506 15.4206 11.3289 15.2073 11.3376 15.0636C11.3463 14.8328 11.3637 14.6021 11.3419 14.3757C11.3158 14.0709 11.4377 13.9185 11.7468 13.9185C12.204 13.9229 12.6611 13.9229 13.1183 13.9229C13.1444 13.9229 13.1662 13.9229 13.1923 13.9229C13.1923 13.9229 13.1923 13.9229 13.1923 13.9185Z" fill="#33E5C5"/>
  <path d="M7.99388 13.9267C8.42491 13.9267 8.85159 13.9267 9.28263 13.9267C9.361 13.9267 9.44372 13.9441 9.52209 13.9572C9.61352 13.9746 9.644 14.0573 9.64835 14.1313C9.66577 14.4448 9.67883 14.7583 9.68318 15.0717C9.68318 15.1458 9.64835 15.2198 9.61787 15.2894C9.56563 15.407 9.45678 15.4592 9.33487 15.4679C9.13459 15.4854 8.93432 15.5028 8.73404 15.5071C8.34219 15.5202 7.94599 15.5332 7.55414 15.5332C7.29726 15.5332 7.04039 15.5158 6.78351 15.4941C6.55711 15.4766 6.33506 15.4549 6.11301 15.42C5.78212 15.3678 5.44687 15.3156 5.12033 15.2285C4.73719 15.1283 4.39324 14.9368 4.11024 14.6538C3.86207 14.4012 3.69227 14.1008 3.58777 13.7612C3.5007 13.4695 3.47457 13.1691 3.47457 12.8687C3.47457 12.3419 3.47457 11.8151 3.47457 11.2926C3.47457 11.1359 3.46587 10.9791 3.47457 10.8267C3.48763 10.6221 3.62696 10.5176 3.80547 10.5046C4.11894 10.4828 4.43678 10.4697 4.75461 10.4697C4.89829 10.4697 5.04196 10.5002 5.17693 10.5437C5.33803 10.596 5.4164 10.7397 5.44252 10.9008C5.46864 11.0749 5.4817 11.2534 5.48606 11.4276C5.49477 11.8194 5.47735 12.2113 5.49912 12.6031C5.51218 12.86 5.51218 13.1256 5.60361 13.3781C5.69504 13.6306 5.88226 13.7786 6.14349 13.8396C6.48309 13.918 6.82705 13.9136 7.17536 13.918C7.4453 13.931 7.71959 13.9267 7.99388 13.9267Z" fill="#33E5C5"/>
  <path d="M13.1959 4.33135C13.7009 4.33135 14.2103 4.31829 14.7153 4.33571C15.0027 4.34441 15.2857 4.3836 15.5687 4.43584C16.0781 4.52728 16.544 4.7232 16.9576 5.04103C17.2972 5.30661 17.5367 5.64621 17.6847 6.05112C17.824 6.44297 17.885 6.85223 17.8806 7.26584C17.8806 7.54013 17.885 7.81443 17.8675 8.08872C17.8588 8.23675 17.8197 8.38913 17.7718 8.53281C17.7282 8.67649 17.602 8.73744 17.467 8.76356C17.3451 8.78969 17.2145 8.8071 17.0882 8.81146C16.8313 8.82452 16.5744 8.82887 16.3132 8.82452C16.2087 8.82452 16.1042 8.7984 16.0041 8.76356C15.8691 8.71132 15.7995 8.59376 15.7908 8.45444C15.782 8.27158 15.782 8.08872 15.7951 7.90586C15.8169 7.6185 15.7951 7.33115 15.7777 7.04815C15.7646 6.82175 15.7254 6.59535 15.6079 6.39072C15.4816 6.16867 15.2901 6.04241 15.0506 5.99887C14.8155 5.95969 14.576 5.94227 14.3366 5.93792C13.7009 5.92486 13.0652 5.92486 12.4339 5.92486C12.2249 5.92486 12.0116 5.94663 11.8026 5.94663C11.7155 5.94663 11.6285 5.93357 11.5457 5.90309C11.4021 5.85084 11.3324 5.72894 11.3237 5.58091C11.3193 5.48077 11.3411 5.37627 11.3411 5.27614C11.3368 5.08892 11.3193 4.90606 11.3193 4.71884C11.3193 4.54469 11.389 4.40537 11.5675 4.34877C11.6328 4.327 11.7068 4.327 11.7808 4.327C12.2511 4.327 12.7213 4.327 13.1915 4.327C13.1959 4.32264 13.1959 4.327 13.1959 4.33135Z" fill="#33E5C5"/>
  <path d="M3.48763 7.95335C3.47457 7.73131 3.45716 7.51361 3.44845 7.29157C3.43539 6.91278 3.46151 6.534 3.5573 6.16392C3.71403 5.56745 4.05799 5.11029 4.60658 4.80988C4.90264 4.64879 5.21612 4.54429 5.54701 4.47028C5.84743 4.40497 6.14784 4.36143 6.45697 4.35272C7.01862 4.33966 7.58026 4.33096 8.14191 4.32225C8.51635 4.31789 8.89513 4.32225 9.26956 4.32225C9.57869 4.32225 9.7006 4.50076 9.69189 4.77069C9.68318 4.99709 9.67883 5.22349 9.67012 5.44989C9.66577 5.53697 9.66577 5.6284 9.65706 5.71548C9.644 5.81997 9.56563 5.90269 9.45678 5.91575C9.34358 5.92882 9.23038 5.92882 9.11718 5.92882C8.38138 5.92882 7.64993 5.92446 6.91412 5.93317C6.63983 5.93752 6.36118 5.94623 6.0956 6.02895C5.83001 6.11168 5.62538 6.25971 5.56007 6.54706C5.52524 6.69509 5.50347 6.84748 5.48606 6.99986C5.46864 7.12177 5.45993 7.24368 5.45993 7.36994C5.45993 7.51797 5.47735 7.666 5.48606 7.81403C5.49476 8.00995 5.49476 8.20588 5.49476 8.4018C5.49476 8.75446 5.32061 8.82412 5.06809 8.82848C4.63705 8.83718 4.20602 8.81977 3.77063 8.80671C3.58777 8.80235 3.48763 8.68915 3.48328 8.48452C3.47893 8.31037 3.48328 8.13621 3.48328 7.96206C3.47893 7.95335 3.48328 7.95335 3.48763 7.95335Z" fill="#33E5C5"/>
</svg>