<svg width="22" height="22" viewBox="0 0 22 22" fill="none" xmlns="http://www.w3.org/2000/svg">
<g clip-path="url(#clip0_606_7079)">
<path d="M5.25157 11.9045H4.56592V10.5332H5.25157C5.43341 10.5332 5.60781 10.6054 5.7364 10.734C5.86498 10.8626 5.93722 11.037 5.93722 11.2189C5.93722 11.4007 5.86498 11.5751 5.7364 11.7037C5.60781 11.8323 5.43341 11.9045 5.25157 11.9045ZM10.0511 14.6471V10.5332H10.7368C10.9186 10.5332 11.093 10.6054 11.2216 10.734C11.3502 10.8626 11.4224 11.037 11.4224 11.2189V13.9615C11.4224 14.1433 11.3502 14.3177 11.2216 14.4463C11.093 14.5749 10.9186 14.6471 10.7368 14.6471H10.0511Z" fill="#024D87"/>
<path fill-rule="evenodd" clip-rule="evenodd" d="M1.82324 2.98859C1.82324 2.44305 2.03996 1.91986 2.42571 1.53411C2.81146 1.14835 3.33466 0.931641 3.88019 0.931641L15.1345 0.931641L19.6501 5.44733V19.4442C19.6501 19.9897 19.4334 20.5129 19.0477 20.8987C18.6619 21.2844 18.1387 21.5011 17.5932 21.5011H3.88019C3.33466 21.5011 2.81146 21.2844 2.42571 20.8987C2.03996 20.5129 1.82324 19.9897 1.82324 19.4442V2.98859ZM5.25149 9.15944H3.19454V16.0159H4.56584V13.2733H5.25149C5.79703 13.2733 6.32022 13.0566 6.70598 12.6709C7.09173 12.2851 7.30844 11.7619 7.30844 11.2164C7.30844 10.6709 7.09173 10.1477 6.70598 9.76191C6.32022 9.37615 5.79703 9.15944 5.25149 9.15944ZM10.7367 9.15944H8.67974V16.0159H10.7367C11.2822 16.0159 11.8054 15.7992 12.1912 15.4135C12.5769 15.0277 12.7936 14.5045 12.7936 13.959V11.2164C12.7936 10.6709 12.5769 10.1477 12.1912 9.76191C11.8054 9.37615 11.2822 9.15944 10.7367 9.15944ZM14.1649 16.0159V9.15944H18.2788V10.5307H15.5362V11.902H16.9075V13.2733H15.5362V16.0159H14.1649Z" fill="#024D87"/>
</g>
<defs>
<clipPath id="clip0_606_7079">
<rect width="20.5695" height="20.5695" fill="white" transform="translate(0.45166 0.933594)"/>
</clipPath>
</defs>
</svg>
