<svg width="27" height="27" viewBox="0 0 27 27" fill="none" xmlns="http://www.w3.org/2000/svg">
<path fill-rule="evenodd" clip-rule="evenodd" d="M15.2732 4.90774C14.9561 4.59065 14.442 4.59065 14.1249 4.90774L8.71185 10.3208C8.39476 10.6379 8.39476 11.152 8.71185 11.469C9.02894 11.7861 9.54304 11.7861 9.86013 11.469L14.699 6.63015L16.0718 8.00298L13.6633 10.442L17.3848 14.1635L22.5308 8.9523C22.9178 8.56527 22.9178 7.94007 22.5308 7.55304L20.2086 5.23085C19.8215 4.84382 19.1963 4.84382 18.8093 5.23085L17.2129 6.84748L15.2732 4.90774ZM4.95557 22.806V19.0846L12.6015 11.5039L16.3229 15.2253L8.67702 22.806H4.95557Z" fill="black" fill-opacity="0.54"/>
</svg>
