<svg width="37" height="37" viewBox="0 0 37 37" fill="none" xmlns="http://www.w3.org/2000/svg">
<path d="M18.2 9.09998C19.85 9.09998 21.2 10.45 21.2 12.1C21.2 13.75 19.85 15.1 18.2 15.1C16.55 15.1 15.2 13.75 15.2 12.1C15.2 10.45 16.55 9.09998 18.2 9.09998ZM18.2 24.1C22.25 24.1 26.9 26.035 27.2 27.1H9.20001C9.54501 26.02 14.165 24.1 18.2 24.1ZM18.2 6.09998C14.885 6.09998 12.2 8.78498 12.2 12.1C12.2 15.415 14.885 18.1 18.2 18.1C21.515 18.1 24.2 15.415 24.2 12.1C24.2 8.78498 21.515 6.09998 18.2 6.09998ZM18.2 21.1C14.195 21.1 6.20001 23.11 6.20001 27.1V30.1H30.2V27.1C30.2 23.11 22.205 21.1 18.2 21.1Z" fill="white"/>
</svg>
