<svg width="11" height="14" viewBox="0 0 11 14" fill="none" xmlns="http://www.w3.org/2000/svg">
<path d="M1.947 0.212363C1.75885 0.0859828 1.53989 0.0131354 1.31353 0.00161584C1.08717 -0.00990374 0.861944 0.0403381 0.661942 0.146965C0.461939 0.253592 0.29469 0.412592 0.178092 0.60695C0.061494 0.801309 -6.57332e-05 1.02371 5.26713e-08 1.25036V12.7504C-1.79955e-05 12.9777 0.0619665 13.2008 0.179282 13.3955C0.296598 13.5902 0.464802 13.7493 0.66579 13.8555C0.866777 13.9618 1.09294 14.0112 1.31993 13.9985C1.54692 13.9858 1.76614 13.9114 1.954 13.7834L10.454 7.99036C10.6227 7.87518 10.7606 7.72042 10.8556 7.53962C10.9506 7.35882 10.9999 7.15749 10.9991 6.95324C10.9983 6.74899 10.9475 6.54805 10.8511 6.36799C10.7546 6.18793 10.6156 6.03424 10.446 5.92036L1.947 0.212363Z" fill="white"/>
</svg>
