<svg width="12" height="17" viewBox="0 0 12 17" fill="none" xmlns="http://www.w3.org/2000/svg">
<path d="M6 1.92188C3.637 1.92188 2 3.61188 2 5.67188C2 6.65588 2.424 7.29688 2.984 7.97587L3.198 8.22888C3.421 8.49288 3.668 8.78487 3.871 9.07687C4.155 9.48787 4.408 9.97288 4.492 10.5669C4.51202 10.7598 4.45649 10.953 4.33707 11.1059C4.21766 11.2588 4.04365 11.3595 3.85158 11.3868C3.65951 11.4141 3.46434 11.3659 3.30704 11.2524C3.14974 11.1388 3.04256 10.9688 3.008 10.7779C2.968 10.4959 2.845 10.2309 2.638 9.93087C2.46912 9.69506 2.28821 9.4681 2.096 9.25088C2.012 9.15088 1.923 9.04587 1.828 8.93087C1.201 8.17188 0.5 7.18787 0.5 5.67188C0.5 2.73187 2.863 0.421875 6 0.421875C9.137 0.421875 11.5 2.73187 11.5 5.67188C11.5 7.18787 10.799 8.17188 10.172 8.93087C10.077 9.04587 9.988 9.15088 9.904 9.24988C9.697 9.49487 9.521 9.70288 9.363 9.93087C9.155 10.2309 9.033 10.4959 8.993 10.7779C8.95613 10.9669 8.84806 11.1345 8.69113 11.2461C8.5342 11.3577 8.34039 11.4047 8.14976 11.3775C7.95913 11.3503 7.78623 11.2509 7.6668 11.0999C7.54736 10.9488 7.49052 10.7576 7.508 10.5659C7.592 9.97287 7.845 9.48787 8.129 9.07687C8.332 8.78487 8.579 8.49288 8.802 8.22888C8.877 8.14088 8.949 8.05587 9.015 7.97587C9.576 7.29688 10 6.65588 10 5.67188C10 3.61188 8.363 1.92188 6 1.92188ZM3.75 12.4219H8.25C8.44891 12.4219 8.63968 12.5009 8.78033 12.6415C8.92098 12.7822 9 12.973 9 13.1719C9 13.3708 8.92098 13.5616 8.78033 13.7022C8.63968 13.8429 8.44891 13.9219 8.25 13.9219H3.75C3.55109 13.9219 3.36032 13.8429 3.21967 13.7022C3.07902 13.5616 3 13.3708 3 13.1719C3 12.973 3.07902 12.7822 3.21967 12.6415C3.36032 12.5009 3.55109 12.4219 3.75 12.4219ZM4 15.6719C4 15.473 4.07902 15.2822 4.21967 15.1415C4.36032 15.0009 4.55109 14.9219 4.75 14.9219H7.25C7.44891 14.9219 7.63968 15.0009 7.78033 15.1415C7.92098 15.2822 8 15.473 8 15.6719C8 15.8708 7.92098 16.0616 7.78033 16.2022C7.63968 16.3429 7.44891 16.4219 7.25 16.4219H4.75C4.55109 16.4219 4.36032 16.3429 4.21967 16.2022C4.07902 16.0616 4 15.8708 4 15.6719Z" fill="#57606A"/>
</svg>
