<svg width="29" height="29" viewBox="0 0 29 29" fill="none" xmlns="http://www.w3.org/2000/svg">
<path fill-rule="evenodd" clip-rule="evenodd" d="M14.5 0.499756C6.7678 0.499756 0.5 6.76756 0.5 14.4998C0.5 22.232 6.7678 28.4998 14.5 28.4998C22.2322 28.4998 28.5 22.232 28.5 14.4998C28.5 6.76756 22.2322 0.499756 14.5 0.499756ZM9.6 10.9998C9.6 10.3563 9.72674 9.7191 9.97299 9.12461C10.2192 8.53011 10.5802 7.98994 11.0352 7.53493C11.4902 7.07993 12.0304 6.71899 12.6249 6.47275C13.2193 6.2265 13.8565 6.09976 14.5 6.09976C15.1435 6.09976 15.7807 6.2265 16.3751 6.47275C16.9696 6.71899 17.5098 7.07993 17.9648 7.53493C18.4198 7.98994 18.7808 8.53011 19.027 9.12461C19.2733 9.7191 19.4 10.3563 19.4 10.9998C19.4 12.2993 18.8838 13.5457 17.9648 14.4646C17.0459 15.3835 15.7996 15.8998 14.5 15.8998C13.2004 15.8998 11.9541 15.3835 11.0352 14.4646C10.1162 13.5457 9.6 12.2993 9.6 10.9998ZM23.2612 21.4774C22.2132 22.7956 20.8809 23.8601 19.3638 24.5912C17.8468 25.3224 16.1841 25.7013 14.5 25.6998C12.8159 25.7013 11.1532 25.3224 9.63616 24.5912C8.11908 23.8601 6.78679 22.7956 5.7388 21.4774C8.0082 19.8492 11.105 18.6998 14.5 18.6998C17.895 18.6998 20.9918 19.8492 23.2612 21.4774Z" fill="#024D87"/>
</svg>
