<svg width="168" height="168" viewBox="0 0 168 168" fill="none" xmlns="http://www.w3.org/2000/svg">
<path fill-rule="evenodd" clip-rule="evenodd" d="M83.9993 0C37.6061 0 -0.000732422 37.6068 -0.000732422 84C-0.000732422 130.393 37.6061 168 83.9993 168C130.392 168 167.999 130.393 167.999 84C167.999 37.6068 130.392 0 83.9993 0ZM54.5993 63C54.5993 59.1391 55.3597 55.3161 56.8372 51.7491C58.3147 48.1821 60.4803 44.9411 63.2103 42.2111C65.9404 39.481 69.1814 37.3154 72.7484 35.8379C76.3153 34.3605 80.1384 33.6 83.9993 33.6C87.8601 33.6 91.6832 34.3605 95.2502 35.8379C98.8171 37.3154 102.058 39.481 104.788 42.2111C107.518 44.9411 109.684 48.1821 111.161 51.7491C112.639 55.3161 113.399 59.1391 113.399 63C113.399 70.7974 110.302 78.2754 104.788 83.7889C99.2746 89.3025 91.7966 92.4 83.9993 92.4C76.2019 92.4 68.7239 89.3025 63.2103 83.7889C57.6968 78.2754 54.5993 70.7974 54.5993 63ZM136.566 125.866C130.279 133.775 122.285 140.162 113.182 144.549C104.08 148.936 94.1037 151.209 83.9993 151.2C73.8948 151.209 63.9188 148.936 54.8162 144.549C45.7137 140.162 37.72 133.775 31.4321 125.866C45.0485 116.096 63.6293 109.2 83.9993 109.2C104.369 109.2 122.95 116.096 136.566 125.866Z" fill="#8A878D"/>
</svg>
