<svg width="370" height="492" viewBox="0 0 370 492" fill="none" xmlns="http://www.w3.org/2000/svg">
<path d="M217 246C249.887 246 281.427 233.041 304.681 209.974C327.936 186.907 341 155.622 341 123C341 90.3784 327.936 59.0928 304.681 36.0259C281.427 12.9589 249.887 0 217 0C184.113 0 152.573 12.9589 129.319 36.0259C106.064 59.0928 92.9999 90.3784 92.9999 123C92.9999 155.622 106.064 186.907 129.319 209.974C152.573 233.041 184.113 246 217 246ZM172.728 292.125C77.3062 292.125 -9.91821e-05 368.808 -9.91821e-05 463.46C-9.91821e-05 479.22 12.8843 492 28.7718 492H405.228C421.116 492 434 479.22 434 463.46C434 368.808 356.694 292.125 261.272 292.125H172.728Z" fill="white" fill-opacity="0.18"/>
</svg>
