<svg width="19" height="21" viewBox="0 0 19 21" fill="none" xmlns="http://www.w3.org/2000/svg">
<path d="M9.02389 10.2271C10.3915 10.2271 11.7031 9.68836 12.6701 8.72938C13.6371 7.7704 14.1804 6.46975 14.1804 5.11355C14.1804 3.75735 13.6371 2.4567 12.6701 1.49772C11.7031 0.538748 10.3915 0 9.02389 0C7.6563 0 6.34472 0.538748 5.37769 1.49772C4.41065 2.4567 3.86738 3.75735 3.86738 5.11355C3.86738 6.46975 4.41065 7.7704 5.37769 8.72938C6.34472 9.68836 7.6563 10.2271 9.02389 10.2271ZM7.18286 12.1447C3.21476 12.1447 0 15.3327 0 19.2677C0 19.9229 0.535793 20.4542 1.19647 20.4542H16.8513C17.512 20.4542 18.0478 19.9229 18.0478 19.2677C18.0478 15.3327 14.833 12.1447 10.8649 12.1447H7.18286Z" fill="#3182CE"/>
</svg>
