<svg width="66" height="66" viewBox="0 0 66 66" fill="none" xmlns="http://www.w3.org/2000/svg">
<path fill-rule="evenodd" clip-rule="evenodd" d="M32.9995 0.483398C15.0409 0.483398 0.483398 15.0409 0.483398 32.9995C0.483398 50.9582 15.0409 65.5157 32.9995 65.5157C50.9582 65.5157 65.5157 50.9582 65.5157 32.9995C65.5157 15.0409 50.9582 0.483398 32.9995 0.483398ZM21.6189 24.8705C21.6189 23.376 21.9132 21.8961 22.4852 20.5153C23.0571 19.1345 23.8954 17.88 24.9522 16.8232C26.009 15.7664 27.2636 14.9281 28.6443 14.3562C30.0251 13.7842 31.505 13.4899 32.9995 13.4899C34.4941 13.4899 35.9739 13.7842 37.3547 14.3562C38.7355 14.9281 39.9901 15.7664 41.0469 16.8232C42.1036 17.88 42.9419 19.1345 43.5139 20.5153C44.0858 21.8961 44.3802 23.376 44.3802 24.8705C44.3802 27.8888 43.1811 30.7835 41.0469 32.9178C38.9126 35.0521 36.0179 36.2511 32.9995 36.2511C29.9812 36.2511 27.0865 35.0521 24.9522 32.9178C22.8179 30.7835 21.6189 27.8888 21.6189 24.8705ZM53.3481 49.2056C50.9141 52.2674 47.8197 54.7397 44.2962 56.4378C40.7726 58.136 36.9109 59.0161 32.9995 59.0124C29.0881 59.0161 25.2264 58.136 21.7029 56.4378C18.1793 54.7397 15.085 52.2674 12.6509 49.2056C17.9218 45.4239 25.1144 42.7544 32.9995 42.7544C40.8847 42.7544 48.0773 45.4239 53.3481 49.2056Z" fill="#024D87"/>
</svg>
