<svg width="119" height="137" viewBox="0 0 119 137" fill="none" xmlns="http://www.w3.org/2000/svg">
<path fill-rule="evenodd" clip-rule="evenodd" d="M27.5333 0H91.4666V9.13333H118.867V123.3C118.867 126.933 117.423 130.418 114.854 132.987C112.285 135.557 108.8 137 105.167 137H13.8333C10.1998 137 6.71519 135.557 4.14594 132.987C1.57669 130.418 0.133301 126.933 0.133301 123.3V9.13333H27.5333V0ZM36.6666 9.13333H82.3333V22.8333C82.3333 24.0445 81.8522 25.206 80.9958 26.0625C80.1394 26.9189 78.9778 27.4 77.7666 27.4H41.2333C40.0221 27.4 38.8606 26.9189 38.0042 26.0625C37.1478 25.206 36.6666 24.0445 36.6666 22.8333V9.13333ZM55.1525 102.586L90.3341 62.3715L83.4658 56.3618L54.7141 89.2235L39.8998 74.4001L33.4334 80.8665L55.1525 102.586Z" fill="#034C85"/>
</svg>
