<svg xmlns="http://www.w3.org/2000/svg" width="12" height="19" viewBox="0 0 12 19" fill="none">
  <g clip-path="url(#clip0_345_1033)">
    <path d="M2.88879 12.5396C2.88879 11.726 3.02167 10.995 3.28744 10.3466C3.5532 9.69808 4.10133 9.13317 4.93184 8.65181C5.18133 8.50232 5.48879 8.33283 5.85422 8.14334C6.23024 7.94586 6.58867 7.71655 6.92557 7.45791C7.26998 7.19747 7.56893 6.88186 7.81032 6.52385C8.05367 6.1589 8.1798 5.72835 8.17184 5.28978C8.17912 4.97036 8.11119 4.6537 7.97354 4.36537C7.84656 4.10797 7.66855 3.87909 7.45032 3.69266C7.22618 3.50587 6.96681 3.36598 6.6876 3.2813C6.40137 3.19095 6.10302 3.14483 5.80286 3.14452C5.46269 3.13987 5.12498 3.20278 4.8093 3.32961C4.51891 3.44927 4.24649 3.60858 3.99981 3.803C3.75939 3.99333 3.54184 4.21089 3.3515 4.4513C3.17629 4.66984 3.01414 4.89855 2.86591 5.13622H2.49066L0.697266 3.6413C0.9047 3.13862 1.19538 2.67449 1.5571 2.26842C1.91078 1.8725 2.32219 1.53223 2.77744 1.2591C3.24054 0.983777 3.74022 0.775275 4.26167 0.639779C4.79845 0.498 5.3514 0.426722 5.90659 0.427745C6.53962 0.428101 7.16925 0.520421 7.77574 0.701813C8.38054 0.879811 8.94386 1.17642 9.43286 1.57436C9.938 1.99249 10.3462 2.5154 10.6293 3.1069C10.9364 3.72995 11.09 4.47351 11.09 5.33758C11.0977 5.81354 11.0348 6.28801 10.9034 6.74554C10.7841 7.1413 10.603 7.51574 10.3669 7.85503C10.1331 8.18858 9.85672 8.49012 9.54472 8.75198C9.20595 9.03421 8.84778 9.2923 8.47286 9.52435C8.14032 9.72435 7.80811 9.91554 7.47625 10.0979C7.15506 10.2731 6.85057 10.4774 6.56659 10.7081C6.29916 10.9248 6.07138 11.1863 5.89337 11.481C5.71913 11.7718 5.63201 12.1249 5.63201 12.5401L2.88879 12.5396ZM2.93964 18.3459V14.9071H5.70574V18.3459H2.93964Z" fill="#7AC958"/>
    <g opacity="0.2">
      <path d="M2.89074 12.5406C2.89074 11.727 3.02363 10.996 3.28939 10.3475C3.55515 9.69906 4.10329 9.13414 4.93379 8.65279C5.18329 8.5033 5.49074 8.33381 5.85617 8.14431C6.2322 7.94684 6.59063 7.71753 6.92752 7.45889C7.27193 7.19845 7.57088 6.88284 7.81227 6.52482C8.05563 6.15988 8.18176 5.72933 8.17379 5.29076C8.18107 4.97134 8.11314 4.65468 7.97549 4.36635C7.84852 4.10894 7.6705 3.88006 7.45227 3.69364C7.22813 3.50684 6.96877 3.36696 6.68956 3.28228C6.40332 3.19193 6.10497 3.14581 5.80481 3.1455C5.46464 3.14085 5.12693 3.20376 4.81125 3.33059C4.52086 3.45025 4.24844 3.60956 4.00176 3.80398C3.76134 3.99431 3.54379 4.21186 3.35346 4.45228C3.17824 4.67082 3.01609 4.89953 2.86786 5.1372H2.49261L0.699219 3.64228C0.906653 3.13959 1.19734 2.67546 1.55905 2.2694C1.91273 1.87348 2.32414 1.5332 2.77939 1.26008C3.24249 0.984753 3.74218 0.776251 4.26363 0.640756C4.8004 0.498976 5.35336 0.427699 5.90854 0.428722C6.54158 0.429078 7.1712 0.521398 7.77769 0.70279C8.38249 0.880787 8.94582 1.1774 9.43481 1.57533C9.93995 1.99346 10.3482 2.51638 10.6313 3.10787C10.9384 3.73092 11.0919 4.47448 11.0919 5.33855C11.0996 5.81452 11.0367 6.28899 10.9053 6.74652C10.786 7.14228 10.605 7.51672 10.3689 7.85601C10.1351 8.18955 9.85867 8.49109 9.54668 8.75296C9.2079 9.03518 8.84974 9.29327 8.47481 9.52533C8.14227 9.72533 7.81007 9.91652 7.4782 10.0989C7.15701 10.2741 6.85252 10.4784 6.56854 10.7091C6.30112 10.9258 6.07333 11.1873 5.89532 11.4819C5.72108 11.7728 5.63397 12.1258 5.63397 12.5411L2.89074 12.5406ZM2.94159 18.3469V14.908H5.70769V18.3469H2.94159Z" fill="black"/>
    </g>
    <path d="M2.51629 12.5396C2.51629 11.7261 2.64917 10.995 2.91494 10.3466C3.1807 9.69809 3.72901 9.13317 4.55985 8.65182C4.80901 8.50233 5.11629 8.33283 5.48172 8.14334C5.85798 7.94599 6.21659 7.71667 6.55358 7.45792C6.89787 7.19735 7.1968 6.88176 7.43833 6.52385C7.6813 6.15875 7.80723 5.72827 7.79934 5.28978C7.8059 4.97114 7.73763 4.65539 7.60002 4.36792C7.47305 4.11051 7.29503 3.88163 7.0768 3.69521C6.85266 3.50841 6.5933 3.36853 6.31409 3.28385C6.02785 3.1935 5.7295 3.14738 5.42934 3.14707C5.08917 3.14144 4.75126 3.20349 4.43528 3.32961C4.14474 3.4493 3.87215 3.60861 3.62528 3.803C3.38502 3.99335 3.16763 4.2109 2.97748 4.45131C2.80211 4.66985 2.63979 4.89855 2.49138 5.13622L0.323242 3.64131C0.530529 3.13854 0.821226 2.67439 1.18307 2.26843C1.53661 1.87236 1.94805 1.53207 2.40341 1.25911C2.86637 0.983861 3.36588 0.775363 3.88714 0.639783C4.4244 0.497827 4.97788 0.426548 5.53358 0.427749C6.16662 0.428069 6.79625 0.52039 7.40273 0.701817C8.00758 0.879701 8.57092 1.17632 9.05985 1.57436C9.56511 1.99238 9.97336 2.51532 10.2563 3.1069C10.5634 3.72995 10.7171 4.47351 10.7175 5.33758C10.725 5.81357 10.662 6.28805 10.5304 6.74555C10.4108 7.14147 10.2292 7.51594 9.99239 7.85504C9.7586 8.18858 9.48218 8.49012 9.17019 8.75199C8.8316 9.03445 8.47342 9.29255 8.09833 9.52436C7.76646 9.72436 7.43426 9.91555 7.10172 10.0979C6.78053 10.2731 6.47604 10.4774 6.19206 10.7081C5.92479 10.9248 5.69717 11.1864 5.51934 11.481C5.34511 11.7718 5.25782 12.1249 5.25748 12.5401L2.51629 12.5396ZM2.56714 18.3459V14.9071H5.33019V18.3459H2.56714Z" fill="#79ED49"/>
  </g>
  <defs>
    <clipPath id="clip0_345_1033">
      <rect width="10.8305" height="18" fill="white" transform="translate(0.299805 0.379883)"/>
    </clipPath>
  </defs>
</svg>