<svg xmlns="http://www.w3.org/2000/svg" width="12" height="19" viewBox="0 0 12 19" fill="none">
  <g clip-path="url(#clip0_345_1019)">
    <path d="M3.01274 12.7011C3.01274 11.8767 3.14739 11.1359 3.4167 10.4788C3.686 9.82169 4.24145 9.24924 5.08303 8.76147C5.33585 8.60998 5.64741 8.43823 6.0177 8.24621C6.39874 8.0461 6.76195 7.81374 7.10334 7.55165C7.45234 7.28774 7.75527 6.96792 7.99988 6.60513C8.24649 6.23532 8.3743 5.79903 8.36623 5.35461C8.3736 5.03093 8.30477 4.71005 8.16528 4.41787C8.03661 4.15704 7.85622 3.92511 7.63508 3.73619C7.40796 3.54691 7.14513 3.40516 6.8622 3.31935C6.57215 3.2278 6.26982 3.18106 5.96566 3.18075C5.62095 3.17603 5.27874 3.23978 4.95885 3.3683C4.66459 3.48956 4.38854 3.65099 4.13857 3.848C3.89494 4.04087 3.67449 4.26133 3.48162 4.50495C3.30407 4.72641 3.13976 4.95816 2.98955 5.199H2.60929L0.791992 3.68415C1.00219 3.17476 1.29675 2.70444 1.66329 2.29297C2.02168 1.89176 2.43858 1.54695 2.8999 1.27019C3.36917 0.99119 3.87552 0.779909 4.40392 0.642606C4.94786 0.498936 5.50819 0.426709 6.07077 0.427745C6.71225 0.428106 7.35027 0.521657 7.96485 0.705467C8.57771 0.885838 9.14854 1.1864 9.64406 1.58964C10.1559 2.01335 10.5696 2.54324 10.8565 3.14262C11.1677 3.77398 11.3233 4.52745 11.3233 5.40304C11.3311 5.88535 11.2673 6.36615 11.1342 6.82978C11.0133 7.23082 10.8298 7.61025 10.5906 7.95406C10.3537 8.29205 10.0736 8.59761 9.75742 8.86297C9.41413 9.14896 9.05118 9.41049 8.67126 9.64564C8.33428 9.84831 7.99765 10.042 7.66136 10.2268C7.33589 10.4044 7.02734 10.6114 6.73957 10.8452C6.46858 11.0648 6.23776 11.3298 6.05737 11.6283C5.88081 11.9231 5.79254 12.2808 5.79254 12.7016L3.01274 12.7011ZM3.06426 18.5848V15.1001H5.86725V18.5848H3.06426Z" fill="#FFD51B"/>
    <g opacity="0.2">
      <path d="M3.01176 12.6991C3.01176 11.8747 3.14641 11.134 3.41572 10.4769C3.68503 9.81974 4.24047 9.24729 5.08205 8.75951C5.33487 8.60803 5.64643 8.43628 6.01672 8.24426C6.39777 8.04415 6.76097 7.81178 7.10237 7.5497C7.45136 7.28579 7.7543 6.96596 7.99891 6.60318C8.24551 6.23336 8.37332 5.79707 8.36525 5.35265C8.37262 5.02897 8.30379 4.7081 8.1643 4.41592C8.03564 4.15508 7.85525 3.92315 7.63411 3.73424C7.40698 3.54496 7.14416 3.40321 6.86123 3.3174C6.57117 3.22584 6.26884 3.1791 5.96468 3.1788C5.61998 3.17408 5.27776 3.23783 4.95788 3.36635C4.66361 3.48761 4.38756 3.64904 4.13759 3.84605C3.89397 4.03892 3.67351 4.25937 3.48064 4.503C3.30309 4.72445 3.13878 4.95621 2.98858 5.19705H2.60832L0.791016 3.6822C1.00122 3.17281 1.29577 2.70249 1.66231 2.29101C2.02071 1.88981 2.43761 1.545 2.89892 1.26823C3.3682 0.989237 3.87455 0.777955 4.40295 0.640653C4.94688 0.496983 5.50721 0.424756 6.0698 0.425792C6.71127 0.426153 7.34929 0.519704 7.96387 0.703514C8.57674 0.883885 9.14757 1.18445 9.64308 1.58769C10.155 2.0114 10.5686 2.54128 10.8555 3.14067C11.1667 3.77202 11.3223 4.5255 11.3223 5.40109C11.3301 5.8834 11.2664 6.3642 11.1332 6.82783C11.0123 7.22886 10.8289 7.6083 10.5896 7.95211C10.3527 8.2901 10.0726 8.59566 9.75644 8.86102C9.41315 9.14701 9.05021 9.40854 8.67028 9.64369C8.33331 9.84636 7.99667 10.0401 7.66039 10.2249C7.33491 10.4025 7.02636 10.6094 6.73859 10.8432C6.46761 11.0628 6.23678 11.3278 6.0564 11.6264C5.87984 11.9211 5.79156 12.2789 5.79156 12.6997L3.01176 12.6991ZM3.06329 18.5828V15.0982H5.86627V18.5828H3.06329Z" fill="black"/>
    </g>
    <path d="M2.6344 12.7011C2.6344 11.8767 2.76905 11.1359 3.03836 10.4788C3.30767 9.82169 3.86328 9.24925 4.70521 8.76147C4.95768 8.60999 5.26907 8.43824 5.63936 8.24622C6.02064 8.04624 6.38403 7.81386 6.72552 7.55165C7.0744 7.28762 7.37732 6.96781 7.62206 6.60513C7.86827 6.23516 7.99588 5.79894 7.98789 5.35461C7.99454 5.03172 7.92536 4.71176 7.78591 4.42045C7.65725 4.15962 7.47686 3.92769 7.25572 3.73877C7.02859 3.54949 6.76577 3.40774 6.48284 3.32193C6.19278 3.23038 5.89045 3.18364 5.58629 3.18333C5.24158 3.17762 4.89917 3.2405 4.57897 3.36831C4.28456 3.48959 4.00834 3.65102 3.75817 3.84801C3.51471 4.04089 3.29443 4.26134 3.10174 4.50496C2.92403 4.72641 2.75955 4.95816 2.60915 5.199L0.412109 3.68416C0.62216 3.17469 0.916733 2.70435 1.2834 2.29297C1.64166 1.89162 2.05858 1.54679 2.52001 1.27019C2.98915 0.991276 3.49532 0.779998 4.02353 0.64261C4.56795 0.498761 5.12881 0.426532 5.69192 0.42775C6.3334 0.428074 6.97143 0.521625 7.58599 0.705471C8.19891 0.885727 8.76976 1.1863 9.26521 1.58965C9.7772 2.01324 10.1909 2.54315 10.4776 3.14262C10.7888 3.77398 10.9446 4.52746 10.9449 5.40304C10.9526 5.88538 10.8887 6.36618 10.7553 6.82978C10.6341 7.23099 10.4501 7.61045 10.2102 7.95407C9.97327 8.29206 9.69317 8.59762 9.37702 8.86298C9.03391 9.1492 8.67095 9.41075 8.29086 9.64565C7.95457 9.84831 7.61794 10.042 7.28096 10.2269C6.95549 10.4044 6.64694 10.6114 6.35917 10.8452C6.08834 11.0648 5.85769 11.3298 5.67749 11.6283C5.50093 11.9231 5.41248 12.2808 5.41214 12.7016L2.6344 12.7011ZM2.68593 18.5848V15.1001H5.48582V18.5848H2.68593Z" fill="#FFD51B"/>
  </g>
  <defs>
    <clipPath id="clip0_345_1019">
      <rect width="10.9749" height="18.24" fill="white" transform="translate(0.383789 0.379883)"/>
    </clipPath>
  </defs>
</svg>