<svg xmlns="http://www.w3.org/2000/svg" width="11" height="19" viewBox="0 0 11 19" fill="none">
  <g clip-path="url(#clip0_345_1045)">
    <path d="M2.7646 12.3743C2.7646 11.5721 2.89564 10.8512 3.15771 10.2117C3.41978 9.57226 3.9603 9.01519 4.77928 8.54052C5.0253 8.3931 5.32849 8.22597 5.68884 8.03911C6.05965 7.84437 6.4131 7.61825 6.74532 7.3632C7.08494 7.10638 7.37974 6.79515 7.61777 6.44211C7.85775 6.08223 7.98213 5.65766 7.97428 5.22518C7.98145 4.9102 7.91447 4.59794 7.77873 4.31361C7.65352 4.05978 7.47797 3.83408 7.26277 3.65024C7.04175 3.46605 6.78599 3.32811 6.51065 3.2446C6.22839 3.15551 5.93419 3.11002 5.6382 3.10972C5.30275 3.10513 4.96973 3.16717 4.65844 3.29224C4.37208 3.41024 4.10344 3.56733 3.86019 3.75905C3.62311 3.94674 3.40858 4.16127 3.22089 4.39835C3.04811 4.61386 2.88821 4.83938 2.74204 5.07375H2.372L0.603516 3.5996C0.808069 3.10389 1.09471 2.64621 1.4514 2.24579C1.80017 1.85536 2.20587 1.51982 2.65479 1.25048C3.11146 0.978983 3.60421 0.773377 4.11842 0.639764C4.64774 0.499953 5.19301 0.429666 5.74049 0.430675C6.36473 0.431026 6.98561 0.522063 7.58368 0.700936C8.18008 0.876461 8.73558 1.16895 9.21778 1.56136C9.7159 1.97368 10.1185 2.48933 10.3976 3.07262C10.7005 3.68701 10.8519 4.42025 10.8519 5.27231C10.8595 5.74167 10.7975 6.20955 10.6679 6.66072C10.5502 7.05099 10.3717 7.42023 10.1389 7.75481C9.90832 8.08372 9.63575 8.38107 9.32809 8.6393C8.99402 8.9176 8.64083 9.17211 8.27111 9.40094C7.94319 9.59816 7.6156 9.7867 7.28835 9.96653C6.97162 10.1393 6.67136 10.3407 6.39132 10.5682C6.12761 10.782 5.90299 11.0398 5.72745 11.3304C5.55563 11.6172 5.46972 11.9653 5.46972 12.3748L2.7646 12.3743ZM2.81474 18.0999V14.7089H5.54243V18.0999H2.81474Z" fill="#6CA6FC"/>
    <g opacity="0.2">
      <path d="M2.76265 12.3763C2.76265 11.574 2.89369 10.8531 3.15576 10.2137C3.41783 9.57421 3.95835 9.01714 4.77733 8.54247C5.02335 8.39506 5.32654 8.22792 5.68689 8.04106C6.05769 7.84633 6.41114 7.6202 6.74336 7.36516C7.08298 7.10833 7.37778 6.7971 7.61582 6.44406C7.8558 6.08418 7.98018 5.65961 7.97232 5.22713C7.9795 4.91215 7.91251 4.59989 7.77677 4.31557C7.65157 4.06174 7.47602 3.83603 7.26082 3.6522C7.0398 3.468 6.78403 3.33006 6.5087 3.24655C6.22644 3.15746 5.93223 3.11197 5.63624 3.11167C5.3008 3.10709 4.96778 3.16912 4.65649 3.29419C4.37012 3.41219 4.10149 3.56929 3.85824 3.761C3.62116 3.94869 3.40663 4.16322 3.21894 4.4003C3.04615 4.61581 2.88626 4.84134 2.74009 5.07571H2.37004L0.601562 3.60155C0.806116 3.10585 1.09276 2.64816 1.44945 2.24774C1.79822 1.85732 2.20392 1.52177 2.65284 1.25244C3.10951 0.980937 3.60226 0.775331 4.11646 0.641717C4.64579 0.501906 5.19106 0.431619 5.73853 0.432628C6.36278 0.432979 6.98366 0.524017 7.58172 0.702889C8.17813 0.878415 8.73362 1.17091 9.21583 1.56331C9.71395 1.97564 10.1165 2.49129 10.3957 3.07457C10.6985 3.68897 10.8499 4.4222 10.8499 5.27427C10.8575 5.74362 10.7955 6.2115 10.6659 6.66268C10.5483 7.05294 10.3697 7.42218 10.1369 7.75676C9.90637 8.08567 9.6338 8.38302 9.32614 8.64125C8.99207 8.91955 8.63888 9.17406 8.26916 9.40289C7.94124 9.60012 7.61365 9.78865 7.28639 9.96849C6.96966 10.1413 6.6694 10.3427 6.38937 10.5702C6.12566 10.7839 5.90104 11.0418 5.7255 11.3323C5.55368 11.6191 5.46777 11.9673 5.46777 12.3768L2.76265 12.3763ZM2.81279 18.1019V14.7108H5.54047V18.1019H2.81279Z" fill="black"/>
    </g>
    <path d="M2.39501 12.3743C2.39501 11.5721 2.52605 10.8512 2.78812 10.2117C3.05019 9.57226 3.59088 9.01519 4.41019 8.54052C4.65588 8.39311 4.9589 8.22597 5.31925 8.03911C5.69029 7.8445 6.04391 7.61837 6.37623 7.36321C6.71574 7.10626 7.01052 6.79505 7.24868 6.44211C7.48828 6.08208 7.61246 5.65758 7.60469 5.22518C7.61115 4.91096 7.54384 4.59961 7.40814 4.31612C7.28293 4.06229 7.10738 3.83659 6.89218 3.65276C6.67116 3.46856 6.4154 3.33062 6.14006 3.24711C5.8578 3.15802 5.56359 3.11253 5.26761 3.11223C4.93215 3.10668 4.59894 3.16786 4.28734 3.29224C4.00084 3.41026 3.73204 3.56736 3.48859 3.75905C3.25167 3.94675 3.03731 4.16129 2.84979 4.39836C2.67686 4.61386 2.5168 4.83939 2.37044 5.07376L0.232422 3.59961C0.43683 3.10382 0.72349 2.64612 1.08031 2.24579C1.42894 1.85522 1.83466 1.51966 2.2837 1.25049C2.74023 0.979067 3.2328 0.773464 3.74682 0.639768C4.27662 0.499783 4.82241 0.429494 5.37039 0.430679C5.99464 0.430994 6.61553 0.522033 7.21359 0.70094C7.81003 0.876353 8.36555 1.16886 8.84769 1.56136C9.34593 1.97358 9.74851 2.48925 10.0275 3.07262C10.3304 3.68702 10.482 4.42025 10.4823 5.27232C10.4897 5.7417 10.4275 6.20958 10.2978 6.66073C10.1798 7.05115 10.0008 7.42042 9.76728 7.75481C9.53673 8.08372 9.26416 8.38107 8.9565 8.6393C8.62261 8.91784 8.2694 9.17236 7.89952 9.40095C7.57226 9.59817 7.24467 9.7867 6.91675 9.96654C6.60002 10.1393 6.29976 10.3407 6.01972 10.5682C5.75617 10.782 5.53171 11.0399 5.35636 11.3304C5.18454 11.6172 5.09846 11.9653 5.09813 12.3748L2.39501 12.3743ZM2.44515 18.1V14.7089H5.16983V18.1H2.44515Z" fill="#9FC5FD"/>
  </g>
  <defs>
    <clipPath id="clip0_345_1045">
      <rect width="10.6801" height="17.75" fill="white" transform="translate(0.212891 0.379883)"/>
    </clipPath>
  </defs>
</svg>