<svg width="31" height="31" viewBox="0 0 31 31" fill="none" xmlns="http://www.w3.org/2000/svg">
<path d="M17.7 2.59998H7.70001C6.32501 2.59998 5.21251 3.72498 5.21251 5.09998L5.20001 25.1C5.20001 26.475 6.31251 27.6 7.68751 27.6H22.7C24.075 27.6 25.2 26.475 25.2 25.1V10.1L17.7 2.59998ZM7.70001 25.1V5.09998H16.45V11.35H22.7V25.1H7.70001Z" fill="white"/>
<path d="M20.71 22.1409H9.68958V23.6715H20.71V22.1409Z" fill="white" stroke="white" stroke-width="0.2"/>
<path d="M20.71 19.0132H9.68958V20.5438H20.71V19.0132Z" fill="white" stroke="white" stroke-width="0.2"/>
<path d="M20.71 16.0184H9.68958V17.549H20.71V16.0184Z" fill="white" stroke="white" stroke-width="0.2"/>
<path d="M20.71 12.9571H9.68958V14.4877H20.71V12.9571Z" fill="white" stroke="white" stroke-width="0.2"/>
<path d="M15.5059 9.89587H9.68958V11.4265H15.5059V9.89587Z" fill="white" stroke="white" stroke-width="0.2"/>
<path d="M15.5059 6.83459H9.68958V8.36521H15.5059V6.83459Z" fill="white" stroke="white" stroke-width="0.2"/>
</svg>
