<svg width="395" height="484" viewBox="0 0 395 484" fill="none" xmlns="http://www.w3.org/2000/svg">
<path fill-rule="evenodd" clip-rule="evenodd" d="M295.132 3.6784C286.178 -1.08182e-06 274.804 0 252.081 0C229.357 0 217.983 -1.08182e-06 209.029 3.6784C197.109 8.5719 187.621 17.9991 182.651 29.887C180.376 35.2836 179.505 41.5998 179.142 50.7716C178.98 57.417 177.127 63.9114 173.756 69.6408C170.385 75.3702 165.609 80.1451 159.878 83.5142C154.04 86.7595 147.477 88.4787 140.797 88.5126C134.118 88.5464 127.538 86.8938 121.667 83.7078C113.487 79.4002 107.558 77.0286 101.702 76.2542C88.8889 74.5719 75.9302 78.0159 65.6434 85.8374C57.9478 91.6938 52.2608 101.471 40.911 121C29.537 140.529 23.8742 150.282 22.5916 159.841C20.8976 172.57 24.3824 185.445 32.2716 195.633C35.8532 200.279 40.911 204.175 48.7276 209.064C60.271 216.251 67.6762 228.496 67.6762 242C67.6762 255.504 60.271 267.749 48.7518 274.912C40.911 279.825 35.8532 283.721 32.2474 288.367C28.3532 293.399 25.4948 299.153 23.8375 305.297C22.1801 311.44 21.7567 317.851 22.5916 324.159C23.8742 333.694 29.537 343.471 40.911 363C52.285 382.529 57.9478 392.282 65.6434 398.163C75.9043 405.979 88.8755 409.416 101.702 407.746C107.558 406.971 113.487 404.6 121.667 400.292C127.541 397.102 134.125 395.447 140.809 395.481C147.494 395.515 154.061 397.236 159.903 400.486C171.664 407.262 178.633 419.725 179.142 433.228C179.505 442.424 180.376 448.716 182.651 454.113C187.587 465.971 197.074 475.409 209.029 480.322C217.983 484 229.357 484 252.081 484C274.804 484 286.178 484 295.132 480.322C307.052 475.428 316.54 466.001 321.511 454.113C323.785 448.716 324.657 442.424 325.02 433.228C325.504 419.725 332.497 407.238 344.283 400.486C350.121 397.241 356.684 395.521 363.364 395.487C370.044 395.454 376.624 397.106 382.495 400.292C390.674 404.6 396.603 406.971 402.46 407.746C415.286 409.44 428.257 405.979 438.518 398.163C446.213 392.306 451.9 382.529 463.25 363C474.624 343.471 480.287 333.718 481.57 324.159C482.401 317.849 481.974 311.438 480.312 305.294C478.651 299.151 475.788 293.398 471.89 288.367C468.308 283.721 463.25 279.825 455.434 274.936C443.89 267.749 436.485 255.504 436.485 242C436.485 228.496 443.89 216.251 455.409 209.088C463.25 204.175 468.308 200.279 471.914 195.633C475.808 190.601 478.666 184.847 480.324 178.703C481.981 172.56 482.404 166.149 481.57 159.841C480.287 150.306 474.624 140.529 463.25 121C451.876 101.471 446.213 91.718 438.518 85.8374C428.231 78.0159 415.272 74.5719 402.46 76.2542C396.603 77.0286 390.674 79.4002 382.495 83.7078C376.621 86.8981 370.036 88.553 363.352 88.5192C356.667 88.4854 350.1 86.7638 344.259 83.5142C338.533 80.1422 333.761 75.3659 330.395 69.6367C327.028 63.9076 325.178 57.4147 325.02 50.7716C324.657 41.5756 323.785 35.2836 321.511 29.887C319.051 24 315.455 18.6554 310.929 14.1584C306.403 9.66144 301.035 6.10028 295.132 3.6784ZM252.081 314.6C292.495 314.6 325.237 282.099 325.237 242C325.237 201.901 292.47 169.4 252.081 169.4C211.667 169.4 178.924 201.901 178.924 242C178.924 282.099 211.691 314.6 252.081 314.6Z" fill="white" fill-opacity="0.2"/>
</svg>
