<svg width="28" height="28" viewBox="0 0 28 28" fill="none" xmlns="http://www.w3.org/2000/svg">
<g clip-path="url(#clip0_213_656)">
<path fill-rule="evenodd" clip-rule="evenodd" d="M17.0738 0.2128C16.5558 -6.25849e-08 15.8978 0 14.5832 0C13.2686 0 12.6106 -6.25849e-08 12.0926 0.2128C11.403 0.495895 10.8541 1.04127 10.5666 1.729C10.435 2.0412 10.3846 2.4066 10.3636 2.9372C10.3542 3.32164 10.247 3.69736 10.052 4.02881C9.857 4.36026 9.58068 4.6365 9.24917 4.8314C8.91141 5.01914 8.53173 5.1186 8.14531 5.12056C7.75888 5.12252 7.37821 5.02691 7.03857 4.8426C6.56537 4.5934 6.22237 4.4562 5.88356 4.4114C5.14234 4.31408 4.39266 4.51332 3.79756 4.9658C3.35236 5.3046 3.02336 5.8702 2.36676 7C1.70876 8.1298 1.38116 8.694 1.30696 9.247C1.20896 9.9834 1.41056 10.7282 1.86696 11.3176C2.07416 11.5864 2.36676 11.8118 2.81896 12.0946C3.48676 12.5104 3.91516 13.2188 3.91516 14C3.91516 14.7812 3.48676 15.4896 2.82036 15.904C2.36676 16.1882 2.07416 16.4136 1.86556 16.6824C1.64027 16.9735 1.47491 17.3064 1.37903 17.6618C1.28316 18.0172 1.25866 18.3881 1.30696 18.753C1.38116 19.3046 1.70876 19.8702 2.36676 21C3.02476 22.1298 3.35236 22.694 3.79756 23.0342C4.39116 23.4864 5.14156 23.6852 5.88356 23.5886C6.22237 23.5438 6.56537 23.4066 7.03857 23.1574C7.37838 22.9728 7.75931 22.8771 8.14601 22.8791C8.5327 22.881 8.91264 22.9806 9.25057 23.1686C9.93097 23.5606 10.3342 24.2816 10.3636 25.0628C10.3846 25.5948 10.435 25.9588 10.5666 26.271C10.8522 26.957 11.401 27.503 12.0926 27.7872C12.6106 28 13.2686 28 14.5832 28C15.8978 28 16.5558 28 17.0738 27.7872C17.7634 27.5041 18.3123 26.9587 18.5998 26.271C18.7314 25.9588 18.7818 25.5948 18.8028 25.0628C18.8308 24.2816 19.2354 23.5592 19.9172 23.1686C20.2549 22.9809 20.6346 22.8814 21.0211 22.8794C21.4075 22.8775 21.7882 22.9731 22.1278 23.1574C22.601 23.4066 22.944 23.5438 23.2828 23.5886C24.0248 23.6866 24.7752 23.4864 25.3688 23.0342C25.814 22.6954 26.143 22.1298 26.7996 21C27.4576 19.8702 27.7852 19.306 27.8594 18.753C27.9075 18.388 27.8828 18.017 27.7867 17.6616C27.6905 17.3062 27.5249 16.9734 27.2994 16.6824C27.0922 16.4136 26.7996 16.1882 26.3474 15.9054C25.6796 15.4896 25.2512 14.7812 25.2512 14C25.2512 13.2188 25.6796 12.5104 26.346 12.096C26.7996 11.8118 27.0922 11.5864 27.3008 11.3176C27.5261 11.0265 27.6914 10.6936 27.7873 10.3382C27.8832 9.9828 27.9077 9.61192 27.8594 9.247C27.7852 8.6954 27.4576 8.1298 26.7996 7C26.1416 5.8702 25.814 5.306 25.3688 4.9658C24.7737 4.51332 24.024 4.31408 23.2828 4.4114C22.944 4.4562 22.601 4.5934 22.1278 4.8426C21.788 5.02716 21.4071 5.1229 21.0204 5.12095C20.6337 5.11899 20.2537 5.01939 19.9158 4.8314C19.5845 4.63632 19.3085 4.36001 19.1138 4.02857C18.919 3.69713 18.812 3.32151 18.8028 2.9372C18.7818 2.4052 18.7314 2.0412 18.5998 1.729C18.4575 1.38843 18.2495 1.07924 17.9876 0.819081C17.7258 0.558926 17.4153 0.352909 17.0738 0.2128ZM14.5832 18.2C16.9212 18.2 18.8154 16.3198 18.8154 14C18.8154 11.6802 16.9198 9.8 14.5832 9.8C12.2452 9.8 10.351 11.6802 10.351 14C10.351 16.3198 12.2466 18.2 14.5832 18.2Z" fill="#3182CE"/>
</g>
<defs>
<clipPath id="clip0_213_656">
<rect width="28" height="28" fill="white"/>
</clipPath>
</defs>
</svg>
