<svg width="27" height="27" viewBox="0 0 27 27" fill="none" xmlns="http://www.w3.org/2000/svg">
<path d="M5.36112 13.6006C5.36112 11.9036 6.74054 10.5242 8.43753 10.5242H12.4071V8.63867H8.43753C5.69854 8.63867 3.47559 10.8616 3.47559 13.6006C3.47559 16.3396 5.69854 18.5626 8.43753 18.5626H12.4071V16.677H8.43753C6.74054 16.677 5.36112 15.2976 5.36112 13.6006ZM9.42991 14.593H17.369V12.6082H9.42991V14.593ZM18.3614 8.63867H14.3919V10.5242H18.3614C20.0584 10.5242 21.4378 11.9036 21.4378 13.6006C21.4378 15.2976 20.0584 16.677 18.3614 16.677H14.3919V18.5626H18.3614C21.1004 18.5626 23.3233 16.3396 23.3233 13.6006C23.3233 10.8616 21.1004 8.63867 18.3614 8.63867Z" fill="black" fill-opacity="0.54"/>
</svg>
