<svg xmlns="http://www.w3.org/2000/svg" width="21" height="20" viewBox="0 0 21 20" fill="none">
  <path d="M1.16602 16.6663V14.333C1.16602 13.8608 1.28754 13.4268 1.5306 13.0309C1.77365 12.6351 2.09657 12.333 2.49935 12.1247C3.36046 11.6941 4.23546 11.3712 5.12435 11.1559C6.01324 10.9406 6.91602 10.833 7.83268 10.833C8.74935 10.833 9.65213 10.9406 10.541 11.1559C11.4299 11.3712 12.3049 11.6941 13.166 12.1247C13.5688 12.333 13.8917 12.6351 14.1348 13.0309C14.3778 13.4268 14.4993 13.8608 14.4993 14.333V16.6663H1.16602ZM16.166 16.6663V14.1663C16.166 13.5552 15.9959 12.9684 15.6556 12.4059C15.3153 11.8434 14.8327 11.3608 14.2077 10.958C14.916 11.0413 15.5827 11.1837 16.2077 11.3851C16.8327 11.5865 17.416 11.833 17.9577 12.1247C18.4577 12.4025 18.8396 12.7115 19.1035 13.0518C19.3674 13.392 19.4993 13.7636 19.4993 14.1663V16.6663H16.166ZM7.83268 9.99967C6.91602 9.99967 6.13129 9.67329 5.47852 9.02051C4.82574 8.36773 4.49935 7.58301 4.49935 6.66634C4.49935 5.74967 4.82574 4.96495 5.47852 4.31217C6.13129 3.6594 6.91602 3.33301 7.83268 3.33301C8.74935 3.33301 9.53407 3.6594 10.1868 4.31217C10.8396 4.96495 11.166 5.74967 11.166 6.66634C11.166 7.58301 10.8396 8.36773 10.1868 9.02051C9.53407 9.67329 8.74935 9.99967 7.83268 9.99967ZM16.166 6.66634C16.166 7.58301 15.8396 8.36773 15.1868 9.02051C14.5341 9.67329 13.7493 9.99967 12.8327 9.99967C12.6799 9.99967 12.4855 9.98231 12.2493 9.94759C12.0132 9.91287 11.8188 9.87467 11.666 9.83301C12.041 9.38856 12.3292 8.89551 12.5306 8.35384C12.732 7.81217 12.8327 7.24967 12.8327 6.66634C12.8327 6.08301 12.732 5.52051 12.5306 4.97884C12.3292 4.43717 12.041 3.94412 11.666 3.49967C11.8605 3.43023 12.0549 3.38509 12.2493 3.36426C12.4438 3.34342 12.6382 3.33301 12.8327 3.33301C13.7493 3.33301 14.5341 3.6594 15.1868 4.31217C15.8396 4.96495 16.166 5.74967 16.166 6.66634Z" fill="#6CA6FC"/>
</svg>