<svg width="15" height="15" viewBox="0 0 15 15" fill="none" xmlns="http://www.w3.org/2000/svg">
<path d="M0.5 0C0.632608 0 0.759785 0.0526785 0.853553 0.146447C0.947321 0.240215 1 0.367392 1 0.5V13.5C1 13.6326 0.947321 13.7598 0.853553 13.8536C0.759785 13.9473 0.632608 14 0.5 14C0.367392 14 0.240215 13.9473 0.146447 13.8536C0.0526785 13.7598 0 13.6326 0 13.5V0.5C0 0.367392 0.0526785 0.240215 0.146447 0.146447C0.240215 0.0526785 0.367392 0 0.5 0ZM5.947 0.214C5.75885 0.0876197 5.53989 0.0147723 5.31353 0.00325274C5.08717 -0.00826684 4.86194 0.041975 4.66194 0.148602C4.46194 0.255229 4.29469 0.414228 4.17809 0.608587C4.06149 0.802946 3.99993 1.02535 4 1.252V12.752C3.99998 12.9793 4.06197 13.2024 4.17928 13.3971C4.2966 13.5919 4.4648 13.7509 4.66579 13.8572C4.86678 13.9634 5.09294 14.0129 5.31993 14.0001C5.54692 13.9874 5.76614 13.913 5.954 13.785L14.454 7.992C14.6227 7.87682 14.7606 7.72206 14.8556 7.54126C14.9506 7.36046 14.9999 7.15913 14.9991 6.95488C14.9983 6.75063 14.9475 6.54968 14.8511 6.36962C14.7546 6.18956 14.6156 6.03587 14.446 5.922L5.947 0.214Z" fill="white"/>
</svg>
