<svg width="50" height="50" viewBox="0 0 50 50" fill="none" xmlns="http://www.w3.org/2000/svg">
<path d="M22.9167 35.4168H27.0834V27.0834H35.4167V22.9167H27.0834V14.5834H22.9167V22.9167H14.5834V27.0834H22.9167V35.4168ZM25 45.8334C22.1181 45.8334 19.4097 45.2865 16.875 44.1928C14.3403 43.099 12.1354 41.6147 10.2604 39.7397C8.38544 37.8647 6.90106 35.6598 5.80731 33.1251C4.71356 30.5904 4.16669 27.882 4.16669 25.0001C4.16669 22.1181 4.71356 19.4098 5.80731 16.8751C6.90106 14.3404 8.38544 12.1355 10.2604 10.2605C12.1354 8.3855 14.3403 6.90112 16.875 5.80737C19.4097 4.71362 22.1181 4.16675 25 4.16675C27.882 4.16675 30.5903 4.71362 33.125 5.80737C35.6597 6.90112 37.8646 8.3855 39.7396 10.2605C41.6146 12.1355 43.099 14.3404 44.1927 16.8751C45.2865 19.4098 45.8334 22.1181 45.8334 25.0001C45.8334 27.882 45.2865 30.5904 44.1927 33.1251C43.099 35.6598 41.6146 37.8647 39.7396 39.7397C37.8646 41.6147 35.6597 43.099 33.125 44.1928C30.5903 45.2865 27.882 45.8334 25 45.8334Z" fill="#AEA9B1"/>
</svg>
