<svg width="8315" height="8315" viewBox="0 0 8315 8315" fill="none" xmlns="http://www.w3.org/2000/svg">
<path d="M5577.98 4607.83L5075.62 4105.47C5127.58 3834.08 5049.63 3580.01 4841.76 3343.26C4633.88 3106.51 4365.38 3014.13 4036.24 3066.09L3533.88 2563.73C3632.04 2517.54 3731.65 2482.89 3832.7 2459.79C3933.75 2436.7 4042.01 2425.15 4157.5 2425.15C4590.57 2425.15 4958.69 2576.72 5261.84 2879.87C5564.99 3183.02 5716.56 3551.14 5716.56 3984.21C5716.56 4099.7 5705.01 4207.96 5681.92 4309.01C5658.82 4410.06 5624.17 4509.67 5577.98 4607.83ZM6686.65 5699.18L6184.28 5214.14C6403.71 5046.68 6598.59 4863.35 6768.93 4664.13C6939.27 4464.92 7085.07 4238.28 7206.33 3984.21C6917.62 3401 6503.31 2937.62 5963.41 2594.05C5423.52 2250.47 4821.55 2078.69 4157.5 2078.69C3990.05 2078.69 3825.48 2090.24 3663.8 2113.33C3502.12 2136.43 3343.32 2171.08 3187.42 2217.27L2650.41 1680.26C2887.15 1582.1 3129.67 1508.48 3377.97 1459.39C3626.26 1410.31 3886.11 1385.77 4157.5 1385.77C5029.42 1385.77 5806.06 1626.85 6487.43 2109C7168.8 2591.16 7662.5 3216.23 7968.54 3984.21C7835.73 4324.89 7661.06 4641.04 7444.52 4932.64C7227.99 5224.24 6975.36 5479.75 6686.65 5699.18ZM6859.88 7829.9L5404.75 6392.09C5202.65 6455.61 4999.11 6503.25 4794.12 6535.01C4589.13 6566.77 4376.92 6582.65 4157.5 6582.65C3285.58 6582.65 2508.94 6341.57 1827.57 5859.42C1146.2 5377.26 652.497 4752.19 346.458 3984.21C467.719 3678.17 620.738 3393.79 805.516 3131.06C990.294 2868.32 1201.06 2633.02 1437.8 2425.15L485.042 1455.06L970.084 970.021L7344.92 7344.86L6859.88 7829.9ZM1922.84 2910.19C1755.39 3060.32 1602.37 3224.89 1463.79 3403.89C1325.2 3582.89 1206.83 3776.33 1108.67 3984.21C1397.38 4567.41 1811.69 5030.8 2351.59 5374.37C2891.48 5717.94 3493.46 5889.73 4157.5 5889.73C4272.99 5889.73 4385.59 5882.51 4495.3 5868.08C4605.01 5853.64 4717.61 5837.76 4833.09 5820.44L4521.28 5491.3C4457.76 5508.63 4397.13 5521.62 4339.39 5530.28C4281.65 5538.94 4221.02 5543.27 4157.5 5543.27C3724.43 5543.27 3356.32 5391.7 3053.16 5088.55C2750.01 4785.39 2598.44 4417.28 2598.44 3984.21C2598.44 3920.69 2602.77 3860.06 2611.43 3802.32C2620.09 3744.58 2633.08 3683.95 2650.41 3620.43L1922.84 2910.19Z" fill="#CAC5CD"/>
</svg>
