<svg width="20" height="20" viewBox="0 0 20 20" fill="none" xmlns="http://www.w3.org/2000/svg">
<path d="M9.16797 7.49967H10.8346V5.83301H9.16797V7.49967ZM9.16797 14.1663H10.8346V9.16634H9.16797V14.1663ZM9.99297 18.333C5.39297 18.333 1.66797 14.5997 1.66797 9.99967C1.66797 5.39967 5.39297 1.66634 9.99297 1.66634C14.6013 1.66634 18.3346 5.39967 18.3346 9.99967C18.3346 14.5997 14.6013 18.333 9.99297 18.333ZM10.0013 3.33301C6.31797 3.33301 3.33464 6.31634 3.33464 9.99967C3.33464 13.683 6.31797 16.6663 10.0013 16.6663C13.6846 16.6663 16.668 13.683 16.668 9.99967C16.668 6.31634 13.6846 3.33301 10.0013 3.33301Z" fill="#938F96"/>
</svg>
