<svg xmlns="http://www.w3.org/2000/svg" width="251" height="186" viewBox="0 0 251 186" fill="none">
  <g clip-path="url(#clip0_667_12660)">
    <path d="M250.5 163.262H0.5V163.387H250.5V163.262Z" fill="#EBEBEB"/>
    <path d="M119 141.021H22.4555C21.6991 141.02 20.9742 140.719 20.4399 140.185C19.9056 139.651 19.6055 138.928 19.6055 138.174V2.82241C19.6121 2.07244 19.9151 1.35535 20.4487 0.826886C20.9823 0.298427 21.7035 0.00128474 22.4555 0H119C119.758 0 120.484 0.299987 121.019 0.833968C121.555 1.36795 121.855 2.09218 121.855 2.84735V138.174C121.855 138.929 121.555 139.653 121.019 140.187C120.484 140.721 119.758 141.021 119 141.021ZM22.4555 0.0997323C21.7323 0.101053 21.0392 0.388488 20.5283 0.898947C20.0174 1.40941 19.7305 2.10118 19.7305 2.82241V138.174C19.7305 138.895 20.0174 139.587 20.5283 140.097C21.0392 140.607 21.7323 140.895 22.4555 140.896H119C119.724 140.895 120.418 140.608 120.929 140.097C121.441 139.587 121.729 138.895 121.73 138.174V2.82241C121.729 2.10072 121.441 1.40896 120.929 0.898642C120.418 0.388326 119.724 0.10105 119 0.0997323H22.4555Z" fill="#EBEBEB"/>
    <path d="M227.155 141.021H130.605C129.848 141.02 129.123 140.719 128.588 140.185C128.053 139.652 127.751 138.928 127.75 138.174V2.82241C127.758 2.07199 128.062 1.3549 128.596 0.826574C129.131 0.298253 129.853 0.00127073 130.605 0H227.155C227.906 0.00259527 228.626 0.300317 229.159 0.828636C229.691 1.35696 229.993 2.0733 230 2.82241V138.174C230 138.927 229.701 139.65 229.167 140.183C228.634 140.717 227.91 141.018 227.155 141.021ZM130.605 0.0997323C129.881 0.10105 129.188 0.388326 128.676 0.898642C128.164 1.40896 127.876 2.10072 127.875 2.82241V138.174C127.876 138.895 128.164 139.587 128.676 140.097C129.188 140.608 129.881 140.895 130.605 140.896H227.155C227.879 140.895 228.572 140.608 229.084 140.097C229.596 139.587 229.884 138.895 229.885 138.174V2.82241C229.884 2.10072 229.596 1.40896 229.084 0.898642C228.572 0.388326 227.879 0.10105 227.155 0.0997323H130.605Z" fill="#EBEBEB"/>
    <path d="M100.719 168.008H87.7188V168.133H100.719V168.008Z" fill="#EBEBEB"/>
    <path d="M53.7805 166.658H26.7305V166.783H53.7805V166.658Z" fill="#EBEBEB"/>
    <path d="M87.2186 172.641H74.0586V172.766H87.2186V172.641Z" fill="#EBEBEB"/>
    <path d="M149.028 171.803H129.613V171.928H149.028V171.803Z" fill="#EBEBEB"/>
    <path d="M158.825 171.803H153.48V171.928H158.825V171.803Z" fill="#EBEBEB"/>
    <path d="M225.456 169.699H198.176V169.824H225.456V169.699Z" fill="#EBEBEB"/>
    <path d="M113.151 18.0762H38.9609V96.1563H113.151V18.0762Z" fill="#E6E6E6"/>
    <path d="M121.107 15.5479H34.1619C33.9656 15.5479 33.7774 15.6256 33.6386 15.764C33.4998 15.9024 33.4219 16.0901 33.4219 16.2859C33.4219 16.3826 33.441 16.4783 33.4783 16.5675C33.5155 16.6568 33.5701 16.7378 33.6389 16.806C33.7077 16.8741 33.7893 16.928 33.8791 16.9645C33.9688 17.0011 34.0649 17.0196 34.1619 17.0189H121.107C121.302 17.0189 121.489 16.9417 121.627 16.8042C121.764 16.6667 121.842 16.4803 121.842 16.2859C121.843 16.1892 121.824 16.0933 121.787 16.0038C121.751 15.9143 121.697 15.8329 121.628 15.7643C121.56 15.6957 121.479 15.6413 121.389 15.6041C121.3 15.567 121.204 15.5478 121.107 15.5479Z" fill="#E6E6E6"/>
    <path d="M116.304 18.0762H40.4336V96.1563H116.304V18.0762Z" fill="#F0F0F0"/>
    <path d="M113.151 96.1562H38.9609V99.0734H113.151V96.1562Z" fill="#E6E6E6"/>
    <path d="M121.546 96.1562H45.6758V99.0734H121.546V96.1562Z" fill="#F0F0F0"/>
    <path d="M111.895 91.7634V22.4746L44.8395 22.4746V91.7634H111.895Z" fill="#FAFAFA"/>
    <path d="M60.0586 91.7635L85.9286 22.4697H98.1386L72.2736 91.7635H60.0586Z" fill="white"/>
    <path d="M74.8945 91.7635L100.765 22.4697H105.525L79.6545 91.7635H74.8945Z" fill="white"/>
    <path d="M111.895 91.7585V22.4697H111.335V91.7585H111.895Z" fill="#E6E6E6"/>
    <g opacity="0.6">
      <path d="M43.0181 84.7617H33.7031L38.7231 14.2363H48.0381L43.0181 84.7617Z" fill="#F0F0F0"/>
      <path d="M46.6467 84.7617H39.3867L44.4067 14.2363H51.6667L46.6467 84.7617Z" fill="#E6E6E6"/>
      <path d="M52.3345 84.7617H43.0195L48.0395 14.2363H57.3545L52.3345 84.7617Z" fill="#F0F0F0"/>
      <path d="M55.9631 84.7617H48.7031L53.7281 14.2363H60.9831L55.9631 84.7617Z" fill="#E6E6E6"/>
      <path d="M61.647 84.7617H52.332L57.352 14.2363H66.672L61.647 84.7617Z" fill="#F0F0F0"/>
    </g>
    <g opacity="0.6">
      <path d="M114.761 84.7617H120.026L117.191 14.2363H111.926L114.761 84.7617Z" fill="#F0F0F0"/>
      <path d="M112.711 84.7617H116.811L113.976 14.2363H109.871L112.711 84.7617Z" fill="#E6E6E6"/>
      <path d="M109.495 84.7617H114.76L111.925 14.2363H106.66L109.495 84.7617Z" fill="#F0F0F0"/>
      <path d="M107.445 84.7617H111.545L108.71 14.2363H104.605L107.445 84.7617Z" fill="#E6E6E6"/>
      <path d="M104.23 84.7617H109.495L106.66 14.2363H101.395L104.23 84.7617Z" fill="#F0F0F0"/>
    </g>
    <path d="M213.828 14.2373H162.523V82.2644H213.828V14.2373Z" fill="#E6E6E6"/>
    <path d="M217.725 14.2373H164.125V82.2644H217.725V14.2373Z" fill="#F5F5F5"/>
    <path d="M171.068 17.0143L166.297 75.8936L210.772 79.4779L215.543 20.5987L171.068 17.0143Z" fill="white"/>
    <path d="M214.447 20.5084L209.676 79.3877L210.772 79.4761L215.543 20.5968L214.447 20.5084Z" fill="#E6E6E6"/>
    <path d="M220.553 107.675H191.898V163.26H220.553V107.675Z" fill="#F5F5F5"/>
    <path d="M220.556 107.675H218.191V163.26H220.556V107.675Z" fill="#F0F0F0"/>
    <path d="M128.129 132.778H194.109V109.257H128.129V132.778Z" fill="#E6E6E6"/>
    <path d="M131.306 111.839L220.551 111.839V107.67L131.306 107.67V111.839Z" fill="#F0F0F0"/>
    <path d="M131.311 107.675H102.656V163.26H131.311V107.675Z" fill="#F5F5F5"/>
    <path d="M103.692 125.383H103.822C105.651 125.383 107.404 126.107 108.697 127.397C109.99 128.686 110.717 130.436 110.717 132.259V163.261H96.7969V132.259C96.7969 130.436 97.5233 128.686 98.8164 127.397C100.109 126.107 101.863 125.383 103.692 125.383Z" fill="#E6E6E6"/>
    <path d="M131.31 107.675H128.945V163.26H131.31V107.675Z" fill="#F0F0F0"/>
    <path d="M163.559 107.676H157.379L158.879 95.6729H165.064L163.559 107.676Z" fill="#F0F0F0"/>
    <path d="M164.931 107.676H158.746L160.251 95.6729H166.431L164.931 107.676Z" fill="#F5F5F5"/>
    <path d="M165.68 101.672H159.5L160.25 95.6729H166.43L165.68 101.672Z" fill="#F0F0F0"/>
    <path d="M142.964 100.23H186.694C186.78 100.23 186.865 100.212 186.943 100.177C187.021 100.142 187.091 100.09 187.147 100.026C187.204 99.9619 187.247 99.8865 187.272 99.8048C187.297 99.7231 187.305 99.6369 187.294 99.552L183.924 72.6643C183.906 72.5184 183.835 72.3842 183.724 72.2869C183.614 72.1896 183.471 72.1358 183.324 72.1357H139.594C139.51 72.1374 139.427 72.1564 139.351 72.1916C139.274 72.2267 139.206 72.2773 139.15 72.34C139.094 72.4028 139.052 72.4764 139.026 72.5562C139 72.6361 138.991 72.7204 138.999 72.8039L142.359 99.7316C142.385 99.8724 142.46 99.9996 142.57 100.091C142.681 100.182 142.821 100.231 142.964 100.23Z" fill="#F0F0F0"/>
    <path d="M143.616 100.23H187.346C187.432 100.23 187.516 100.212 187.594 100.177C187.673 100.142 187.742 100.09 187.799 100.026C187.856 99.9619 187.898 99.8865 187.924 99.8048C187.949 99.7231 187.956 99.6369 187.946 99.552L184.576 72.6643C184.557 72.5184 184.486 72.3842 184.376 72.2869C184.265 72.1896 184.123 72.1358 183.976 72.1357H140.246C140.16 72.1359 140.075 72.1541 139.997 72.1893C139.918 72.2244 139.848 72.2757 139.791 72.3397C139.734 72.4038 139.691 72.4791 139.665 72.5608C139.639 72.6425 139.631 72.7288 139.641 72.8139L143.001 99.7316C143.027 99.8741 143.103 100.003 143.216 100.094C143.329 100.185 143.47 100.234 143.616 100.23Z" fill="#F5F5F5"/>
    <path d="M186.535 98.7348L183.38 73.5675C183.374 73.527 183.354 73.49 183.322 73.4634C183.291 73.4368 183.251 73.4224 183.21 73.4229H141.21C141.186 73.4227 141.162 73.4276 141.14 73.4374C141.118 73.4471 141.098 73.4614 141.082 73.4794C141.066 73.4973 141.054 73.5184 141.047 73.5413C141.04 73.5643 141.037 73.5885 141.04 73.6123L144.195 98.7797C144.201 98.8202 144.222 98.8572 144.253 98.8838C144.284 98.9104 144.324 98.9248 144.365 98.9243H186.365C186.389 98.9245 186.413 98.9195 186.435 98.9098C186.457 98.9 186.477 98.8857 186.493 98.8678C186.509 98.8499 186.521 98.8288 186.529 98.8058C186.536 98.7829 186.538 98.7587 186.535 98.7348Z" fill="#E6E6E6"/>
    <path d="M182.054 98.9439L170.954 73.4375H161.219L172.319 98.9439H182.054Z" fill="#EBEBEB"/>
    <path d="M170.445 98.9439L159.345 73.4375H155.84L166.94 98.9439H170.445Z" fill="#EBEBEB"/>
    <path d="M170.539 107.675H160.469V107.55C160.469 107.286 160.574 107.032 160.762 106.845C160.949 106.658 161.204 106.553 161.469 106.553H169.539C169.804 106.553 170.059 106.658 170.246 106.845C170.434 107.032 170.539 107.286 170.539 107.55V107.675Z" fill="#F5F5F5"/>
    <path d="M161.648 107.675H154.818V107.55C154.818 107.286 154.924 107.032 155.111 106.845C155.299 106.658 155.553 106.553 155.818 106.553H160.643C160.909 106.553 161.163 106.658 161.351 106.845C161.538 107.032 161.643 107.286 161.643 107.55V107.675H161.648Z" fill="#F0F0F0"/>
    <path d="M181.681 107.676H150.551L149.711 105.183H177.631L181.681 107.676Z" fill="#F5F5F5"/>
    <path d="M153.977 107.676H148.832L148.137 105.183H153.282L153.977 107.676Z" fill="#F0F0F0"/>
    <path d="M144.07 107.67H135.21C135.21 107.117 135.431 106.587 135.822 106.196C136.214 105.805 136.746 105.586 137.3 105.586H141.98C142.535 105.586 143.066 105.805 143.458 106.196C143.85 106.587 144.07 107.117 144.07 107.67Z" fill="#F0F0F0"/>
    <path d="M45.1119 163.262H53.7969L53.7969 123.005H45.1119L45.1119 163.262Z" fill="#E0E0E0"/>
    <path d="M83.6687 163.262H48.5588L44.2188 115.689H79.3288L83.6687 163.262Z" fill="#E6E6E6"/>
    <path d="M85.4902 163.262H50.3802L46.0352 115.689H81.1502L85.4902 163.262Z" fill="#F0F0F0"/>
    <path d="M55.1819 157.996L51.7969 120.955H76.3519L79.7319 157.996H55.1819Z" fill="white"/>
    <path d="M125.496 185.78C179.037 185.78 222.441 183.253 222.441 180.135C222.441 177.017 179.037 174.49 125.496 174.49C71.9545 174.49 28.5508 177.017 28.5508 180.135C28.5508 183.253 71.9545 185.78 125.496 185.78Z" fill="#F5F5F5"/>
    <path d="M50.0356 60.8333L49.5352 60.8496L49.7526 67.4932L50.2531 67.4769L50.0356 60.8333Z" fill="#407BFF"/>
    <path d="M49.8481 55.0999L49.3477 55.1162L49.4512 58.276L49.9517 58.2598L49.8481 55.0999Z" fill="#407BFF"/>
    <path d="M56.5967 103.157H152.027C152.537 103.16 153.042 103.059 153.512 102.861C153.982 102.664 154.407 102.373 154.762 102.008C155.117 101.642 155.393 101.208 155.575 100.733C155.757 100.258 155.841 99.751 155.822 99.2426L153.697 34.3022C153.654 33.256 153.21 32.2661 152.456 31.5374C151.702 30.8088 150.696 30.3971 149.647 30.3877H54.2167C53.7063 30.3854 53.2008 30.4859 52.7305 30.6834C52.2601 30.8809 51.8347 31.1712 51.4797 31.5369C51.1247 31.9025 50.8476 32.336 50.6649 32.8112C50.4822 33.2864 50.3978 33.7936 50.4167 34.3022L52.5417 99.2327C52.5827 100.281 53.0268 101.273 53.7817 102.004C54.5367 102.735 55.5447 103.148 56.5967 103.157Z" fill="#407BFF"/>
    <path d="M56.9043 103.157H152.334C152.845 103.159 153.35 103.059 153.821 102.861C154.291 102.664 154.716 102.374 155.071 102.008C155.426 101.642 155.703 101.209 155.886 100.734C156.069 100.258 156.153 99.7512 156.134 99.2426L153.999 34.3022C153.956 33.2556 153.511 32.2657 152.756 31.5371C152.001 30.8085 150.995 30.3971 149.944 30.3877H54.5243C54.0143 30.3853 53.5089 30.4859 53.0389 30.6835C52.5688 30.881 52.1437 31.1714 51.7891 31.5371C51.4345 31.9029 51.1578 32.3364 50.9757 32.8116C50.7936 33.2868 50.7098 33.7939 50.7293 34.3022L52.8543 99.2327C52.8942 100.281 53.3371 101.273 54.0913 102.004C54.8455 102.735 55.8529 103.148 56.9043 103.157Z" fill="#407BFF"/>
    <path opacity="0.5" d="M56.9043 103.157H152.334C152.845 103.159 153.35 103.059 153.821 102.861C154.291 102.664 154.716 102.374 155.071 102.008C155.426 101.642 155.703 101.209 155.886 100.734C156.069 100.258 156.153 99.7512 156.134 99.2426L153.999 34.3022C153.956 33.2556 153.511 32.2657 152.756 31.5371C152.001 30.8085 150.995 30.3971 149.944 30.3877H54.5243C54.0143 30.3853 53.5089 30.4859 53.0389 30.6835C52.5688 30.881 52.1437 31.1714 51.7891 31.5371C51.4345 31.9029 51.1578 32.3364 50.9757 32.8116C50.7936 33.2868 50.7098 33.7939 50.7293 34.3022L52.8543 99.2327C52.8942 100.281 53.3371 101.273 54.0913 102.004C54.8455 102.735 55.8529 103.148 56.9043 103.157Z" fill="white"/>
    <path opacity="0.5" d="M149.714 32.3428H54.2791H53.9591C51.5141 32.5422 51.8641 36.2423 54.3291 36.2423H149.924C152.384 36.2423 152.494 32.5422 150.034 32.3428C149.929 32.3478 149.819 32.3428 149.714 32.3428Z" fill="#407BFF"/>
    <path d="M56.6874 34.3019C56.6915 34.4181 56.6719 34.5339 56.63 34.6424C56.588 34.7509 56.5245 34.8498 56.4432 34.9331C56.3619 35.0165 56.2646 35.0827 56.1571 35.1276C56.0495 35.1725 55.934 35.1952 55.8174 35.1945C55.5771 35.1934 55.3464 35.1001 55.1732 34.9339C55.0001 34.7677 54.8977 34.5414 54.8874 34.3019C54.8827 34.1853 54.9017 34.0689 54.9434 33.9599C54.985 33.8508 55.0485 33.7513 55.1298 33.6674C55.2111 33.5835 55.3087 33.5169 55.4166 33.4717C55.5244 33.4265 55.6404 33.4035 55.7574 33.4043C55.999 33.4042 56.2311 33.4978 56.4047 33.6653C56.5782 33.8328 56.6796 34.0611 56.6874 34.3019Z" fill="#FAFAFA"/>
    <path d="M59.7499 34.3019C59.7547 34.4183 59.7356 34.5344 59.6939 34.6432C59.6522 34.752 59.5887 34.8512 59.5073 34.9347C59.4259 35.0182 59.3283 35.0843 59.2204 35.129C59.1126 35.1737 58.9967 35.196 58.8799 35.1945C58.64 35.1922 58.4099 35.0985 58.237 34.9326C58.0641 34.7666 57.9614 34.541 57.9499 34.3019C57.9452 34.1853 57.9642 34.0689 58.0059 33.9599C58.0475 33.8508 58.111 33.7513 58.1923 33.6674C58.2736 33.5835 58.3712 33.5169 58.4791 33.4717C58.5869 33.4265 58.7029 33.4035 58.8199 33.4043C59.0615 33.4042 59.2936 33.4978 59.4672 33.6653C59.6407 33.8328 59.7421 34.0611 59.7499 34.3019Z" fill="#FAFAFA"/>
    <path d="M62.5661 34.944C62.9087 34.5964 62.8943 34.0281 62.534 33.6748C62.1736 33.3215 61.6037 33.3169 61.261 33.6645C60.9184 34.0121 60.9328 34.5804 61.2931 34.9337C61.6535 35.287 62.2234 35.2916 62.5661 34.944Z" fill="#FAFAFA"/>
    <path d="M58.7552 96.6745H150.065C150.25 96.676 150.433 96.6401 150.604 96.5689C150.774 96.4976 150.928 96.3926 151.057 96.2602C151.185 96.1278 151.286 95.9707 151.352 95.7985C151.417 95.6263 151.448 95.4425 151.44 95.2583L149.69 41.8469C149.67 41.4692 149.507 41.1132 149.234 40.8505C148.962 40.5877 148.599 40.4377 148.22 40.4307H56.9152C56.7304 40.4292 56.5472 40.4652 56.3767 40.5364C56.2062 40.6076 56.052 40.7126 55.9234 40.845C55.7949 40.9774 55.6946 41.1345 55.6287 41.3067C55.5628 41.479 55.5327 41.6627 55.5402 41.8469L57.2852 95.2434C57.3016 95.6237 57.4629 95.9834 57.736 96.2493C58.0091 96.5152 58.3736 96.6673 58.7552 96.6745Z" fill="white"/>
    <g opacity="0.3">
      <path d="M125.76 90.0679H124.09V89.5941H125.27L125.23 88.4173L125.705 88.4023L125.76 90.0679Z" fill="#407BFF"/>
      <path d="M121.436 90.068H118.781V89.5693H121.436V90.068ZM116.126 90.068H113.496V89.5693H116.151L116.126 90.068ZM110.816 90.068H108.161V89.5693H110.816V90.068ZM105.506 90.068H102.851V89.5693H105.496L105.506 90.068ZM100.201 90.068H97.5408V89.5693H100.201V90.068ZM94.8908 90.068H92.2358V89.5693H94.8908V90.068ZM89.5808 90.068H86.9258V89.5693H89.5808V90.068Z" fill="#407BFF"/>
      <path d="M84.2714 90.0679H82.6164L82.5664 88.4173L83.0364 88.4023L83.0764 89.5941H84.2714V90.0679Z" fill="#407BFF"/>
      <path d="M82.4961 85.77L82.4111 83.1221H82.9111L82.9961 85.77H82.4961ZM82.3261 80.4743L82.2361 77.8264H82.7111L82.7961 80.4743H82.3261ZM82.1511 75.1785L82.0661 72.5306H82.5361L82.6261 75.1785H82.1511ZM81.9761 69.8877L81.8911 67.2398H82.3661L82.4511 69.8877H81.9761ZM81.8061 64.592L81.7161 61.9441H82.1911L82.2761 64.592H81.8061ZM81.6311 59.2912L81.5461 56.6483H82.0161L82.1061 59.2962L81.6311 59.2912ZM81.4561 54.0004L81.3711 51.3525H81.8461L81.9311 54.0004H81.4561Z" fill="#407BFF"/>
      <path d="M81.2659 48.6996L81.2109 47.0391H82.8759V47.5128H81.7009L81.7359 48.6846L81.2659 48.6996Z" fill="#407BFF"/>
      <path d="M120.046 47.5128H117.391V47.0391H120.046V47.5128ZM114.736 47.5128H112.081V47.0391H114.736V47.5128ZM109.426 47.5128H106.771V47.0391H109.426V47.5128ZM104.116 47.5128H101.461V47.0391H104.116V47.5128ZM98.8062 47.5128H96.1512V47.0391H98.8062V47.5128ZM93.4962 47.5128H90.8412V47.0391H93.4962V47.5128ZM88.1862 47.5128H85.5312V47.0391H88.1862V47.5128Z" fill="#407BFF"/>
      <path d="M123.929 48.6996L123.889 47.5128H122.699V47.0391H124.349L124.404 48.6846L123.929 48.6996Z" fill="#407BFF"/>
      <path d="M125.147 85.77L125.062 83.1221H125.532L125.622 85.77H125.147ZM124.997 80.4743L124.912 77.8264H125.387L125.472 80.4743H124.997ZM124.827 75.1835L124.737 72.5356H125.212L125.297 75.1835H124.827ZM124.652 69.8877L124.567 67.2398H125.037L125.127 69.8877H124.652ZM124.477 64.592L124.392 61.9441H124.867L124.952 64.592H124.477ZM124.307 59.2962L124.217 56.6483H124.717L124.802 59.2962H124.307ZM124.132 54.0004L124.047 51.3525H124.517L124.607 54.0004H124.132Z" fill="#407BFF"/>
    </g>
    <path d="M112.908 75.2967H95.4526C93.8337 75.2838 92.2819 74.6499 91.1191 73.5265C89.9563 72.403 89.2718 70.8762 89.2076 69.2629C89.1507 67.8133 89.6367 66.3946 90.5712 65.2829C91.5056 64.1712 92.8216 63.4461 94.2626 63.2491C94.6403 61.8084 95.487 60.5335 96.6698 59.6247C97.8526 58.7158 99.3045 58.2244 100.798 58.2276C102.027 58.2294 103.234 58.547 104.305 59.1497C105.375 59.7523 106.271 60.6197 106.908 61.6683C107.456 61.4986 108.028 61.4128 108.603 61.414C110.092 61.4279 111.524 61.9848 112.629 62.9798C113.735 63.9747 114.437 65.3387 114.603 66.8145C115.365 67.1777 116.015 67.7406 116.481 68.4433C116.948 69.1459 117.215 69.9618 117.253 70.8037C117.276 71.3862 117.18 71.9673 116.972 72.5119C116.764 73.0566 116.447 73.5536 116.041 73.9729C115.635 74.3923 115.148 74.7253 114.61 74.9519C114.071 75.1786 113.492 75.2942 112.908 75.2917V75.2967ZM100.798 59.3894C99.5003 59.3816 98.2409 59.8257 97.2368 60.645C96.2327 61.4643 95.5468 62.6076 95.2976 63.8774L95.2126 64.3212L94.7626 64.3511C93.5375 64.4258 92.3904 64.9759 91.5671 65.8838C90.7437 66.7916 90.3096 67.9849 90.3576 69.208C90.409 70.5206 90.9656 71.7629 91.9117 72.6767C92.8578 73.5905 94.1206 74.1056 95.4376 74.1148H112.893C113.32 74.1186 113.744 74.0356 114.139 73.8709C114.533 73.7063 114.89 73.4634 115.187 73.1569C115.485 72.8505 115.716 72.487 115.869 72.0885C116.021 71.69 116.09 71.2647 116.073 70.8387C116.041 70.1607 115.811 69.5067 115.413 68.9567C115.014 68.4067 114.463 67.9846 113.828 67.742L113.468 67.6024V67.2184C113.404 65.9701 112.865 64.7931 111.961 63.9276C111.057 63.0621 109.856 62.5733 108.603 62.5609C108.006 62.5596 107.415 62.6748 106.863 62.9L106.363 63.0995L106.118 62.6307C105.612 61.6581 104.849 60.8424 103.911 60.2726C102.973 59.7028 101.896 59.4008 100.798 59.3994V59.3894Z" fill="#407BFF"/>
    <path d="M107.88 69.8075L103.065 74.46L98.5547 69.8075H101.195L101.355 65.0004H105.4L105.24 69.8075H107.88Z" fill="#407BFF"/>
  </g>
  <defs>
    <clipPath id="clip0_667_12660">
      <rect width="250" height="186" fill="white" transform="translate(0.5)"/>
    </clipPath>
  </defs>
</svg>