<svg width="24" height="24" viewBox="0 0 24 24" fill="none" xmlns="http://www.w3.org/2000/svg">
<path d="M11 13V11H13V13H11ZM9 15V13H11V15H9ZM13 15V13H15V15H13ZM15 13V11H17V13H15ZM7 13V11H9V13H7ZM5.61538 20C5.16794 20 4.78685 19.8426 4.4721 19.5279C4.15737 19.2132 4 18.8321 4 18.3846V5.61537C4 5.16794 4.15737 4.78685 4.4721 4.4721C4.78685 4.15737 5.16794 4 5.61538 4H18.3846C18.8321 4 19.2132 4.15737 19.5279 4.4721C19.8426 4.78685 20 5.16794 20 5.61537V18.3846C20 18.8321 19.8426 19.2132 19.5279 19.5279C19.2132 19.8426 18.8321 20 18.3846 20H5.61538ZM7 19H9V17H7V19ZM11 19H13V17H11V19ZM5 17H7V15H9V17H11V15H13V17H15V15H17V17H19V15H17V13H19V5.61537C19 5.46154 18.9359 5.32052 18.8077 5.1923C18.6795 5.0641 18.5385 5 18.3846 5H5.61538C5.46154 5 5.32052 5.0641 5.1923 5.1923C5.0641 5.32052 5 5.46154 5 5.61537V13H7V15H5V17ZM5.61538 19H5V5H5.61538C5.46154 5 5.32052 5.0641 5.1923 5.1923C5.0641 5.32052 5 5.46154 5 5.61537V18.3846C5 18.5385 5.0641 18.6795 5.1923 18.8077C5.32052 18.9359 5.46154 19 5.61538 19ZM15 17V19H17V17H15Z" fill="url(#paint0_linear_640_1385)"/>
<defs>
<linearGradient id="paint0_linear_640_1385" x1="12" y1="4" x2="12" y2="20" gradientUnits="userSpaceOnUse">
<stop stop-color="#AEA9B1"/>
<stop offset="0.505208" stop-color="#79767D"/>
<stop offset="1" stop-color="#333333"/>
</linearGradient>
</defs>
</svg>

