<svg width="26" height="26" viewBox="0 0 26 26" fill="none" xmlns="http://www.w3.org/2000/svg">
<rect width="26" height="26" rx="4" fill="#F5F5F5"/>
<g filter="url(#filter0_b_189_1546)">
<path d="M9.25 16.75H16.75V15.625H9.25V16.75ZM12.9438 14.3875L15.9062 11.4438L15.1188 10.6562L13.525 12.2313V8.5H12.4V12.2313L10.8063 10.6562L10.0188 11.4438L12.9438 14.3875ZM13 20.5C11.975 20.5 11.0063 20.3031 10.0938 19.9094C9.18125 19.5156 8.38438 18.9781 7.70312 18.2969C7.02188 17.6156 6.48438 16.8188 6.09063 15.9062C5.69688 14.9938 5.5 14.025 5.5 13C5.5 11.9625 5.69688 10.9875 6.09063 10.075C6.48438 9.1625 7.02188 8.36875 7.70312 7.69375C8.38438 7.01875 9.18125 6.48438 10.0938 6.09063C11.0063 5.69688 11.975 5.5 13 5.5C14.0375 5.5 15.0125 5.69688 15.925 6.09063C16.8375 6.48438 17.6313 7.01875 18.3063 7.69375C18.9813 8.36875 19.5156 9.1625 19.9094 10.075C20.3031 10.9875 20.5 11.9625 20.5 13C20.5 14.025 20.3031 14.9938 19.9094 15.9062C19.5156 16.8188 18.9813 17.6156 18.3063 18.2969C17.6313 18.9781 16.8375 19.5156 15.925 19.9094C15.0125 20.3031 14.0375 20.5 13 20.5ZM13 19.375C14.775 19.375 16.2812 18.7531 17.5188 17.5094C18.7563 16.2656 19.375 14.7625 19.375 13C19.375 11.225 18.7563 9.71875 17.5188 8.48125C16.2812 7.24375 14.775 6.625 13 6.625C11.2375 6.625 9.73438 7.24375 8.49063 8.48125C7.24688 9.71875 6.625 11.225 6.625 13C6.625 14.7625 7.24688 16.2656 8.49063 17.5094C9.73438 18.7531 11.2375 19.375 13 19.375Z" fill="#79767D"/>
</g>
<defs>
<filter id="filter0_b_189_1546" x="0" y="0" width="26" height="26" filterUnits="userSpaceOnUse" color-interpolation-filters="sRGB">
<feFlood flood-opacity="0" result="BackgroundImageFix"/>
<feGaussianBlur in="BackgroundImageFix" stdDeviation="2"/>
<feComposite in2="SourceAlpha" operator="in" result="effect1_backgroundBlur_189_1546"/>
<feBlend mode="normal" in="SourceGraphic" in2="effect1_backgroundBlur_189_1546" result="shape"/>
</filter>
</defs>
</svg>

