<svg width="24" height="24" viewBox="0 0 24 24" fill="none" xmlns="http://www.w3.org/2000/svg">
<path d="M15.5004 10.5C15.2248 10.5 14.9892 10.4022 14.7937 10.2067C14.5982 10.0112 14.5004 9.77565 14.5004 9.5C14.5004 9.31923 14.5379 9.14391 14.6129 8.97403C14.6879 8.80416 14.7787 8.64647 14.8851 8.50095C14.9915 8.35543 15.1014 8.21954 15.2149 8.09328C15.3283 7.96699 15.4235 7.85897 15.5004 7.76922C15.5774 7.85897 15.6726 7.96699 15.786 8.09328C15.8995 8.21954 16.0094 8.35543 16.1158 8.50095C16.2222 8.64647 16.3129 8.80416 16.3879 8.97403C16.4629 9.14391 16.5004 9.31923 16.5004 9.5C16.5004 9.77565 16.4027 10.0112 16.2072 10.2067C16.0117 10.4022 15.7761 10.5 15.5004 10.5ZM19.5004 7.5C19.2248 7.5 18.9892 7.40224 18.7937 7.20672C18.5982 7.01122 18.5004 6.77565 18.5004 6.5C18.5004 6.31923 18.5379 6.14391 18.6129 5.97403C18.6879 5.80416 18.7787 5.64647 18.8851 5.50095C18.9915 5.35543 19.1014 5.21954 19.2149 5.09328C19.3283 4.96699 19.4235 4.85897 19.5004 4.76922C19.5774 4.85897 19.6726 4.96699 19.786 5.09328C19.8995 5.21954 20.0094 5.35543 20.1158 5.50095C20.2222 5.64647 20.3129 5.80416 20.3879 5.97403C20.4629 6.14391 20.5004 6.31923 20.5004 6.5C20.5004 6.77565 20.4027 7.01122 20.2072 7.20672C20.0117 7.40224 19.7761 7.5 19.5004 7.5ZM19.5004 13.5C19.2248 13.5 18.9892 13.4022 18.7937 13.2067C18.5982 13.0112 18.5004 12.7757 18.5004 12.5C18.5004 12.3192 18.5379 12.1439 18.6129 11.974C18.6879 11.8042 18.7787 11.6465 18.8851 11.5009C18.9915 11.3554 19.1014 11.2195 19.2149 11.0933C19.3283 10.967 19.4235 10.859 19.5004 10.7692C19.5774 10.859 19.6726 10.967 19.786 11.0933C19.8995 11.2195 20.0094 11.3554 20.1158 11.5009C20.2222 11.6465 20.3129 11.8042 20.3879 11.974C20.4629 12.1439 20.5004 12.3192 20.5004 12.5C20.5004 12.7757 20.4027 13.0112 20.2072 13.2067C20.0117 13.4022 19.7761 13.5 19.5004 13.5ZM9.1543 20C8.0402 20 7.09501 19.6119 6.31872 18.8356C5.54244 18.0593 5.1543 17.1141 5.1543 16C5.1543 15.3026 5.3293 14.6497 5.6793 14.0414C6.0293 13.433 6.52096 12.932 7.1543 12.5385V6C7.1543 5.4359 7.3466 4.96154 7.73122 4.57693C8.11584 4.19231 8.5902 4 9.1543 4C9.7184 4 10.1928 4.19231 10.5774 4.57693C10.962 4.96154 11.1543 5.4359 11.1543 6V12.5385C11.7876 12.932 12.2793 13.433 12.6293 14.0414C12.9793 14.6497 13.1543 15.3026 13.1543 16C13.1543 17.1141 12.7662 18.0593 11.9899 18.8356C11.2136 19.6119 10.2684 20 9.1543 20ZM6.1543 16H12.1543C12.1543 15.5038 12.0213 15.025 11.7552 14.5634C11.4892 14.1019 11.1069 13.691 10.6081 13.3308L10.1543 13V6C10.1543 5.71667 10.0585 5.47917 9.8668 5.2875C9.67513 5.09583 9.43763 5 9.1543 5C8.87096 5 8.63346 5.09583 8.4418 5.2875C8.25013 5.47917 8.1543 5.71667 8.1543 6V13L7.70045 13.3308C7.20173 13.691 6.81935 14.1019 6.55332 14.5634C6.2873 15.025 6.1543 15.5038 6.1543 16Z" fill="#5193F6"/>
</svg>
