<svg width="402" height="322" viewBox="0 0 402 322" fill="none" xmlns="http://www.w3.org/2000/svg">
<path d="M287.098 5.75822L294.266 1L388.652 54.9265L400.998 83.4758V196.483L393.033 200.845V88.234L381.085 58.8916L287.098 5.75822Z" fill="#08387F" stroke="#416E84"/>
<path d="M210.845 50.5572L303.688 104.054L303.83 104.136L303.896 104.286L316.242 132.439L316.284 132.536L316.284 132.641L315.889 245.175L392.943 200.553V87.537L381.101 59.238L287.114 5.93444L210.845 50.5572Z" fill="#E4E8F4" stroke="#E4E8F4"/>
<path d="M307.412 137.407L315.377 133.045V246.053L307.412 250.414V137.407Z" fill="#2660B6" stroke="#416E84"/>
<path d="M303.429 104.473L315.377 132.626L307.014 136.988L295.464 108.835L201.875 55.3051L209.84 50.5469L303.429 104.473Z" fill="#2660B6" stroke="white" stroke-opacity="0.2"/>
<path d="M306.998 250.78L269.562 228.575L277.527 223.42L299.033 235.713V138.962L288.28 114.775L203.452 66.3994L197.877 72.7437V128.653L189.513 133.807V69.5715L201.461 55.2969L295.05 109.223L306.998 137.376V250.78Z" fill="#08387F" stroke="#08387F"/>
<path d="M201.075 73.944L206.252 68.3927L203.464 66.8066L198.287 72.7544V128.663L201.075 126.681V73.944Z" fill="#2660B6" stroke="#2660B6" stroke-width="0.6"/>
<path d="M1.53452 262.715L100.301 319.814L298.631 183.238V139.002L287.878 115.211L254.425 96.1777L10.2961 236.149C10.2961 236.149 3.08716 243.815 1.53452 250.027C0.332672 254.835 1.53452 262.715 1.53452 262.715Z" fill="#5B5E71" stroke="#5B5E71"/>
<path d="M107.47 320.988L298.631 211.549V183.793L105.478 295.215C105.478 295.215 103.089 297.197 100.301 303.938L100.206 304.168C97.4865 310.742 96.346 313.5 98.7081 317.42C101.098 321.385 107.47 320.988 107.47 320.988Z" fill="#474B59" stroke="#474B59"/>
<path d="M298.248 204.019V192.123L111.468 299.579C111.468 299.579 108.278 303.161 107.087 305.924C105.776 308.966 105.494 314.251 105.494 314.251L298.248 204.019Z" fill="#D4DAE8" stroke="#D4DAE8"/>
<ellipse cx="2.78777" cy="2.77563" rx="2.78777" ry="2.77563" transform="matrix(-1 0 0 1 292.705 200.844)" fill="#5B5E71"/>
<ellipse cx="2.78777" cy="2.77563" rx="2.78777" ry="2.77563" transform="matrix(-1 0 0 1 257.629 220.656)" fill="#5B5E71"/>
<ellipse cx="2.78777" cy="2.77563" rx="2.78777" ry="2.77563" transform="matrix(-1 0 0 1 209.842 247.629)" fill="#5B5E71"/>
<ellipse cx="2.78777" cy="2.77563" rx="2.78777" ry="2.77563" transform="matrix(-1 0 0 1 160.447 276.172)" fill="#5B5E71"/>
<ellipse cx="2.78777" cy="2.77563" rx="2.78777" ry="2.77563" transform="matrix(-1 0 0 1 122.246 298.387)" fill="#5B5E71"/>
<path d="M284.726 190.927L287.912 188.944L191.137 132.639L187.951 134.621L284.726 190.927Z" fill="#525566" stroke="#525566"/>
<path d="M299.043 139.796L297.052 135.038L242.093 103.316L238.907 105.299L299.043 139.796Z" fill="#525566" stroke="#525566"/>
<path d="M232.951 221.067L236.137 219.085L139.361 162.779L136.175 164.762L232.951 221.067Z" fill="#525566" stroke="#525566"/>
<path d="M185.098 249.218L188.322 247.222L90.3902 190.533L87.1661 192.529L185.098 249.218Z" fill="#525566" stroke="#525566"/>
<path d="M126.18 282.542L129.404 280.546L31.4722 223.857L28.2481 225.853L126.18 282.542Z" fill="#525566" stroke="#525566"/>
<path d="M393.443 87.8223V200.433L316.182 245.636V133.025L393.443 87.8223Z" fill="#CAD0DD" stroke="#BABFCE"/>
<path d="M381.496 58.8809L393.443 87.4302L315.784 132.633L303.837 104.084L381.496 58.8809Z" fill="#D4DAE8" stroke="#BABFCE"/>
<path d="M201.502 74.5V126L254.002 96L206.502 69L201.502 74.5Z" fill="#69B04B" stroke="#69B04B"/>
<path d="M298.502 212.5L279.002 223.5L298.502 235V212.5Z" fill="#69B04B" stroke="#69B04B"/>
<g clip-path="url(#clip0_407_11032)">
<path d="M103.029 159.681L40.2293 159.841C24.9893 159.841 15.4292 143.961 23.0192 131.191L54.2892 78.5713L85.5592 25.9513C93.1492 13.1813 112.199 13.1313 119.849 25.8613L151.379 78.3313L182.909 130.801C190.559 143.501 181.069 159.501 165.829 159.501L103.029 159.681Z" fill="white"/>
<path d="M103.029 159.681H104.299H108.039L122.389 159.601L145.109 159.511L159.299 159.461C161.809 159.461 164.399 159.461 167.029 159.391C169.733 159.233 172.379 158.536 174.809 157.341C177.344 156.059 179.572 154.244 181.339 152.021C183.181 149.695 184.457 146.973 185.069 144.071C185.696 141.043 185.527 137.904 184.579 134.961C183.649 131.961 181.699 129.331 180.079 126.491L158.499 90.5707L134.669 50.9407C130.536 44.0607 126.336 37.0607 122.069 29.9407L120.499 27.3007C119.969 26.4107 119.439 25.5207 118.849 24.6807C117.644 22.9934 116.176 21.5111 114.499 20.2907C112.788 19.0717 110.894 18.1302 108.889 17.5007C106.881 16.8828 104.791 16.566 102.689 16.5607C100.591 16.5615 98.5038 16.8783 96.4994 17.5007C92.5014 18.7602 89.0249 21.2921 86.5994 24.7107C86.0194 25.5607 85.4894 26.4507 84.9594 27.3507L83.3694 30.0207C79.136 37.1407 74.9694 44.1407 70.8694 51.0207L47.2194 90.7707L25.8194 126.771C24.2094 129.611 22.2694 132.251 21.3594 135.261C20.4281 138.208 20.2765 141.347 20.9194 144.371C21.5405 147.273 22.8277 149.991 24.6794 152.311C26.4612 154.522 28.6987 156.322 31.2394 157.591C33.6789 158.764 36.3263 159.444 39.0294 159.591C41.6594 159.661 44.2594 159.591 46.7694 159.591H60.9494H83.6694H101.759H98.0194L83.6694 159.661L60.9494 159.761L46.7694 159.811C44.2494 159.811 41.6794 159.811 39.0194 159.811C36.275 159.683 33.5845 159.003 31.1094 157.811C28.5231 156.534 26.2467 154.708 24.4394 152.461C22.5612 150.14 21.2468 147.415 20.5994 144.501C19.9329 141.423 20.0811 138.224 21.0294 135.221C21.5244 133.688 22.1955 132.218 23.0294 130.841L25.5094 126.651C32.2094 115.371 39.3594 103.331 46.8794 90.6507L70.4994 50.8707C74.5994 43.9707 78.766 36.9707 82.9994 29.8707L84.5894 27.2007C85.1194 26.3007 85.6494 25.4007 86.2494 24.5307C88.729 21.0364 92.2827 18.4483 96.3694 17.1607C100.486 15.8605 104.903 15.8605 109.019 17.1607C111.052 17.8111 112.971 18.7725 114.709 20.0107C116.42 21.264 117.921 22.7793 119.159 24.5007C119.769 25.3607 120.299 26.2607 120.829 27.1507C121.359 28.0407 121.899 28.9307 122.429 29.8207L135.029 50.8207L158.839 90.4707C166.429 103.111 173.639 115.111 180.379 126.351L182.889 130.531C183.725 131.908 184.396 133.378 184.889 134.911C185.86 137.905 186.029 141.101 185.379 144.181C184.76 147.137 183.459 149.907 181.579 152.271C179.781 154.525 177.515 156.364 174.939 157.661C172.471 158.872 169.785 159.576 167.039 159.731C164.379 159.821 161.799 159.731 159.289 159.781H145.099H122.389H104.299C103.499 159.701 103.029 159.681 103.029 159.681Z" fill="#263238"/>
<path d="M103.1 26.0312H103.05C100.561 26.0186 98.1118 26.6582 95.9468 27.8864C93.7818 29.1145 91.9762 30.8883 90.7098 33.0312L32.4998 131.591C31.2443 133.679 30.5877 136.072 30.6018 138.507C30.6159 140.943 31.3002 143.328 32.5798 145.401C33.8694 147.518 35.6885 149.262 37.8577 150.462C40.0269 151.661 42.4713 152.275 44.9498 152.241L162.5 151.601C164.991 151.618 167.443 150.98 169.61 149.751C171.777 148.523 173.584 146.747 174.85 144.601C176.103 142.513 176.759 140.12 176.744 137.685C176.73 135.25 176.047 132.865 174.77 130.791L115.5 32.8712C114.209 30.7485 112.386 29.0004 110.21 27.8005C108.035 26.6006 105.584 25.9906 103.1 26.0312Z" fill="#FF725E"/>
<path d="M109.389 106.38L111.719 63.4004L93.8594 63.5504L97.0294 106.48L109.389 106.38Z" fill="white"/>
<path d="M103.05 113.971H102.96C100.218 113.949 97.5698 114.967 95.5496 116.821C94.6136 117.705 93.8716 118.774 93.3706 119.96C92.8697 121.146 92.6208 122.424 92.6397 123.711C92.6396 125.004 92.9059 126.283 93.422 127.469C93.9382 128.654 94.6931 129.72 95.6397 130.601C97.6576 132.431 100.296 133.425 103.02 133.381H103.11C105.824 133.393 108.436 132.345 110.39 130.461C111.3 129.552 112.019 128.469 112.503 127.277C112.987 126.085 113.228 124.808 113.21 123.521C113.19 118.051 108.82 113.951 103.05 113.971Z" fill="white"/>
<g opacity="0.3">
<path d="M132.18 46.6113L39.9901 102.621L28.3301 122.771L138.58 57.6313L132.18 46.6113Z" fill="white"/>
</g>
<g opacity="0.3">
<path d="M146.499 71.2207L21.5488 146.401C22.0347 148.241 22.9265 149.95 24.1588 151.401L148.579 74.8507L146.499 71.2207Z" fill="white"/>
</g>
</g>
<defs>
<clipPath id="clip0_407_11032">
<rect width="166" height="144" fill="white" transform="translate(20 16)"/>
</clipPath>
</defs>
</svg>
