<svg width="26" height="26" viewBox="0 0 26 26" fill="none" xmlns="http://www.w3.org/2000/svg">
<rect width="26" height="26" rx="4" fill="#F5F5F5"/>
<g filter="url(#filter0_b_189_1543)">
<path d="M17.6312 20.5C17.0375 20.5 16.5328 20.2916 16.1172 19.8748C15.7016 19.4579 15.4937 18.9518 15.4937 18.3563C15.4937 18.2729 15.5031 18.171 15.5219 18.0504C15.5406 17.9299 15.5687 17.8214 15.6062 17.725L9.925 14.425C9.7375 14.6375 9.50625 14.8094 9.23125 14.9406C8.95625 15.0719 8.675 15.1375 8.3875 15.1375C7.79375 15.1375 7.28906 14.9297 6.87344 14.5141C6.45781 14.0984 6.25 13.5938 6.25 13C6.25 12.4063 6.45781 11.9016 6.87344 11.4859C7.28906 11.0703 7.79375 10.8625 8.3875 10.8625C8.675 10.8625 8.95 10.9188 9.2125 11.0312C9.475 11.1438 9.7125 11.3063 9.925 11.5188L15.6062 8.25625C15.5687 8.16786 15.5406 8.06842 15.5219 7.95792C15.5031 7.84743 15.4937 7.74063 15.4937 7.6375C15.4937 7.04375 15.7016 6.53906 16.1172 6.12344C16.5328 5.70781 17.0375 5.5 17.6312 5.5C18.225 5.5 18.7297 5.70781 19.1453 6.12344C19.5609 6.53906 19.7687 7.04375 19.7687 7.6375C19.7687 8.23125 19.5609 8.73594 19.1453 9.15156C18.7297 9.56719 18.225 9.775 17.6312 9.775C17.3393 9.775 17.0601 9.72813 16.7936 9.63438C16.527 9.54063 16.3 9.3875 16.1125 9.175L10.4312 12.325C10.4562 12.425 10.4781 12.5406 10.4969 12.6719C10.5156 12.8031 10.525 12.914 10.525 13.0045C10.525 13.095 10.5156 13.1888 10.4969 13.2858C10.4781 13.3828 10.4562 13.4813 10.4312 13.5813L16.1125 16.8063C16.3 16.6313 16.5187 16.4906 16.7687 16.3844C17.0187 16.2781 17.3062 16.225 17.6312 16.225C18.225 16.225 18.7297 16.4328 19.1453 16.8484C19.5609 17.2641 19.7687 17.7688 19.7687 18.3625C19.7687 18.9563 19.5609 19.4609 19.1453 19.8766C18.7297 20.2922 18.225 20.5 17.6312 20.5ZM17.6319 8.65C17.919 8.65 18.1594 8.55291 18.3531 8.35872C18.5469 8.16453 18.6437 7.92391 18.6437 7.63684C18.6437 7.34978 18.5467 7.10938 18.3525 6.91563C18.1583 6.72188 17.9177 6.625 17.6306 6.625C17.3435 6.625 17.1031 6.72209 16.9094 6.91628C16.7156 7.11047 16.6187 7.35109 16.6187 7.63816C16.6187 7.92522 16.7158 8.16563 16.91 8.35938C17.1042 8.55313 17.3448 8.65 17.6319 8.65ZM8.38816 14.0125C8.67522 14.0125 8.91562 13.9154 9.10937 13.7212C9.30312 13.527 9.4 13.2864 9.4 12.9993C9.4 12.7123 9.30291 12.4719 9.10872 12.2781C8.91453 12.0844 8.67391 11.9875 8.38684 11.9875C8.09978 11.9875 7.85937 12.0846 7.66562 12.2788C7.47187 12.473 7.375 12.7136 7.375 13.0007C7.375 13.2877 7.47209 13.5281 7.66628 13.7219C7.86047 13.9156 8.10109 14.0125 8.38816 14.0125ZM17.6319 19.375C17.919 19.375 18.1594 19.2779 18.3531 19.0837C18.5469 18.8895 18.6437 18.6489 18.6437 18.3618C18.6437 18.0748 18.5467 17.8344 18.3525 17.6406C18.1583 17.4469 17.9177 17.35 17.6306 17.35C17.3435 17.35 17.1031 17.4471 16.9094 17.6413C16.7156 17.8355 16.6187 18.0761 16.6187 18.3632C16.6187 18.6502 16.7158 18.8906 16.91 19.0844C17.1042 19.2781 17.3448 19.375 17.6319 19.375Z" fill="#79767D"/>
</g>
<defs>
<filter id="filter0_b_189_1543" x="0" y="0" width="26" height="26" filterUnits="userSpaceOnUse" color-interpolation-filters="sRGB">
<feFlood flood-opacity="0" result="BackgroundImageFix"/>
<feGaussianBlur in="BackgroundImageFix" stdDeviation="2"/>
<feComposite in2="SourceAlpha" operator="in" result="effect1_backgroundBlur_189_1543"/>
<feBlend mode="normal" in="SourceGraphic" in2="effect1_backgroundBlur_189_1543" result="shape"/>
</filter>
</defs>
</svg>

