<svg width="229" height="143" viewBox="0 0 229 143" fill="none" xmlns="http://www.w3.org/2000/svg">
<g clip-path="url(#clip0_180_5460)">
<path d="M217.338 1.45703H12.8479C6.75428 1.45703 1.81445 6.39687 1.81445 12.4905V130.844C1.81445 136.938 6.75428 141.877 12.8479 141.877H217.338C223.431 141.877 228.371 136.938 228.371 130.844V12.4905C228.371 6.39687 223.431 1.45703 217.338 1.45703Z" fill="#F5F5F5"/>
<path d="M192.41 62.8799C186.999 59.5713 180.942 56.7534 174.591 56.9917C165.577 57.3282 158.062 63.651 151.305 69.6093L119.761 97.6485C118.555 98.7281 117.111 99.8777 115.555 99.6393C114.303 99.2995 113.209 98.5365 112.457 97.4803L84.5154 66.497C78.7253 60.062 72.1081 53.2064 63.486 52.3652C56.4762 51.6923 49.8309 55.1691 43.9567 59.0386C27.1385 70.0359 12.8887 84.5296 2.17825 101.532L1.8418 130.833C3.69239 137.156 9.34228 141.88 15.3287 141.88H214.94C218.321 141.85 221.571 140.568 224.062 138.282C226.553 135.996 228.108 132.867 228.427 129.501V101.882C220.356 85.7337 207.867 72.2084 192.41 62.8799Z" fill="#4E88DE"/>
<path d="M14.7551 125.742V126.176H13.0587V125.882L13.97 125.013C14.1943 124.802 14.2364 124.676 14.2364 124.536C14.2364 124.396 14.0962 124.214 13.8158 124.214C13.7122 124.206 13.6084 124.224 13.5132 124.266C13.418 124.307 13.3342 124.371 13.269 124.452L12.9746 124.214C13.079 124.086 13.2123 123.985 13.3634 123.919C13.5146 123.853 13.6793 123.825 13.8438 123.835C14.3485 123.835 14.671 124.087 14.671 124.494C14.6662 124.636 14.6298 124.775 14.5643 124.901C14.4988 125.028 14.4059 125.137 14.2925 125.223L13.6756 125.812L14.7551 125.742Z" fill="#A6C4DC"/>
<path d="M14.9914 124.607C14.9895 124.571 14.9949 124.535 15.0075 124.501C15.02 124.467 15.0393 124.436 15.0642 124.409C15.0892 124.383 15.1192 124.362 15.1525 124.348C15.1857 124.334 15.2216 124.327 15.2578 124.327C15.2951 124.325 15.3325 124.33 15.3674 124.344C15.4023 124.357 15.4341 124.378 15.4605 124.404C15.487 124.431 15.5075 124.462 15.5209 124.497C15.5343 124.532 15.5401 124.57 15.5381 124.607C15.5382 124.643 15.5309 124.679 15.5166 124.712C15.5023 124.746 15.4815 124.776 15.4553 124.8C15.429 124.825 15.3979 124.845 15.364 124.857C15.33 124.87 15.2939 124.875 15.2578 124.873C15.1871 124.873 15.1193 124.845 15.0694 124.795C15.0194 124.745 14.9914 124.678 14.9914 124.607ZM14.9914 125.855C14.9893 125.819 14.9948 125.784 15.0075 125.75C15.0202 125.717 15.0397 125.687 15.0649 125.662C15.09 125.637 15.1202 125.617 15.1534 125.604C15.1867 125.592 15.2222 125.586 15.2578 125.588C15.2939 125.586 15.33 125.592 15.364 125.604C15.3979 125.617 15.429 125.636 15.4553 125.661C15.4815 125.686 15.5023 125.716 15.5166 125.749C15.5309 125.783 15.5382 125.819 15.5381 125.855C15.5475 125.896 15.5475 125.938 15.5381 125.979C15.5287 126.021 15.5102 126.059 15.484 126.092C15.4577 126.125 15.4244 126.151 15.3864 126.17C15.3485 126.188 15.3069 126.197 15.2648 126.197C15.2227 126.197 15.1811 126.188 15.1431 126.17C15.1052 126.151 15.0718 126.125 15.0455 126.092C15.0193 126.059 15.0008 126.021 14.9914 125.979C14.982 125.938 14.982 125.896 14.9914 125.855Z" fill="#A6C4DC"/>
<path d="M16.6046 123.795V126.178H16.1841V124.23H15.6934V123.865L16.6046 123.795Z" fill="#A6C4DC"/>
<path d="M19.1274 125.588H18.6648V126.177H18.2442V125.658H16.9824V125.349L18.118 123.863H18.6648L17.5853 125.265H18.3423V124.775H18.6648V125.237H19.0714L19.1274 125.588Z" fill="#A6C4DC"/>
<path d="M198.383 124.537H22.9141V125.589H198.383V124.537Z" fill="#A6C4DC"/>
<path d="M77.6041 123.458H22.7734V126.262H77.6041V123.458Z" fill="#6CA6FC"/>
<path d="M79.3847 125.056C79.3875 125.586 79.2328 126.106 78.9403 126.548C78.6478 126.99 78.2305 127.335 77.7415 127.54C77.2524 127.745 76.7136 127.8 76.1932 127.698C75.6729 127.597 75.1945 127.343 74.8186 126.969C74.4427 126.595 74.1862 126.118 74.0818 125.598C73.9773 125.078 74.0295 124.539 74.2318 124.049C74.434 123.559 74.7772 123.14 75.2179 122.845C75.6585 122.55 76.1768 122.393 76.707 122.393C77.4148 122.393 78.0937 122.673 78.5955 123.172C79.0973 123.671 79.381 124.349 79.3847 125.056Z" fill="#6CA6FC"/>
<path d="M202.785 125.028C202.784 125.134 202.76 125.239 202.716 125.336C202.673 125.432 202.609 125.519 202.53 125.59C202.451 125.661 202.358 125.715 202.257 125.749C202.157 125.782 202.05 125.794 201.944 125.785C201.313 125.785 200.949 125.378 200.949 124.635C200.931 124.479 200.946 124.321 200.995 124.171C201.043 124.021 201.123 123.884 201.23 123.768C201.336 123.652 201.467 123.561 201.612 123.5C201.757 123.439 201.913 123.41 202.07 123.415C202.285 123.405 202.498 123.454 202.687 123.556L202.519 123.878C202.39 123.795 202.238 123.756 202.084 123.766C201.65 123.766 201.383 124.032 201.383 124.565C201.461 124.481 201.558 124.416 201.664 124.375C201.771 124.334 201.886 124.317 202 124.327C202.099 124.317 202.198 124.328 202.292 124.358C202.386 124.389 202.473 124.439 202.547 124.505C202.62 124.571 202.68 124.651 202.721 124.741C202.762 124.831 202.784 124.929 202.785 125.028ZM202.379 125.028C202.379 124.789 202.197 124.635 201.916 124.635C201.859 124.627 201.8 124.631 201.744 124.647C201.689 124.663 201.637 124.69 201.592 124.727C201.547 124.764 201.511 124.81 201.484 124.862C201.458 124.913 201.443 124.97 201.439 125.028C201.439 125.252 201.622 125.42 201.916 125.42C202.017 125.421 202.115 125.384 202.19 125.316C202.265 125.249 202.312 125.156 202.323 125.056L202.379 125.028Z" fill="#A6C4DC"/>
<path d="M202.995 124.243C202.993 124.205 202.998 124.168 203.012 124.133C203.025 124.098 203.046 124.066 203.072 124.04C203.099 124.013 203.13 123.993 203.165 123.98C203.2 123.966 203.238 123.96 203.275 123.962C203.311 123.962 203.347 123.97 203.38 123.984C203.413 123.998 203.443 124.019 203.468 124.045C203.493 124.071 203.513 124.103 203.525 124.136C203.538 124.17 203.543 124.207 203.541 124.243C203.541 124.313 203.513 124.381 203.463 124.431C203.413 124.481 203.346 124.509 203.275 124.509C203.239 124.511 203.203 124.505 203.169 124.493C203.135 124.48 203.104 124.461 203.077 124.436C203.051 124.411 203.03 124.381 203.016 124.348C203.002 124.315 202.994 124.279 202.995 124.243ZM202.995 125.504C202.993 125.467 202.998 125.43 203.012 125.395C203.025 125.36 203.046 125.328 203.072 125.302C203.099 125.275 203.13 125.255 203.165 125.241C203.2 125.228 203.238 125.222 203.275 125.224C203.311 125.224 203.347 125.231 203.38 125.246C203.413 125.26 203.443 125.281 203.468 125.307C203.493 125.333 203.513 125.364 203.525 125.398C203.538 125.432 203.543 125.468 203.541 125.504C203.541 125.575 203.513 125.643 203.463 125.693C203.413 125.743 203.346 125.771 203.275 125.771C203.239 125.773 203.203 125.767 203.169 125.755C203.135 125.742 203.104 125.723 203.077 125.698C203.051 125.673 203.03 125.643 203.016 125.61C203.002 125.576 202.994 125.541 202.995 125.504Z" fill="#A6C4DC"/>
<path d="M203.822 124.592C203.822 123.835 204.229 123.414 204.776 123.414C205.322 123.414 205.743 123.835 205.743 124.592C205.743 125.349 205.336 125.783 204.776 125.783C204.215 125.783 203.822 125.349 203.822 124.592ZM205.322 124.592C205.322 124.031 205.098 123.779 204.776 123.779C204.453 123.779 204.257 124.031 204.257 124.592C204.257 125.152 204.467 125.405 204.776 125.405C205.084 125.405 205.322 125.152 205.322 124.592Z" fill="#A6C4DC"/>
<path d="M206.037 124.592C206.037 123.835 206.458 123.414 207.004 123.414C207.551 123.414 207.972 123.835 207.972 124.592C207.972 125.349 207.551 125.783 207.004 125.783C206.458 125.783 206.037 125.349 206.037 124.592ZM207.537 124.592C207.537 124.031 207.327 123.779 207.004 123.779C206.682 123.779 206.472 124.031 206.472 124.592C206.472 125.152 206.696 125.405 207.004 125.405C207.313 125.405 207.537 125.152 207.537 124.592Z" fill="#A6C4DC"/>
<path d="M211.842 124.452H210.791V122.013H213.216V123.064H211.842V124.452Z" fill="#A6C4DC"/>
<path d="M213.216 127.579H210.791V125.153H211.842V126.527H213.216V127.579Z" fill="#A6C4DC"/>
<path d="M217.015 127.579H214.59V126.527H215.964V125.153H217.015V127.579Z" fill="#A6C4DC"/>
<path d="M217.015 124.438H215.964V123.064H214.59V122.013H217.015V124.438Z" fill="#A6C4DC"/>
<path d="M187.027 15.0998C188.613 14.8956 190.21 14.8019 191.808 14.8195H192.089V15.1279C192.089 16.8383 192.089 18.9272 192.089 21.1844V22.0676L191.458 21.4367L190.827 20.8058L189.214 19.1796H189.705L187.168 21.4087L186.621 21.8853V21.1703C186.596 19.1424 186.699 17.1148 186.929 15.0998C187.152 17.1156 187.26 19.1424 187.252 21.1703L186.719 20.932L189.214 18.6468L189.467 18.4225L189.705 18.6608L191.331 20.2731L191.962 20.918L191.345 21.1703C191.345 18.9132 191.345 16.8243 191.345 15.1139L191.64 15.3943C190.098 15.3875 188.558 15.2892 187.027 15.0998Z" fill="#A6C4DC"/>
<path d="M204.579 15.8695C204.239 16.3852 203.864 16.8771 203.457 17.3415C202.672 18.3089 201.508 19.7809 200.064 21.4072L199.462 22.0801V21.1689C199.462 20.2155 199.462 19.2061 199.462 18.1547V17.8602L199.574 18.1266L197.457 16.0657L196.84 15.4629H197.695C199.812 15.4629 201.62 15.6171 202.812 15.7012C203.409 15.7052 204.004 15.7568 204.593 15.8554C204.523 15.8554 203.737 15.8554 202.49 15.9816C201.242 16.1078 199.602 16.1498 197.695 16.1498L197.933 15.561L200.078 17.5939L200.19 17.692V18.2248C200.19 19.2762 200.19 20.2856 200.19 21.239L199.574 21.0006C200.976 19.5987 202.125 18.3649 203.051 17.4537C203.976 16.5424 204.509 15.8975 204.579 15.8695Z" fill="#A6C4DC"/>
<path d="M204.581 15.8718C204.665 16.0541 203.655 16.6569 202.338 17.2738C201.02 17.8907 199.884 18.129 199.814 17.9327C199.744 17.7364 200.739 17.1476 202.057 16.6008C203.375 16.0541 204.511 15.6756 204.581 15.8718Z" fill="#A6C4DC"/>
<path d="M213.13 15.0992C213.414 15.0151 213.716 15.0151 213.999 15.0992C214.804 15.2433 215.527 15.6772 216.032 16.3189C216.419 16.7973 216.676 17.367 216.779 17.9734C216.882 18.5798 216.828 19.2025 216.621 19.7818C216.38 20.521 215.911 21.165 215.281 21.6216C214.652 22.0782 213.894 22.3241 213.116 22.3241C212.339 22.3241 211.581 22.0782 210.951 21.6216C210.322 21.165 209.853 20.521 209.611 19.7818C209.405 19.2025 209.35 18.5798 209.453 17.9734C209.556 17.367 209.813 16.7973 210.2 16.3189C210.706 15.6772 211.429 15.2433 212.233 15.0992C212.794 15.0151 213.102 15.0992 213.088 15.0992C213.074 15.0992 212.794 15.1834 212.303 15.3516C211.622 15.5753 211.032 16.0129 210.621 16.5993C210.29 17.0555 210.092 17.5941 210.048 18.1558C210.004 18.7175 210.117 19.2803 210.373 19.7821C210.629 20.284 211.019 20.7053 211.499 20.9995C211.979 21.2937 212.532 21.4495 213.095 21.4495C213.659 21.4495 214.211 21.2937 214.691 20.9995C215.172 20.7053 215.562 20.284 215.818 19.7821C216.074 19.2803 216.186 18.7175 216.142 18.1558C216.098 17.5941 215.9 17.0555 215.57 16.5993C215.158 16.0129 214.568 15.5753 213.887 15.3516C213.439 15.1834 213.13 15.1693 213.13 15.0992Z" fill="#A6C4DC"/>
<path d="M214.295 19.9238C214.141 20.064 213.384 19.5453 212.584 18.7462L212.486 18.634V18.4658C212.486 17.3302 212.641 16.4189 212.851 16.4189C213.061 16.4189 213.215 17.3302 213.215 18.4658L213.103 18.1994C213.902 19.0266 214.435 19.7837 214.295 19.9238Z" fill="#A6C4DC"/>
<path d="M131.074 19.6965C131.074 19.9068 107.787 20.061 79.0749 20.061C50.3627 20.061 27.0762 19.9068 27.0762 19.6965C27.0762 19.4862 50.3628 19.332 79.0889 19.332C107.815 19.332 131.074 19.5003 131.074 19.6965Z" fill="#A6C4DC"/>
<path d="M22.1569 19.6992C22.1596 20.5128 21.9207 21.309 21.4704 21.9866C21.0201 22.6643 20.3787 23.193 19.6276 23.5056C18.8764 23.8182 18.0493 23.9008 17.2512 23.7427C16.4531 23.5847 15.7199 23.1932 15.1445 22.6178C14.5692 22.0425 14.1777 21.3093 14.0197 20.5112C13.8616 19.713 13.9441 18.886 14.2568 18.1348C14.5694 17.3836 15.0981 16.7422 15.7757 16.2919C16.4534 15.8416 17.2496 15.6027 18.0632 15.6055C19.1478 15.6092 20.1869 16.0417 20.9538 16.8086C21.7207 17.5755 22.1532 18.6146 22.1569 19.6992Z" fill="#A6C4DC"/>
<path d="M217.337 141.879C217.337 141.879 217.982 141.879 219.174 141.669C220.952 141.365 222.625 140.617 224.039 139.496C225.201 138.604 226.172 137.488 226.894 136.214C227.617 134.94 228.076 133.534 228.245 132.079C228.385 128.631 228.245 124.593 228.245 120.065C228.245 101.965 228.175 75.7906 228.132 43.4474C228.132 35.3721 228.132 26.8902 228.132 18.0719C228.132 15.8708 228.132 13.5996 228.132 11.4126C227.895 9.17486 226.965 7.06709 225.472 5.38325C223.979 3.69942 221.998 2.52347 219.805 2.01945C218.673 1.80265 217.521 1.7133 216.37 1.75308H212.823H152.09H12.9596C11.466 1.74921 9.9884 2.06066 8.62343 2.66704C7.25847 3.27342 6.03688 4.16109 5.03852 5.272C4.03966 6.37762 3.27602 7.67478 2.79401 9.08467C2.31199 10.4946 2.12166 11.9877 2.2346 13.4735V31.699C2.2346 43.7091 2.2346 55.5416 2.2346 67.1966V101.461C2.2346 107.068 2.2346 112.606 2.2346 118.074V130.285C2.19208 131.595 2.37223 132.904 2.76735 134.154C3.5708 136.628 5.25122 138.722 7.49195 140.042C8.59794 140.686 9.80771 141.132 11.0669 141.36C12.3446 141.53 13.6348 141.586 14.9223 141.529H59.7851L112.597 141.599L189.214 141.725H210.033H215.459H217.295C217.295 141.725 216.678 141.725 215.459 141.725H210.033L189.214 141.795L112.597 141.907H59.687H30.2458H14.8242C13.4989 141.971 12.1705 141.91 10.8567 141.725C8.82655 141.375 6.93067 140.477 5.37395 139.128C3.81724 137.779 2.65894 136.03 2.02432 134.07C1.61476 132.755 1.42529 131.381 1.46354 130.004V125.967C1.46354 123.247 1.46354 120.527 1.46354 117.793V101.475C1.46354 90.2589 1.46354 78.8376 1.46354 67.2106V13.5436C1.37655 11.9794 1.57125 10.4124 2.03835 8.9171C2.79297 6.6394 4.2463 4.6575 6.19182 3.2531C8.13734 1.8487 10.476 1.09326 12.8755 1.09415H152.006H212.739H216.342C217.536 1.0527 218.732 1.15152 219.903 1.38857C222.241 1.91861 224.351 3.17493 225.931 4.97759C227.492 6.7479 228.471 8.95519 228.735 11.3004C228.848 13.5996 228.735 15.7867 228.735 18.0158C228.735 26.8342 228.735 35.316 228.735 43.3913C228.735 75.7346 228.637 101.909 228.609 120.008C228.609 124.537 228.609 128.546 228.511 132.051C228.331 133.524 227.86 134.947 227.126 136.237C226.392 137.527 225.41 138.659 224.235 139.566C222.788 140.676 221.087 141.408 219.286 141.697C218.823 141.773 218.354 141.811 217.884 141.809L217.337 141.879Z" fill="#A6C4DC"/>
<path d="M118.891 65.6815C127.207 65.6815 133.948 58.9402 133.948 50.6244C133.948 42.3087 127.207 35.5674 118.891 35.5674C110.575 35.5674 103.834 42.3087 103.834 50.6244C103.834 58.9402 110.575 65.6815 118.891 65.6815Z" fill="#4E88DE"/>
</g>
<defs>
<clipPath id="clip0_180_5460">
<rect width="228.52" height="143" fill="white" transform="translate(0.439453)"/>
</clipPath>
</defs>
</svg>
