<svg xmlns="http://www.w3.org/2000/svg" width="32" height="32" viewBox="0 0 32 32" fill="none">
  <path fill-rule="evenodd" clip-rule="evenodd" d="M25.3333 5.33366H24V2.66699H21.3333V5.33366H10.6667V2.66699H8V5.33366H6.66667C5.18667 5.33366 4 6.53366 4 8.00033V26.667C4 28.1337 5.18667 29.3337 6.66667 29.3337H25.3333C26.8 29.3337 28 28.1337 28 26.667V8.00033C28 6.53366 26.8 5.33366 25.3333 5.33366ZM25.3333 26.667H6.66667V12.0003H25.3333V26.667ZM8.66667 17.3337C8.66667 15.4937 10.16 14.0003 12 14.0003C13.84 14.0003 15.3333 15.4937 15.3333 17.3337C15.3333 19.1737 13.84 20.667 12 20.667C10.16 20.667 8.66667 19.1737 8.66667 17.3337Z" fill="#447ED4"/>
</svg>