<svg width="20" height="16" viewBox="0 0 20 16" fill="none" xmlns="http://www.w3.org/2000/svg">
<path d="M13.7379 7.5C13.7379 9.5 11.3609 11 11.3609 12.5H9.45923C9.45923 11 7.08218 9.5 7.08218 7.5C7.08218 5.57 8.57497 4 10.4101 4C12.2451 4 13.7379 5.57 13.7379 7.5ZM11.3609 13.5H9.45923V15H11.3609V13.5ZM19.9182 8C19.9182 5.24 18.8533 2.74 17.1323 0.93L16.1245 1.99C17.5887 3.53 18.492 5.66 18.492 8C18.492 10.34 17.5887 12.47 16.1245 14.01L17.1323 15.07C18.8533 13.26 19.9182 10.76 19.9182 8ZM2.32808 8C2.32808 5.66 3.23136 3.53 4.69563 1.99L3.68776 0.93C1.96677 2.74 0.901855 5.24 0.901855 8C0.901855 10.76 1.96677 13.26 3.68776 15.07L4.69563 14.01C3.23136 12.47 2.32808 10.34 2.32808 8ZM15.6396 8C15.6396 9.52 15.0501 10.89 14.1087 11.89L15.1166 12.95C16.3242 11.68 17.0658 9.93 17.0658 8C17.0658 6.07 16.3242 4.32 15.1166 3.05L14.1087 4.11C15.0501 5.11 15.6396 6.48 15.6396 8ZM5.70349 12.95L6.71136 11.89C5.76054 10.89 5.18054 9.52 5.18054 8C5.18054 6.48 5.77005 5.11 6.71136 4.11L5.70349 3.05C4.49595 4.32 3.75431 6.07 3.75431 8C3.75431 9.93 4.49595 11.68 5.70349 12.95Z" fill="#3E3C42"/>
</svg>
