<svg width="20" height="21" viewBox="0 0 20 21" fill="none" xmlns="http://www.w3.org/2000/svg">
<path d="M8.81697 14.0449L14.4195 8.44233L13.5413 7.56415L8.81697 12.2885L6.44197 9.9135L5.56378 10.7917L8.81697 14.0449ZM10.001 18.4167C8.9061 18.4167 7.87691 18.2089 6.91347 17.7933C5.95001 17.3778 5.11194 16.8138 4.39926 16.1015C3.68656 15.3891 3.12235 14.5514 2.70661 13.5884C2.29088 12.6253 2.08301 11.5964 2.08301 10.5014C2.08301 9.40647 2.29079 8.37728 2.70634 7.41383C3.1219 6.45037 3.68586 5.61231 4.39822 4.89963C5.11059 4.18693 5.94829 3.62272 6.91132 3.20698C7.87433 2.79124 8.90331 2.58337 9.99826 2.58337C11.0932 2.58337 12.1224 2.79115 13.0858 3.20671C14.0493 3.62226 14.8874 4.18622 15.6 4.89858C16.3127 5.61096 16.877 6.44866 17.2927 7.41169C17.7084 8.3747 17.9163 9.40368 17.9163 10.4986C17.9163 11.5936 17.7085 12.6228 17.293 13.5862C16.8774 14.5497 16.3135 15.3877 15.6011 16.1004C14.8887 16.8131 14.051 17.3773 13.088 17.7931C12.125 18.2088 11.096 18.4167 10.001 18.4167Z" fill="#69B04B"/>
</svg>
