<svg xmlns="http://www.w3.org/2000/svg" width="119" height="118" viewBox="0 0 119 118" fill="none">
  <g clip-path="url(#clip0_1269_14908)">
    <path opacity="0.976" fill-rule="evenodd" clip-rule="evenodd" d="M57.3105 -0.115234C58.0787 -0.115234 58.8471 -0.115234 59.6152 -0.115234C59.6152 7.25977 59.6152 14.6348 59.6152 22.0098C59.1393 22.0137 58.6784 22.0905 58.2324 22.2402C52.2188 20.9102 48.9153 17.1459 48.3223 10.9473C48.797 5.17506 51.7931 1.48756 57.3105 -0.115234Z" fill="#CAC5CD"/>
    <path fill-rule="evenodd" clip-rule="evenodd" d="M59.6152 -0.115234C60.3834 -0.115234 61.1518 -0.115234 61.9199 -0.115234C67.4373 1.48756 70.4334 5.17506 70.9082 10.9473C70.6086 15.8942 68.2269 19.3896 63.7637 21.4336C62.8699 21.7723 61.948 21.9644 60.998 22.0098C60.5371 22.0098 60.0762 22.0098 59.6152 22.0098C59.6152 14.6348 59.6152 7.25977 59.6152 -0.115234Z" fill="#AEA9B1"/>
    <path opacity="0.995" fill-rule="evenodd" clip-rule="evenodd" d="M59.616 22.0098C59.616 34.2246 59.616 46.4395 59.616 58.6543C57.1488 58.6693 55.1898 59.6679 53.739 61.6504C52.0345 64.2015 50.4212 66.8134 48.8992 69.4863C47.8236 72.252 47.8236 75.0176 48.8992 77.7832C50.4735 80.6258 52.1638 83.3914 53.9695 86.0801C55.1168 87.556 56.6148 88.4011 58.4636 88.6152C58.7907 88.8344 59.1746 88.9112 59.616 88.8457C59.616 93.6088 59.616 98.3717 59.616 103.135C44.712 103.173 29.8085 103.135 14.905 103.02C13.2993 102.756 12.2238 101.873 11.6785 100.369C8.04482 81.1637 4.39572 61.9578 0.731199 42.752C0.0756762 39.6888 1.26643 37.922 4.30346 37.4512C4.85403 37.6079 5.39178 37.8001 5.91675 38.0273C10.7238 42.0294 15.4868 46.0626 20.2058 50.127C24.3531 53.8119 28.5783 57.4227 32.8816 60.959C38.2801 52.8513 43.5039 44.6312 48.5535 36.2988C51.2013 32.0801 53.8517 27.8547 56.5046 23.623C56.9854 23.0252 57.5616 22.5643 58.2332 22.2402C58.6791 22.0905 59.14 22.0137 59.616 22.0098Z" fill="#EBEBEB"/>
    <path fill-rule="evenodd" clip-rule="evenodd" d="M59.6152 22.0098C60.0762 22.0098 60.5371 22.0098 60.998 22.0098C61.5982 22.4938 62.1744 23.0315 62.7266 23.623C65.3795 27.8547 68.0299 32.0801 70.6777 36.2988C75.8416 44.5515 81.0657 52.7714 86.3496 60.959C90.6529 57.4227 94.8781 53.8119 99.0254 50.127C103.744 46.0626 108.507 42.0294 113.314 38.0273C115.325 37.1967 117.015 37.6194 118.385 39.2949C118.385 40.8315 118.385 42.3678 118.385 43.9043C114.703 62.6838 111.093 81.5053 107.553 100.369C107.057 101.671 106.135 102.554 104.787 103.02C89.7301 103.135 74.6727 103.173 59.6152 103.135C59.6152 98.3717 59.6152 93.6088 59.6152 88.8457C61.8628 88.6484 63.745 87.7266 65.2617 86.0801C67.0674 83.3914 68.7577 80.6258 70.332 77.7832C71.4076 75.0176 71.4076 72.252 70.332 69.4863C68.6035 66.4893 66.7598 63.57 64.8008 60.7285C63.3207 59.4282 61.5922 58.7368 59.6152 58.6543C59.6152 46.4395 59.6152 34.2246 59.6152 22.0098Z" fill="#CAC5CD"/>
    <path opacity="0.985" fill-rule="evenodd" clip-rule="evenodd" d="M48.5527 36.2988C43.5032 44.6312 38.2794 52.8513 32.8809 60.959C28.5775 57.4227 24.3524 53.8119 20.2051 50.127C28.38 43.0055 37.8293 38.3961 48.5527 36.2988Z" fill="#AEA9B1"/>
    <path fill-rule="evenodd" clip-rule="evenodd" d="M70.6777 36.2988C81.4012 38.3961 90.8504 43.0055 99.0254 50.127C94.8781 53.8119 90.6529 57.4227 86.3496 60.959C81.0657 52.7714 75.8416 44.5515 70.6777 36.2988Z" fill="#AEA9B1"/>
    <path fill-rule="evenodd" clip-rule="evenodd" d="M59.6153 58.6543C59.6153 68.6412 59.6153 78.6283 59.6153 88.6152C59.2311 88.6152 58.8471 88.6152 58.4629 88.6152C56.6141 88.4011 55.1161 87.556 53.9688 86.0801C52.1631 83.3914 50.4728 80.6258 48.8985 77.7832C47.8229 75.0176 47.8229 72.252 48.8985 69.4863C50.4205 66.8134 52.0338 64.2014 53.7383 61.6504C55.1891 59.6679 57.1481 58.6693 59.6153 58.6543Z" fill="#AEA9B1"/>
    <path fill-rule="evenodd" clip-rule="evenodd" d="M59.6152 58.6543C61.5922 58.7368 63.3207 59.4282 64.8008 60.7285C66.7598 63.57 68.6035 66.4893 70.332 69.4863C71.4076 72.252 71.4076 75.0176 70.332 77.7832C68.7577 80.6258 67.0674 83.3914 65.2617 86.0801C63.745 87.7265 61.8628 88.6484 59.6152 88.8457C59.1739 88.9112 58.7899 88.8344 58.4629 88.6152C58.8471 88.6152 59.231 88.6152 59.6152 88.6152C59.6152 78.6283 59.6152 68.6412 59.6152 58.6543Z" fill="#AEA9B1"/>
    <path opacity="0.998" fill-rule="evenodd" clip-rule="evenodd" d="M11.6785 100.369C12.2238 101.873 13.2993 102.756 14.905 103.02C29.8085 103.135 44.712 103.173 59.616 103.135C59.616 108.051 59.616 112.968 59.616 117.885C44.405 117.885 29.1941 117.885 13.9831 117.885C12.9956 117.396 12.2657 116.628 11.7937 115.58C11.6785 110.51 11.6401 105.44 11.6785 100.369Z" fill="#CAC5CD"/>
    <path fill-rule="evenodd" clip-rule="evenodd" d="M107.553 100.369C107.591 105.44 107.553 110.51 107.438 115.58C106.965 116.628 106.236 117.396 105.248 117.885C90.0371 117.885 74.8262 117.885 59.6152 117.885C59.6152 112.968 59.6152 108.051 59.6152 103.135C74.6727 103.173 89.7301 103.135 104.787 103.02C106.135 102.554 107.057 101.671 107.553 100.369Z" fill="#AEA9B1"/>
  </g>
  <defs>
    <clipPath id="clip0_1269_14908">
      <rect width="118" height="118" fill="white" transform="translate(0.5)"/>
    </clipPath>
  </defs>
</svg>