<svg width="118" height="118" viewBox="0 0 118 118" fill="none" xmlns="http://www.w3.org/2000/svg">
<g clip-path="url(#clip0_1279_15023)">
<path opacity="0.994" fill-rule="evenodd" clip-rule="evenodd" d="M54.2762 -0.115234C55.7358 -0.115234 57.1956 -0.115234 58.6551 -0.115234C58.6551 6.26108 58.6551 12.6374 58.6551 19.0137C57.0776 18.5645 55.4643 18.4492 53.8153 18.668C52.9192 19.18 52.2663 19.9098 51.8563 20.8574C51.7411 26.1577 51.7026 31.4585 51.7411 36.7598C47.706 36.6837 43.7113 36.7605 39.7567 36.9902C38.2697 37.2182 37.3096 38.0631 36.8758 39.5254C36.7221 47.4381 36.7221 55.351 36.8758 63.2637C37.2775 64.5105 38.0842 65.3941 39.2958 65.9141C44.2119 66.0293 49.1285 66.0678 54.0458 66.0293C55.5823 66.0293 57.1186 66.0293 58.6551 66.0293C58.6551 73.4043 58.6551 80.7793 58.6551 88.1543C57.81 88.1543 56.9651 88.1543 56.12 88.1543C47.6827 87.5701 40.0003 84.8812 33.0731 80.0879C19.1515 69.4909 13.1209 55.4323 14.9813 37.9121C18.1596 20.0615 28.2618 8.03868 45.2879 1.84375C48.2624 0.943719 51.2585 0.290723 54.2762 -0.115234Z" fill="#00CDFE"/>
<path fill-rule="evenodd" clip-rule="evenodd" d="M58.6543 -0.115234C60.1908 -0.115234 61.7271 -0.115234 63.2637 -0.115234C82.0879 2.68922 94.7252 13.0603 101.176 30.998C105.769 48.386 101.813 63.4817 89.3066 76.2852C87.8607 77.6954 86.3244 78.963 84.6973 80.0879C76.8703 85.4364 68.1895 88.202 58.6543 88.3848C57.7622 88.4574 56.917 88.3806 56.1191 88.1543C56.9643 88.1543 57.8092 88.1543 58.6543 88.1543C58.6543 80.7793 58.6543 73.4043 58.6543 66.0293C64.1093 66.0678 69.5638 66.0293 75.0176 65.9141C79.9687 65.0351 83.0801 62.1542 84.3516 57.2715C84.5053 50.8951 84.5053 44.519 84.3516 38.1426C83.1607 33.7252 80.3568 30.9213 75.9395 29.7305C72.6454 29.415 69.3421 29.2997 66.0293 29.3848C65.7739 24.3354 63.3155 20.8785 58.6543 19.0137C58.6543 12.6374 58.6543 6.26108 58.6543 -0.115234Z" fill="#0092DD"/>
<path fill-rule="evenodd" clip-rule="evenodd" d="M58.6551 19.0137C58.6551 34.6856 58.6551 50.3574 58.6551 66.0293C57.1185 66.0293 55.5822 66.0293 54.0457 66.0293C52.6601 65.4096 51.8917 64.334 51.741 62.8028C51.741 54.1217 51.741 45.4409 51.741 36.7598C51.7025 31.4585 51.741 26.1578 51.8562 20.8574C52.2662 19.9098 52.9192 19.18 53.8152 18.668C55.4642 18.4493 57.0775 18.5645 58.6551 19.0137Z" fill="#EEF5FD"/>
<path fill-rule="evenodd" clip-rule="evenodd" d="M58.6543 19.0137C63.3155 20.8785 65.7739 24.3354 66.0293 29.3848C69.3421 29.2997 72.6454 29.415 75.9395 29.7305C80.3568 30.9213 83.1607 33.7252 84.3516 38.1426C84.5053 44.519 84.5053 50.8951 84.3516 57.2715C83.0801 62.1542 79.9687 65.0351 75.0176 65.9141C69.5638 66.0293 64.1093 66.0678 58.6543 66.0293C58.6543 50.3574 58.6543 34.6855 58.6543 19.0137Z" fill="#D1DBE7"/>
<path fill-rule="evenodd" clip-rule="evenodd" d="M39.7559 36.9902C43.6739 36.9902 47.5919 36.9902 51.5098 36.9902C51.4333 45.6337 51.5103 54.2378 51.7403 62.8027C51.891 64.334 52.6594 65.4096 54.045 66.0293C49.1277 66.0678 44.2111 66.0293 39.295 65.9141C38.0834 65.3941 37.2768 64.5105 36.8751 63.2637C36.7213 55.351 36.7213 47.4381 36.8751 39.5254C37.3088 38.0631 38.2689 37.2182 39.7559 36.9902Z" fill="#3440DB"/>
<path fill-rule="evenodd" clip-rule="evenodd" d="M39.7559 36.9903C43.7105 36.7605 47.7052 36.6838 51.7402 36.7598C51.7402 45.4409 51.7402 54.1217 51.7402 62.8028C51.5102 54.2379 51.4333 45.6338 51.5098 36.9903C47.5918 36.9903 43.6738 36.9903 39.7559 36.9903Z" fill="#6886E9"/>
<path opacity="0.989" fill-rule="evenodd" clip-rule="evenodd" d="M33.073 80.0879C40.0002 84.8812 47.6827 87.5701 56.1199 88.1543C56.9178 88.3806 57.7629 88.4574 58.6551 88.3848C58.6551 93.6088 58.6551 98.8326 58.6551 104.057C51.7325 108.669 44.8184 113.278 37.9129 117.885C37.0677 117.885 36.2228 117.885 35.3777 117.885C34.3842 117.39 33.6543 116.622 33.1883 115.58C33.073 103.75 33.0345 91.9188 33.073 80.0879Z" fill="#3340DB"/>
<path fill-rule="evenodd" clip-rule="evenodd" d="M84.6973 80.0879C84.7358 91.6116 84.6973 103.135 84.582 114.658C84.361 116.105 83.6311 117.18 82.3926 117.885C81.5474 117.885 80.7026 117.885 79.8574 117.885C72.853 113.186 65.7855 108.577 58.6543 104.057C58.6543 98.8326 58.6543 93.6088 58.6543 88.3848C68.1895 88.202 76.8703 85.4364 84.6973 80.0879Z" fill="#1C259E"/>
</g>
<defs>
<clipPath id="clip0_1279_15023">
<rect width="118" height="118" fill="white"/>
</clipPath>
</defs>
</svg>
