<svg width="53" height="49" viewBox="0 0 53 49" fill="none" xmlns="http://www.w3.org/2000/svg">
<g clip-path="url(#clip0_55_3224)">
<path d="M20.4296 35.5203C20.4296 33.7124 20.7249 32.0879 21.3155 30.6469C21.9061 29.2058 23.1242 27.9505 24.9697 26.8808C25.5242 26.5486 26.2074 26.1719 27.0195 25.7508C27.8551 25.312 28.6516 24.8024 29.4003 24.2277C30.1656 23.6489 30.8299 22.9475 31.3664 22.152C31.9071 21.341 32.1874 20.3842 32.1697 19.4096C32.1859 18.6998 32.035 17.9961 31.7291 17.3553C31.4469 16.7833 31.0513 16.2747 30.5663 15.8604C30.0683 15.4453 29.4919 15.1345 28.8714 14.9463C28.2354 14.7455 27.5723 14.643 26.9053 14.6424C26.1494 14.632 25.3989 14.7718 24.6974 15.0537C24.0521 15.3196 23.4467 15.6736 22.8986 16.1056C22.3643 16.5286 21.8808 17.012 21.4579 17.5463C21.0685 18.032 20.7082 18.5402 20.3788 19.0683H19.5449L15.5596 15.7463C16.0205 14.6292 16.6665 13.5978 17.4703 12.6955C18.2563 11.8156 19.1705 11.0595 20.1822 10.4525C21.2113 9.84069 22.3217 9.37735 23.4805 9.07625C24.6733 8.76119 25.9021 8.60279 27.1358 8.60507C28.5426 8.60586 29.9418 8.81101 31.2895 9.21411C32.6335 9.60966 33.8853 10.2688 34.972 11.1531C36.0945 12.0823 37.0017 13.2443 37.6308 14.5587C38.3132 15.9433 38.6545 17.5956 38.6545 19.5158C38.6716 20.5735 38.5318 21.6279 38.2398 22.6446C37.9747 23.5241 37.5724 24.3562 37.0477 25.1101C36.5282 25.8514 35.9139 26.5214 35.2206 27.1034C34.4678 27.7305 33.6718 28.3041 32.8387 28.8198C32.0997 29.2642 31.3615 29.6891 30.624 30.0943C29.9102 30.4837 29.2336 30.9376 28.6025 31.4503C28.0082 31.9319 27.502 32.513 27.1065 33.1678C26.7193 33.8141 26.5257 34.5987 26.5257 35.5215L20.4296 35.5203ZM20.5426 48.4231V40.7813H26.6895V48.4231H20.5426Z" fill="#6CA6FC"/>
<g opacity="0.2">
<path d="M20.4296 35.5203C20.4296 33.7124 20.7249 32.0879 21.3155 30.6469C21.9061 29.2058 23.1242 27.9505 24.9697 26.8808C25.5242 26.5486 26.2074 26.1719 27.0195 25.7508C27.8551 25.312 28.6516 24.8024 29.4003 24.2277C30.1656 23.6489 30.8299 22.9475 31.3664 22.152C31.9071 21.341 32.1874 20.3842 32.1697 19.4096C32.1859 18.6998 32.035 17.9961 31.7291 17.3553C31.4469 16.7833 31.0513 16.2747 30.5663 15.8604C30.0683 15.4453 29.4919 15.1345 28.8714 14.9463C28.2354 14.7455 27.5723 14.643 26.9053 14.6424C26.1494 14.632 25.3989 14.7718 24.6974 15.0537C24.0521 15.3196 23.4467 15.6736 22.8986 16.1056C22.3643 16.5286 21.8808 17.012 21.4579 17.5463C21.0685 18.032 20.7082 18.5402 20.3788 19.0683H19.5449L15.5596 15.7463C16.0205 14.6292 16.6665 13.5978 17.4703 12.6955C18.2563 11.8156 19.1705 11.0595 20.1822 10.4525C21.2113 9.84069 22.3217 9.37735 23.4805 9.07625C24.6733 8.76119 25.9021 8.60279 27.1358 8.60507C28.5426 8.60586 29.9418 8.81101 31.2895 9.21411C32.6335 9.60966 33.8853 10.2688 34.972 11.1531C36.0945 12.0823 37.0017 13.2443 37.6308 14.5587C38.3132 15.9433 38.6545 17.5956 38.6545 19.5158C38.6716 20.5735 38.5318 21.6279 38.2398 22.6446C37.9747 23.5241 37.5724 24.3562 37.0477 25.1101C36.5282 25.8514 35.9139 26.5214 35.2206 27.1034C34.4678 27.7305 33.6718 28.3041 32.8387 28.8198C32.0997 29.2642 31.3615 29.6891 30.624 30.0943C29.9102 30.4837 29.2336 30.9376 28.6025 31.4503C28.0082 31.9319 27.502 32.513 27.1065 33.1678C26.7193 33.8141 26.5257 34.5987 26.5257 35.5215L20.4296 35.5203ZM20.5426 48.4231V40.7813H26.6895V48.4231H20.5426Z" fill="black"/>
</g>
<path d="M19.6 35.5203C19.6 33.7124 19.8953 32.0879 20.4859 30.6469C21.0765 29.2058 22.2949 27.9505 24.1413 26.8808C24.6949 26.5486 25.3778 26.1719 26.1898 25.7508C27.026 25.3123 27.8229 24.8027 28.5718 24.2277C29.3369 23.6486 30.0011 22.9473 30.5379 22.152C31.0778 21.3406 31.3576 20.384 31.3401 19.4096C31.3547 18.7015 31.203 17.9998 30.8972 17.361C30.615 16.789 30.2194 16.2804 29.7345 15.8661C29.2364 15.451 28.66 15.1401 28.0396 14.952C27.4035 14.7512 26.7405 14.6487 26.0735 14.648C25.3175 14.6355 24.5666 14.7734 23.8644 15.0537C23.2188 15.3196 22.613 15.6736 22.0644 16.1056C21.5305 16.5286 21.0474 17.0121 20.6249 17.5463C20.2352 18.032 19.8744 18.5402 19.5446 19.0684L14.7266 15.7463C15.1872 14.6291 15.8332 13.5976 16.6373 12.6955C17.4229 11.8153 18.3372 11.0591 19.3492 10.4525C20.378 9.84088 21.488 9.37755 22.6463 9.07626C23.8403 8.7608 25.0702 8.6024 26.3051 8.60507C27.7118 8.60579 29.111 8.81094 30.4588 9.21411C31.8029 9.60941 33.0547 10.2686 34.1413 11.1531C35.264 12.082 36.1713 13.2441 36.8 14.5587C37.4825 15.9433 37.8241 17.5957 37.8249 19.5158C37.8416 20.5736 37.7015 21.628 37.409 22.6446C37.1433 23.5245 36.7398 24.3566 36.2136 25.1102C35.694 25.8514 35.0798 26.5215 34.3864 27.1034C33.634 27.7311 32.8381 28.3046 32.0045 28.8198C31.2671 29.2642 30.5288 29.6891 29.7898 30.0943C29.0761 30.4837 28.3994 30.9376 27.7684 31.4503C27.1744 31.932 26.6686 32.5131 26.2735 33.1678C25.8863 33.8141 25.6923 34.5987 25.6915 35.5215L19.6 35.5203ZM19.713 48.4232V40.7813H25.8531V48.4232H19.713Z" fill="#6CA6FC"/>
</g>
<path d="M33.7387 16.1845L29.084 11.5298L31.1078 9.60714L33.7387 12.2381L41.2268 4.75L43.2507 6.77381L33.7387 16.1845Z" fill="white"/>
<defs>
<clipPath id="clip0_55_3224">
<rect width="24.0678" height="40" fill="white" transform="translate(14.667 8.5)"/>
</clipPath>
</defs>
</svg>
