<svg xmlns="http://www.w3.org/2000/svg" width="119" height="118" viewBox="0 0 119 118" fill="none">
  <g clip-path="url(#clip0_1256_14653)">
    <path opacity="0.993" fill-rule="evenodd" clip-rule="evenodd" d="M54.7762 -0.115234C56.2358 -0.115234 57.6956 -0.115234 59.1551 -0.115234C59.1551 9.87174 59.1551 19.8587 59.1551 29.8457C53.0486 24.1918 46.4418 23.5389 39.3348 27.8867C33.3145 33.1112 31.9702 39.3721 35.3016 46.6699C35.7054 47.401 36.1663 48.0924 36.6844 48.7441C43.637 55.6967 50.5893 62.649 57.5419 69.6016C58.0436 69.8786 58.5815 69.9938 59.1551 69.9473C59.1551 70.024 59.1551 70.101 59.1551 70.1777C59.1551 76.1699 59.1551 82.1621 59.1551 88.1543C58.31 88.1543 57.4651 88.1543 56.62 88.1543C48.1887 87.5466 40.5063 84.8579 33.5731 80.0879C19.6515 69.4909 13.6209 55.4323 15.4813 37.9121C18.6596 20.0615 28.7618 8.03868 45.7879 1.84375C48.7624 0.943719 51.7585 0.290723 54.7762 -0.115234Z" fill="#AEA9B1"/>
    <path fill-rule="evenodd" clip-rule="evenodd" d="M59.1543 -0.115234C60.6908 -0.115234 62.2271 -0.115234 63.7637 -0.115234C82.5879 2.68922 95.2252 13.0603 101.676 30.998C106.269 48.386 102.313 63.4817 89.8066 76.2852C88.3607 77.6954 86.8244 78.963 85.1973 80.0879C78.7974 84.4373 71.7296 87.0877 63.9941 88.0391C62.3827 88.1543 60.7694 88.1926 59.1543 88.1543C59.1543 82.1621 59.1543 76.1699 59.1543 70.1777C60.3156 70.1346 61.3142 69.7122 62.1504 68.9102C68.4115 62.649 74.6724 56.3881 80.9336 50.127C85.9002 44.3463 86.5149 38.1237 82.7773 31.459C77.4613 24.8966 70.97 23.3986 63.3027 26.9648C61.9439 28.0575 60.5611 29.0946 59.1543 30.0762C59.1543 29.9994 59.1543 29.9224 59.1543 29.8457C59.1543 19.8587 59.1543 9.87174 59.1543 -0.115234Z" fill="#AEA9B1"/>
    <path fill-rule="evenodd" clip-rule="evenodd" d="M59.1552 29.8458C59.1552 29.9226 59.1552 29.9995 59.1552 30.0763C59.1552 43.3667 59.1552 56.6569 59.1552 69.9474C58.5816 69.9939 58.0436 69.8787 57.5419 69.6017C50.5894 62.6491 43.637 55.6968 36.6845 48.7443C36.1664 48.0925 35.7055 47.4011 35.3017 46.67C31.9703 39.3722 33.3146 33.1113 39.3349 27.8868C46.4418 23.539 53.0487 24.192 59.1552 29.8458Z" fill="#EBEBEB"/>
    <path fill-rule="evenodd" clip-rule="evenodd" d="M59.1543 70.1775C59.1543 70.1007 59.1543 70.0237 59.1543 69.947C59.1543 56.6566 59.1543 43.3663 59.1543 30.0759C60.5611 29.0943 61.9439 28.0572 63.3027 26.9646C70.97 23.3983 77.4614 24.8963 82.7773 31.4587C86.5149 38.1234 85.9002 44.3461 80.9336 50.1267C74.6724 56.3878 68.4115 62.6487 62.1504 68.9099C61.3142 69.7119 60.3156 70.1344 59.1543 70.1775Z" fill="#CAC5CD"/>
    <path opacity="0.989" fill-rule="evenodd" clip-rule="evenodd" d="M33.573 80.0879C40.5062 84.8579 48.1887 87.5466 56.6199 88.1543C57.4178 88.3806 58.2629 88.4574 59.1551 88.3848C59.1551 93.6088 59.1551 98.8326 59.1551 104.057C52.2325 108.669 45.3184 113.278 38.4129 117.885C37.5677 117.885 36.7228 117.885 35.8777 117.885C34.8842 117.39 34.1543 116.622 33.6883 115.58C33.573 103.75 33.5345 91.9188 33.573 80.0879Z" fill="#EBEBEB"/>
    <path fill-rule="evenodd" clip-rule="evenodd" d="M85.1973 80.0879C85.2358 91.6116 85.1973 103.135 85.082 114.658C84.861 116.105 84.1311 117.18 82.8926 117.885C82.0474 117.885 81.2026 117.885 80.3574 117.885C73.353 113.186 66.2855 108.577 59.1543 104.057C59.1543 98.8326 59.1543 93.6088 59.1543 88.3848C58.2622 88.4574 57.417 88.3806 56.6191 88.1543C57.4643 88.1543 58.3092 88.1543 59.1543 88.1543C60.7694 88.1926 62.3827 88.1543 63.9941 88.0391C71.7296 87.0877 78.7974 84.4373 85.1973 80.0879Z" fill="#CAC5CD"/>
  </g>
  <defs>
    <clipPath id="clip0_1256_14653">
      <rect width="118" height="118" fill="white" transform="translate(0.5)"/>
    </clipPath>
  </defs>
</svg>