<svg width="53" height="45" viewBox="0 0 53 45" fill="none" xmlns="http://www.w3.org/2000/svg">
<g clip-path="url(#clip0_55_3209)">
<path d="M20.0956 31.5203C20.0956 29.7124 20.3909 28.0879 20.9815 26.6469C21.5721 25.2058 22.7902 23.9505 24.6358 22.8808C25.1902 22.5486 25.8734 22.1719 26.6855 21.7508C27.5211 21.312 28.3176 20.8024 29.0663 20.2277C29.8316 19.6489 30.4959 18.9475 31.0324 18.152C31.5732 17.341 31.8535 16.3842 31.8358 15.4096C31.8519 14.6998 31.701 13.9961 31.3951 13.3553C31.1129 12.7833 30.7173 12.2747 30.2324 11.8604C29.7343 11.4453 29.1579 11.1345 28.5374 10.9463C27.9014 10.7455 27.2384 10.643 26.5713 10.6424C25.8154 10.632 25.0649 10.7718 24.3634 11.0537C23.7181 11.3196 23.1127 11.6736 22.5646 12.1056C22.0303 12.5286 21.5469 13.012 21.1239 13.5463C20.7345 14.032 20.3742 14.5402 20.0448 15.0683H19.2109L15.2256 11.7463C15.6866 10.6292 16.3325 9.59783 17.1363 8.69546C17.9223 7.81563 18.8365 7.05947 19.8482 6.45252C20.8773 5.84069 21.9877 5.37735 23.1465 5.07625C24.3393 4.76119 25.5681 4.60279 26.8019 4.60507C28.2086 4.60586 29.6078 4.81101 30.9555 5.21411C32.2995 5.60966 33.5514 6.26879 34.638 7.15309C35.7605 8.08227 36.6677 9.2443 37.2968 10.5587C37.9793 11.9433 38.3205 13.5956 38.3205 15.5158C38.3376 16.5735 38.1978 17.6279 37.9058 18.6446C37.6407 19.5241 37.2384 20.3562 36.7137 21.1101C36.1942 21.8514 35.5799 22.5214 34.8866 23.1034C34.1338 23.7305 33.3378 24.3041 32.5047 24.8198C31.7657 25.2642 31.0275 25.6891 30.29 26.0943C29.5762 26.4837 28.8996 26.9376 28.2685 27.4503C27.6743 27.9319 27.1681 28.513 26.7725 29.1678C26.3853 29.8141 26.1917 30.5987 26.1917 31.5215L20.0956 31.5203ZM20.2086 44.4231V36.7813H26.3555V44.4231H20.2086Z" fill="#7AC958"/>
<g opacity="0.2">
<path d="M20.0956 31.5203C20.0956 29.7124 20.3909 28.0879 20.9815 26.6469C21.5721 25.2058 22.7902 23.9505 24.6358 22.8808C25.1902 22.5486 25.8734 22.1719 26.6855 21.7508C27.5211 21.312 28.3176 20.8024 29.0663 20.2277C29.8316 19.6489 30.4959 18.9475 31.0324 18.152C31.5732 17.341 31.8535 16.3842 31.8358 15.4096C31.8519 14.6998 31.701 13.9961 31.3951 13.3553C31.1129 12.7833 30.7173 12.2747 30.2324 11.8604C29.7343 11.4453 29.1579 11.1345 28.5374 10.9463C27.9014 10.7455 27.2384 10.643 26.5713 10.6424C25.8154 10.632 25.0649 10.7718 24.3634 11.0537C23.7181 11.3196 23.1127 11.6736 22.5646 12.1056C22.0303 12.5286 21.5469 13.012 21.1239 13.5463C20.7345 14.032 20.3742 14.5402 20.0448 15.0683H19.2109L15.2256 11.7463C15.6866 10.6292 16.3325 9.59783 17.1363 8.69546C17.9223 7.81563 18.8365 7.05947 19.8482 6.45252C20.8773 5.84069 21.9877 5.37735 23.1465 5.07625C24.3393 4.76119 25.5681 4.60279 26.8019 4.60507C28.2086 4.60586 29.6078 4.81101 30.9555 5.21411C32.2995 5.60966 33.5514 6.26879 34.638 7.15309C35.7605 8.08227 36.6677 9.2443 37.2968 10.5587C37.9793 11.9433 38.3205 13.5956 38.3205 15.5158C38.3376 16.5735 38.1978 17.6279 37.9058 18.6446C37.6407 19.5241 37.2384 20.3562 36.7137 21.1101C36.1942 21.8514 35.5799 22.5214 34.8866 23.1034C34.1338 23.7305 33.3378 24.3041 32.5047 24.8198C31.7657 25.2642 31.0275 25.6891 30.29 26.0943C29.5762 26.4837 28.8996 26.9376 28.2685 27.4503C27.6743 27.9319 27.1681 28.513 26.7725 29.1678C26.3853 29.8141 26.1917 30.5987 26.1917 31.5215L20.0956 31.5203ZM20.2086 44.4231V36.7813H26.3555V44.4231H20.2086Z" fill="black"/>
</g>
<path d="M19.266 31.5203C19.266 29.7124 19.5613 28.0879 20.1519 26.6469C20.7425 25.2058 21.9609 23.9505 23.8073 22.8808C24.3609 22.5486 25.0438 22.1719 25.8559 21.7508C26.692 21.3123 27.4889 20.8027 28.2378 20.2277C29.0029 19.6486 29.6672 18.9473 30.2039 18.152C30.7438 17.3406 31.0237 16.384 31.0061 15.4096C31.0207 14.7015 30.869 13.9998 30.5632 13.361C30.281 12.789 29.8854 12.2804 29.4005 11.8661C28.9024 11.451 28.326 11.1401 27.7056 10.952C27.0695 10.7512 26.4065 10.6487 25.7395 10.648C24.9835 10.6355 24.2326 10.7734 23.5304 11.0537C22.8848 11.3196 22.279 11.6736 21.7304 12.1056C21.1965 12.5286 20.7134 13.0121 20.2909 13.5463C19.9012 14.032 19.5405 14.5402 19.2107 15.0684L14.3926 11.7463C14.8532 10.6291 15.4992 9.59761 16.3033 8.69547C17.089 7.81532 18.0033 7.05911 19.0152 6.45253C20.044 5.84088 21.154 5.37755 22.3124 5.07626C23.5063 4.7608 24.7362 4.6024 25.9711 4.60507C27.3779 4.60579 28.777 4.81094 30.1248 5.21411C31.4689 5.60941 32.7208 6.26857 33.8073 7.1531C34.9301 8.08202 35.8373 9.24412 36.466 10.5587C37.1485 11.9433 37.4901 13.5957 37.4909 15.5158C37.5076 16.5736 37.3675 17.628 37.0751 18.6446C36.8093 19.5245 36.4058 20.3566 35.8796 21.1102C35.36 21.8514 34.7458 22.5215 34.0525 23.1034C33.3 23.7311 32.5041 24.3046 31.6705 24.8198C30.9331 25.2642 30.1948 25.6891 29.4559 26.0943C28.7421 26.4837 28.0655 26.9376 27.4344 27.4503C26.8405 27.932 26.3346 28.5131 25.9395 29.1678C25.5523 29.8141 25.3583 30.5987 25.3576 31.5215L19.266 31.5203ZM19.379 44.4232V36.7813H25.5191V44.4232H19.379Z" fill="#7AC958"/>
</g>
<circle cx="36.333" cy="6" r="6" fill="#96E973"/>
<defs>
<clipPath id="clip0_55_3209">
<rect width="24.0678" height="40" fill="white" transform="translate(14.333 4.5)"/>
</clipPath>
</defs>
</svg>
