<svg xmlns="http://www.w3.org/2000/svg" width="119" height="118" viewBox="0 0 119 118" fill="none">
  <g clip-path="url(#clip0_1269_14929)">
    <path fill-rule="evenodd" clip-rule="evenodd" d="M43.4824 -0.115234C47.3236 -0.115234 51.1646 -0.115234 55.0059 -0.115234C56.4597 5.0852 57.8425 10.3091 59.1543 15.5566C59.3041 16.0026 59.3808 16.4636 59.3848 16.9395C59.3848 31.9967 59.3848 47.0541 59.3848 62.1113C59.0776 62.1113 58.7701 62.1113 58.4629 62.1113C57.6503 61.8371 56.9589 61.3761 56.3887 60.7285C51.2803 41.4475 46.21 22.165 41.1777 2.88086C41.4377 1.47103 42.2061 0.47233 43.4824 -0.115234Z" fill="#CAC5CD"/>
    <path fill-rule="evenodd" clip-rule="evenodd" d="M55.0059 -0.115234C56.4654 -0.115234 57.9252 -0.115234 59.3848 -0.115234C59.4611 5.14856 59.3841 10.3725 59.1543 15.5566C57.8425 10.3091 56.4597 5.0852 55.0059 -0.115234Z" fill="#CAC5CD"/>
    <path fill-rule="evenodd" clip-rule="evenodd" d="M59.3848 -0.115234C60.3066 -0.115234 61.2285 -0.115234 62.1504 -0.115234C66.6985 16.5258 71.1541 33.1963 75.5176 49.8965C73.6644 51.5964 71.7439 53.2097 69.7559 54.7363C66.2276 42.1603 62.7706 29.5613 59.3848 16.9395C59.3808 16.4636 59.3041 16.0026 59.1543 15.5566C59.3841 10.3725 59.4611 5.14856 59.3848 -0.115234Z" fill="#CAC5CD"/>
    <path fill-rule="evenodd" clip-rule="evenodd" d="M62.1504 -0.115234C66.606 -0.115234 71.0619 -0.115234 75.5176 -0.115234C76.5111 0.379513 77.241 1.14774 77.707 2.18945C81.6213 13.6244 85.3471 25.1096 88.8848 36.6445C88.8802 38.1131 88.2655 39.2654 87.041 40.1016C83.1615 43.3286 79.3203 46.5936 75.5176 49.8965C71.1541 33.1963 66.6985 16.5258 62.1504 -0.115234Z" fill="#AEA9B1"/>
    <path opacity="0.985" fill-rule="evenodd" clip-rule="evenodd" d="M41.177 2.88086C46.2092 22.165 51.2796 41.4475 56.3879 60.7285C56.2342 60.6518 56.0807 60.5748 55.927 60.498C47.9758 53.6612 39.9861 46.8624 31.9582 40.1016C30.3117 38.9209 29.7356 37.3461 30.2297 35.377C33.8179 24.4968 37.4671 13.6648 41.177 2.88086Z" fill="#AEA9B1"/>
    <path fill-rule="evenodd" clip-rule="evenodd" d="M59.3848 16.9395C62.7706 29.5613 66.2276 42.1603 69.7559 54.7363C67.6017 56.7363 65.374 58.6568 63.0723 60.498C62.0907 61.6034 60.8616 62.218 59.3848 62.3418C59.0162 62.4036 58.709 62.3266 58.4629 62.1113C58.7701 62.1113 59.0776 62.1113 59.3848 62.1113C59.3848 47.0541 59.3848 31.9967 59.3848 16.9395Z" fill="#AEA9B1"/>
    <path opacity="0.959" fill-rule="evenodd" clip-rule="evenodd" d="M55.9277 60.498C56.0815 60.5748 56.2349 60.6518 56.3887 60.7285C56.9589 61.3761 57.6503 61.8371 58.4629 62.1113C58.709 62.3266 59.0162 62.4036 59.3848 62.3418C59.3848 63.7246 59.3848 65.1074 59.3848 66.4902C58.2216 66.4527 57.0692 66.5296 55.9277 66.7207C55.9277 64.6465 55.9277 62.5723 55.9277 60.498Z" fill="#AEA9B1"/>
    <path fill-rule="evenodd" clip-rule="evenodd" d="M63.0723 60.498C63.0723 62.5723 63.0723 64.6465 63.0723 66.7207C61.8515 66.5421 60.6224 66.4653 59.3848 66.4902C59.3848 65.1074 59.3848 63.7246 59.3848 62.3418C60.8616 62.218 62.0907 61.6034 63.0723 60.498Z" fill="#EBEBEB"/>
    <path opacity="0.987" fill-rule="evenodd" clip-rule="evenodd" d="M59.3854 66.4907C59.4239 70.1789 59.3854 73.8664 59.2702 77.5532C58.5582 77.6802 57.9053 77.9489 57.3112 78.3598C53.4317 82.2393 49.552 86.119 45.6725 89.9985C44.7043 91.3253 44.6273 92.7081 45.442 94.1469C49.4752 98.1801 53.5084 102.213 57.5417 106.247C58.1229 106.556 58.7376 106.748 59.3854 106.823C59.3854 110.51 59.3854 114.198 59.3854 117.885C58.3098 117.885 57.2344 117.885 56.1588 117.885C44.301 115.669 36.9645 108.678 34.1491 96.9126C32.5787 85.0118 36.8423 75.9083 46.9401 69.602C49.767 68.109 52.7631 67.1489 55.9284 66.7212C57.0699 66.5301 58.2222 66.4531 59.3854 66.4907Z" fill="#CAC5CD"/>
    <path fill-rule="evenodd" clip-rule="evenodd" d="M59.3845 66.4899C60.6221 66.465 61.8512 66.5418 63.072 66.7204C74.9637 68.8939 82.2235 75.8848 84.8513 87.693C86.3735 99.5119 82.1099 108.538 72.0603 114.773C69.1398 116.348 66.0667 117.385 62.8415 117.884C61.6892 117.884 60.5368 117.884 59.3845 117.884C59.3845 114.197 59.3845 110.509 59.3845 106.822C58.7367 106.747 58.122 106.555 57.5407 106.246C53.5075 102.213 49.4743 98.1794 45.4411 94.1462C44.6264 92.7074 44.7034 91.3245 45.6716 89.9977C49.5511 86.1183 53.4308 82.2385 57.3103 78.3591C57.9044 77.9481 58.5573 77.6794 59.2693 77.5524C59.3845 73.8656 59.423 70.1781 59.3845 66.4899Z" fill="#AEA9B1"/>
    <path fill-rule="evenodd" clip-rule="evenodd" d="M59.3848 77.7837C60.3571 77.6636 61.2022 77.9325 61.9199 78.5903C65.7227 82.393 69.5254 86.1958 73.3281 89.9985C74.4037 91.4581 74.4037 92.9178 73.3281 94.3774C69.4486 98.2569 65.5689 102.137 61.6895 106.016C60.9898 106.478 60.2216 106.671 59.3848 106.592C59.3848 96.9893 59.3848 87.3866 59.3848 77.7837Z" fill="#EBEBEB"/>
  </g>
  <defs>
    <clipPath id="clip0_1269_14929">
      <rect width="118" height="118" fill="white" transform="translate(0.5)"/>
    </clipPath>
  </defs>
</svg>