<svg xmlns="http://www.w3.org/2000/svg" width="119" height="118" viewBox="0 0 119 118" fill="none">
  <g clip-path="url(#clip0_1256_14666)">
    <path opacity="0.994" fill-rule="evenodd" clip-rule="evenodd" d="M54.7762 -0.115234C56.2358 -0.115234 57.6956 -0.115234 59.1551 -0.115234C59.1551 5.64648 59.1551 11.4082 59.1551 17.1699C59.1551 17.2467 59.1551 17.3236 59.1551 17.4004C50.6259 26.9676 42.2138 36.6473 33.9188 46.4395C33.3466 48.8702 34.2302 50.445 36.5692 51.1641C41.7925 51.2793 47.0166 51.3178 52.2411 51.2793C52.2026 57.8866 52.2411 64.4932 52.3563 71.0996C53.4941 73.4151 55.2226 73.9913 57.5419 72.8281C58.0496 72.2815 58.5875 71.782 59.1551 71.3301C59.1551 76.9381 59.1551 82.5463 59.1551 88.1543C53.2302 88.2677 47.5453 87.1536 42.1004 84.8125C39.097 83.4659 36.2546 81.8911 33.5731 80.0879C19.6515 69.4909 13.6209 55.4323 15.4813 37.9121C18.6596 20.0615 28.7618 8.03868 45.7879 1.84375C48.7624 0.943719 51.7585 0.290723 54.7762 -0.115234Z" fill="#AEA9B1"/>
    <path fill-rule="evenodd" clip-rule="evenodd" d="M59.1543 -0.115234C60.6908 -0.115234 62.2271 -0.115234 63.7637 -0.115234C82.5879 2.68922 95.2252 13.0603 101.676 30.998C106.269 48.386 102.313 63.4817 89.8066 76.2852C88.3607 77.6954 86.8244 78.963 85.1973 80.0879C77.3726 85.4357 68.6918 88.2013 59.1543 88.3848C59.1543 88.308 59.1543 88.231 59.1543 88.1543C59.1543 82.5463 59.1543 76.9381 59.1543 71.3301C59.1543 71.2533 59.1543 71.1764 59.1543 71.0996C67.4348 61.6267 75.7702 52.1774 84.1602 42.752C85.6174 40.3355 85.118 38.4533 82.6621 37.1055C77.285 36.9902 71.9075 36.9517 66.5293 36.9902C66.639 30.2151 66.5238 23.4548 66.1836 16.709C64.6461 14.4711 62.7639 14.1254 60.5371 15.6719C60.0992 16.2101 59.6383 16.7094 59.1543 17.1699C59.1543 11.4082 59.1543 5.64648 59.1543 -0.115234Z" fill="#AEA9B1"/>
    <path fill-rule="evenodd" clip-rule="evenodd" d="M59.1543 71.0993C59.1543 53.1995 59.1543 35.2999 59.1543 17.4001C59.1543 17.3233 59.1543 17.2464 59.1543 17.1696C59.6383 16.7091 60.0992 16.2098 60.5371 15.6716C62.7639 14.1251 64.6461 14.4708 66.1836 16.7087C66.5238 23.4545 66.639 30.2148 66.5293 36.9899C71.9075 36.9514 77.285 36.9899 82.6621 37.1052C85.118 38.4529 85.6174 40.3352 84.1602 42.7516C75.7702 52.1771 67.4348 61.6263 59.1543 71.0993Z" fill="#CAC5CD"/>
    <path fill-rule="evenodd" clip-rule="evenodd" d="M59.155 17.4004C59.155 35.3002 59.155 53.1998 59.155 71.0996C59.155 71.1764 59.155 71.2533 59.155 71.3301C58.5874 71.782 58.0495 72.2815 57.5417 72.8281C55.2225 73.9913 53.494 73.4151 52.3562 71.0996C52.241 64.4932 52.2025 57.8866 52.241 51.2793C47.0165 51.3178 41.7924 51.2793 36.5691 51.1641C34.2301 50.445 33.3464 48.8702 33.9187 46.4395C42.2137 36.6473 50.6258 26.9676 59.155 17.4004Z" fill="#EBEBEB"/>
    <path opacity="0.989" fill-rule="evenodd" clip-rule="evenodd" d="M33.573 80.0879C36.2545 81.8911 39.0969 83.4659 42.1004 84.8125C47.5452 87.1536 53.2302 88.2677 59.1551 88.1543C59.1551 88.231 59.1551 88.308 59.1551 88.3848C59.1551 93.6088 59.1551 98.8326 59.1551 104.057C52.2325 108.669 45.3184 113.278 38.4129 117.885C37.5677 117.885 36.7228 117.885 35.8777 117.885C34.8842 117.39 34.1543 116.622 33.6883 115.58C33.573 103.75 33.5345 91.9188 33.573 80.0879Z" fill="#EBEBEB"/>
    <path fill-rule="evenodd" clip-rule="evenodd" d="M85.1973 80.0879C85.2358 91.6116 85.1973 103.135 85.082 114.658C84.861 116.105 84.1311 117.18 82.8926 117.885C82.0474 117.885 81.2026 117.885 80.3574 117.885C73.353 113.186 66.2855 108.577 59.1543 104.057C59.1543 98.8326 59.1543 93.6088 59.1543 88.3848C68.6918 88.2013 77.3726 85.4357 85.1973 80.0879Z" fill="#CAC5CD"/>
  </g>
  <defs>
    <clipPath id="clip0_1256_14666">
      <rect width="118" height="118" fill="white" transform="translate(0.5)"/>
    </clipPath>
  </defs>
</svg>