<svg xmlns="http://www.w3.org/2000/svg" width="119" height="118" viewBox="0 0 119 118" fill="none">
  <g clip-path="url(#clip0_1259_14679)">
    <path opacity="0.993" fill-rule="evenodd" clip-rule="evenodd" d="M28.5017 -0.115234C29.3469 -0.115234 30.1918 -0.115234 31.0369 -0.115234C32.4324 0.777827 33.7384 1.81494 34.9549 2.99609C41.408 6.83725 47.8611 6.83725 54.3142 2.99609C55.5307 1.81494 56.8367 0.777827 58.2322 -0.115234C58.6164 -0.115234 59.0004 -0.115234 59.3845 -0.115234C59.3845 10.0254 59.3845 20.166 59.3845 30.3066C59.3845 30.3834 59.3845 30.4604 59.3845 30.5371C58.2045 30.5316 57.2442 30.9925 56.5037 31.9199C53.94 36.2417 51.2896 40.5053 48.5525 44.7109C43.6359 45.94 38.7191 47.1693 33.8025 48.3984C31.2724 49.6886 30.6963 51.5708 32.074 54.0449C35.2787 57.7665 38.4283 61.531 41.5232 65.3379C41.4147 70.3361 41.1457 75.3294 40.7166 80.3184C40.6866 81.8332 41.3013 83.0241 42.5603 83.8906C43.3836 84.2144 44.2287 84.2912 45.0955 84.1211C49.8549 82.2149 54.618 80.3326 59.3845 78.4746C59.3845 91.6113 59.3845 104.748 59.3845 117.885C59.0004 117.885 58.6164 117.885 58.2322 117.885C55.5956 116.219 52.9837 114.49 50.3963 112.699C49.4251 112.175 48.4265 111.714 47.4002 111.316C43.0844 110.816 38.7823 110.201 34.4939 109.473C20.4228 105.081 12.318 95.5936 10.1795 81.0098C9.99535 78.0065 10.0722 75.0104 10.4099 72.0215C12.9548 62.3033 15.6436 52.6236 18.4763 42.9824C20.4838 34.1806 18.3328 26.5751 12.0232 20.166C11.2048 18.6512 11.2816 17.1916 12.2537 15.7871C17.5753 10.3498 22.9913 5.04906 28.5017 -0.115234Z" fill="#F5F5F5"/>
    <path fill-rule="evenodd" clip-rule="evenodd" d="M59.3848 -0.115234C59.8457 -0.115234 60.3066 -0.115234 60.7676 -0.115234C60.7676 -0.0384115 60.7676 0.0384115 60.7676 0.115234C60.3834 0.115234 59.9994 0.115234 59.6152 0.115234C59.6917 10.2182 59.615 20.282 59.3848 30.3066C59.3848 20.166 59.3848 10.0254 59.3848 -0.115234Z" fill="#EBEBEB"/>
    <path fill-rule="evenodd" clip-rule="evenodd" d="M87.7324 -0.115234C88.5776 -0.115234 89.4224 -0.115234 90.2676 -0.115234C95.926 5.197 101.496 10.6514 106.977 16.248C107.667 17.6506 107.59 19.0334 106.746 20.3965C100.158 27.1605 98.1602 35.0732 100.754 44.1348C103.361 53.1804 105.896 62.2457 108.359 71.3301C110.413 85.8503 105.458 97.2585 93.4941 105.555C87.322 109.199 80.6384 110.966 73.4434 110.855C71.5464 111.228 69.7796 111.92 68.1426 112.93C65.769 114.653 63.3106 116.228 60.7676 117.654C60.3834 117.654 59.9994 117.654 59.6152 117.654C59.6152 104.594 59.6152 91.5346 59.6152 78.4746C64.2965 80.3539 68.9826 82.2359 73.6738 84.1211C76.9214 84.3299 78.3812 82.7934 78.0527 79.5117C77.7513 74.783 77.4826 70.0583 77.2461 65.3379C80.4727 61.4967 83.6992 57.6557 86.9258 53.8145C88.1802 51.2952 87.5273 49.4899 84.9668 48.3984C80.0279 47.2021 75.1113 45.9345 70.2168 44.5957C67.5855 40.486 65.0119 36.3375 62.4961 32.1504C61.783 30.9787 60.7459 30.4408 59.3848 30.5371C59.3848 30.4604 59.3848 30.3834 59.3848 30.3066C59.615 20.282 59.6917 10.2182 59.6152 0.115234C59.9994 0.115234 60.3834 0.115234 60.7676 0.115234C61.0953 0.163305 61.4025 0.27854 61.6895 0.460938C67.1854 5.81003 73.5618 7.19284 80.8184 4.60938C83.4171 3.42626 85.7218 1.85139 87.7324 -0.115234Z" fill="#CAC5CD"/>
    <path fill-rule="evenodd" clip-rule="evenodd" d="M59.3849 30.5372C59.3849 46.5162 59.3849 62.4956 59.3849 78.4747C54.6183 80.3327 49.8552 82.2149 45.0958 84.1211C44.229 84.2912 43.3839 84.2145 42.5606 83.8907C41.3016 83.0241 40.6869 81.8333 40.7169 80.3184C41.146 75.3295 41.415 70.3361 41.5235 65.3379C38.4286 61.5311 35.279 57.7666 32.0743 54.045C30.6966 51.5709 31.2727 49.6887 33.8028 48.3985C38.7194 47.1694 43.6362 45.9401 48.5528 44.711C51.2899 40.5054 53.9403 36.2417 56.504 31.92C57.2445 30.9926 58.2049 30.5316 59.3849 30.5372Z" fill="#AEA9B1"/>
    <path fill-rule="evenodd" clip-rule="evenodd" d="M59.3848 30.5373C60.7459 30.441 61.783 30.9789 62.4961 32.1506C65.0119 36.3378 67.5855 40.4862 70.2168 44.5959C75.1113 45.9347 80.0279 47.2023 84.9668 48.3987C87.5273 49.4902 88.1802 51.2954 86.9258 53.8147C83.6992 57.6559 80.4727 61.4969 77.2461 65.3381C77.4826 70.0586 77.7513 74.7832 78.0527 79.512C78.3812 82.7936 76.9214 84.3301 73.6738 84.1213C68.9826 82.2361 64.2965 80.3541 59.6152 78.4748C59.5385 78.4748 59.4615 78.4748 59.3848 78.4748C59.3848 62.4958 59.3848 46.5164 59.3848 30.5373Z" fill="#AEA9B1"/>
    <path fill-rule="evenodd" clip-rule="evenodd" d="M59.3848 78.4746C59.4615 78.4746 59.5385 78.4746 59.6152 78.4746C59.6152 91.5346 59.6152 104.594 59.6152 117.654C59.9994 117.654 60.3834 117.654 60.7676 117.654C60.7676 117.731 60.7676 117.808 60.7676 117.885C60.3066 117.885 59.8457 117.885 59.3848 117.885C59.3848 104.748 59.3848 91.6113 59.3848 78.4746Z" fill="#EBEBEB"/>
  </g>
  <defs>
    <clipPath id="clip0_1259_14679">
      <rect width="118" height="118" fill="white" transform="translate(0.5)"/>
    </clipPath>
  </defs>
</svg>