<svg width="54" height="41" viewBox="0 0 54 41" fill="none" xmlns="http://www.w3.org/2000/svg">
<path d="M9.33301 33.8333V29.1666C9.33301 28.2222 9.57606 27.3541 10.0622 26.5625C10.5483 25.7708 11.1941 25.1666 11.9997 24.75C13.7219 23.8889 15.4719 23.243 17.2497 22.8125C19.0275 22.3819 20.833 22.1666 22.6663 22.1666C24.4997 22.1666 26.3052 22.3819 28.083 22.8125C29.8608 23.243 31.6108 23.8889 33.333 24.75C34.1386 25.1666 34.7844 25.7708 35.2705 26.5625C35.7566 27.3541 35.9997 28.2222 35.9997 29.1666V33.8333H9.33301ZM39.333 33.8333V28.8333C39.333 27.6111 38.9927 26.4375 38.3122 25.3125C37.6316 24.1875 36.6663 23.2222 35.4163 22.4166C36.833 22.5833 38.1663 22.868 39.4163 23.2708C40.6663 23.6736 41.833 24.1666 42.9163 24.75C43.9163 25.3055 44.6802 25.9236 45.208 26.6041C45.7358 27.2847 45.9997 28.0278 45.9997 28.8333V33.8333H39.333ZM22.6663 20.5C20.833 20.5 19.2636 19.8472 17.958 18.5417C16.6525 17.2361 15.9997 15.6667 15.9997 13.8333C15.9997 12 16.6525 10.4305 17.958 9.12499C19.2636 7.81943 20.833 7.16666 22.6663 7.16666C24.4997 7.16666 26.0691 7.81943 27.3747 9.12499C28.6802 10.4305 29.333 12 29.333 13.8333C29.333 15.6667 28.6802 17.2361 27.3747 18.5417C26.0691 19.8472 24.4997 20.5 22.6663 20.5ZM39.333 13.8333C39.333 15.6667 38.6802 17.2361 37.3747 18.5417C36.0691 19.8472 34.4997 20.5 32.6663 20.5C32.3608 20.5 31.9719 20.4653 31.4997 20.3958C31.0275 20.3264 30.6386 20.25 30.333 20.1667C31.083 19.2778 31.6594 18.2917 32.0622 17.2083C32.465 16.125 32.6663 15 32.6663 13.8333C32.6663 12.6667 32.465 11.5417 32.0622 10.4583C31.6594 9.37499 31.083 8.38888 30.333 7.49999C30.7219 7.3611 31.1108 7.27082 31.4997 7.22916C31.8886 7.18749 32.2775 7.16666 32.6663 7.16666C34.4997 7.16666 36.0691 7.81943 37.3747 9.12499C38.6802 10.4305 39.333 12 39.333 13.8333ZM12.6663 30.5H32.6663V29.1666C32.6663 28.8611 32.59 28.5833 32.4372 28.3333C32.2844 28.0833 32.083 27.8889 31.833 27.75C30.333 27 28.8191 26.4375 27.2913 26.0625C25.7636 25.6875 24.2219 25.5 22.6663 25.5C21.1108 25.5 19.5691 25.6875 18.0413 26.0625C16.5136 26.4375 14.9997 27 13.4997 27.75C13.2497 27.8889 13.0483 28.0833 12.8955 28.3333C12.7427 28.5833 12.6663 28.8611 12.6663 29.1666V30.5ZM22.6663 17.1667C23.583 17.1667 24.3677 16.8403 25.0205 16.1875C25.6733 15.5347 25.9997 14.75 25.9997 13.8333C25.9997 12.9167 25.6733 12.1319 25.0205 11.4792C24.3677 10.8264 23.583 10.5 22.6663 10.5C21.7497 10.5 20.965 10.8264 20.3122 11.4792C19.6594 12.1319 19.333 12.9167 19.333 13.8333C19.333 14.75 19.6594 15.5347 20.3122 16.1875C20.965 16.8403 21.7497 17.1667 22.6663 17.1667Z" fill="#306AC0"/>
</svg>
