<svg xmlns="http://www.w3.org/2000/svg" width="119" height="118" viewBox="0 0 119 118" fill="none">
  <g clip-path="url(#clip0_1259_14692)">
    <path opacity="0.996" fill-rule="evenodd" clip-rule="evenodd" d="M28.5027 -0.115234C38.7971 -0.115234 49.0912 -0.115234 59.3855 -0.115234C59.3855 4.80142 59.3855 9.71811 59.3855 14.6348C48.323 14.6348 37.2605 14.6348 26.198 14.6348C26.1595 10.5624 26.198 6.49081 26.3133 2.41992C26.6818 1.24592 27.4117 0.400864 28.5027 -0.115234Z" fill="#EBEBEB"/>
    <path fill-rule="evenodd" clip-rule="evenodd" d="M59.3848 -0.115234C69.6791 -0.115234 79.9732 -0.115234 90.2676 -0.115234C91.3586 0.400864 92.0885 1.24592 92.457 2.41992C92.5723 6.49081 92.6108 10.5624 92.5723 14.6348C81.5098 14.6348 70.4473 14.6348 59.3848 14.6348C59.3848 9.71811 59.3848 4.80142 59.3848 -0.115234Z" fill="#EBEBEB"/>
    <path opacity="0.965" fill-rule="evenodd" clip-rule="evenodd" d="M26.1973 14.6351C26.1973 16.9398 26.1973 19.2444 26.1973 21.5491C26.1973 21.6259 26.1973 21.7028 26.1973 21.7796C19.6418 20.8513 14.3026 22.9255 10.1797 28.0023C8.07118 31.2113 7.11088 34.7453 7.29883 38.6038C7.2118 46.8521 11.053 52.2681 18.8223 54.8519C21.5674 55.3174 24.333 55.5094 27.1191 55.428C28.7875 61.4569 31.7069 66.7577 35.877 71.3304C33.2063 75.893 29.2883 77.6982 24.123 76.7464C22.0571 74.8243 21.9803 72.8268 23.8926 70.7542C25.0143 70.3412 26.1666 70.034 27.3496 69.8323C29.9297 68.4677 30.5059 66.5087 29.0781 63.9554C28.6315 63.3548 28.0553 62.9323 27.3496 62.6878C24.6704 62.4126 21.9816 62.2589 19.2832 62.2269C11.0981 60.8046 5.29794 56.3105 1.88281 48.7444C1.26939 46.9784 0.770043 45.2116 0.384766 43.4437C0.384766 40.1404 0.384766 36.8368 0.384766 33.5335C1.98874 24.7658 6.98223 18.812 15.3652 15.6722C18.9143 14.7412 22.525 14.3955 26.1973 14.6351Z" fill="#AEA9B1"/>
    <path fill-rule="evenodd" clip-rule="evenodd" d="M59.3848 14.6348C70.4473 14.6348 81.5098 14.6348 92.5723 14.6348C92.5723 16.9395 92.5723 19.2441 92.5723 21.5488C92.4955 21.5488 92.4185 21.5488 92.3418 21.5488C92.3418 19.321 92.3418 17.0931 92.3418 14.8652C81.433 14.8652 70.524 14.8652 59.6152 14.8652C59.6152 17.0931 59.6152 19.321 59.6152 21.5488C59.5385 21.5488 59.4615 21.5488 59.3848 21.5488C59.3848 19.2441 59.3848 16.9395 59.3848 14.6348Z" fill="#AEA9B1"/>
    <path opacity="0.965" fill-rule="evenodd" clip-rule="evenodd" d="M92.5723 14.6344C103.839 13.6392 111.944 18.1717 116.887 28.232C117.5 29.9981 117.999 31.7649 118.385 33.5328C118.385 36.8361 118.385 40.1397 118.385 43.443C116.679 52.4879 111.455 58.5186 102.713 61.5348C101.653 61.8383 100.577 62.0688 99.4863 62.2262C96.788 62.2582 94.0991 62.4119 91.4199 62.6871C89.0304 63.9699 88.3775 65.8521 89.4609 68.3336C89.9827 69.0096 90.6359 69.509 91.4199 69.8316C92.6029 70.0333 93.7553 70.3405 94.877 70.7535C96.7892 72.8261 96.7124 74.8236 94.6465 76.7457C89.4812 77.6975 85.5633 75.8923 82.8926 71.3297C87.1726 66.809 90.092 61.5083 91.6504 55.4273C98.1897 56.3416 103.682 54.4211 108.129 49.6656C110.524 46.3879 111.638 42.7004 111.471 38.6031C111.647 30.6082 108.037 25.1922 100.639 22.3551C97.9791 21.833 95.2902 21.641 92.5723 21.7789C92.5723 21.7021 92.5723 21.6253 92.5723 21.5484C92.5723 19.2438 92.5723 16.9391 92.5723 14.6344Z" fill="#AEA9B1"/>
    <path fill-rule="evenodd" clip-rule="evenodd" d="M26.1973 14.6348C37.2598 14.6348 48.3223 14.6348 59.3848 14.6348C59.3848 16.9395 59.3848 19.2441 59.3848 21.5488C48.3223 21.5488 37.2598 21.5488 26.1973 21.5488C26.1973 19.2441 26.1973 16.9395 26.1973 14.6348Z" fill="#AEA9B1"/>
    <path fill-rule="evenodd" clip-rule="evenodd" d="M92.3418 21.5488C81.433 21.5488 70.524 21.5488 59.6152 21.5488C59.6152 19.321 59.6152 17.0931 59.6152 14.8652C70.524 14.8652 81.433 14.8652 92.3418 14.8652C92.3418 17.0931 92.3418 19.321 92.3418 21.5488Z" fill="#AEA9B1"/>
    <path opacity="0.995" fill-rule="evenodd" clip-rule="evenodd" d="M26.198 21.5488C37.2605 21.5488 48.323 21.5488 59.3855 21.5488C59.3855 23.623 59.3855 25.6973 59.3855 27.7715C58.3249 27.7448 57.4415 28.1289 56.7351 28.9238C55.285 31.1707 53.864 33.4369 52.4715 35.7227C49.4821 36.3544 46.5627 37.1995 43.7137 38.2578C42.1114 39.7436 41.9195 41.3952 43.1375 43.2129C44.7508 45.1334 46.364 47.0541 47.9773 48.9746C47.7904 51.9606 47.7134 54.9567 47.7469 57.9629C48.0709 59.1321 48.8006 59.9387 49.9363 60.3828C50.551 60.5365 51.1654 60.5365 51.7801 60.3828C54.2641 59.4865 56.7225 58.5262 59.1551 57.502C59.3855 65.2595 59.4623 73.0187 59.3855 80.7793C58.2332 80.7793 57.0808 80.7793 55.9285 80.7793C48.1838 79.7901 41.5002 76.6403 35.8777 71.3301C31.7076 66.7573 28.7883 61.4566 27.1199 55.4277C26.6905 53.6907 26.4218 51.9237 26.3133 50.127C26.198 40.678 26.1595 31.2287 26.198 21.7793C26.198 21.7025 26.198 21.6256 26.198 21.5488Z" fill="#EBEBEB"/>
    <path fill-rule="evenodd" clip-rule="evenodd" d="M59.3848 21.5488C59.4616 21.5488 59.5385 21.5488 59.6153 21.5488C70.5241 21.5488 81.4331 21.5488 92.3419 21.5488C92.4186 21.5488 92.4956 21.5488 92.5723 21.5488C92.5723 21.6256 92.5723 21.7025 92.5723 21.7793C92.6108 31.2287 92.5723 40.678 92.4571 50.127C92.3478 51.9288 92.0791 53.6958 91.6504 55.4277C90.092 61.5087 87.1727 66.8094 82.8926 71.3301C77.3222 76.765 70.6386 79.9146 62.8419 80.7793C61.6895 80.7793 60.5372 80.7793 59.3848 80.7793C59.4616 73.0187 59.3848 65.2595 59.1544 57.502C56.7218 58.5262 54.2633 59.4865 51.7794 60.3828C51.1647 60.5365 50.5503 60.5365 49.9356 60.3828C48.7999 59.9387 48.0702 59.1321 47.7462 57.9629C47.7127 54.9567 47.7897 51.9606 47.9766 48.9746C46.3633 47.0541 44.7501 45.1334 43.1368 43.2129C41.9187 41.3952 42.1107 39.7436 43.7129 38.2578C46.562 37.1995 49.4814 36.3544 52.4708 35.7227C53.8633 33.4369 55.2843 31.1707 56.7344 28.9238C57.4408 28.1289 58.3242 27.7448 59.3848 27.7715C59.3848 25.6973 59.3848 23.623 59.3848 21.5488Z" fill="#EBEBEB"/>
    <path fill-rule="evenodd" clip-rule="evenodd" d="M59.3855 27.7717C60.7467 27.6754 61.7838 28.2133 62.4969 29.385C63.755 31.5562 65.0993 33.6687 66.5301 35.7229C69.3187 36.4201 72.0844 37.1882 74.8269 38.0276C76.455 39.2396 76.8774 40.8144 76.0945 42.7522C74.3492 44.784 72.6591 46.8582 71.0242 48.9748C71.1009 51.9709 71.1779 54.967 71.2547 57.9631C70.4522 59.8811 69.0309 60.6877 66.991 60.383C64.4531 59.4349 61.9562 58.3978 59.5008 57.2717C59.3855 47.4388 59.347 37.6054 59.3855 27.7717Z" fill="#AEA9B1"/>
    <path fill-rule="evenodd" clip-rule="evenodd" d="M59.468 27.7717C58.1068 27.6754 57.0697 28.2133 56.3567 29.385C55.0985 31.5562 53.7542 33.6687 52.3235 35.7229C49.5348 36.4201 46.7692 37.1882 44.0266 38.0276C42.3985 39.2396 41.9761 40.8144 42.759 42.7522C44.5043 44.784 46.1944 46.8582 47.8293 48.9748C47.7526 51.9709 47.6756 54.967 47.5988 57.9631C48.4013 59.8811 49.8226 60.6877 51.8625 60.383C54.4004 59.4349 56.8973 58.3978 59.3528 57.2717C59.468 47.4388 59.5065 37.6054 59.468 27.7717Z" fill="#AEA9B1"/>
    <path opacity="0.981" fill-rule="evenodd" clip-rule="evenodd" d="M55.9268 80.7793C57.0791 80.7793 58.2314 80.7793 59.3838 80.7793C59.3838 84.5435 59.3838 88.308 59.3838 92.0723C57.0459 92.1817 55.7401 93.4108 55.4658 95.7598C55.6626 98.1848 56.9687 99.5676 59.3838 99.9082C59.3838 103.596 59.3838 107.283 59.3838 110.971C58.2314 110.971 57.0791 110.971 55.9268 110.971C55.965 109.432 55.9268 107.896 55.8115 106.361C49.7541 103.58 47.4879 98.9324 49.0127 92.418C50.2204 89.0206 52.525 86.7544 55.9268 85.6191C55.9268 84.0059 55.9268 82.3926 55.9268 80.7793Z" fill="#AEA9B1"/>
    <path fill-rule="evenodd" clip-rule="evenodd" d="M59.3848 80.7793C60.5371 80.7793 61.6895 80.7793 62.8418 80.7793C62.8418 82.3926 62.8418 84.0059 62.8418 85.6191C67.6358 87.3223 70.1709 90.7411 70.4473 95.875C70.1207 100.953 67.624 104.449 62.957 106.361C62.8418 107.896 62.8035 109.432 62.8418 110.971C61.6895 110.971 60.5371 110.971 59.3848 110.971C59.3848 107.283 59.3848 103.596 59.3848 99.9082C59.7533 99.97 60.0605 99.893 60.3066 99.6777C63.1993 98.5738 64.0059 96.5763 62.7266 93.6855C61.8916 92.5574 60.7777 92.0197 59.3848 92.0723C59.3848 88.308 59.3848 84.5435 59.3848 80.7793Z" fill="#AEA9B1"/>
    <path fill-rule="evenodd" clip-rule="evenodd" d="M59.3848 92.0723C59.3848 94.6074 59.3848 97.1426 59.3848 99.6777C59.692 99.6777 59.9994 99.6777 60.3066 99.6777C60.0605 99.893 59.7533 99.97 59.3848 99.9082C56.9697 99.5676 55.6636 98.1848 55.4668 95.7598C55.7411 93.4108 57.0469 92.1817 59.3848 92.0723Z" fill="#EBEBEB"/>
    <path fill-rule="evenodd" clip-rule="evenodd" d="M59.3848 92.0719C60.7777 92.0193 61.8916 92.557 62.7266 93.6851C64.0059 96.5759 63.1993 98.5734 60.3066 99.6773C59.9994 99.6773 59.692 99.6773 59.3848 99.6773C59.3848 97.1422 59.3848 94.607 59.3848 92.0719Z" fill="#EBEBEB"/>
    <path opacity="0.991" fill-rule="evenodd" clip-rule="evenodd" d="M55.9282 110.97C57.0805 110.97 58.2328 110.97 59.3852 110.97C59.3852 113.275 59.3852 115.58 59.3852 117.885C51.3188 117.885 43.2524 117.885 35.186 117.885C32.8801 116.456 32.3807 114.536 33.6879 112.123C34.0869 111.635 34.5863 111.289 35.186 111.086C42.0996 110.97 49.0136 110.932 55.9282 110.97Z" fill="#CAC5CD"/>
    <path fill-rule="evenodd" clip-rule="evenodd" d="M59.3848 110.97C60.5371 110.97 61.6895 110.97 62.8418 110.97C69.5259 110.932 76.2094 110.97 82.8926 111.086C85.3155 112.446 85.8149 114.328 84.3906 116.732C83.9378 117.205 83.4383 117.589 82.8926 117.885C75.0566 117.885 67.2207 117.885 59.3848 117.885C59.3848 115.58 59.3848 113.275 59.3848 110.97Z" fill="#AEA9B1"/>
  </g>
  <defs>
    <clipPath id="clip0_1259_14692">
      <rect width="118" height="118" fill="white" transform="translate(0.5)"/>
    </clipPath>
  </defs>
</svg>