<svg xmlns="http://www.w3.org/2000/svg" width="119" height="118" viewBox="0 0 119 118" fill="none">
  <g clip-path="url(#clip0_1269_14952)">
    <path opacity="0.988" fill-rule="evenodd" clip-rule="evenodd" d="M8.91211 -0.115234C9.9108 -0.115234 10.9095 -0.115234 11.9082 -0.115234C17.0793 0.536257 20.4211 3.3787 21.9336 8.41211C22.0488 14.0965 22.0872 19.7814 22.0488 25.4668C15.7489 25.5053 9.4494 25.4668 3.15039 25.3516C1.84851 25.0854 0.926637 24.3555 0.384766 23.1621C0.384766 18.2455 0.384766 13.3288 0.384766 8.41211C1.19817 5.44247 2.88828 3.09939 5.45508 1.38281C6.60221 0.810586 7.75456 0.311239 8.91211 -0.115234Z" fill="#CAC5CD"/>
    <path opacity="0.999" fill-rule="evenodd" clip-rule="evenodd" d="M11.9082 -0.115234C28.8092 -0.115234 45.7104 -0.115234 62.6113 -0.115234C62.6113 6.03061 62.6113 12.1764 62.6113 18.3223C58.5389 18.2839 54.4675 18.3223 50.3965 18.4375C47.8327 19.5345 47.1796 21.3398 48.4375 23.8535C48.8692 24.3626 49.3686 24.7851 49.9355 25.1211C54.2004 25.1598 58.4256 25.275 62.6113 25.4668C62.6113 29.231 62.6113 32.9955 62.6113 36.7598C55.0054 36.7213 47.3999 36.7598 39.7949 36.875C36.9857 37.9292 36.2561 39.8114 37.6055 42.5215C38.168 43.0905 38.821 43.513 39.5645 43.7891C47.2464 43.9043 54.9287 43.9428 62.6113 43.9043C62.6881 43.9043 62.765 43.9043 62.8418 43.9043C62.8418 46.5162 62.8418 49.1283 62.8418 51.7402C62.765 51.7402 62.6881 51.7402 62.6113 51.7402C54.8519 51.7017 47.0927 51.7402 39.334 51.8555C36.9512 53.0544 36.375 54.8596 37.6055 57.2715C38.0521 57.8721 38.6283 58.2945 39.334 58.5391C47.0927 58.6543 54.8519 58.6928 62.6113 58.6543C62.6113 61.2662 62.6113 63.8783 62.6113 66.4902C54.9287 66.4517 47.2464 66.4902 39.5645 66.6055C37.4587 67.3983 36.652 68.8963 37.1445 71.0996C37.6993 72.54 38.7364 73.3084 40.2559 73.4043C47.6682 73.6343 55.1202 73.7113 62.6113 73.6348C62.6113 79.9342 62.6113 86.2338 62.6113 92.5332C60.4871 97.0121 58.2976 101.468 56.043 105.9C55.7039 108.066 56.5106 109.602 58.4629 110.51C43.252 110.51 28.041 110.51 12.8301 110.51C17.5264 109.463 20.5609 106.621 21.9336 101.982C22.0488 96.2981 22.0872 90.6132 22.0488 84.9277C22.0488 65.1074 22.0488 45.2871 22.0488 25.4668C22.0872 19.7814 22.0488 14.0965 21.9336 8.41211C20.4211 3.3787 17.0793 0.536257 11.9082 -0.115234Z" fill="#EBEBEB"/>
    <path fill-rule="evenodd" clip-rule="evenodd" d="M62.6113 -0.115234C73.4434 -0.115234 84.2754 -0.115234 95.1074 -0.115234C99.7539 1.25773 102.558 4.33065 103.52 9.10352C103.635 25.4666 103.673 41.8298 103.635 58.1934C98.051 53.2083 91.5211 51.1341 84.0449 51.9707C77.0168 51.7407 69.949 51.6639 62.8418 51.7402C62.8418 49.1283 62.8418 46.5162 62.8418 43.9043C70.6402 43.9808 78.3994 43.9038 86.1191 43.6738C87.8656 43.2689 88.7108 42.155 88.6543 40.332C88.6354 38.3332 87.6368 37.2191 85.6582 36.9902C78.0154 36.7602 70.333 36.6833 62.6113 36.7598C62.6113 32.9955 62.6113 29.231 62.6113 25.4668C66.5696 25.5429 70.4876 25.4661 74.3652 25.2363C77.466 24.5117 78.3496 22.6679 77.0156 19.7051C76.4826 19.1122 75.8296 18.7281 75.0566 18.5527C70.9483 18.323 66.7999 18.2462 62.6113 18.3223C62.6113 12.1764 62.6113 6.03061 62.6113 -0.115234Z" fill="#CAC5CD"/>
    <path fill-rule="evenodd" clip-rule="evenodd" d="M62.6112 18.3223C66.7998 18.2463 70.9482 18.3231 75.0565 18.5528C70.9849 18.5528 66.9134 18.5528 62.8417 18.5528C62.8417 20.7807 62.8417 23.0085 62.8417 25.2364C66.6829 25.2364 70.5239 25.2364 74.3651 25.2364C70.4875 25.4662 66.5695 25.5429 62.6112 25.4669C58.4255 25.2751 54.2003 25.1599 49.9355 25.1212C49.3685 24.7851 48.8691 24.3627 48.4374 23.8536C47.1795 21.3399 47.8327 19.5346 50.3964 18.4376C54.4674 18.3224 58.5389 18.2839 62.6112 18.3223Z" fill="#CAC5CD"/>
    <path fill-rule="evenodd" clip-rule="evenodd" d="M75.0566 18.5527C75.8296 18.7281 76.4826 19.1122 77.0156 19.7051C78.3496 22.6679 77.466 24.5117 74.3652 25.2363C70.524 25.2363 66.683 25.2363 62.8418 25.2363C62.8418 23.0085 62.8418 20.7806 62.8418 18.5527C66.9135 18.5527 70.9849 18.5527 75.0566 18.5527Z" fill="#AEA9B1"/>
    <path fill-rule="evenodd" clip-rule="evenodd" d="M62.6119 36.7601C70.3335 36.6835 78.016 36.7605 85.6588 36.9905C78.0533 36.9905 70.4479 36.9905 62.8424 36.9905C62.6133 39.2535 62.5366 41.5582 62.6119 43.9046C54.9292 43.9431 47.247 43.9046 39.565 43.7894C38.8216 43.5133 38.1686 43.0908 37.6061 42.5218C36.2567 39.8117 36.9863 37.9295 39.7955 36.8753C47.4005 36.7601 55.006 36.7216 62.6119 36.7601Z" fill="#CAC5CD"/>
    <path fill-rule="evenodd" clip-rule="evenodd" d="M62.8418 36.9902C70.4473 36.9902 78.0527 36.9902 85.6582 36.9902C87.6368 37.2191 88.6354 38.3332 88.6543 40.332C88.7108 42.155 87.8656 43.2689 86.1191 43.6738C78.3599 43.6738 70.601 43.6738 62.8418 43.6738C62.8418 41.4459 62.8418 39.2182 62.8418 36.9902Z" fill="#AEA9B1"/>
    <path fill-rule="evenodd" clip-rule="evenodd" d="M62.8425 36.9902C62.8425 39.2182 62.8425 41.4459 62.8425 43.6738C70.6016 43.6738 78.3606 43.6738 86.1198 43.6738C78.4 43.9038 70.6408 43.9808 62.8425 43.9043C62.7657 43.9043 62.6887 43.9043 62.612 43.9043C62.5366 41.5579 62.6134 39.2532 62.8425 36.9902Z" fill="#AEA9B1"/>
    <path fill-rule="evenodd" clip-rule="evenodd" d="M62.611 51.74C62.611 54.0447 62.611 56.3494 62.611 58.6541C54.8515 58.6926 47.0923 58.6541 39.3336 58.5389C38.6279 58.2943 38.0518 57.8719 37.6051 57.2713C36.3746 54.8594 36.9508 53.0542 39.3336 51.8553C47.0923 51.74 54.8515 51.7015 62.611 51.74Z" fill="#AEA9B1"/>
    <path fill-rule="evenodd" clip-rule="evenodd" d="M62.6113 51.7404C62.6881 51.7404 62.7651 51.7404 62.8418 51.7404C69.949 51.6641 77.0168 51.7409 84.0449 51.9709C78.7022 52.722 74.0928 54.9497 70.2168 58.6545C67.6816 58.6545 65.1465 58.6545 62.6113 58.6545C62.6113 56.3498 62.6113 54.0451 62.6113 51.7404Z" fill="#AEA9B1"/>
    <path opacity="0.995" fill-rule="evenodd" clip-rule="evenodd" d="M103.635 58.193C110.464 65.1486 112.576 73.3687 109.973 82.8532C109.525 84.0048 109.103 85.1572 108.705 86.3102C105.792 91.2577 101.72 94.9837 96.4905 97.488C93.9233 98.4617 91.3114 99.1146 88.6546 99.4469C87.656 99.4469 86.6571 99.4469 85.6585 99.4469C76.8251 98.4114 70.2182 94.0325 65.8382 86.3102C63.9301 82.2245 63.0852 77.9225 63.303 73.404C63.6524 71.1604 64.1901 68.9324 64.9163 66.7204C66.2763 63.7715 68.0433 61.0829 70.2171 58.654C74.0931 54.9492 78.7025 52.7215 84.0452 51.9704C91.5214 51.1338 98.0512 53.208 103.635 58.193Z" fill="#AEA9B1"/>
    <path fill-rule="evenodd" clip-rule="evenodd" d="M62.6113 58.6543C65.1465 58.6543 67.6816 58.6543 70.2168 58.6543C68.043 61.0832 66.276 63.7719 64.916 66.7207C64.1958 66.4951 63.4276 66.4181 62.6113 66.4902C62.6113 63.8783 62.6113 61.2662 62.6113 58.6543Z" fill="#EBEBEB"/>
    <path fill-rule="evenodd" clip-rule="evenodd" d="M84.7364 58.6544C93.3861 58.1947 99.4936 61.8822 103.059 69.7169C105.486 78.2625 103.066 85.0613 95.7989 90.1134C87.7196 94.1021 80.5368 92.9113 74.2501 86.5412C69.2544 79.8244 68.9472 72.9103 73.3282 65.799C76.2485 61.978 80.0512 59.5966 84.7364 58.6544Z" fill="#CAC5CD"/>
    <path fill-rule="evenodd" clip-rule="evenodd" d="M62.6107 66.49C62.6107 68.7947 62.6107 71.0994 62.6107 73.4041C55.159 73.4041 47.707 73.4041 40.2553 73.4041C38.7358 73.3082 37.6987 72.5398 37.1439 71.0994C36.6514 68.8961 37.4581 67.3981 39.5639 66.6053C47.2458 66.49 54.9281 66.4515 62.6107 66.49Z" fill="#AEA9B1"/>
    <path fill-rule="evenodd" clip-rule="evenodd" d="M62.6113 66.49C63.4276 66.4179 64.1958 66.4949 64.916 66.7205C64.1898 68.9326 63.6521 71.1605 63.3027 73.4041C63.0723 73.4041 62.8418 73.4041 62.6113 73.4041C62.6113 71.0994 62.6113 68.7947 62.6113 66.49Z" fill="#AEA9B1"/>
    <path fill-rule="evenodd" clip-rule="evenodd" d="M93.724 68.334C97.255 68.4831 98.5225 70.2501 97.5267 73.6348C94.204 77.8802 90.7087 81.9902 87.0404 85.9648C84.9657 86.801 83.3139 86.3018 82.0853 84.4668C80.3183 82.0854 78.5515 79.7037 76.7845 77.3223C75.8463 74.8609 76.5759 73.1323 78.974 72.1367C80.2427 71.9706 81.3565 72.3163 82.3157 73.1738C83.2969 74.5979 84.334 75.9807 85.4271 77.3223C87.5762 74.8265 89.6889 72.2914 91.765 69.7168C92.3727 69.1657 93.0256 68.7048 93.724 68.334Z" fill="#CAC5CD"/>
    <path fill-rule="evenodd" clip-rule="evenodd" d="M40.2559 73.4043C47.7076 73.4043 55.1596 73.4043 62.6113 73.4043C62.8418 73.4043 63.0723 73.4043 63.3027 73.4043C63.0849 77.9229 63.9298 82.2248 65.8379 86.3105C64.8174 88.429 63.7418 90.5032 62.6113 92.5332C62.6113 86.2338 62.6113 79.9342 62.6113 73.6348C55.1202 73.7113 47.6682 73.6343 40.2559 73.4043Z" fill="#CAC5CD"/>
    <path fill-rule="evenodd" clip-rule="evenodd" d="M39.5652 81.24C43.9448 81.2015 48.3237 81.24 52.702 81.3553C55.3208 82.405 56.0507 84.2105 54.8914 86.7713C54.3016 87.4698 53.5717 87.9692 52.702 88.2693C48.323 88.423 43.9441 88.423 39.5652 88.2693C36.9065 86.9441 36.3304 84.9851 37.8367 82.3924C38.408 81.9743 38.9842 81.5901 39.5652 81.24Z" fill="#CAC5CD"/>
    <path opacity="0.989" fill-rule="evenodd" clip-rule="evenodd" d="M22.0488 84.9275C22.0872 90.613 22.0488 96.2979 21.9336 101.982C20.5609 106.62 17.5264 109.463 12.8301 110.51C6.45296 110.859 2.30453 108.017 0.384766 101.982C0.384766 97.0656 0.384766 92.1488 0.384766 87.2322C0.900864 86.1412 1.74592 85.4113 2.91992 85.0428C9.29577 84.9275 15.6721 84.889 22.0488 84.9275Z" fill="#CAC5CD"/>
    <path opacity="0.984" fill-rule="evenodd" clip-rule="evenodd" d="M108.705 86.3105C111.815 92.837 115.041 99.2901 118.385 105.67C118.385 106.515 118.385 107.36 118.385 108.205C117.996 108.943 117.459 109.596 116.771 110.164C111.603 112.748 106.456 115.322 101.33 117.885C100.485 117.885 99.6401 117.885 98.7949 117.885C98.2492 117.589 97.7497 117.205 97.2969 116.732C96.2568 114.652 95.2197 112.578 94.1855 110.51C92.4589 106.749 90.6151 103.061 88.6543 99.4473C91.3111 99.1149 93.923 98.462 96.4902 97.4883C101.72 94.984 105.791 91.258 108.705 86.3105Z" fill="#AEA9B1"/>
    <path opacity="0.992" fill-rule="evenodd" clip-rule="evenodd" d="M65.837 86.3105C70.217 94.0329 76.8239 98.4118 85.6573 99.4473C83.6964 103.061 81.8527 106.749 80.126 110.51C79.0919 112.578 78.0548 114.652 77.0147 116.732C76.5618 117.205 76.0624 117.589 75.5166 117.885C74.6715 117.885 73.8266 117.885 72.9815 117.885C68.1128 115.489 63.273 113.031 58.462 110.51C56.5097 109.602 55.703 108.066 56.042 105.9C58.2967 101.468 60.4862 97.0121 62.6104 92.5332C63.7408 90.5032 64.8164 88.429 65.837 86.3105Z" fill="#AEA9B1"/>
    <path fill-rule="evenodd" clip-rule="evenodd" d="M85.6582 99.4473C86.6568 99.4473 87.6557 99.4473 88.6543 99.4473C90.6151 103.061 92.4589 106.749 94.1855 110.51C89.4994 110.51 84.8131 110.51 80.127 110.51C81.8536 106.749 83.6974 103.061 85.6582 99.4473Z" fill="#CAC5CD"/>
  </g>
  <defs>
    <clipPath id="clip0_1269_14952">
      <rect width="118" height="118" fill="white" transform="translate(0.5)"/>
    </clipPath>
  </defs>
</svg>