<svg width="53" height="47" viewBox="0 0 53 47" fill="none" xmlns="http://www.w3.org/2000/svg">
<g clip-path="url(#clip0_55_3194)">
<path d="M19.7626 33.5203C19.7626 31.7124 20.0579 30.0879 20.6485 28.6469C21.2391 27.2058 22.4572 25.9505 24.3027 24.8808C24.8572 24.5486 25.5404 24.1719 26.3525 23.7508C27.1881 23.312 27.9846 22.8024 28.7333 22.2277C29.4986 21.6489 30.1629 20.9475 30.6994 20.152C31.2402 19.341 31.5204 18.3842 31.5027 17.4096C31.5189 16.6998 31.368 15.9961 31.0621 15.3553C30.7799 14.7833 30.3843 14.2747 29.8994 13.8604C29.4013 13.4453 28.8249 13.1345 28.2044 12.9463C27.5684 12.7455 26.9054 12.643 26.2383 12.6424C25.4824 12.632 24.7319 12.7718 24.0304 13.0537C23.3851 13.3196 22.7797 13.6736 22.2316 14.1056C21.6973 14.5286 21.2138 15.012 20.7909 15.5463C20.4015 16.032 20.0412 16.5402 19.7118 17.0683H18.8779L14.8926 13.7463C15.3535 12.6292 15.9995 11.5978 16.8033 10.6955C17.5893 9.81563 18.5035 9.05947 19.5152 8.45252C20.5443 7.84069 21.6547 7.37735 22.8135 7.07625C24.0063 6.76119 25.2351 6.60279 26.4689 6.60507C27.8756 6.60586 29.2748 6.81101 30.6225 7.21411C31.9665 7.60966 33.2183 8.26879 34.305 9.15309C35.4275 10.0823 36.3347 11.2443 36.9638 12.5587C37.6463 13.9433 37.9875 15.5956 37.9875 17.5158C38.0046 18.5735 37.8648 19.6279 37.5728 20.6446C37.3077 21.5241 36.9054 22.3562 36.3807 23.1101C35.8612 23.8514 35.2469 24.5214 34.5536 25.1034C33.8008 25.7305 33.0048 26.3041 32.1717 26.8198C31.4327 27.2642 30.6945 27.6891 29.957 28.0943C29.2432 28.4837 28.5666 28.9376 27.9355 29.4503C27.3412 29.9319 26.8351 30.513 26.4395 31.1678C26.0523 31.8141 25.8587 32.5987 25.8587 33.5215L19.7626 33.5203ZM19.8756 46.4231V38.7813H26.0225V46.4231H19.8756Z" fill="#FFD51B"/>
<g opacity="0.2">
<path d="M19.7626 33.5203C19.7626 31.7124 20.0579 30.0879 20.6485 28.6469C21.2391 27.2058 22.4572 25.9505 24.3027 24.8808C24.8572 24.5486 25.5404 24.1719 26.3525 23.7508C27.1881 23.312 27.9846 22.8024 28.7333 22.2277C29.4986 21.6489 30.1629 20.9475 30.6994 20.152C31.2402 19.341 31.5204 18.3842 31.5027 17.4096C31.5189 16.6998 31.368 15.9961 31.0621 15.3553C30.7799 14.7833 30.3843 14.2747 29.8994 13.8604C29.4013 13.4453 28.8249 13.1345 28.2044 12.9463C27.5684 12.7455 26.9054 12.643 26.2383 12.6424C25.4824 12.632 24.7319 12.7718 24.0304 13.0537C23.3851 13.3196 22.7797 13.6736 22.2316 14.1056C21.6973 14.5286 21.2138 15.012 20.7909 15.5463C20.4015 16.032 20.0412 16.5402 19.7118 17.0683H18.8779L14.8926 13.7463C15.3535 12.6292 15.9995 11.5978 16.8033 10.6955C17.5893 9.81563 18.5035 9.05947 19.5152 8.45252C20.5443 7.84069 21.6547 7.37735 22.8135 7.07625C24.0063 6.76119 25.2351 6.60279 26.4689 6.60507C27.8756 6.60586 29.2748 6.81101 30.6225 7.21411C31.9665 7.60966 33.2183 8.26879 34.305 9.15309C35.4275 10.0823 36.3347 11.2443 36.9638 12.5587C37.6463 13.9433 37.9875 15.5956 37.9875 17.5158C38.0046 18.5735 37.8648 19.6279 37.5728 20.6446C37.3077 21.5241 36.9054 22.3562 36.3807 23.1101C35.8612 23.8514 35.2469 24.5214 34.5536 25.1034C33.8008 25.7305 33.0048 26.3041 32.1717 26.8198C31.4327 27.2642 30.6945 27.6891 29.957 28.0943C29.2432 28.4837 28.5666 28.9376 27.9355 29.4503C27.3412 29.9319 26.8351 30.513 26.4395 31.1678C26.0523 31.8141 25.8587 32.5987 25.8587 33.5215L19.7626 33.5203ZM19.8756 46.4231V38.7813H26.0225V46.4231H19.8756Z" fill="black"/>
</g>
<path d="M18.933 33.5203C18.933 31.7124 19.2283 30.0879 19.8189 28.6469C20.4095 27.2058 21.6279 25.9505 23.4743 24.8808C24.0279 24.5486 24.7108 24.1719 25.5228 23.7508C26.359 23.3123 27.1559 22.8027 27.9048 22.2277C28.6699 21.6486 29.3342 20.9473 29.8709 20.152C30.4108 19.3406 30.6907 18.384 30.6731 17.4096C30.6877 16.7015 30.536 15.9998 30.2302 15.361C29.948 14.789 29.5524 14.2804 29.0675 13.8661C28.5694 13.451 27.993 13.1401 27.3726 12.952C26.7365 12.7512 26.0735 12.6487 25.4065 12.648C24.6505 12.6355 23.8996 12.7734 23.1974 13.0537C22.5518 13.3196 21.946 13.6736 21.3974 14.1056C20.8635 14.5286 20.3804 15.0121 19.9579 15.5463C19.5682 16.032 19.2075 16.5402 18.8776 17.0684L14.0596 13.7463C14.5202 12.6291 15.1662 11.5976 15.9703 10.6955C16.756 9.81532 17.6703 9.05911 18.6822 8.45253C19.711 7.84088 20.821 7.37755 21.9793 7.07626C23.1733 6.7608 24.4032 6.6024 25.6381 6.60507C27.0449 6.60579 28.444 6.81094 29.7918 7.21411C31.1359 7.60941 32.3878 8.26857 33.4743 9.1531C34.597 10.082 35.5043 11.2441 36.133 12.5587C36.8155 13.9433 37.1571 15.5957 37.1579 17.5158C37.1746 18.5736 37.0345 19.628 36.7421 20.6446C36.4763 21.5245 36.0728 22.3566 35.5466 23.1102C35.027 23.8514 34.4128 24.5215 33.7195 25.1034C32.967 25.7311 32.1711 26.3046 31.3375 26.8198C30.6001 27.2642 29.8618 27.6891 29.1228 28.0943C28.4091 28.4837 27.7325 28.9376 27.1014 29.4503C26.5074 29.932 26.0016 30.5131 25.6065 31.1678C25.2193 31.8141 25.0253 32.5987 25.0245 33.5215L18.933 33.5203ZM19.046 46.4232V38.7813H25.1861V46.4232H19.046Z" fill="#FFD51B"/>
</g>
<path d="M35.9728 0.5L37.0619 2.40606C38.2269 4.53127 39.9771 6.27768 42.1048 7.43806L44 8.52723L42.1048 9.56195C39.9763 10.7262 38.2262 12.4763 37.0619 14.6048L35.9728 16.5L34.938 14.6048C33.7754 12.4723 32.0252 10.7183 29.8952 9.55106L28 8.46188L29.8952 7.3727C32.0229 6.21233 33.7731 4.46593 34.938 2.34071L35.9728 0.5Z" fill="#FFF339"/>
<defs>
<clipPath id="clip0_55_3194">
<rect width="24.0678" height="40" fill="white" transform="translate(14 6.5)"/>
</clipPath>
</defs>
</svg>
