<svg width="50" height="50" viewBox="0 0 50 50" fill="none" xmlns="http://www.w3.org/2000/svg">
<rect width="50" height="50" rx="25" fill="#F5F5F5"/>
<g clip-path="url(#clip0_59_11012)">
<path d="M25 41.65C15.8191 41.65 8.35 34.1809 8.35 25C8.35 15.8191 15.8191 8.35004 25 8.35004C34.1809 8.35004 41.65 15.8191 41.65 25C41.65 34.1809 34.1809 41.65 25 41.65Z" fill="#FFC49C"/>
<path d="M25 8.80002C33.9325 8.80002 41.2 16.0675 41.2 25C41.2 33.9325 33.9325 41.2 25 41.2C16.0675 41.2 8.8 33.9325 8.8 25C8.8 16.0675 16.0675 8.80002 25 8.80002ZM25 7.90002C15.5563 7.90002 7.9 15.5563 7.9 25C7.9 34.4437 15.5563 42.1 25 42.1C34.4437 42.1 42.1 34.4437 42.1 25C42.1 15.5563 34.4437 7.90002 25 7.90002Z" fill="#A16A4A"/>
<path d="M25 38.95C17.3077 38.95 11.05 32.6923 11.05 25C11.05 17.3077 17.3077 11.05 25 11.05C32.6923 11.05 38.95 17.3077 38.95 25C38.95 32.6923 32.6923 38.95 25 38.95Z" fill="#FFC49C"/>
<path d="M25 11.5C32.4439 11.5 38.5 17.5561 38.5 25C38.5 32.4439 32.4439 38.5 25 38.5C17.5561 38.5 11.5 32.4439 11.5 25C11.5 17.5561 17.5561 11.5 25 11.5ZM25 10.6C17.0467 10.6 10.6 17.0467 10.6 25C10.6 32.9533 17.0467 39.4 25 39.4C32.9533 39.4 39.4 32.9533 39.4 25C39.4 17.0467 32.9533 10.6 25 10.6Z" fill="#A16A4A"/>
<path d="M22.3 11.5H27.7C27.7 12.9913 26.4913 14.2 25 14.2C23.5087 14.2 22.3 12.9913 22.3 11.5Z" fill="#A16A4A"/>
<path d="M22.3 38.5C22.3 37.0087 23.5087 35.8 25 35.8C26.4913 35.8 27.7 37.0087 27.7 38.5H22.3Z" fill="#A16A4A"/>
<path d="M24.1 15.1H18.7936C17.9827 15.6103 17.2384 16.2124 16.5769 16.9H24.1V15.1Z" fill="#A16A4A"/>
<path d="M24.1 18.7H15.1567C14.7904 19.2697 14.4664 19.8682 14.2027 20.5H24.1V18.7Z" fill="#A16A4A"/>
<path d="M25.9 24.1H36.6541C36.6073 23.4853 36.5119 22.885 36.3724 22.3H25.9V24.1Z" fill="#A16A4A"/>
<path d="M24.1 22.3H13.6267C13.4881 22.885 13.3927 23.4853 13.345 24.1H24.1V22.3Z" fill="#A16A4A"/>
<path d="M25.9 20.5H35.7973C35.5336 19.8682 35.2087 19.2697 34.8433 18.7H25.9V20.5Z" fill="#A16A4A"/>
<path d="M25.9 16.9H33.4231C32.7616 16.2124 32.0173 15.6103 31.2064 15.1H25.9V16.9Z" fill="#A16A4A"/>
<path d="M24.1 33.1H16.5769C17.2375 33.7876 17.9827 34.3897 18.7936 34.9H24.1V33.1Z" fill="#A16A4A"/>
<path d="M25.9 27.7H36.3733C36.5119 27.115 36.6073 26.5147 36.655 25.9H25.9V27.7Z" fill="#A16A4A"/>
<path d="M25.9 31.3H34.8433C35.2096 30.7303 35.5336 30.1318 35.7973 29.5H25.9V31.3Z" fill="#A16A4A"/>
<path d="M25.9 34.9H31.2064C32.0173 34.3897 32.7616 33.7876 33.4231 33.1H25.9V34.9Z" fill="#A16A4A"/>
<path d="M24.1 29.5H14.2027C14.4664 30.1318 14.7913 30.7303 15.1567 31.3H24.1V29.5Z" fill="#A16A4A"/>
<path d="M24.1 25.9H13.3459C13.3927 26.5147 13.4881 27.115 13.6276 27.7H24.1V25.9Z" fill="#A16A4A"/>
</g>
<defs>
<clipPath id="clip0_59_11012">
<rect width="36" height="36" fill="white" transform="translate(7 7)"/>
</clipPath>
</defs>
</svg>

