<svg width="50" height="50" viewBox="0 0 50 50" fill="none" xmlns="http://www.w3.org/2000/svg">
<rect width="50" height="50" rx="25" fill="#337180"/>
<g clip-path="url(#clip0_59_9810)">
<path d="M24.9999 41.65C15.819 41.65 8.34985 34.1809 8.34985 25C8.34985 15.8191 15.819 8.35004 24.9999 8.35004C34.1808 8.35004 41.6499 15.8191 41.6499 25C41.6499 34.1809 34.1808 41.65 24.9999 41.65Z" fill="#FFC49C"/>
<path d="M24.9999 8.80002C33.9324 8.80002 41.1999 16.0675 41.1999 25C41.1999 33.9325 33.9324 41.2 24.9999 41.2C16.0674 41.2 8.7999 33.9325 8.7999 25C8.7999 16.0675 16.0674 8.80002 24.9999 8.80002ZM24.9999 7.90002C15.5562 7.90002 7.8999 15.5563 7.8999 25C7.8999 34.4437 15.5562 42.1 24.9999 42.1C34.4436 42.1 42.0999 34.4437 42.0999 25C42.0999 15.5563 34.4436 7.90002 24.9999 7.90002Z" fill="#A16A4A"/>
<path d="M25 38.95C17.3077 38.95 11.05 32.6923 11.05 25C11.05 17.3077 17.3077 11.05 25 11.05C32.6924 11.05 38.9501 17.3077 38.9501 25C38.9501 32.6923 32.6924 38.95 25 38.95Z" fill="#FFC49C"/>
<path d="M25.0001 11.5C32.444 11.5 38.5001 17.5561 38.5001 25C38.5001 32.4439 32.444 38.5 25.0001 38.5C17.5562 38.5 11.5001 32.4439 11.5001 25C11.5001 17.5561 17.5562 11.5 25.0001 11.5ZM25.0001 10.6C17.0468 10.6 10.6001 17.0467 10.6001 25C10.6001 32.9533 17.0468 39.4 25.0001 39.4C32.9534 39.4 39.4001 32.9533 39.4001 25C39.4001 17.0467 32.9534 10.6 25.0001 10.6Z" fill="#A16A4A"/>
<path d="M22.3 11.5H27.7C27.7 12.9913 26.4913 14.2 25 14.2C23.5087 14.2 22.3 12.9913 22.3 11.5Z" fill="#A16A4A"/>
<path d="M22.3 38.5C22.3 37.0087 23.5087 35.8 25 35.8C26.4913 35.8 27.7 37.0087 27.7 38.5H22.3Z" fill="#A16A4A"/>
<path d="M24.1 15.1H18.7936C17.9827 15.6103 17.2384 16.2124 16.5769 16.9H24.1V15.1Z" fill="#A16A4A"/>
<path d="M24.0999 18.7H15.1566C14.7903 19.2697 14.4663 19.8682 14.2026 20.5H24.0999V18.7Z" fill="#A16A4A"/>
<path d="M25.8999 24.1H36.654C36.6072 23.4853 36.5118 22.885 36.3723 22.3H25.8999V24.1Z" fill="#A16A4A"/>
<path d="M24.1 22.3H13.6267C13.4881 22.885 13.3927 23.4853 13.345 24.1H24.1V22.3Z" fill="#A16A4A"/>
<path d="M25.8999 20.5H35.7972C35.5335 19.8682 35.2086 19.2697 34.8432 18.7H25.8999V20.5Z" fill="#A16A4A"/>
<path d="M25.8999 16.9H33.423C32.7615 16.2124 32.0172 15.6103 31.2063 15.1H25.8999V16.9Z" fill="#A16A4A"/>
<path d="M24.1 33.1H16.5769C17.2375 33.7876 17.9827 34.3897 18.7936 34.9H24.1V33.1Z" fill="#A16A4A"/>
<path d="M25.8999 27.7H36.3732C36.5118 27.115 36.6072 26.5147 36.6549 25.9H25.8999V27.7Z" fill="#A16A4A"/>
<path d="M25.8999 31.3H34.8432C35.2095 30.7303 35.5335 30.1318 35.7972 29.5H25.8999V31.3Z" fill="#A16A4A"/>
<path d="M25.8999 34.9H31.2063C32.0172 34.3897 32.7615 33.7876 33.423 33.1H25.8999V34.9Z" fill="#A16A4A"/>
<path d="M24.0999 29.5H14.2026C14.4663 30.1318 14.7912 30.7303 15.1566 31.3H24.0999V29.5Z" fill="#A16A4A"/>
<path d="M24.1 25.9H13.3459C13.3927 26.5147 13.4881 27.115 13.6276 27.7H24.1V25.9Z" fill="#A16A4A"/>
</g>
<defs>
<clipPath id="clip0_59_9810">
<rect width="36" height="36" fill="white" transform="translate(7 7)"/>
</clipPath>
</defs>
</svg>
