<svg width="50" height="50" viewBox="0 0 50 50" fill="none" xmlns="http://www.w3.org/2000/svg">
<rect width="50" height="50" rx="25" fill="#F5F5F5"/>
<path fill-rule="evenodd" clip-rule="evenodd" d="M30.209 23.7703C31.7207 24.648 32.8633 25.7633 33.6689 27.0118H35.2393V37.5012H33.5605C31.8848 40.1171 28.9492 42 25.0703 42C21.1943 42 18.2324 40.1171 16.5479 37.5012H14.8018V27.0118H16.5332C17.4062 25.7141 18.6572 24.5553 20.3301 23.6573C21.2207 23.1822 21.7598 22.5884 21.7656 22.0554C21.7744 21.3804 21.0273 20.8069 20.2246 20.8069H19.8262C18.8535 20.8069 18.0566 20.0189 18.0566 19.0572C18.0566 18.0954 18.8535 17.3075 19.8262 17.3075H22.0996L23.8867 15.1146C23.8809 15.0335 23.875 14.9495 23.875 14.8626V11.9686H16.6299C15.5254 11.9686 14.623 11.0764 14.623 9.98432C14.623 8.89512 15.5254 8 16.6299 8H33.6748C34.7764 8 35.6816 8.89222 35.6816 9.98432C35.6816 11.0764 34.7793 11.9686 33.6748 11.9686H26.7783V14.8626C26.7783 14.9813 26.7695 15.1001 26.7578 15.2131L28.3633 17.3075H30.3174C31.29 17.3075 32.0869 18.0954 32.0869 19.0572C32.0869 20.0189 31.29 20.7866 30.3174 20.8069C28.9785 20.8358 28.4863 21.4036 28.5479 22.0641C28.6533 23.2836 29.5088 23.3647 30.209 23.7703ZM36.6895 27.0118H37.9199V24.5061C37.9199 24.06 38.2891 23.6979 38.7373 23.6979H42.1826C42.6338 23.6979 43 24.0629 43 24.5061V40.007C43 40.4531 42.6309 40.8152 42.1826 40.8152H38.7373C38.2861 40.8152 37.9199 40.4502 37.9199 40.007V37.5012H36.6895V27.0118ZM13.3486 37.5012H12.0801V40.007C12.0801 40.4531 11.7109 40.8152 11.2627 40.8152H7.81738C7.36914 40.8152 7 40.4531 7 40.007V24.5061C7 24.06 7.36914 23.6979 7.81738 23.6979H11.2627C11.7139 23.6979 12.0801 24.0629 12.0801 24.5061V27.0118H13.3486V37.5012Z" fill="#26575F"/>
</svg>
