<svg width="50" height="50" viewBox="0 0 50 50" fill="none" xmlns="http://www.w3.org/2000/svg">
<rect width="50" height="50" rx="25" fill="#F5F5F5"/>
<g clip-path="url(#clip0_59_10778)">
<path fill-rule="evenodd" clip-rule="evenodd" d="M23.9249 15.3966C24.2256 15.3831 24.5249 15.3968 24.8231 15.4375C25.0272 15.5327 25.1769 15.6824 25.2722 15.8866C25.313 18.2816 25.3267 20.6767 25.313 23.072C24.4462 22.9229 23.5752 22.8004 22.7001 22.7046C20.9038 22.6774 19.1074 22.6501 17.311 22.623C16.055 22.6946 14.9935 22.2864 14.1265 21.3982C12.8272 20.655 11.4255 20.342 9.92139 20.4591C8.99954 20.4414 8.08775 20.5231 7.18601 20.7041C7.1724 19.479 7.18602 18.2542 7.22683 17.0297C7.34931 16.9072 7.47179 16.7847 7.59427 16.6623C12.8734 16.2735 18.1537 15.8925 23.435 15.5191C23.6153 15.5035 23.7786 15.4627 23.9249 15.3966Z" fill="#FFB64C"/>
<path fill-rule="evenodd" clip-rule="evenodd" d="M22.1286 16.9481C22.592 16.9345 23.0547 16.9481 23.5167 16.9889C23.6842 17.0648 23.8067 17.1873 23.8841 17.3563C23.9386 17.9007 23.9386 18.445 23.8841 18.9894C23.6486 19.4828 23.2812 19.6053 22.7818 19.3568C22.5651 19.0852 22.4834 18.7722 22.5368 18.4178C20.7371 18.4647 18.9407 18.5736 17.1477 18.7444C16.7167 18.8218 16.4309 18.6585 16.2904 18.2545C16.2124 17.8525 16.3621 17.5667 16.7394 17.3972C18.5492 17.2583 20.3456 17.1086 22.1286 16.9481Z" fill="white"/>
<path fill-rule="evenodd" clip-rule="evenodd" d="M8.73742 21.8473C9.94287 21.8049 11.1405 21.8729 12.3302 22.0514C12.9297 22.215 13.4197 22.5416 13.7999 23.0313C14.5677 23.5338 15.4115 23.8331 16.3312 23.9295C18.5343 24.027 20.739 24.0813 22.9451 24.0928C23.7427 24.1707 24.532 24.2932 25.313 24.4602C25.3267 25.6309 25.313 26.8013 25.2722 27.9713C25.1769 28.1754 25.0272 28.3251 24.8231 28.4204C19.1324 28.0975 13.4438 27.7165 7.75758 27.2772C7.50587 27.2131 7.32895 27.0634 7.22684 26.8281C7.18601 25.2498 7.17241 23.6711 7.18601 22.0923C7.71969 22.0473 8.23683 21.9656 8.73742 21.8473Z" fill="#FFB64C"/>
<path fill-rule="evenodd" clip-rule="evenodd" d="M34.7848 34.8302C34.4091 33.6775 33.7287 32.7385 32.7435 32.0131C31.8079 31.5591 30.9097 31.0419 30.0489 30.4617C29.7086 30.1215 29.3685 29.7813 29.0282 29.441C28.2904 28.3989 27.5147 27.3919 26.7011 26.4199C26.6876 26.0378 26.7012 25.6568 26.7419 25.2767C28.0375 26.4631 29.1533 27.7967 30.0897 29.2777C30.7637 30.224 31.5939 30.9997 32.5801 31.6049C34.2154 32.179 35.413 33.2405 36.1729 34.7893C35.711 34.8301 35.2482 34.8437 34.7848 34.8302Z" fill="#26575F"/>
<path fill-rule="evenodd" clip-rule="evenodd" d="M26.7011 26.4199C27.5147 27.3919 28.2904 28.3989 29.0282 29.441C29.3685 29.7813 29.7086 30.1214 30.0489 30.4617C30.9097 31.0418 31.8078 31.559 32.7434 32.0131C33.7287 32.7385 34.4091 33.6775 34.7848 34.8301C33.8862 34.8438 32.988 34.8301 32.0902 34.7893C31.8181 34.5444 31.5458 34.2994 31.2737 34.0544C30.6391 33.7305 30.0539 33.3359 29.5181 32.8705C29.3751 32.708 29.2935 32.5175 29.2732 32.2989C29.3125 31.0827 28.8634 30.0893 27.9259 29.3186C27.4705 29.0112 27.0078 28.7254 26.5378 28.4612C26.5866 28.3555 26.6274 28.2466 26.6603 28.1346C26.7011 27.5637 26.7146 26.9921 26.7011 26.4199Z" fill="#3D8591"/>
<path opacity="0.921" fill-rule="evenodd" clip-rule="evenodd" d="M36.9078 27.1547C37.819 27.2085 38.0776 27.6439 37.6835 28.4612C36.9483 28.8445 36.7033 29.4433 36.9486 30.2575C37.0255 30.5428 37.1344 30.8149 37.2752 31.0741C37.3378 31.9628 36.9432 32.2486 36.0913 31.9314C35.507 31.0221 35.3028 30.0287 35.4789 28.9511C35.6719 28.1193 36.1482 27.5205 36.9078 27.1547Z" fill="#CAC5CD"/>
<path opacity="0.922" fill-rule="evenodd" clip-rule="evenodd" d="M40.7455 29.931C41.1102 29.901 41.464 29.9418 41.807 30.0534C42.2751 30.923 42.0029 31.3857 40.9904 31.4415C40.5423 31.6431 40.2565 31.9833 40.1331 32.4622C40.0567 32.9266 39.9751 33.3893 39.8881 33.8503C39.576 34.195 39.2086 34.263 38.7858 34.0544C38.3553 32.6481 38.6819 31.4233 39.7656 30.3801C40.0746 30.1736 40.4012 30.0239 40.7455 29.931Z" fill="#CAC5CD"/>
<path opacity="0.922" fill-rule="evenodd" clip-rule="evenodd" d="M21.6386 30.5841C23.5081 30.4787 25.0732 31.1048 26.3337 32.4622C26.7064 32.9048 26.7881 33.3947 26.5786 33.9319C25.8793 34.3181 25.3894 34.1276 25.1089 33.3604C24.5366 32.6999 23.8153 32.3052 22.9451 32.1764C22.4551 32.1219 21.9652 32.0675 21.4753 32.0131C20.9079 31.4624 20.9623 30.9861 21.6386 30.5841Z" fill="#CAC5CD"/>
</g>
<defs>
<clipPath id="clip0_59_10778">
<rect width="36" height="19.7419" fill="white" transform="translate(7 15.129)"/>
</clipPath>
</defs>
</svg>

