<svg width="50" height="50" viewBox="0 0 50 50" fill="none" xmlns="http://www.w3.org/2000/svg">
<rect width="50" height="50" rx="25" fill="#48A1AF"/>
<g clip-path="url(#clip0_59_10324)">
<path fill-rule="evenodd" clip-rule="evenodd" d="M23.9247 15.3966C24.2253 15.3831 24.5247 15.3968 24.8229 15.4375C25.027 15.5327 25.1767 15.6824 25.272 15.8866C25.3128 18.2816 25.3264 20.6767 25.3128 23.072C24.446 22.9229 23.575 22.8004 22.6999 22.7046C20.9035 22.6774 19.1071 22.6501 17.3108 22.623C16.0548 22.6946 14.9933 22.2864 14.1263 21.3982C12.827 20.655 11.4252 20.342 9.92115 20.4591C8.9993 20.4414 8.0875 20.5231 7.18576 20.7041C7.17216 19.479 7.18577 18.2542 7.22659 17.0297C7.34907 16.9072 7.47155 16.7847 7.59403 16.6623C12.8732 16.2735 18.1534 15.8925 23.4348 15.5191C23.615 15.5035 23.7784 15.4627 23.9247 15.3966Z" fill="#FFB64C"/>
<path fill-rule="evenodd" clip-rule="evenodd" d="M22.1287 16.9481C22.5922 16.9345 23.0549 16.9481 23.5168 16.9889C23.6844 17.0648 23.8069 17.1873 23.8843 17.3563C23.9387 17.9007 23.9387 18.445 23.8843 18.9894C23.6488 19.4828 23.2814 19.6053 22.782 19.3568C22.5653 19.0852 22.4836 18.7722 22.537 18.4178C20.7373 18.4647 18.9409 18.5736 17.1479 18.7444C16.7168 18.8218 16.4311 18.6585 16.2905 18.2545C16.2126 17.8525 16.3623 17.5667 16.7396 17.3972C18.5494 17.2583 20.3458 17.1086 22.1287 16.9481Z" fill="white"/>
<path fill-rule="evenodd" clip-rule="evenodd" d="M8.73718 21.8473C9.94262 21.8049 11.1402 21.8729 12.3299 22.0514C12.9295 22.215 13.4194 22.5416 13.7997 23.0313C14.5675 23.5338 15.4113 23.8331 16.3309 23.9295C18.5341 24.027 20.7387 24.0813 22.9448 24.0928C23.7424 24.1707 24.5318 24.2932 25.3128 24.4602C25.3264 25.6309 25.3128 26.8013 25.272 27.9713C25.1767 28.1754 25.027 28.3251 24.8229 28.4204C19.1321 28.0975 13.4436 27.7165 7.75734 27.2772C7.50563 27.2131 7.32871 27.0634 7.22659 26.8281C7.18577 25.2498 7.17216 23.6711 7.18577 22.0923C7.71945 22.0473 8.23659 21.9656 8.73718 21.8473Z" fill="#FFB64C"/>
<path fill-rule="evenodd" clip-rule="evenodd" d="M34.7845 34.8302C34.4089 33.6775 33.7284 32.7385 32.7432 32.0131C31.8076 31.5591 30.9094 31.0419 30.0487 30.4617C29.7084 30.1215 29.3682 29.7813 29.028 29.441C28.2902 28.3989 27.5145 27.3919 26.7009 26.4199C26.6873 26.0378 26.701 25.6568 26.7417 25.2767C28.0372 26.4631 29.1531 27.7967 30.0895 29.2777C30.7634 30.224 31.5936 30.9997 32.5799 31.6049C34.2152 32.179 35.4128 33.2405 36.1726 34.7893C35.7107 34.8301 35.248 34.8437 34.7845 34.8302Z" fill="#26575F"/>
<path fill-rule="evenodd" clip-rule="evenodd" d="M26.7009 26.4199C27.5145 27.3919 28.2902 28.3989 29.028 29.441C29.3683 29.7813 29.7084 30.1214 30.0487 30.4617C30.9095 31.0418 31.8077 31.559 32.7432 32.0131C33.7285 32.7385 34.4089 33.6775 34.7846 34.8301C33.886 34.8438 32.9878 34.8301 32.09 34.7893C31.8179 34.5444 31.5456 34.2994 31.2735 34.0544C30.639 33.7305 30.0537 33.3359 29.5179 32.8705C29.375 32.708 29.2933 32.5175 29.273 32.2989C29.3123 31.0827 28.8632 30.0893 27.9257 29.3186C27.4703 29.0112 27.0076 28.7254 26.5376 28.4612C26.5864 28.3555 26.6273 28.2466 26.6601 28.1346C26.7009 27.5637 26.7145 26.9921 26.7009 26.4199Z" fill="#3D8591"/>
<path opacity="0.921" fill-rule="evenodd" clip-rule="evenodd" d="M36.9076 27.1547C37.8188 27.2085 38.0774 27.6439 37.6833 28.4612C36.9481 28.8445 36.7031 29.4433 36.9484 30.2575C37.0253 30.5428 37.1341 30.8149 37.275 31.0741C37.3375 31.9628 36.9429 32.2486 36.091 31.9314C35.5067 31.0221 35.3026 30.0287 35.4786 28.9511C35.6716 28.1193 36.1479 27.5205 36.9076 27.1547Z" fill="white"/>
<path opacity="0.922" fill-rule="evenodd" clip-rule="evenodd" d="M40.7453 29.9309C41.11 29.901 41.4639 29.9418 41.8068 30.0534C42.2749 30.923 42.0028 31.3857 40.9903 31.4415C40.5421 31.643 40.2563 31.9833 40.1329 32.4622C40.0566 32.9265 39.9749 33.3893 39.8879 33.8503C39.5759 34.1949 39.2084 34.263 38.7856 34.0544C38.3551 32.6481 38.6818 31.4233 39.7655 30.38C40.0744 30.1735 40.4011 30.0239 40.7453 29.9309Z" fill="white"/>
<path opacity="0.922" fill-rule="evenodd" clip-rule="evenodd" d="M21.6385 30.5842C23.5081 30.4788 25.0731 31.1048 26.3336 32.4622C26.7064 32.9048 26.788 33.3948 26.5786 33.932C25.8793 34.3181 25.3894 34.1276 25.1088 33.3604C24.5365 32.6999 23.8153 32.3052 22.945 32.1764C22.4551 32.122 21.9652 32.0676 21.4752 32.0131C20.9078 31.4624 20.9622 30.9862 21.6385 30.5842Z" fill="white"/>
</g>
<defs>
<clipPath id="clip0_59_10324">
<rect width="36" height="19.7419" fill="white" transform="translate(7 15.129)"/>
</clipPath>
</defs>
</svg>
