<svg width="50" height="50" viewBox="0 0 50 50" fill="none" xmlns="http://www.w3.org/2000/svg">
<rect width="50" height="50" rx="25" fill="#F5F5F5"/>
<g clip-path="url(#clip0_59_10609)">
<path opacity="0.985" fill-rule="evenodd" clip-rule="evenodd" d="M30.3086 8.44143C30.2042 8.76837 29.9816 8.909 29.6406 8.86331C26.4103 8.27888 23.1876 8.30232 19.9727 8.93362C18.5404 9.21788 17.1341 9.6046 15.7539 10.0938C12.9794 11.1779 12.0536 13.1349 12.9766 15.9649C14.6013 18.4923 16.7927 20.3439 19.5508 21.5196C20.675 22.061 21.6476 21.8501 22.4688 20.8867C23.2271 19.6199 23.0279 18.5301 21.8711 17.6172C20.728 17.1225 19.685 16.4779 18.7422 15.6836C18.332 14.991 18.4375 14.3933 19.0586 13.8907C22.9382 12.7425 26.8288 12.7191 30.7305 13.8203C31.4579 14.2435 31.6336 14.8412 31.2578 15.6133C30.2905 16.49 29.2007 17.1814 27.9883 17.6875C26.8927 18.7295 26.7872 19.8662 27.6719 21.0977C28.3098 21.718 29.0716 21.9407 29.957 21.7656C32.6467 20.6455 34.8615 18.9228 36.6016 16.5977C37.3672 15.4233 37.5547 14.1577 37.1641 12.8008C36.7409 11.6745 35.9792 10.8659 34.8789 10.375C33.9042 10.0188 32.9198 9.69073 31.9258 9.39065C31.7064 9.22136 31.6127 8.99871 31.6445 8.72268C31.8076 8.39881 32.0654 8.29334 32.418 8.40627C33.6311 8.71689 34.803 9.13876 35.9336 9.6719C37.922 11.0128 38.7306 12.8761 38.3594 15.2617C38.3033 15.5003 38.233 15.7347 38.1484 15.9649C38.1015 17.0899 38.1015 18.2149 38.1484 19.3399C38.3055 20.5752 38.9501 21.4541 40.082 21.9766C40.8038 22.5808 41.2608 23.3425 41.4531 24.2617C41.4883 26.8632 41.5 29.4647 41.4883 32.0664C42.2088 32.1557 42.701 32.5306 42.9648 33.1914C42.9648 33.8242 42.9648 34.4571 42.9648 35.0899C42.6885 35.7409 42.1963 36.0925 41.4883 36.1446C41.5 37.2698 41.4883 38.3948 41.4531 39.5196C41.1288 41.1095 40.1796 42.1057 38.6055 42.5078C37.0721 42.5862 35.537 42.6213 34 42.6133C32.6758 42.6016 31.3515 42.5899 30.0273 42.5782C28.1307 42.3572 26.9823 41.3142 26.582 39.4492C25.5039 39.4492 24.4258 39.4492 23.3477 39.4492C22.9474 41.3142 21.799 42.3572 19.9023 42.5782C18.5781 42.5899 17.2539 42.6016 15.9297 42.6133C14.3927 42.6213 12.8576 42.5862 11.3242 42.5078C9.75011 42.1057 8.80089 41.1095 8.47656 39.5196C8.44141 38.3948 8.42969 37.2698 8.44141 36.1446C7.73337 36.0925 7.24118 35.7409 6.96484 35.0899C6.96484 34.4571 6.96484 33.8242 6.96484 33.1914C7.20856 32.5036 7.70074 32.1287 8.44141 32.0664C8.40838 29.3448 8.44354 26.6261 8.54688 23.9102C8.78341 23.1343 9.217 22.4898 9.84766 21.9766C10.9796 21.4541 11.6242 20.5752 11.7812 19.3399C11.8281 18.1915 11.8281 17.043 11.7812 15.8946C11.0413 13.1443 11.8733 11.0232 14.2773 9.53128C19.3595 7.39599 24.6095 6.83349 30.0273 7.84377C30.2661 7.98969 30.3599 8.1889 30.3086 8.44143Z" fill="#030202"/>
<path fill-rule="evenodd" clip-rule="evenodd" d="M30.3086 8.44141C30.7563 8.52404 31.2016 8.61779 31.6445 8.72266C31.6127 8.99868 31.7064 9.22133 31.9258 9.39062C32.9198 9.6907 33.9042 10.0188 34.8789 10.375C35.9792 10.8659 36.7409 11.6745 37.1641 12.8008C37.5547 14.1577 37.3672 15.4233 36.6016 16.5977C34.8615 18.9228 32.6467 20.6455 29.957 21.7656C29.0716 21.9406 28.3098 21.718 27.6719 21.0977C26.7872 19.8662 26.8927 18.7295 27.9883 17.6875C29.2007 17.1814 30.2905 16.49 31.2578 15.6133C31.6336 14.8412 31.4578 14.2435 30.7305 13.8203C26.8288 12.7191 22.9382 12.7425 19.0586 13.8906C18.4374 14.3933 18.332 14.9909 18.7422 15.6836C19.685 16.4779 20.728 17.1225 21.8711 17.6172C23.0279 18.5301 23.2271 19.6199 22.4687 20.8867C21.6476 21.8501 20.675 22.061 19.5508 21.5195C17.7693 19.3038 16.9842 16.7725 17.1953 13.9258C17.5746 11.9475 18.5004 10.2834 19.9726 8.93359C23.1876 8.30229 26.4102 8.27885 29.6406 8.86328C29.9816 8.90897 30.2042 8.76835 30.3086 8.44141Z" fill="#F7EC7F"/>
<path fill-rule="evenodd" clip-rule="evenodd" d="M19.9727 8.93359C18.5004 10.2834 17.5746 11.9475 17.1953 13.9258C16.9842 16.7725 17.7693 19.3038 19.5508 21.5195C16.7927 20.3439 14.6013 18.4923 12.9766 15.9648C12.0536 13.1349 12.9794 11.1779 15.7539 10.0938C17.1341 9.60457 18.5404 9.21785 19.9727 8.93359Z" fill="#F7D070"/>
<path fill-rule="evenodd" clip-rule="evenodd" d="M23.3477 14.0664C25.7291 13.9527 28.0729 14.1871 30.3789 14.7696C30.3899 14.8661 30.3782 14.9599 30.3438 15.0508C30.1979 15.1881 30.0456 15.3169 29.8867 15.4375C29.0309 15.9475 28.1638 16.4397 27.2852 16.9141C25.8977 18.1865 25.6517 19.6513 26.5469 21.3086C26.582 22.152 26.5938 22.9958 26.582 23.8399C25.5039 23.8399 24.4258 23.8399 23.3477 23.8399C23.3359 23.0193 23.3477 22.1989 23.3828 21.3789C23.8769 20.6037 24.0409 19.7599 23.875 18.8477C23.7026 18.1163 23.3393 17.4952 22.7852 16.9844C22.1298 16.5702 21.4501 16.1952 20.7461 15.8594C20.3035 15.6033 19.905 15.2986 19.5508 14.9453C19.5733 14.8291 19.6436 14.7588 19.7617 14.7344C20.9527 14.4345 22.1481 14.2118 23.3477 14.0664Z" fill="#FC7C26"/>
<path fill-rule="evenodd" clip-rule="evenodd" d="M16.1055 20.8164C15.6998 22.0481 15.4654 23.3138 15.4023 24.6133C14.897 24.5904 14.4048 24.6139 13.9258 24.6836C13.3044 24.8244 12.8943 25.1993 12.6953 25.8086C12.6484 26.3711 12.6484 26.9336 12.6953 27.4961C12.8943 28.1054 13.3044 28.4803 13.9258 28.6211C14.4071 28.668 14.8993 28.7148 15.4023 28.7617C15.5472 29.8843 15.7815 30.9859 16.1055 32.0664C13.9258 32.0664 11.7461 32.0664 9.56641 32.0664C9.56641 29.5352 9.56641 27.0039 9.56641 24.4727C9.77549 23.5011 10.338 22.8097 11.2539 22.3984C12.1101 21.7537 12.6375 20.8982 12.8359 19.832C12.8594 19.1289 12.8828 18.4258 12.9062 17.7227C13.851 18.8903 14.9174 19.9215 16.1055 20.8164Z" fill="#FE8B41"/>
<path fill-rule="evenodd" clip-rule="evenodd" d="M40.3633 24.4727C40.3633 27.0039 40.3633 29.5352 40.3633 32.0664C36.7539 32.0664 33.1445 32.0664 29.5351 32.0664C29.037 31.5012 28.4042 31.2435 27.6367 31.293C27.6367 30.6836 27.6367 30.0742 27.6367 29.4648C28.341 29.4759 28.9035 29.2063 29.3242 28.6562C31.5976 28.6328 33.8711 28.6094 36.1445 28.5859C37.0305 28.2485 37.4054 27.604 37.2695 26.6523C37.4054 25.7007 37.0305 25.0562 36.1445 24.7188C33.8711 24.6953 31.5976 24.6719 29.3242 24.6484C28.9028 24.098 28.3403 23.8285 27.6367 23.8398C27.6135 23.3688 27.6369 22.9 27.707 22.4336C28.9146 23.0102 30.1099 22.975 31.293 22.3281C33.5147 21.2112 35.4249 19.6995 37.0234 17.793C36.8209 19.269 37.149 20.6049 38.0078 21.8008C38.4054 22.2219 38.8624 22.5618 39.3789 22.8203C39.9295 23.2413 40.2577 23.792 40.3633 24.4727Z" fill="#FDA874"/>
<path fill-rule="evenodd" clip-rule="evenodd" d="M16.1055 20.8164C17.2342 21.5685 18.4295 22.213 19.6914 22.75C20.5885 22.9628 21.4439 22.8574 22.2578 22.4336C22.293 22.9017 22.3046 23.3705 22.293 23.8398C21.5909 23.8277 21.0284 24.0972 20.6055 24.6484C18.379 24.6836 16.1524 24.6953 13.9258 24.6836C14.4048 24.6139 14.897 24.5904 15.4023 24.6133C15.4654 23.3138 15.6998 22.0481 16.1055 20.8164Z" fill="#FAA672"/>
<path fill-rule="evenodd" clip-rule="evenodd" d="M9.56641 24.4727C9.56641 27.0039 9.56641 29.5352 9.56641 32.0664C11.7461 32.0664 13.9258 32.0664 16.1055 32.0664C17.5351 32.0664 18.9649 32.0664 20.3945 32.0664C16.7736 32.1366 13.1408 32.1601 9.49609 32.1367C9.47276 29.57 9.49621 27.0154 9.56641 24.4727Z" fill="#C36F39"/>
<path fill-rule="evenodd" clip-rule="evenodd" d="M21.8711 24.9648C22.3266 24.8952 22.7954 24.8718 23.2773 24.8945C23.2773 25.1524 23.2773 25.4101 23.2773 25.668C23.2085 25.4482 23.185 25.2139 23.207 24.9648C22.7617 24.9648 22.3164 24.9648 21.8711 24.9648Z" fill="#C3A458"/>
<path fill-rule="evenodd" clip-rule="evenodd" d="M27.9883 24.9649C27.5664 24.9649 27.1445 24.9649 26.7227 24.9649C26.7447 25.2139 26.7212 25.4483 26.6523 25.668C26.6523 25.4102 26.6523 25.1524 26.6523 24.8946C27.1109 24.8718 27.5562 24.8953 27.9883 24.9649Z" fill="#C6BD65"/>
<path fill-rule="evenodd" clip-rule="evenodd" d="M21.8711 24.9648C22.3164 24.9648 22.7617 24.9648 23.207 24.9648C23.185 25.2139 23.2085 25.4482 23.2773 25.668C23.4789 26.7132 24.1117 27.2054 25.1758 27.1445C25.0673 27.1911 24.9501 27.238 24.8242 27.2852C24.9385 27.7013 25.126 28.0762 25.3867 28.4102C24.2146 28.4219 23.0427 28.4102 21.8711 28.375C21.5708 28.2857 21.3951 28.0864 21.3437 27.7773C21.2968 27.0039 21.2968 26.2305 21.3437 25.457C21.4199 25.1815 21.5957 25.0174 21.8711 24.9648Z" fill="#F6CE6F"/>
<path fill-rule="evenodd" clip-rule="evenodd" d="M24.332 24.8945C24.7539 24.8945 25.1758 24.8945 25.5977 24.8945C25.6243 25.2318 25.5892 25.56 25.4922 25.8789C25.1406 26.1602 24.7891 26.1602 24.4375 25.8789C24.3406 25.56 24.3054 25.2318 24.332 24.8945Z" fill="#7283AB"/>
<path fill-rule="evenodd" clip-rule="evenodd" d="M27.9883 24.9648C28.3019 24.9852 28.5012 25.1493 28.5859 25.457C28.6328 26.2305 28.6328 27.0039 28.5859 27.7773C28.5274 28.1172 28.3281 28.3164 27.9883 28.375C27.1214 28.4102 26.2542 28.4219 25.3867 28.4102C25.126 28.0762 24.9385 27.7013 24.8242 27.2852C24.9501 27.238 25.0674 27.1911 25.1758 27.1445C26.0186 27.0048 26.5108 26.5126 26.6523 25.668C26.7212 25.4482 26.7447 25.2139 26.7227 24.9648C27.1445 24.9648 27.5664 24.9648 27.9883 24.9648Z" fill="#F6EB7E"/>
<path fill-rule="evenodd" clip-rule="evenodd" d="M13.9258 25.7383C16.0352 25.7383 18.1445 25.7383 20.2539 25.7383C20.2539 26.3477 20.2539 26.957 20.2539 27.5664C18.1444 27.5781 16.035 27.5664 13.9258 27.5312C13.8413 27.4678 13.7827 27.3858 13.75 27.2852C13.7031 26.8633 13.7031 26.4414 13.75 26.0195C13.7966 25.9152 13.8552 25.8215 13.9258 25.7383Z" fill="#677CA9"/>
<path fill-rule="evenodd" clip-rule="evenodd" d="M29.6758 25.7383C31.7853 25.7265 33.8947 25.7383 36.0039 25.7734C36.0884 25.8369 36.147 25.9189 36.1797 26.0195C36.2266 26.4414 36.2266 26.8633 36.1797 27.2852C36.147 27.3858 36.0884 27.4678 36.0039 27.5313C33.8947 27.5664 31.7853 27.5782 29.6758 27.5664C29.6758 26.957 29.6758 26.3477 29.6758 25.7383Z" fill="#7787AE"/>
<path fill-rule="evenodd" clip-rule="evenodd" d="M13.9258 28.6211C16.1524 28.6094 18.379 28.6211 20.6055 28.6563C21.0284 29.2075 21.5909 29.477 22.293 29.4649C22.293 30.0743 22.293 30.6836 22.293 31.293C21.5268 31.2356 20.894 31.4934 20.3945 32.0664C18.9649 32.0664 17.5351 32.0664 16.1055 32.0664C15.7815 30.9859 15.5472 29.8843 15.4023 28.7617C14.8993 28.7148 14.4071 28.668 13.9258 28.6211Z" fill="#FBA773"/>
<path fill-rule="evenodd" clip-rule="evenodd" d="M23.3477 29.4648C24.4258 29.4648 25.5039 29.4648 26.582 29.4648C26.582 30.0742 26.582 30.6836 26.582 31.293C25.5039 31.293 24.4258 31.293 23.3477 31.293C23.3477 30.6836 23.3477 30.0742 23.3477 29.4648Z" fill="#FD7D26"/>
<path fill-rule="evenodd" clip-rule="evenodd" d="M40.3633 24.4727C40.4335 27.0154 40.4569 29.57 40.4336 32.1367C36.7889 32.1601 33.156 32.1366 29.5352 32.0664C33.1445 32.0664 36.7539 32.0664 40.3633 32.0664C40.3633 29.5352 40.3633 27.0039 40.3633 24.4727Z" fill="#BF7F57"/>
<path fill-rule="evenodd" clip-rule="evenodd" d="M21.7305 32.4179C22.2331 32.3482 22.7487 32.3248 23.2773 32.3476C23.2773 32.6055 23.2773 32.8632 23.2773 33.1211C23.2085 32.9013 23.185 32.667 23.207 32.4179C22.7148 32.4179 22.2227 32.4179 21.7305 32.4179Z" fill="#A18748"/>
<path fill-rule="evenodd" clip-rule="evenodd" d="M24.332 32.418C24.7641 32.3484 25.2094 32.325 25.668 32.3477C25.69 32.5967 25.6665 32.8311 25.5977 33.0508C25.5977 32.8399 25.5977 32.6289 25.5977 32.418C25.1758 32.418 24.7539 32.418 24.332 32.418Z" fill="#424C64"/>
<path fill-rule="evenodd" clip-rule="evenodd" d="M28.1992 32.4179C27.707 32.4179 27.2148 32.4179 26.7227 32.4179C26.7447 32.667 26.7212 32.9013 26.6523 33.1211C26.6523 32.8632 26.6523 32.6055 26.6523 32.3476C27.181 32.3248 27.6966 32.3482 28.1992 32.4179Z" fill="#A09952"/>
<path fill-rule="evenodd" clip-rule="evenodd" d="M21.7305 32.418C22.2226 32.418 22.7148 32.418 23.207 32.418C23.185 32.667 23.2085 32.9014 23.2773 33.1211C23.467 34.084 24.0529 34.5996 25.0351 34.668C25.1914 35.0979 25.4024 35.4963 25.668 35.8633C24.3318 35.875 22.9959 35.8633 21.6601 35.8281C21.3599 35.7388 21.1841 35.5396 21.1328 35.2305C21.0859 34.457 21.0859 33.6836 21.1328 32.9102C21.262 32.6513 21.4612 32.4872 21.7305 32.418Z" fill="#F8D070"/>
<path fill-rule="evenodd" clip-rule="evenodd" d="M24.332 32.418C24.7539 32.418 25.1758 32.418 25.5977 32.418C25.5977 32.6289 25.5977 32.8398 25.5977 33.0508C25.4653 33.4571 25.1841 33.6329 24.7539 33.5781C24.5781 33.4961 24.4492 33.3672 24.3672 33.1914C24.3321 32.9346 24.3204 32.6769 24.332 32.418Z" fill="#7283AB"/>
<path fill-rule="evenodd" clip-rule="evenodd" d="M28.1992 32.418C28.4708 32.49 28.67 32.654 28.7969 32.9102C28.8438 33.6836 28.8438 34.457 28.7969 35.2305C28.7383 35.5703 28.539 35.7696 28.1992 35.8281C27.3558 35.8633 26.5121 35.875 25.668 35.8633C25.4024 35.4963 25.1915 35.0979 25.0352 34.668C25.9434 34.533 26.4825 34.0174 26.6523 33.1211C26.7212 32.9014 26.7447 32.667 26.7227 32.418C27.2148 32.418 27.707 32.418 28.1992 32.418Z" fill="#F7ED7F"/>
<path fill-rule="evenodd" clip-rule="evenodd" d="M13.8555 35.582C13.3867 35.582 12.918 35.582 12.4492 35.582C12.4531 35.3668 12.3594 35.2144 12.168 35.125C10.8491 35.1233 9.53664 35.0764 8.23047 34.9844C8.146 34.9209 8.0874 34.8389 8.05469 34.7383C8.00781 34.3164 8.00781 33.8945 8.05469 33.4727C8.08985 33.3438 8.17188 33.2617 8.30078 33.2266C12.2148 33.1914 16.1288 33.1797 20.043 33.1914C20.043 33.8242 20.043 34.457 20.043 35.0899C18.0741 35.0781 16.1053 35.0899 14.1367 35.125C13.9797 35.2402 13.8859 35.3925 13.8555 35.582Z" fill="#667BA8"/>
<path fill-rule="evenodd" clip-rule="evenodd" d="M29.8867 33.1914C33.8009 33.1797 37.7149 33.1914 41.6289 33.2266C41.7578 33.2617 41.8398 33.3438 41.875 33.4727C41.9219 33.8945 41.9219 34.3164 41.875 34.7383C41.8164 34.8907 41.711 34.9961 41.5586 35.0547C37.6681 35.0899 33.7774 35.1016 29.8867 35.0899C29.8867 34.457 29.8867 33.8242 29.8867 33.1914Z" fill="#7686AC"/>
<path fill-rule="evenodd" clip-rule="evenodd" d="M12.4492 35.582C12.918 35.582 13.3867 35.582 13.8555 35.582C13.8982 35.8252 14.0388 36.001 14.2773 36.1094C15.4725 36.1445 16.6678 36.1563 17.8633 36.1445C18.8624 37.8348 20.0812 39.3582 21.5195 40.7148C21.1456 41.1246 20.6768 41.3707 20.1133 41.4531C17.2539 41.5 14.3946 41.5 11.5352 41.4531C10.5156 41.1836 9.8711 40.5391 9.60157 39.5195C9.50162 38.398 9.46646 37.273 9.4961 36.1445C10.3636 36.1563 11.2308 36.1445 12.0977 36.1094C12.3289 36.0102 12.4461 35.8345 12.4492 35.582Z" fill="#FE8B41"/>
<path fill-rule="evenodd" clip-rule="evenodd" d="M17.8633 36.1445C18.7074 36.1328 19.5511 36.1445 20.3945 36.1797C20.8881 36.7778 21.5209 37.0239 22.293 36.918C22.3047 37.7152 22.293 38.5121 22.2578 39.3086C22.1754 39.8722 21.9293 40.3409 21.5195 40.7149C20.0811 39.3582 18.8624 37.8348 17.8633 36.1445Z" fill="#FEA974"/>
<path fill-rule="evenodd" clip-rule="evenodd" d="M29.5352 36.1445C33.168 36.1445 36.8008 36.1445 40.4336 36.1445C40.4453 37.1526 40.4336 38.1605 40.3984 39.168C40.1976 40.3803 39.5062 41.142 38.3242 41.4531C35.4414 41.5 32.5586 41.5 29.6758 41.4531C28.6328 41.1601 27.9649 40.4922 27.6719 39.4492C27.6367 38.6058 27.625 37.7621 27.6367 36.918C28.4193 37.0015 29.0521 36.7437 29.5352 36.1445Z" fill="#FEA974"/>
<path fill-rule="evenodd" clip-rule="evenodd" d="M23.3477 36.918C24.4258 36.918 25.5039 36.918 26.582 36.918C26.582 37.3867 26.582 37.8554 26.582 38.3242C25.5039 38.3242 24.4258 38.3242 23.3477 38.3242C23.3477 37.8554 23.3477 37.3867 23.3477 36.918Z" fill="#FC7C26"/>
</g>
<defs>
<clipPath id="clip0_59_10609">
<rect width="36" height="36" fill="white" transform="translate(7 7)"/>
</clipPath>
</defs>
</svg>
