<svg width="41" height="40" viewBox="0 0 41 40" fill="none" xmlns="http://www.w3.org/2000/svg">
<g clip-path="url(#clip0_25_5120)">
<path d="M20.5999 0C9.55467 0 0.600342 8.95369 0.600342 20.0002C0.600342 31.0453 9.55467 40 20.5999 40C31.6457 40 40.6 31.0453 40.6 20.0002C40.6 8.95369 31.6457 0 20.5999 0Z" fill="#FAFAFA"/>
<path d="M33.3634 17.1616L11.0828 18.6631C11.0828 18.6631 5.8481 23.4888 7.4986 25.5895C9.09695 27.6238 12.1484 30.4331 17.9608 29.0769C17.9608 29.0769 28.0679 25.7833 30.9739 23.8458C30.9739 23.8458 37.7227 21.2302 33.3634 17.1616Z" fill="#F7B034"/>
<path d="M33.3633 17.1616C32.2979 6.21501 21.7387 7.37754 21.7387 7.37754C10.3078 8.73371 10.7608 19.6158 11.2765 20.3585C12.8909 22.6834 17.5628 24.014 19.9306 24.7501C24.7095 26.2354 28.5844 23.9104 28.5844 23.9104C34.978 21.5856 33.3633 17.1616 33.3633 17.1616Z" fill="#EAA607"/>
<path d="M29.3594 9.37953C29.3594 9.37953 28.1968 7.50667 26.2593 7.37752C20.4951 6.99305 12.8586 11.204 11.6316 20.8267C11.6316 20.8267 12.7137 21.9083 14.1344 22.6188C15.7364 23.42 18.2998 24.2172 18.2998 24.2172C18.2998 24.2172 14.5702 10.4774 29.3594 9.37953Z" fill="#F9B121"/>
<path d="M26.2593 7.37752C20.4951 6.99305 12.8586 11.204 11.6316 20.8267C11.6316 20.8267 12.7137 21.9083 14.1344 22.6188C14.1344 22.6188 14.1166 15.9005 17.9931 12.2211C21.8033 8.60454 28.3039 8.22853 28.3039 8.22853C27.7876 7.81391 27.0957 7.43331 26.2593 7.37752Z" fill="#FFC364"/>
</g>
<defs>
<clipPath id="clip0_25_5120">
<rect width="40" height="40" fill="white" transform="translate(0.600098)"/>
</clipPath>
</defs>
</svg>
