<svg width="50" height="50" viewBox="0 0 50 50" fill="none" xmlns="http://www.w3.org/2000/svg">
<g clip-path="url(#clip0_59_10568)">
<path d="M24.9994 0C11.1929 0 0 11.1921 0 25.0002C0 38.8067 11.1929 50 24.9994 50C38.8067 50 49.9996 38.8067 49.9996 25.0002C49.9996 11.1921 38.8067 0 24.9994 0Z" fill="#F5F5F5"/>
<path d="M40.954 21.4519L13.1033 23.3288C13.1033 23.3288 6.55991 29.3609 8.62304 31.9868C10.621 34.5297 14.4353 38.0413 21.7007 36.346C21.7007 36.346 34.3346 32.229 37.9672 29.8072C37.9672 29.8072 46.4031 26.5377 40.954 21.4519Z" fill="#F7B034"/>
<path d="M40.9538 21.452C39.6219 7.76875 26.4229 9.22191 26.4229 9.22191C12.1343 10.9171 12.7006 24.5197 13.3452 25.4481C15.3632 28.3543 21.203 30.0175 24.1629 30.9376C30.1364 32.7942 34.9801 29.888 34.9801 29.888C42.972 26.9819 40.9538 21.452 40.9538 21.452Z" fill="#EAA607"/>
<path d="M35.9484 11.7245C35.9484 11.7245 34.4952 9.38342 32.0733 9.22198C24.868 8.74139 15.3224 14.0051 13.7887 26.0334C13.7887 26.0334 15.1412 27.3855 16.9172 28.2736C18.9197 29.2751 22.1239 30.2716 22.1239 30.2716C22.1239 30.2716 17.462 13.0968 35.9484 11.7245Z" fill="#F9B121"/>
<path d="M32.0733 9.22198C24.868 8.74139 15.3224 14.0051 13.7887 26.0334C13.7887 26.0334 15.1412 27.3855 16.9172 28.2736C16.9172 28.2736 16.8949 19.8758 21.7405 15.2765C26.5033 10.7557 34.629 10.2857 34.629 10.2857C33.9837 9.76746 33.1188 9.29171 32.0733 9.22198Z" fill="#FFC364"/>
</g>
<defs>
<clipPath id="clip0_59_10568">
<rect width="50" height="50" fill="white"/>
</clipPath>
</defs>
</svg>

