<svg width="50" height="50" viewBox="0 0 50 50" fill="none" xmlns="http://www.w3.org/2000/svg">
<g clip-path="url(#clip0_40_2144)">
<path d="M24.9998 0C11.1933 0 0.000244141 11.1921 0.000244141 25.0002C0.000244141 38.8067 11.1933 50 24.9998 50C38.8072 50 50.0002 38.8067 50.0002 25.0002C50.0002 11.1921 38.8072 0 24.9998 0Z" fill="#48A1AF"/>
<path d="M32.8234 29.0482C32.2618 26.2279 31.0992 24.8181 28.9721 24.8181H21.3493C19.2214 24.8181 18.2193 26.758 17.497 29.0482C16.7748 31.3408 15.8926 40.506 15.8926 40.506C15.8926 42.8425 17.6169 44.7368 19.7439 44.7368H30.2553C32.3832 44.7368 34.1075 42.8424 34.1075 40.506C34.1075 40.506 33.3851 31.8693 32.8234 29.0482Z" fill="#17474C"/>
<path d="M25.0177 24.7958L22.6498 24.8182H21.3493C19.2214 24.8182 18.2193 26.7581 17.497 29.0483C16.7748 31.3409 15.8926 40.5061 15.8926 40.5061C15.8926 42.8426 17.6169 44.7369 19.7439 44.7369L25.0849 44.749L25.0177 24.7958Z" fill="#0E2C2D"/>
<path d="M29.6895 40.5081L30.2553 44.7369C32.3831 44.7369 34.1075 42.8424 34.1075 40.5061L29.6895 40.5081Z" fill="#E9C29C"/>
<path d="M32.8232 29.0482C32.2616 26.2279 31.099 24.8181 28.9719 24.8181H27.5872L29.6933 40.5069L34.1073 40.506C34.1073 40.506 33.385 31.8693 32.8232 29.0482Z" fill="#29636D"/>
<path d="M15.8926 40.5061C15.8926 42.8425 17.6169 44.7369 19.7439 44.7369L20.5397 40.519L15.8926 40.5061Z" fill="#E9C29C"/>
<path d="M21.3493 24.8182C19.2214 24.8182 18.2193 26.7581 17.497 29.0483C16.7748 31.3409 15.8926 40.5061 15.8926 40.5061L20.5395 40.519L22.6497 24.8132L21.3493 24.8182Z" fill="#29636D"/>
<path d="M25.6818 26.4475L25.0576 25.8185L24.7984 25.8321L24.3181 26.4475L22.5632 40.3278L24.9066 42.4734L27.4366 40.3278L25.6818 26.4475Z" fill="white"/>
<path d="M25.8533 27.8082L23.9491 29.3668L23.8347 30.2691L25.9461 28.5407L25.8533 27.8082Z" fill="#8DD3D5"/>
<path d="M26.1154 29.8806L23.6268 31.9182L23.5125 32.8204L26.2086 30.613L26.1154 29.8806Z" fill="#8DD3D5"/>
<path d="M26.3778 31.9525L23.3041 34.4688L23.1897 35.3704L26.4706 32.6855L26.3778 31.9525Z" fill="#8DD3D5"/>
<path d="M26.6399 34.0256L22.9815 37.0194L22.8674 37.9217L26.7328 34.7572L26.6399 34.0256Z" fill="#8DD3D5"/>
<path d="M26.9019 36.0978L22.6588 39.57L22.5632 40.3277L22.656 40.3811L26.994 36.8309L26.9019 36.0978Z" fill="#8DD3D5"/>
<path d="M27.1639 38.1703L23.4819 41.1778L23.9621 41.6116L27.2571 38.9027L27.1639 38.1703Z" fill="#8DD3D5"/>
<path d="M24.9731 24.9586C24.3456 24.9586 23.8362 25.4738 23.8362 26.1091C23.8362 26.7457 24.3456 27.2608 24.9731 27.2608C25.601 27.2608 26.11 26.7457 26.11 26.1091C26.11 25.4738 25.601 24.9586 24.9731 24.9586Z" fill="#6FC5BC"/>
<path d="M25.0001 8.96716C20.9224 8.96716 17.6179 12.272 17.6179 16.349C17.6179 20.4266 20.9224 23.7316 25.0001 23.7316C29.0774 23.7316 32.3824 20.4266 32.3824 16.349C32.3823 12.2721 29.0773 8.96716 25.0001 8.96716Z" fill="#E9C29C"/>
<path d="M25.0001 8.96716C20.9224 8.96716 17.6179 12.272 17.6179 16.349C17.6179 16.349 20.6617 16.1339 23.4182 14.8877C26.2771 13.5946 27.3489 11.8195 27.3489 11.8195L32.3824 16.349C32.3823 12.2721 29.0773 8.96716 25.0001 8.96716Z" fill="#492A15"/>
<path d="M22.7873 16.3771C22.2287 16.3771 21.7759 16.856 21.7759 17.4458C21.7759 18.0357 22.2287 18.5142 22.7873 18.5142C23.3457 18.5142 23.7985 18.0357 23.7985 17.4458C23.7985 16.856 23.3457 16.3771 22.7873 16.3771Z" fill="#343433"/>
<path d="M27.17 16.3771C26.6117 16.3771 26.1592 16.856 26.1592 17.4458C26.1592 18.0357 26.6117 18.5142 27.17 18.5142C27.7287 18.5142 28.1819 18.0357 28.1819 17.4458C28.1819 16.856 27.7287 16.3771 27.17 16.3771Z" fill="#343433"/>
<path d="M27.4862 16.6135C27.2636 16.6135 27.0823 16.805 27.0823 17.041C27.0823 17.2767 27.2636 17.4682 27.4862 17.4682C27.7098 17.4682 27.8908 17.2767 27.8908 17.041C27.8908 16.805 27.7098 16.6135 27.4862 16.6135Z" fill="white"/>
<path d="M23.0919 16.6135C22.8689 16.6135 22.688 16.805 22.688 17.041C22.688 17.2767 22.8689 17.4682 23.0919 17.4682C23.316 17.4682 23.4969 17.2767 23.4969 17.041C23.4968 16.805 23.316 16.6135 23.0919 16.6135Z" fill="white"/>
<path d="M24.5784 19.2202C24.0096 19.0105 23.2784 19.1625 22.7325 19.9936C22.2139 20.7829 21.1909 20.234 21.2077 19.7071C21.2232 19.2195 21.788 19.4102 21.6799 19.7275C21.6799 19.7275 21.8268 19.5213 21.7417 19.3356C21.5021 18.8129 20.7046 19.204 20.7587 19.916C20.7587 19.916 20.8123 21.3943 22.9175 21.4639C23.4661 21.4823 24.2108 21.3634 24.8068 20.7054C25.2185 20.2511 25.1064 19.4147 24.5784 19.2202Z" fill="#492A15"/>
<path d="M28.2581 19.3356C28.1731 19.5213 28.3201 19.7275 28.3201 19.7275C28.2117 19.4102 28.7767 19.2195 28.7923 19.7071C28.8091 20.234 27.7862 20.7828 27.2675 19.9936C26.7216 19.1625 25.9904 19.0106 25.4215 19.2202C24.8937 19.4147 24.7816 20.2511 25.1932 20.7055C25.7892 21.3635 26.5339 21.4823 27.0823 21.464C29.1878 21.3944 29.2413 19.9161 29.2413 19.9161C29.2954 19.204 28.4977 18.8129 28.2581 19.3356Z" fill="#492A15"/>
<path d="M25.0016 5.19196C17.0534 5.19196 19.0258 13.7069 19.0258 13.7069H30.9783C30.9783 13.7069 32.9498 5.19196 25.0016 5.19196Z" fill="#E0B500"/>
<path d="M19.0259 13.7069H24.9655L25.0015 5.19196C17.0534 5.19196 19.0259 13.7069 19.0259 13.7069Z" fill="#EDC92C"/>
<path d="M25.0018 4.97699C22.8304 4.97699 23.3694 13.2366 23.3694 13.2366H26.6346C26.6346 13.2366 27.1733 4.97699 25.0018 4.97699Z" fill="#EDC92C"/>
<path d="M23.3694 13.2366H24.9656L25.0018 4.97699C22.8304 4.97699 23.3694 13.2366 23.3694 13.2366Z" fill="#EFD050"/>
<path d="M25 12.6699C20.6562 12.6699 17.1348 11.8107 17.1348 13.0009C17.1348 14.1912 20.6561 14.7401 25 14.7401C29.344 14.7401 32.8654 14.1912 32.8654 13.0009C32.8654 11.8107 29.3439 12.6699 25 12.6699Z" fill="#DBB626"/>
</g>
<defs>
<clipPath id="clip0_40_2144">
<rect width="50" height="50" fill="white"/>
</clipPath>
</defs>
</svg>

