<svg width="50" height="50" viewBox="0 0 50 50" fill="none" xmlns="http://www.w3.org/2000/svg">
<rect width="50" height="50" rx="25" fill="#48A1AF"/>
<g clip-path="url(#clip0_59_8743)">
<path d="M25 42.4727C34.6499 42.4727 42.4727 34.6499 42.4727 25C42.4727 15.3501 34.6499 7.52734 25 7.52734C15.3501 7.52734 7.52734 15.3501 7.52734 25C7.52734 34.6499 15.3501 42.4727 25 42.4727Z" fill="#EBC9A0"/>
<path d="M25 39.6545C33.0935 39.6545 39.6545 33.0935 39.6545 25C39.6545 16.9065 33.0935 10.3455 25 10.3455C16.9065 10.3455 10.3455 16.9065 10.3455 25C10.3455 33.0935 16.9065 39.6545 25 39.6545Z" fill="#D7B48C"/>
<path d="M24.9999 37.9635C32.1594 37.9635 37.9634 32.1596 37.9634 25C37.9634 17.8405 32.1594 12.0365 24.9999 12.0365C17.8403 12.0365 12.0364 17.8405 12.0364 25C12.0364 32.1596 17.8403 37.9635 24.9999 37.9635Z" fill="#F5DCB4"/>
<path d="M25.0001 35.7093C30.9146 35.7093 35.7094 30.9146 35.7094 25C35.7094 19.0854 30.9146 14.2907 25.0001 14.2907C19.0855 14.2907 14.2908 19.0854 14.2908 25C14.2908 30.9146 19.0855 35.7093 25.0001 35.7093Z" fill="#BFF0FF"/>
<path d="M25 31.2001C28.4242 31.2001 31.2001 28.4242 31.2001 25C31.2001 21.5757 28.4242 18.7998 25 18.7998C21.5757 18.7998 18.7998 21.5757 18.7998 25C18.7998 28.4242 21.5757 31.2001 25 31.2001Z" fill="#DFF8FF"/>
<path d="M35.6538 23.9061C32.5769 24.1798 32.3256 26.1273 28.7869 26.1273C24.9782 26.1273 24.9782 23.8727 21.1696 23.8727C17.6461 23.8727 17.3809 25.8013 14.3459 26.0903C14.8923 31.4927 19.4536 35.709 24.9999 35.709C30.9144 35.709 35.7089 30.9144 35.7089 25C35.7089 24.6307 35.6902 24.2658 35.6538 23.9061Z" fill="#00C3FF"/>
<path d="M35.6538 23.9061C32.5769 24.1798 32.3256 26.1273 28.7869 26.1273C24.9782 26.1273 24.9782 23.8727 21.1696 23.8727C17.6461 23.8727 17.3809 25.8013 14.3459 26.0903C14.4253 26.8753 14.5986 27.631 14.8383 28.3566C16.9133 28.2347 18.1404 27.4752 19.0416 26.9063C19.8369 26.4038 20.2756 26.1272 21.4083 26.1272C22.5416 26.1272 22.9798 26.4038 23.7751 26.9063C24.7615 27.5289 26.1117 28.3818 28.5489 28.3818C30.9857 28.3818 32.3358 27.5286 33.3217 26.9058C34.0972 26.416 34.5244 26.1462 35.5833 26.1281C35.6061 26.1277 35.6271 26.1213 35.6497 26.1202C35.688 25.7519 35.7089 25.3784 35.7089 25C35.7089 24.6307 35.6902 24.2658 35.6538 23.9061Z" fill="#00AAF0"/>
<path d="M37.728 12.272C34.3281 8.87235 29.808 7 25 7C20.192 7 15.6719 8.87235 12.272 12.272C8.87235 15.6719 7 20.192 7 25C7 29.808 8.87235 34.3281 12.272 37.728C15.6719 41.1276 20.192 43 25 43C29.808 43 34.3281 41.1276 37.728 37.728C41.1276 34.3281 43 29.808 43 25C43 20.192 41.1276 15.6719 37.728 12.272ZM36.9822 36.9822C33.7816 40.1827 29.5263 41.9453 25 41.9453C20.4737 41.9453 16.2184 40.1827 13.0178 36.9822C9.81728 33.7816 8.05469 29.5263 8.05469 25C8.05469 20.4737 9.81728 16.2184 13.0178 13.0178C16.2184 9.81728 20.4737 8.05469 25 8.05469C29.5263 8.05469 33.7816 9.81728 36.9822 13.0178C40.1827 16.2184 41.9453 20.4737 41.9453 25C41.9453 29.5263 40.1827 33.7816 36.9822 36.9822Z" fill="black"/>
<path d="M12.5739 24.4935C12.7006 21.3649 13.9906 18.4218 16.2061 16.2062C18.4217 13.9906 21.3649 12.7007 24.4934 12.574C27.6043 12.4479 30.6235 13.4779 32.9958 15.4741C33.2187 15.6616 33.5514 15.633 33.7388 15.4101C33.9263 15.1873 33.8977 14.8546 33.6748 14.6671C31.1007 12.5012 27.8257 11.3837 24.4507 11.5202C21.0566 11.6577 17.8638 13.057 15.4603 15.4606C13.0568 17.8641 11.6575 21.0569 11.52 24.4509C11.3833 27.8249 12.5009 31.1008 14.6667 33.6749C14.771 33.7989 14.9202 33.8627 15.0705 33.8627C15.1903 33.8627 15.3108 33.8221 15.4098 33.7389C15.6326 33.5514 15.6613 33.2188 15.4737 32.9959C13.4778 30.6235 12.4479 27.604 12.5739 24.4935Z" fill="black"/>
<path d="M34.59 16.261C34.3672 16.4485 34.3385 16.7812 34.526 17.004C36.5221 19.3763 37.5521 22.3958 37.4261 25.5064C37.2994 28.6349 36.0094 31.5782 33.7939 33.7937C31.5782 36.0092 28.6351 37.2992 25.5066 37.4259C22.3961 37.5519 19.3766 36.522 17.0043 34.526C16.7815 34.3385 16.4487 34.3672 16.2613 34.59C16.0738 34.8128 16.1025 35.1455 16.3253 35.333C18.7587 37.3804 21.8187 38.491 24.9964 38.4909C25.1802 38.4909 25.3649 38.4872 25.5494 38.4797C28.9434 38.3423 32.1362 36.9429 34.5397 34.5394C36.9432 32.1359 38.3425 28.9431 38.48 25.549C38.6166 22.1749 37.499 18.8991 35.3331 16.3249C35.1455 16.1022 34.8128 16.0735 34.59 16.261Z" fill="black"/>
<path d="M25.0001 13.7636C18.8043 13.7636 13.7637 18.8042 13.7637 25C13.7637 31.1958 18.8043 36.2364 25.0001 36.2364C31.1959 36.2364 36.2365 31.1958 36.2365 25C36.2365 18.8042 31.1959 13.7636 25.0001 13.7636ZM25.0001 14.8183C30.0595 14.8183 34.2682 18.5279 35.0507 23.3699C33.5168 23.4922 32.6282 24.0535 31.8358 24.5542C30.9848 25.092 30.1808 25.6 28.5494 25.6C26.9168 25.6 26.1122 25.092 25.2605 24.5542C24.3632 23.9876 23.3462 23.3455 21.4084 23.3455C19.4706 23.3455 18.4536 23.9877 17.5563 24.5542C16.8086 25.0263 16.0985 25.4746 14.835 25.5778C14.8243 25.3865 14.8183 25.194 14.8183 25.0001C14.8184 19.3858 19.3859 14.8183 25.0001 14.8183ZM25.0001 35.1818C19.9394 35.1818 15.7298 31.4702 14.9489 26.6263C16.4552 26.4966 17.3347 25.9415 18.1195 25.4459C18.9713 24.9081 19.7758 24.4001 21.4085 24.4001C23.0411 24.4001 23.8456 24.9081 24.6974 25.4459C25.5947 26.0125 26.6117 26.6546 28.5495 26.6546C30.4862 26.6546 31.5025 26.0124 32.3992 25.4458C33.1552 24.9681 33.8733 24.5148 35.1649 24.4189C35.1758 24.6113 35.1818 24.8049 35.1818 25C35.1818 30.6143 30.6143 35.1818 25.0001 35.1818Z" fill="black"/>
<path d="M9.78748 24.4727H9.78186C9.49062 24.4727 9.25732 24.7088 9.25732 25C9.25732 25.2912 9.49625 25.5273 9.78748 25.5273C10.0787 25.5273 10.3148 25.2912 10.3148 25C10.3148 24.7088 10.0787 24.4727 9.78748 24.4727Z" fill="black"/>
<path d="M40.2238 24.4727H40.2181C39.9269 24.4727 39.6936 24.7088 39.6936 25C39.6936 25.2912 39.9325 25.5273 40.2238 25.5273C40.515 25.5273 40.7511 25.2912 40.7511 25C40.7511 24.7088 40.515 24.4727 40.2238 24.4727Z" fill="black"/>
<path d="M25.0029 10.312C25.2942 10.312 25.5303 10.0759 25.5303 9.78464V9.77902C25.5303 9.48778 25.2942 9.25449 25.0029 9.25449C24.7117 9.25449 24.4756 9.49341 24.4756 9.78464C24.4756 10.0759 24.7117 10.312 25.0029 10.312Z" fill="black"/>
<path d="M25.0029 39.6908C24.7117 39.6908 24.4756 39.9297 24.4756 40.221C24.4756 40.5122 24.7117 40.7483 25.0029 40.7483C25.2942 40.7483 25.5303 40.5122 25.5303 40.221V40.2153C25.5303 39.924 25.2942 39.6908 25.0029 39.6908Z" fill="black"/>
<path d="M14.244 14.7685C14.3789 14.7685 14.5139 14.717 14.6168 14.614C14.8228 14.4081 14.8228 14.0741 14.6168 13.8683L14.6128 13.8643C14.4069 13.6584 14.075 13.6603 13.8691 13.8662C13.6631 14.0722 13.6651 14.4081 13.871 14.614C13.9741 14.717 14.109 14.7685 14.244 14.7685Z" fill="black"/>
<path d="M36.1345 35.3859C35.9286 35.1801 35.5967 35.182 35.3908 35.3879C35.1848 35.5938 35.1868 35.9297 35.3928 36.1357C35.4957 36.2386 35.6307 36.2902 35.7656 36.2902C35.9005 36.2902 36.0355 36.2387 36.1385 36.1357C36.3444 35.9297 36.3444 35.5958 36.1385 35.3899L36.1345 35.3859Z" fill="black"/>
<path d="M35.7617 14.7685C35.8966 14.7685 36.0316 14.717 36.1346 14.614L36.1386 14.61C36.3445 14.404 36.3426 14.0722 36.1366 13.8662C35.9307 13.6603 35.5948 13.6622 35.3888 13.8682C35.1829 14.0741 35.1829 14.408 35.3888 14.6139C35.4918 14.717 35.6267 14.7685 35.7617 14.7685Z" fill="black"/>
<path d="M13.8671 35.39C13.6612 35.5959 13.6612 35.9298 13.8671 36.1357C13.97 36.2386 14.105 36.2902 14.24 36.2902C14.3749 36.2902 14.5099 36.2387 14.6128 36.1357L14.6168 36.1317C14.8228 35.9257 14.8208 35.5939 14.6149 35.3879C14.4089 35.1821 14.0731 35.1839 13.8671 35.39Z" fill="black"/>
<path d="M26.5859 17.2314C29.2945 17.7812 31.5511 19.7441 32.475 22.3541C32.5515 22.5705 32.7549 22.7057 32.9721 22.7057C33.0305 22.7057 33.0898 22.6959 33.148 22.6753C33.4226 22.5781 33.5663 22.2768 33.4692 22.0022C32.4224 19.0449 29.8653 16.8208 26.7957 16.1977C26.5103 16.1399 26.2319 16.3242 26.174 16.6096C26.116 16.8951 26.3005 17.1734 26.5859 17.2314Z" fill="black"/>
<path d="M24.0562 26.4599C23.2357 25.9421 22.6937 25.5999 21.4084 25.5999C20.1235 25.5999 19.5817 25.9418 18.7599 26.4603C18.5104 26.6179 18.2523 26.781 17.9578 26.9431C17.6 27.14 17.2551 27.2975 16.9032 27.4245C16.6292 27.5233 16.4873 27.8256 16.5861 28.0995C16.6637 28.3144 16.8663 28.448 17.0822 28.448C17.1416 28.448 17.2021 28.4379 17.2611 28.4166C17.6654 28.2706 18.0597 28.0909 18.4662 27.8671C18.7887 27.6897 19.0727 27.5103 19.3242 27.3513C20.1051 26.8586 20.4284 26.6547 21.4084 26.6547C22.3887 26.6547 22.712 26.8588 23.4937 27.3521C23.7399 27.5075 24.0654 27.4338 24.2209 27.1875C24.3763 26.9412 24.3025 26.6154 24.0562 26.4599Z" fill="black"/>
<path d="M29.9622 27.7425C29.5183 27.8168 29.043 27.8545 28.5496 27.8545C28.2583 27.8545 28.0222 28.0906 28.0222 28.3818C28.0222 28.673 28.2583 28.9091 28.5496 28.9091C29.1012 28.9091 29.635 28.8666 30.1363 28.7827C30.4235 28.7346 30.6175 28.4629 30.5694 28.1756C30.5213 27.8884 30.2496 27.6943 29.9622 27.7425Z" fill="black"/>
</g>
<defs>
<clipPath id="clip0_59_8743">
<rect width="36" height="36" fill="white" transform="translate(7 7)"/>
</clipPath>
</defs>
</svg>
