<svg width="50" height="50" viewBox="0 0 50 50" fill="none" xmlns="http://www.w3.org/2000/svg">
<rect width="50" height="50" rx="25" fill="#F5F5F5"/>
<g clip-path="url(#clip0_59_11042)">
<path d="M25 42.4727C34.6499 42.4727 42.4727 34.6499 42.4727 25C42.4727 15.3501 34.6499 7.52734 25 7.52734C15.3501 7.52734 7.52734 15.3501 7.52734 25C7.52734 34.6499 15.3501 42.4727 25 42.4727Z" fill="#EBC9A0"/>
<path d="M25 39.6545C33.0935 39.6545 39.6545 33.0935 39.6545 25C39.6545 16.9065 33.0935 10.3455 25 10.3455C16.9065 10.3455 10.3455 16.9065 10.3455 25C10.3455 33.0935 16.9065 39.6545 25 39.6545Z" fill="#D7B48C"/>
<path d="M25 37.9635C32.1596 37.9635 37.9635 32.1596 37.9635 25C37.9635 17.8405 32.1596 12.0365 25 12.0365C17.8404 12.0365 12.0365 17.8405 12.0365 25C12.0365 32.1596 17.8404 37.9635 25 37.9635Z" fill="#F5DCB4"/>
<path d="M25 35.7093C30.9146 35.7093 35.7093 30.9146 35.7093 25C35.7093 19.0854 30.9146 14.2907 25 14.2907C19.0854 14.2907 14.2907 19.0854 14.2907 25C14.2907 30.9146 19.0854 35.7093 25 35.7093Z" fill="#BFF0FF"/>
<path d="M25 31.2002C28.4243 31.2002 31.2002 28.4243 31.2002 25C31.2002 21.5758 28.4243 18.7999 25 18.7999C21.5757 18.7999 18.7998 21.5758 18.7998 25C18.7998 28.4243 21.5757 31.2002 25 31.2002Z" fill="#DFF8FF"/>
<path d="M35.6539 23.9061C32.577 24.1798 32.3257 26.1273 28.787 26.1273C24.9783 26.1273 24.9783 23.8727 21.1697 23.8727C17.6462 23.8727 17.381 25.8013 14.346 26.0903C14.8924 31.4927 19.4537 35.709 25 35.709C30.9145 35.709 35.709 30.9144 35.709 25C35.709 24.6307 35.6903 24.2658 35.6539 23.9061Z" fill="#00C3FF"/>
<path d="M35.6539 23.9061C32.577 24.1798 32.3257 26.1273 28.787 26.1273C24.9783 26.1273 24.9783 23.8727 21.1697 23.8727C17.6462 23.8727 17.381 25.8013 14.346 26.0903C14.4254 26.8753 14.5987 27.631 14.8384 28.3566C16.9134 28.2347 18.1405 27.4752 19.0416 26.9063C19.837 26.4038 20.2757 26.1272 21.4084 26.1272C22.5417 26.1272 22.9799 26.4038 23.7752 26.9063C24.7616 27.5289 26.1118 28.3818 28.549 28.3818C30.9858 28.3818 32.3359 27.5286 33.3218 26.9058C34.0973 26.416 34.5245 26.1462 35.5834 26.1281C35.6062 26.1277 35.6272 26.1213 35.6497 26.1202C35.6881 25.7519 35.7089 25.3784 35.7089 25C35.709 24.6307 35.6903 24.2658 35.6539 23.9061Z" fill="#00AAF0"/>
<path d="M37.728 12.272C34.3281 8.87235 29.808 7 25 7C20.192 7 15.6719 8.87235 12.272 12.272C8.87235 15.6719 7 20.192 7 25C7 29.808 8.87235 34.3281 12.272 37.728C15.6719 41.1276 20.192 43 25 43C29.808 43 34.3281 41.1276 37.728 37.728C41.1276 34.3281 43 29.808 43 25C43 20.192 41.1276 15.6719 37.728 12.272ZM36.9822 36.9822C33.7816 40.1827 29.5263 41.9453 25 41.9453C20.4737 41.9453 16.2184 40.1827 13.0178 36.9822C9.81728 33.7816 8.05469 29.5263 8.05469 25C8.05469 20.4737 9.81728 16.2184 13.0178 13.0178C16.2184 9.81728 20.4737 8.05469 25 8.05469C29.5263 8.05469 33.7816 9.81728 36.9822 13.0178C40.1827 16.2184 41.9453 20.4737 41.9453 25C41.9453 29.5263 40.1827 33.7816 36.9822 36.9822Z" fill="black"/>
<path d="M12.574 24.4935C12.7007 21.3649 13.9907 18.4218 16.2062 16.2063C18.4218 13.9906 21.365 12.7008 24.4935 12.5741C27.6044 12.4479 30.6236 13.4779 32.9959 15.4741C33.2188 15.6616 33.5515 15.633 33.7389 15.4101C33.9265 15.1873 33.8978 14.8546 33.6749 14.6671C31.1008 12.5012 27.8258 11.3837 24.4508 11.5203C21.0567 11.6577 17.8639 13.057 15.4604 15.4606C13.0569 17.8641 11.6576 21.0569 11.5201 24.4509C11.3834 27.825 12.501 31.1008 14.6668 33.675C14.7711 33.7989 14.9203 33.8628 15.0706 33.8628C15.1904 33.8628 15.3109 33.8221 15.4099 33.739C15.6327 33.5514 15.6614 33.2188 15.4739 32.996C13.4779 30.6236 12.448 27.6041 12.574 24.4935Z" fill="black"/>
<path d="M34.5899 16.261C34.3671 16.4485 34.3384 16.7812 34.5259 17.004C36.522 19.3763 37.552 22.3958 37.426 25.5064C37.2993 28.6349 36.0093 31.5782 33.7938 33.7937C31.5782 36.0092 28.635 37.2992 25.5065 37.4259C22.396 37.5519 19.3765 36.522 17.0042 34.526C16.7814 34.3385 16.4487 34.3672 16.2612 34.59C16.0737 34.8128 16.1024 35.1455 16.3252 35.333C18.7586 37.3804 21.8186 38.491 24.9963 38.4909C25.1801 38.4909 25.3648 38.4872 25.5493 38.4797C28.9433 38.3423 32.1362 36.9429 34.5396 34.5394C36.9431 32.1359 38.3424 28.9431 38.4799 25.549C38.6165 22.1749 37.499 18.8991 35.3331 16.3249C35.1455 16.1022 34.8127 16.0735 34.5899 16.261Z" fill="black"/>
<path d="M25 13.7635C18.8042 13.7635 13.7636 18.8042 13.7636 25C13.7636 31.1958 18.8042 36.2364 25 36.2364C31.1958 36.2364 36.2364 31.1958 36.2364 25C36.2364 18.8042 31.1958 13.7635 25 13.7635ZM25 14.8182C30.0594 14.8182 34.2681 18.5279 35.0506 23.3699C33.5167 23.4922 32.6281 24.0535 31.8357 24.5542C30.9847 25.0919 30.1807 25.6 28.5493 25.6C26.9167 25.6 26.1121 25.0919 25.2604 24.5541C24.3631 23.9875 23.3461 23.3455 21.4083 23.3455C19.4705 23.3455 18.4535 23.9876 17.5562 24.5541C16.8085 25.0263 16.0984 25.4746 14.8349 25.5778C14.8242 25.3865 14.8182 25.194 14.8182 25.0001C14.8183 19.3857 19.3858 14.8182 25 14.8182ZM25 35.1817C19.9393 35.1817 15.7297 31.4702 14.9488 26.6263C16.4551 26.4966 17.3346 25.9415 18.1194 25.4459C18.9712 24.9081 19.7757 24.4001 21.4084 24.4001C23.041 24.4001 23.8455 24.9081 24.6973 25.4459C25.5946 26.0125 26.6116 26.6546 28.5494 26.6546C30.4861 26.6546 31.5024 26.0124 32.3991 25.4458C33.1551 24.9681 33.8732 24.5148 35.1648 24.4188C35.1757 24.6112 35.1817 24.8049 35.1817 25C35.1817 30.6142 30.6142 35.1817 25 35.1817Z" fill="black"/>
<path d="M9.78754 24.4727H9.78192C9.49068 24.4727 9.25739 24.7088 9.25739 25C9.25739 25.2912 9.49631 25.5273 9.78754 25.5273C10.0788 25.5273 10.3149 25.2912 10.3149 25C10.3149 24.7088 10.0788 24.4727 9.78754 24.4727Z" fill="black"/>
<path d="M40.2238 24.4727H40.2182C39.9269 24.4727 39.6936 24.7088 39.6936 25C39.6936 25.2912 39.9325 25.5273 40.2238 25.5273C40.515 25.5273 40.7511 25.2912 40.7511 25C40.7511 24.7088 40.515 24.4727 40.2238 24.4727Z" fill="black"/>
<path d="M25.0028 10.312C25.294 10.312 25.5302 10.0759 25.5302 9.78467V9.77905C25.5302 9.48781 25.294 9.25452 25.0028 9.25452C24.7116 9.25452 24.4755 9.49344 24.4755 9.78467C24.4755 10.0759 24.7116 10.312 25.0028 10.312Z" fill="black"/>
<path d="M25.0028 39.6908C24.7116 39.6908 24.4755 39.9297 24.4755 40.221C24.4755 40.5122 24.7116 40.7483 25.0028 40.7483C25.294 40.7483 25.5302 40.5122 25.5302 40.221V40.2153C25.5302 39.924 25.294 39.6908 25.0028 39.6908Z" fill="black"/>
<path d="M14.2439 14.7685C14.3789 14.7685 14.5139 14.717 14.6168 14.614C14.8228 14.4081 14.8228 14.0741 14.6168 13.8683L14.6128 13.8643C14.4069 13.6584 14.075 13.6603 13.869 13.8662C13.6631 14.0722 13.6651 14.4081 13.871 14.614C13.9741 14.717 14.109 14.7685 14.2439 14.7685Z" fill="black"/>
<path d="M36.1345 35.3859C35.9286 35.1801 35.5967 35.182 35.3908 35.3879C35.1848 35.5938 35.1868 35.9297 35.3928 36.1357C35.4957 36.2386 35.6307 36.2902 35.7656 36.2902C35.9005 36.2902 36.0355 36.2387 36.1385 36.1357C36.3444 35.9297 36.3444 35.5958 36.1385 35.3899L36.1345 35.3859Z" fill="black"/>
<path d="M35.7617 14.7685C35.8966 14.7685 36.0316 14.717 36.1345 14.614L36.1386 14.61C36.3445 14.404 36.3425 14.0722 36.1366 13.8662C35.9306 13.6603 35.5948 13.6622 35.3888 13.8682C35.1829 14.0741 35.1829 14.408 35.3888 14.6139C35.4917 14.717 35.6267 14.7685 35.7617 14.7685Z" fill="black"/>
<path d="M13.8671 35.39C13.6612 35.5959 13.6612 35.9298 13.8671 36.1357C13.9701 36.2386 14.1051 36.2902 14.24 36.2902C14.3749 36.2902 14.5099 36.2387 14.6129 36.1357L14.6169 36.1317C14.8228 35.9257 14.8209 35.5939 14.6149 35.3879C14.409 35.1821 14.0731 35.1839 13.8671 35.39Z" fill="black"/>
<path d="M26.586 17.2314C29.2946 17.7812 31.5512 19.7442 32.4751 22.3542C32.5516 22.5706 32.755 22.7057 32.9722 22.7057C33.0306 22.7057 33.0899 22.6959 33.1481 22.6753C33.4227 22.5782 33.5665 22.2768 33.4693 22.0022C32.4225 19.045 29.8654 16.8208 26.7958 16.1977C26.5105 16.1399 26.232 16.3242 26.1741 16.6096C26.1161 16.8951 26.3006 17.1735 26.586 17.2314Z" fill="black"/>
<path d="M24.0561 26.4599C23.2356 25.9421 22.6936 25.5999 21.4083 25.5999C20.1234 25.5999 19.5816 25.9418 18.7598 26.4603C18.5103 26.6179 18.2522 26.781 17.9577 26.9431C17.6 27.14 17.255 27.2975 16.9031 27.4245C16.6292 27.5233 16.4872 27.8256 16.5861 28.0995C16.6636 28.3144 16.8662 28.448 17.0821 28.448C17.1415 28.448 17.202 28.4379 17.2611 28.4166C17.6654 28.2706 18.0596 28.0909 18.4661 27.8671C18.7886 27.6897 19.0726 27.5103 19.3242 27.3513C20.1051 26.8586 20.4283 26.6547 21.4083 26.6547C22.3886 26.6547 22.712 26.8588 23.4936 27.3521C23.7398 27.5075 24.0653 27.4338 24.2208 27.1875C24.3763 26.9412 24.3024 26.6154 24.0561 26.4599Z" fill="black"/>
<path d="M29.9622 27.7425C29.5183 27.8168 29.043 27.8545 28.5495 27.8545C28.2583 27.8545 28.0222 28.0906 28.0222 28.3818C28.0222 28.673 28.2583 28.9091 28.5495 28.9091C29.1012 28.9091 29.635 28.8666 30.1363 28.7827C30.4235 28.7346 30.6174 28.4629 30.5693 28.1756C30.5212 27.8884 30.2496 27.6943 29.9622 27.7425Z" fill="black"/>
</g>
<defs>
<clipPath id="clip0_59_11042">
<rect width="36" height="36" fill="white" transform="translate(7 7)"/>
</clipPath>
</defs>
</svg>
