<svg width="50" height="50" viewBox="0 0 50 50" fill="none" xmlns="http://www.w3.org/2000/svg">
<rect width="50" height="50" rx="25" fill="#F5F5F5"/>
<g clip-path="url(#clip0_59_10760)">
<path opacity="0.998" fill-rule="evenodd" clip-rule="evenodd" d="M40.2227 6.96484C40.5976 6.96484 40.9727 6.96484 41.3477 6.96484C41.7427 7.06881 42.0709 7.27975 42.332 7.59766C31.8266 18.1383 21.3031 28.6735 10.7617 39.2031C10.5522 39.1095 10.3412 38.9923 10.1289 38.8516C9.35822 38.4999 8.60822 38.535 7.87891 38.957C18.3882 28.4126 28.9116 17.8774 39.4492 7.35156C39.6965 7.188 39.9543 7.0591 40.2227 6.96484Z" fill="#D5F8F9"/>
<path opacity="0.998" fill-rule="evenodd" clip-rule="evenodd" d="M42.332 7.59766C42.6499 7.85882 42.8609 8.18694 42.9648 8.58203C42.9648 8.95703 42.9648 9.33203 42.9648 9.70703C42.8706 9.97539 42.7417 10.2332 42.5781 10.4805C32.0288 21.0415 21.4702 31.5884 10.9023 42.1211C11.3449 41.4367 11.4269 40.7102 11.1484 39.9414C11.0347 39.6993 10.8823 39.4884 10.6914 39.3086C9.63727 40.2924 8.60603 41.3002 7.59766 42.332C7.27975 42.0709 7.06881 41.7427 6.96484 41.3477C6.96484 40.9727 6.96484 40.5976 6.96484 40.2227C7.13013 39.7063 7.43481 39.2844 7.87891 38.957C8.60822 38.535 9.35822 38.4999 10.1289 38.8516C10.3412 38.9923 10.5522 39.1095 10.7617 39.2031C21.3031 28.6735 31.8266 18.1383 42.332 7.59766Z" fill="#ADF2F4"/>
<path opacity="0.992" fill-rule="evenodd" clip-rule="evenodd" d="M10.9023 42.1211C10.5854 42.525 10.1869 42.8063 9.70703 42.9648C9.33203 42.9648 8.95703 42.9648 8.58203 42.9648C8.18694 42.8609 7.85882 42.6499 7.59766 42.332C8.60603 41.3002 9.63727 40.2924 10.6914 39.3086C10.8823 39.4884 11.0347 39.6993 11.1484 39.9414C11.4269 40.7102 11.3449 41.4367 10.9023 42.1211Z" fill="#98D3F3"/>
</g>
<defs>
<clipPath id="clip0_59_10760">
<rect width="36" height="36" fill="white" transform="translate(7 7)"/>
</clipPath>
</defs>
</svg>

