<svg width="50" height="50" viewBox="0 0 50 50" fill="none" xmlns="http://www.w3.org/2000/svg">
<rect width="49.9999" height="50" rx="24.9999" fill="#F5F5F5"/>
<g clip-path="url(#clip0_59_10579)">
<path d="M39.9448 10.6986C39.934 8.11198 39.9253 5.97729 42.792 5.01246C42.8273 4.99725 42.8674 4.99598 42.9036 5.00894C42.9403 5.02211 42.9702 5.04876 42.9865 5.08307C43.0029 5.11737 43.0044 5.15651 42.9908 5.1919C42.6149 6.16706 42.6259 7.47811 42.6372 8.81301C42.6596 11.4507 42.6825 14.1798 39.8132 14.8486C39.7884 14.8561 39.762 14.8572 39.7366 14.8518C39.7112 14.8463 39.6877 14.8346 39.6686 14.8176C39.6495 14.8007 39.6353 14.7792 39.6276 14.7553C39.6199 14.7314 39.6188 14.7059 39.6246 14.6815C39.9557 13.3071 39.95 11.9484 39.9448 10.6986Z" fill="#EBB562"/>
<path d="M42.6153 5.38037C40.2216 6.32464 40.2295 8.30991 40.2395 10.6975C40.2445 11.895 40.2498 13.191 39.9647 14.5149C42.3844 13.8071 42.3631 11.2698 42.3424 8.81508C42.3319 7.57698 42.3218 6.35881 42.6153 5.38037Z" fill="#EBB562"/>
<path d="M36.6857 13.6915C36.6748 11.1049 36.6661 8.9702 39.5328 8.00529C39.5681 7.99012 39.6082 7.98885 39.6444 8.00177C39.6811 8.01497 39.711 8.04164 39.7273 8.07595C39.7437 8.11025 39.7452 8.14939 39.7317 8.1848C39.3557 9.15996 39.3668 10.4709 39.3781 11.8058C39.4004 14.4437 39.4234 17.1726 36.554 17.8414C36.5292 17.8489 36.5028 17.85 36.4774 17.8446C36.452 17.8392 36.4285 17.8274 36.4094 17.8104C36.3903 17.7935 36.3761 17.772 36.3684 17.7481C36.3606 17.7242 36.3596 17.6988 36.3653 17.6744C36.6965 16.3 36.6908 14.9412 36.6857 13.6915Z" fill="#EBB562"/>
<path d="M39.3562 8.37329C36.9626 9.31756 36.9705 11.3028 36.9805 13.6904C36.9854 14.8878 36.9909 16.1839 36.7057 17.5078C39.1255 16.8 39.1041 14.2627 39.0834 11.808C39.0729 10.5698 39.0627 9.35165 39.3562 8.37329Z" fill="#EBB562"/>
<path d="M33.4244 16.6797C33.4136 14.0931 33.4049 11.9585 36.2716 10.9935C36.3069 10.9783 36.347 10.9771 36.3832 10.99C36.42 11.0032 36.4498 11.0298 36.4661 11.0641C36.4825 11.0984 36.484 11.1376 36.4704 11.173C36.0945 12.1482 36.1056 13.4592 36.1168 14.7941C36.1392 17.4318 36.1622 20.1609 33.2928 20.8296C33.268 20.8372 33.2416 20.8383 33.2162 20.8329C33.1908 20.8275 33.1673 20.8157 33.1481 20.7987C33.129 20.7818 33.1148 20.7603 33.1071 20.7364C33.0994 20.7125 33.0983 20.687 33.1041 20.6626C33.4353 19.2882 33.4296 17.9296 33.4244 16.6797Z" fill="#EBB562"/>
<path d="M36.095 11.3616C33.7014 12.3058 33.7093 14.291 33.7193 16.6787C33.7242 17.8761 33.7296 19.1722 33.4444 20.4961C35.8642 19.7883 35.8429 17.251 35.8221 14.7963C35.8117 13.5581 35.8015 12.3399 36.095 11.3616Z" fill="#EBB562"/>
<path d="M30.1617 19.6713C30.1509 17.0847 30.1422 14.95 33.0089 13.9851C33.0355 13.9737 33.065 13.9702 33.0937 13.9748C33.1224 13.9795 33.149 13.9922 33.1702 14.0114C33.1914 14.0305 33.2063 14.0553 33.213 14.0826C33.2197 14.1098 33.2179 14.1384 33.2078 14.1646C32.8318 15.1398 32.8429 16.4507 32.8542 17.7857C32.8765 20.4235 32.8994 23.1525 30.0302 23.8212C30.0054 23.8288 29.9789 23.83 29.9535 23.8246C29.9281 23.8192 29.9046 23.8074 29.8854 23.7904C29.8662 23.7735 29.8521 23.7519 29.8444 23.728C29.8367 23.7041 29.8357 23.6786 29.8415 23.6542C30.1727 22.2798 30.1669 20.9211 30.1617 19.6713Z" fill="#EBB562"/>
<path d="M32.8322 14.3531C30.4386 15.2974 30.4466 17.2827 30.4566 19.6702C30.4614 20.8677 30.4669 22.1638 30.1817 23.4877C32.6015 22.7798 32.5802 20.2426 32.5594 17.7879C32.5489 16.5498 32.5387 15.3316 32.8322 14.3531Z" fill="#EBB562"/>
<path d="M26.8985 22.6625C26.8877 20.0759 26.8789 17.9412 29.7457 16.9763C29.7722 16.9649 29.8017 16.9614 29.8304 16.966C29.8591 16.9707 29.8857 16.9834 29.9069 17.0026C29.9281 17.0217 29.943 17.0465 29.9497 17.0737C29.9564 17.101 29.9545 17.1295 29.9444 17.1558C29.5685 18.131 29.5796 19.442 29.5908 20.7769C29.6133 23.4146 29.6362 26.1437 26.7668 26.8124C26.742 26.82 26.7156 26.8211 26.6902 26.8156C26.6648 26.8102 26.6414 26.7984 26.6222 26.7815C26.6031 26.7645 26.589 26.743 26.5812 26.7191C26.5735 26.6952 26.5725 26.6698 26.5782 26.6454C26.9094 25.271 26.9036 23.9123 26.8985 22.6625Z" fill="#EBB562"/>
<path d="M29.5688 17.3443C27.1752 18.2885 27.1831 20.2738 27.1931 22.6614C27.198 23.8588 27.2034 25.1549 26.9183 26.4788C29.338 25.771 29.3167 23.2337 29.296 20.779C29.2854 19.5408 29.2753 18.3227 29.5688 17.3443Z" fill="#EBB562"/>
<path d="M23.6361 25.6515C23.6253 23.0649 23.6165 20.9302 26.4833 19.9653C26.5186 19.9501 26.5586 19.9488 26.5949 19.9618C26.6316 19.975 26.6614 20.0016 26.6778 20.0359C26.6941 20.0702 26.6957 20.1094 26.6821 20.1448C26.3061 21.12 26.3173 22.4309 26.3286 23.7658C26.3509 26.4036 26.3738 29.1326 23.5045 29.8014C23.4797 29.8089 23.4532 29.8101 23.4278 29.8046C23.4024 29.7992 23.379 29.7874 23.3598 29.7705C23.3407 29.7535 23.3265 29.732 23.3188 29.7081C23.311 29.6842 23.31 29.6588 23.3158 29.6344C23.647 28.26 23.6412 26.9013 23.6361 25.6515Z" fill="#EBB562"/>
<path d="M26.3064 20.3333C23.9128 21.2775 23.9207 23.2628 23.9307 25.6504C23.9356 26.8478 23.9411 28.144 23.6559 29.4678C26.0757 28.76 26.0543 26.2227 26.0336 23.768C26.0231 22.5298 26.0129 21.3117 26.3064 20.3333Z" fill="#EBB562"/>
<path d="M20.3719 28.645C20.361 26.0583 20.3523 23.9236 23.219 22.9588C23.2532 22.9442 23.2929 22.9418 23.3306 22.9553C23.3674 22.9684 23.3972 22.9951 23.4136 23.0294C23.4299 23.0637 23.4314 23.1029 23.4178 23.1383C23.0419 24.1135 23.053 25.4244 23.0643 26.7594C23.0866 29.3971 23.1096 32.1262 20.2402 32.7948C20.2154 32.8024 20.189 32.8035 20.1636 32.798C20.1382 32.7926 20.1148 32.7808 20.0957 32.7639C20.0765 32.747 20.0624 32.7255 20.0546 32.7016C20.0469 32.6777 20.0458 32.6523 20.0516 32.6279C20.3827 31.2535 20.377 29.8948 20.3719 28.645Z" fill="#EBB562"/>
<path d="M23.0422 23.3267C20.6486 24.271 20.6565 26.2563 20.6664 28.6439C20.6714 29.8412 20.6768 31.1374 20.3917 32.4612C22.8114 31.7535 22.79 29.2161 22.7694 26.7614C22.7588 25.5233 22.7487 24.3052 23.0422 23.3267Z" fill="#EBB562"/>
<path d="M17.1115 31.6345C17.1007 29.0479 17.0919 26.9132 19.9586 25.9484C19.9928 25.9338 20.0326 25.9314 20.0703 25.9449C20.107 25.958 20.1369 25.9847 20.1532 26.019C20.1696 26.0533 20.1711 26.0924 20.1575 26.1278C19.7815 27.103 19.7926 28.4139 19.8039 29.7489C19.8263 32.3867 19.8492 35.1157 16.9799 35.7844C16.9551 35.792 16.9286 35.7932 16.9032 35.7878C16.8778 35.7824 16.8543 35.7707 16.8351 35.7537C16.8159 35.7367 16.8018 35.7152 16.7941 35.6913C16.7864 35.6673 16.7854 35.6419 16.7912 35.6175C17.1224 34.2431 17.1167 32.8843 17.1115 31.6345Z" fill="#EBB562"/>
<path d="M19.7823 26.3163C17.3886 27.2606 17.3965 29.2458 17.4065 31.6334C17.4115 32.8308 17.4168 34.1269 17.1317 35.4508C19.5514 34.743 19.5301 32.2057 19.5094 29.751C19.4988 28.5129 19.4887 27.2947 19.7823 26.3163Z" fill="#EBB562"/>
<path d="M13.849 34.7194C13.8382 32.1327 13.8294 29.9981 16.6962 29.0332C16.7303 29.0185 16.7701 29.0162 16.8077 29.0296C16.8445 29.0428 16.8744 29.0695 16.8907 29.1038C16.9071 29.1381 16.9086 29.1773 16.895 29.2127C16.519 30.1878 16.5301 31.4988 16.5414 32.8338C16.5638 35.4714 16.5867 38.2005 13.7174 38.8692C13.6926 38.8769 13.6662 38.878 13.6407 38.8726C13.6153 38.8672 13.5918 38.8554 13.5727 38.8385C13.5535 38.8215 13.5393 38.8 13.5316 38.776C13.5239 38.7521 13.5229 38.7267 13.5287 38.7022C13.8599 37.3279 13.8541 35.9692 13.849 34.7194Z" fill="#EBB562"/>
<path d="M16.5195 29.4012C14.1259 30.3454 14.1338 32.3306 14.1437 34.7183C14.1487 35.9157 14.1541 37.2117 13.869 38.5357C16.2887 37.8279 16.2673 35.2906 16.2467 32.8359C16.2361 31.5977 16.226 30.3795 16.5195 29.4012Z" fill="#EBB562"/>
<path d="M10.5849 37.7115C10.574 35.1249 10.5653 32.9903 13.4319 32.0254C13.4585 32.0141 13.488 32.0106 13.5167 32.0153C13.5453 32.02 13.5719 32.0327 13.5931 32.0518C13.6143 32.0709 13.6292 32.0956 13.6359 32.1229C13.6426 32.1501 13.6408 32.1786 13.6308 32.2049C13.2549 33.18 13.266 34.491 13.2772 35.826C13.2996 38.4637 13.3226 41.1927 10.4532 41.8614C10.4284 41.869 10.402 41.8701 10.3766 41.8647C10.3512 41.8593 10.3277 41.8475 10.3086 41.8305C10.2894 41.8136 10.2752 41.7921 10.2675 41.7682C10.2598 41.7443 10.2587 41.7188 10.2645 41.6944C10.5957 40.32 10.59 38.9614 10.5849 37.7115Z" fill="#EBB562"/>
<path d="M13.2554 32.3934C10.8618 33.3377 10.8697 35.323 10.8797 37.7106C10.8846 38.908 10.89 40.2041 10.6048 41.5279C13.0246 40.8201 13.0033 38.2828 12.9825 35.8281C12.972 34.59 12.9618 33.3719 13.2554 32.3934Z" fill="#EBB562"/>
<path d="M7.32402 40.8435C7.31321 38.2569 7.30444 36.1221 10.1712 35.1573C10.2053 35.1427 10.2451 35.1403 10.2828 35.1538C10.3195 35.167 10.3494 35.1936 10.3657 35.2279C10.3821 35.2623 10.3836 35.3014 10.37 35.3368C9.99403 36.312 10.0052 37.6229 10.0165 38.9578C10.0388 41.5956 10.0617 44.3247 7.19237 44.9934C7.16758 45.0009 7.14115 45.0021 7.11576 44.9966C7.09037 44.9912 7.06692 44.9794 7.04779 44.9625C7.02865 44.9455 7.0145 44.924 7.00677 44.9001C6.99904 44.8762 6.998 44.8508 7.00376 44.8264C7.33491 43.452 7.32914 42.0933 7.32402 40.8435Z" fill="#EBB562"/>
<path d="M9.9946 35.5253C7.60096 36.4695 7.60884 38.4548 7.61884 40.8424C7.6238 42.0399 7.62916 43.3359 7.34409 44.6598C9.76381 43.952 9.74243 41.4147 9.72179 38.96C9.71123 37.7219 9.70107 36.5037 9.9946 35.5253Z" fill="#EBB562"/>
</g>
<defs>
<clipPath id="clip0_59_10579">
<rect width="35.9999" height="40" fill="white" transform="translate(7 5)"/>
</clipPath>
</defs>
</svg>
