<svg width="50" height="50" viewBox="0 0 50 50" fill="none" xmlns="http://www.w3.org/2000/svg">
<rect width="49.9999" height="50" rx="24.9999" fill="#337180"/>
<g clip-path="url(#clip0_59_6623)">
<path d="M39.9448 10.6986C39.934 8.11198 39.9252 5.97729 42.7919 5.01246C42.8272 4.99725 42.8673 4.99598 42.9035 5.00894C42.9403 5.02211 42.9701 5.04876 42.9865 5.08307C43.0028 5.11737 43.0043 5.15651 42.9907 5.1919C42.6148 6.16706 42.6258 7.47811 42.6371 8.81301C42.6596 11.4507 42.6825 14.1798 39.8131 14.8486C39.7883 14.8561 39.7619 14.8572 39.7365 14.8518C39.7111 14.8463 39.6877 14.8346 39.6685 14.8176C39.6494 14.8007 39.6353 14.7792 39.6275 14.7553C39.6198 14.7314 39.6188 14.7059 39.6245 14.6815C39.9557 13.3071 39.9499 11.9484 39.9448 10.6986Z" fill="#EBB562"/>
<path d="M42.6152 5.38037C40.2215 6.32464 40.2294 8.30991 40.2394 10.6975C40.2444 11.895 40.2498 13.191 39.9646 14.5149C42.3843 13.8071 42.363 11.2698 42.3423 8.81508C42.3318 7.57698 42.3217 6.35881 42.6152 5.38037Z" fill="#EBB562"/>
<path d="M36.6856 13.6915C36.6748 11.1049 36.666 8.9702 39.5327 8.00529C39.568 7.99012 39.6081 7.98885 39.6443 8.00177C39.6811 8.01497 39.7109 8.04164 39.7272 8.07595C39.7436 8.11025 39.7452 8.14939 39.7316 8.1848C39.3556 9.15996 39.3667 10.4709 39.378 11.8058C39.4004 14.4437 39.4233 17.1726 36.5539 17.8414C36.5291 17.8489 36.5027 17.85 36.4773 17.8446C36.4519 17.8392 36.4285 17.8274 36.4093 17.8104C36.3902 17.7935 36.376 17.772 36.3683 17.7481C36.3605 17.7242 36.3595 17.6988 36.3652 17.6744C36.6964 16.3 36.6907 14.9412 36.6856 13.6915Z" fill="#EBB562"/>
<path d="M39.3562 8.37329C36.9625 9.31756 36.9704 11.3028 36.9804 13.6904C36.9854 14.8878 36.9908 16.1839 36.7056 17.5078C39.1254 16.8 39.104 14.2627 39.0833 11.808C39.0728 10.5698 39.0626 9.35165 39.3562 8.37329Z" fill="#EBB562"/>
<path d="M33.4244 16.6797C33.4135 14.0931 33.4048 11.9585 36.2715 10.9935C36.3068 10.9783 36.3469 10.9771 36.3831 10.99C36.4199 11.0032 36.4497 11.0298 36.466 11.0641C36.4824 11.0984 36.4839 11.1376 36.4703 11.173C36.0944 12.1482 36.1055 13.4592 36.1167 14.7941C36.1391 17.4318 36.1621 20.1609 33.2927 20.8296C33.2679 20.8372 33.2415 20.8383 33.2161 20.8329C33.1907 20.8275 33.1672 20.8157 33.1481 20.7987C33.1289 20.7818 33.1148 20.7603 33.107 20.7364C33.0993 20.7125 33.0982 20.687 33.104 20.6626C33.4352 19.2882 33.4295 17.9296 33.4244 16.6797Z" fill="#EBB562"/>
<path d="M36.0949 11.3616C33.7013 12.3058 33.7092 14.291 33.7192 16.6787C33.7241 17.8761 33.7295 19.1722 33.4443 20.4961C35.8641 19.7883 35.8428 17.251 35.822 14.7963C35.8116 13.5581 35.8014 12.3399 36.0949 11.3616Z" fill="#EBB562"/>
<path d="M30.1616 19.6713C30.1508 17.0847 30.1421 14.95 33.0088 13.9851C33.0354 13.9737 33.0649 13.9702 33.0936 13.9748C33.1223 13.9795 33.1489 13.9922 33.1701 14.0114C33.1914 14.0305 33.2062 14.0553 33.2129 14.0826C33.2196 14.1098 33.2178 14.1384 33.2077 14.1646C32.8317 15.1398 32.8428 16.4507 32.8541 17.7857C32.8764 20.4235 32.8993 23.1525 30.0301 23.8212C30.0053 23.8288 29.9788 23.83 29.9534 23.8246C29.928 23.8192 29.9045 23.8074 29.8853 23.7904C29.8661 23.7735 29.852 23.7519 29.8443 23.728C29.8366 23.7041 29.8356 23.6786 29.8414 23.6542C30.1726 22.2798 30.1668 20.9211 30.1616 19.6713Z" fill="#EBB562"/>
<path d="M32.8322 14.3531C30.4385 15.2974 30.4465 17.2827 30.4565 19.6702C30.4614 20.8677 30.4668 22.1638 30.1816 23.4877C32.6014 22.7798 32.5801 20.2426 32.5593 17.7879C32.5488 16.5498 32.5386 15.3316 32.8322 14.3531Z" fill="#EBB562"/>
<path d="M26.8984 22.6625C26.8876 20.0759 26.8788 17.9412 29.7456 16.9763C29.7721 16.9649 29.8016 16.9614 29.8303 16.966C29.859 16.9707 29.8856 16.9834 29.9068 17.0026C29.9281 17.0217 29.9429 17.0465 29.9496 17.0737C29.9563 17.101 29.9544 17.1295 29.9443 17.1558C29.5684 18.131 29.5795 19.442 29.5908 20.7769C29.6132 23.4146 29.6361 26.1437 26.7667 26.8124C26.7419 26.82 26.7155 26.8211 26.6901 26.8156C26.6647 26.8102 26.6413 26.7984 26.6222 26.7815C26.603 26.7645 26.5889 26.743 26.5811 26.7191C26.5734 26.6952 26.5724 26.6698 26.5781 26.6454C26.9093 25.271 26.9035 23.9123 26.8984 22.6625Z" fill="#EBB562"/>
<path d="M29.5687 17.3443C27.1751 18.2885 27.183 20.2738 27.193 22.6614C27.1979 23.8588 27.2033 25.1549 26.9182 26.4788C29.3379 25.771 29.3166 23.2337 29.2959 20.779C29.2854 19.5408 29.2752 18.3227 29.5687 17.3443Z" fill="#EBB562"/>
<path d="M23.636 25.6515C23.6252 23.0649 23.6164 20.9302 26.4832 19.9653C26.5185 19.9501 26.5585 19.9488 26.5948 19.9618C26.6315 19.975 26.6613 20.0016 26.6777 20.0359C26.6941 20.0702 26.6956 20.1094 26.6821 20.1448C26.306 21.12 26.3172 22.4309 26.3285 23.7658C26.3508 26.4036 26.3737 29.1326 23.5044 29.8014C23.4796 29.8089 23.4531 29.8101 23.4277 29.8046C23.4023 29.7992 23.3789 29.7874 23.3597 29.7705C23.3406 29.7535 23.3264 29.732 23.3187 29.7081C23.311 29.6842 23.3099 29.6588 23.3157 29.6344C23.6469 28.26 23.6411 26.9013 23.636 25.6515Z" fill="#EBB562"/>
<path d="M26.3064 20.3333C23.9127 21.2775 23.9206 23.2628 23.9306 25.6504C23.9356 26.8478 23.941 28.144 23.6558 29.4678C26.0756 28.76 26.0542 26.2227 26.0335 23.768C26.023 22.5298 26.0128 21.3117 26.3064 20.3333Z" fill="#EBB562"/>
<path d="M20.3718 28.645C20.361 26.0583 20.3522 23.9236 23.2189 22.9588C23.2531 22.9442 23.2928 22.9418 23.3305 22.9553C23.3673 22.9684 23.3971 22.9951 23.4135 23.0294C23.4298 23.0637 23.4313 23.1029 23.4177 23.1383C23.0418 24.1135 23.0529 25.4244 23.0642 26.7594C23.0866 29.3971 23.1095 32.1262 20.2401 32.7948C20.2153 32.8024 20.1889 32.8035 20.1635 32.798C20.1381 32.7926 20.1147 32.7808 20.0956 32.7639C20.0764 32.747 20.0623 32.7255 20.0545 32.7016C20.0468 32.6777 20.0458 32.6523 20.0515 32.6279C20.3827 31.2535 20.3769 29.8948 20.3718 28.645Z" fill="#EBB562"/>
<path d="M23.0421 23.3267C20.6485 24.271 20.6564 26.2563 20.6664 28.6439C20.6713 29.8412 20.6767 31.1374 20.3916 32.4612C22.8113 31.7535 22.7899 29.2161 22.7693 26.7614C22.7587 25.5233 22.7486 24.3052 23.0421 23.3267Z" fill="#EBB562"/>
<path d="M17.1114 31.6345C17.1006 29.0479 17.0919 26.9132 19.9585 25.9484C19.9927 25.9338 20.0325 25.9314 20.0702 25.9449C20.1069 25.958 20.1368 25.9847 20.1531 26.019C20.1695 26.0533 20.171 26.0924 20.1574 26.1278C19.7815 27.103 19.7925 28.4139 19.8038 29.7489C19.8262 32.3867 19.8491 35.1157 16.9798 35.7844C16.955 35.792 16.9285 35.7932 16.9031 35.7878C16.8777 35.7824 16.8542 35.7707 16.835 35.7537C16.8158 35.7367 16.8017 35.7152 16.794 35.6913C16.7863 35.6673 16.7853 35.6419 16.7911 35.6175C17.1223 34.2431 17.1166 32.8843 17.1114 31.6345Z" fill="#EBB562"/>
<path d="M19.7822 26.3163C17.3885 27.2606 17.3964 29.2458 17.4064 31.6334C17.4114 32.8308 17.4167 34.1269 17.1316 35.4508C19.5513 34.743 19.53 32.2057 19.5093 29.751C19.4987 28.5129 19.4886 27.2947 19.7822 26.3163Z" fill="#EBB562"/>
<path d="M13.8489 34.7194C13.8381 32.1327 13.8293 29.9981 16.6961 29.0332C16.7302 29.0185 16.77 29.0162 16.8076 29.0296C16.8444 29.0428 16.8743 29.0695 16.8906 29.1038C16.907 29.1381 16.9085 29.1773 16.8949 29.2127C16.5189 30.1878 16.53 31.4988 16.5413 32.8338C16.5637 35.4714 16.5866 38.2005 13.7173 38.8692C13.6925 38.8769 13.6661 38.878 13.6406 38.8726C13.6152 38.8672 13.5917 38.8554 13.5726 38.8385C13.5534 38.8215 13.5392 38.8 13.5315 38.776C13.5238 38.7521 13.5228 38.7267 13.5286 38.7022C13.8598 37.3279 13.854 35.9692 13.8489 34.7194Z" fill="#EBB562"/>
<path d="M16.5194 29.4012C14.1258 30.3454 14.1337 32.3306 14.1437 34.7183C14.1486 35.9157 14.1541 37.2117 13.8689 38.5357C16.2886 37.8279 16.2672 35.2906 16.2466 32.8359C16.236 31.5977 16.2259 30.3795 16.5194 29.4012Z" fill="#EBB562"/>
<path d="M10.5848 37.7115C10.574 35.1249 10.5652 32.9903 13.4318 32.0254C13.4584 32.0141 13.4879 32.0106 13.5166 32.0153C13.5452 32.02 13.5718 32.0327 13.593 32.0518C13.6142 32.0709 13.6291 32.0956 13.6358 32.1229C13.6425 32.1501 13.6407 32.1786 13.6307 32.2049C13.2548 33.18 13.2659 34.491 13.2771 35.826C13.2995 38.4637 13.3225 41.1927 10.4531 41.8614C10.4283 41.869 10.4019 41.8701 10.3765 41.8647C10.3511 41.8593 10.3276 41.8475 10.3085 41.8305C10.2893 41.8136 10.2752 41.7921 10.2674 41.7682C10.2597 41.7443 10.2586 41.7188 10.2644 41.6944C10.5956 40.32 10.5899 38.9614 10.5848 37.7115Z" fill="#EBB562"/>
<path d="M13.2553 32.3934C10.8617 33.3377 10.8696 35.323 10.8796 37.7106C10.8845 38.908 10.8899 40.2041 10.6047 41.5279C13.0245 40.8201 13.0032 38.2828 12.9824 35.8281C12.9719 34.59 12.9617 33.3719 13.2553 32.3934Z" fill="#EBB562"/>
<path d="M7.32393 40.8435C7.31312 38.2569 7.30435 36.1221 10.1711 35.1573C10.2052 35.1427 10.245 35.1403 10.2827 35.1538C10.3194 35.167 10.3493 35.1936 10.3656 35.2279C10.382 35.2623 10.3835 35.3014 10.37 35.3368C9.99394 36.312 10.0051 37.6229 10.0164 38.9578C10.0387 41.5956 10.0616 44.3247 7.19228 44.9934C7.16748 45.0009 7.14106 45.0021 7.11567 44.9966C7.09028 44.9912 7.06683 44.9794 7.04769 44.9625C7.02856 44.9455 7.01441 44.924 7.00668 44.9001C6.99895 44.8762 6.99791 44.8508 7.00367 44.8264C7.33482 43.452 7.32905 42.0933 7.32393 40.8435Z" fill="#EBB562"/>
<path d="M9.9945 35.5253C7.60087 36.4695 7.60875 38.4548 7.61875 40.8424C7.62371 42.0399 7.62907 43.3359 7.34399 44.6598C9.76371 43.952 9.74234 41.4147 9.7217 38.96C9.71114 37.7219 9.70098 36.5037 9.9945 35.5253Z" fill="#EBB562"/>
</g>
<defs>
<clipPath id="clip0_59_6623">
<rect width="35.9999" height="40" fill="white" transform="translate(7 5)"/>
</clipPath>
</defs>
</svg>
