<svg width="50" height="50" viewBox="0 0 50 50" fill="none" xmlns="http://www.w3.org/2000/svg">
<rect width="50" height="50" rx="25" fill="#337180"/>
<path d="M21.2883 7.70695L22.0994 15.7908H27.4907L28.9366 7.66352C28.9366 7.66352 26.7325 6.87961 21.2883 7.70695Z" fill="#AE7461"/>
<path d="M26.4404 7.3158C26.4022 7.45679 26.4068 7.60437 26.4537 7.74325C26.5006 7.88212 26.5881 8.00724 26.7071 8.10562C26.8227 8.19126 26.9632 8.24535 27.1121 8.26146C27.261 8.27756 27.4119 8.255 27.5469 8.19645C27.6827 8.11916 27.7932 8.01101 27.8671 7.88303C27.9411 7.75504 27.9758 7.61178 27.9679 7.46784L26.4404 7.3158Z" fill="#6F4439"/>
<path d="M23.2196 9.58458C23.5094 9.58458 23.7442 9.37418 23.7442 9.11463C23.7442 8.85509 23.5094 8.64468 23.2196 8.64468C22.9299 8.64468 22.6951 8.85509 22.6951 9.11463C22.6951 9.37418 22.9299 9.58458 23.2196 9.58458Z" fill="#6F4439"/>
<path d="M25.8437 12.2542C26.4025 12.2542 26.8554 11.8484 26.8554 11.3479C26.8554 10.8473 26.4025 10.4415 25.8437 10.4415C25.285 10.4415 24.832 10.8473 24.832 11.3479C24.832 11.8484 25.285 12.2542 25.8437 12.2542Z" fill="#6F4439"/>
<path d="M25.8769 10.4455C25.7508 10.4509 25.6261 10.4722 25.5066 10.5087C25.3783 10.5541 25.2608 10.6211 25.1606 10.7062C25.0393 10.8079 24.949 10.9357 24.8983 11.0774C24.8508 11.2206 24.847 11.3727 24.8873 11.5177C24.9177 11.6369 24.9739 11.7496 25.0526 11.8494C25.1318 11.938 25.222 12.0181 25.3215 12.0884C25.2885 12.0778 25.2573 12.0632 25.2289 12.0449C25.1504 11.9959 25.0806 11.9367 25.0217 11.8692C24.9342 11.7681 24.8711 11.6517 24.8366 11.5276C24.7905 11.3757 24.7905 11.2155 24.8366 11.0636C24.8878 10.911 24.9855 10.7742 25.1187 10.6686C25.2235 10.5801 25.3483 10.5128 25.4846 10.4712C25.5748 10.4439 25.6693 10.4292 25.7645 10.4277C25.803 10.4261 25.8414 10.4322 25.8769 10.4455Z" fill="#263238"/>
<path d="M23.3004 8.63873C23.2257 8.64692 23.152 8.66079 23.0799 8.6802C22.9959 8.70584 22.9204 8.74986 22.8601 8.80827C22.7999 8.86667 22.7569 8.93763 22.735 9.01469C22.7131 9.09176 22.713 9.1725 22.7348 9.24959C22.7565 9.32669 22.7994 9.3977 22.8595 9.4562C22.912 9.50317 22.9688 9.54611 23.0292 9.58455C22.9519 9.57053 22.8821 9.53368 22.8309 9.4799C22.7615 9.41931 22.7111 9.34346 22.6847 9.25995C22.6583 9.17643 22.6569 9.08817 22.6806 9.004C22.7042 8.91983 22.7521 8.8427 22.8195 8.78033C22.8869 8.71796 22.9714 8.67254 23.0645 8.64861C23.1394 8.62065 23.2229 8.61715 23.3004 8.63873Z" fill="#263238"/>
<path d="M27.2361 8.27739C27.1674 8.29293 27.0955 8.29293 27.0267 8.27739C26.8571 8.25424 26.7015 8.17966 26.5859 8.06611C26.4707 7.95076 26.4024 7.80396 26.3919 7.64948C26.3847 7.58644 26.3946 7.52278 26.4206 7.46387C26.4316 7.46387 26.4206 7.53495 26.4316 7.6475C26.4506 7.791 26.5196 7.92549 26.6288 8.03184C26.738 8.13818 26.8819 8.21098 27.04 8.23987C27.1546 8.27541 27.2339 8.26949 27.2361 8.27739Z" fill="#263238"/>
<path d="M20.6113 14.4795V18.3496L9.51795 37.3055C9.1939 37.8606 9.0351 38.4812 9.05691 39.1073C9.07872 39.7335 9.28038 40.344 9.64244 40.88C10.0045 41.4159 10.5147 41.8591 11.1238 42.1669C11.7328 42.4746 12.4202 42.6365 13.1195 42.6368H36.8799C37.5824 42.637 38.273 42.4741 38.8843 42.1641C39.4956 41.854 40.0069 41.4074 40.3683 40.8677C40.7296 40.3281 40.9288 39.7137 40.9463 39.0846C40.9638 38.4555 40.7991 37.833 40.4682 37.2778L29.3991 18.6833V14.4795H20.6113Z" fill="white"/>
<path d="M36.8795 42.6842H13.119C12.4101 42.6841 11.7132 42.5202 11.0958 42.2082C10.4783 41.8962 9.96116 41.4468 9.59435 40.9033C9.22754 40.3599 9.02348 39.7408 9.00191 39.1061C8.98034 38.4713 9.14198 37.8423 9.47121 37.2798L20.5579 18.3378V14.4361H29.4516V18.6715L40.5163 37.2561C40.8507 37.8187 41.0169 38.4492 40.9986 39.0863C40.9804 39.7235 40.7784 40.3456 40.4123 40.892C40.0462 41.4385 39.5284 41.8908 38.9093 42.2048C38.2902 42.5189 37.5909 42.684 36.8795 42.6842ZM20.6637 14.5308V18.3615V18.3714L9.57039 37.3272C9.25009 37.8754 9.093 38.4883 9.1143 39.1067C9.1356 39.7251 9.33457 40.3281 9.69198 40.8576C10.0494 41.387 10.5532 41.8249 11.1547 42.1289C11.7561 42.433 12.435 42.593 13.1256 42.5934H36.8861C37.5793 42.5935 38.2606 42.4327 38.8639 42.1268C39.4671 41.8209 39.9716 41.3803 40.3283 40.8478C40.6849 40.3154 40.8816 39.7092 40.8991 39.0884C40.9166 38.4677 40.7543 37.8534 40.4281 37.3055L29.3524 18.6992V14.5308H20.6637Z" fill="#263238"/>
<path d="M21.7921 16.6516L21.7525 18.2529L10.7649 37.7794C10.5456 38.1534 10.4378 38.5718 10.4519 38.994C10.466 39.4163 10.6015 39.8281 10.8453 40.1897C11.0891 40.5513 11.433 40.8504 11.8437 41.0581C12.2543 41.2658 12.7179 41.3749 13.1894 41.3751H36.8088C37.2826 41.3762 37.7485 41.2673 38.1612 41.0589C38.5739 40.8505 38.9192 40.5498 39.1635 40.1862C39.4078 39.8226 39.5426 39.4084 39.5548 38.9841C39.5671 38.5599 39.4563 38.14 39.2334 37.7656L28.4332 18.2588L28.3758 16.6575L21.7921 16.6516Z" fill="#E0E0E0"/>
<path d="M39.2267 37.7597L34.1308 28.5602H15.949L10.7649 37.7794C10.5456 38.1534 10.4378 38.5718 10.4519 38.9941C10.466 39.4163 10.6015 39.8282 10.8453 40.1898C11.0891 40.5514 11.433 40.8505 11.8437 41.0581C12.2543 41.2658 12.7179 41.375 13.1894 41.3751H36.8088C37.2829 41.3757 37.7491 41.2662 38.1618 41.0571C38.5744 40.848 38.9195 40.5465 39.1631 40.1821C39.4068 39.8178 39.5408 39.403 39.5519 38.9784C39.5631 38.5538 39.451 38.1339 39.2267 37.7597Z" fill="#17474C"/>
<path d="M30.0312 15.0403H19.9693C19.649 15.0403 19.3418 14.9263 19.1152 14.7234C18.8887 14.5205 18.7615 14.2452 18.7615 13.9583C18.7615 13.8163 18.7927 13.6756 18.8535 13.5445C18.9142 13.4133 19.0032 13.2941 19.1154 13.1938C19.2276 13.0935 19.3607 13.014 19.5073 12.9598C19.6538 12.9057 19.8108 12.8779 19.9693 12.8782H30.0312C30.3509 12.8782 30.6576 12.992 30.8837 13.1945C31.1098 13.3971 31.2368 13.6718 31.2368 13.9583C31.2371 14.1003 31.2061 14.2409 31.1457 14.3722C31.0852 14.5035 30.9964 14.6228 30.8845 14.7233C30.7725 14.8238 30.6395 14.9035 30.493 14.9579C30.3466 15.0123 30.1897 15.0403 30.0312 15.0403Z" fill="white"/>
<path d="M30.0314 15.0403C30.1247 15.0339 30.2175 15.0221 30.3091 15.0048C30.5333 14.9547 30.7367 14.8481 30.8953 14.6977C31.0539 14.5472 31.161 14.3591 31.2039 14.1557C31.2229 14.0586 31.2273 13.9597 31.2172 13.8615C31.2052 13.7558 31.1771 13.6522 31.1334 13.5535C31.0302 13.3353 30.8508 13.1531 30.6221 13.0341C30.4971 12.9711 30.3605 12.929 30.2187 12.9097C30.0694 12.8957 29.919 12.8924 29.7691 12.8999H19.9739C19.8576 12.9026 19.742 12.9186 19.6301 12.9473C19.5195 12.9784 19.4142 13.0229 19.3171 13.0796C19.122 13.1933 18.9687 13.3561 18.8763 13.5475C18.8342 13.6419 18.8061 13.7408 18.7925 13.8417C18.7771 13.942 18.7771 14.0436 18.7925 14.1439C18.8354 14.3446 18.9426 14.5299 19.1011 14.677C19.1738 14.754 19.2593 14.8206 19.3546 14.8744C19.4476 14.9249 19.5477 14.964 19.6521 14.9909C19.8645 15.0299 20.0817 15.0432 20.2979 15.0304H21.5697H19.9717C19.8586 15.0294 19.746 15.0155 19.6367 14.989C19.4165 14.9323 19.2177 14.8231 19.0614 14.673C18.9031 14.5183 18.7969 14.3267 18.7551 14.1202C18.7351 14.0165 18.7307 13.9109 18.7418 13.8062C18.7566 13.7006 18.7862 13.5971 18.83 13.4982C18.8779 13.3997 18.9401 13.3074 19.0151 13.2237C19.0926 13.1407 19.1823 13.0677 19.2818 13.0065C19.3834 12.9479 19.493 12.9014 19.6081 12.8683C19.7257 12.8381 19.8472 12.8215 19.9695 12.8189H29.7647C29.9184 12.8143 30.0724 12.8196 30.2253 12.8347C30.432 12.8646 30.6266 12.9414 30.7906 13.0579C30.9546 13.1744 31.0825 13.3267 31.1621 13.5001C31.2487 13.6964 31.2724 13.9105 31.2304 14.1182C31.1926 14.2915 31.1086 14.454 30.9857 14.5921C30.8164 14.7847 30.5783 14.9192 30.3113 14.9732C30.239 14.9883 30.1651 14.9963 30.0909 14.9969L30.0314 15.0403Z" fill="#263238"/>
<path d="M29.8751 15.0502H20.3467V18.2509H29.8751V15.0502Z" fill="#263238"/>
<path d="M34.1308 28.5602C34.1308 29.1624 30.062 29.6501 25.041 29.6501C20.02 29.6501 15.949 29.1624 15.949 28.5602C15.949 27.9579 20.02 27.4702 25.041 27.4702C30.062 27.4702 34.1308 27.9579 34.1308 28.5602Z" fill="#103235"/>
<g opacity="0.3">
<path d="M33.9191 28.6163C33.9191 29.2185 29.8503 29.7063 24.8293 29.7063C19.8083 29.7063 15.7373 29.2185 15.7373 28.6163C15.7373 28.0141 19.8083 27.5263 24.8293 27.5263C29.8503 27.5263 33.9191 28.0141 33.9191 28.6163Z" fill="#103235"/>
</g>
<g opacity="0.3">
<path d="M25.8174 18.2529C25.716 18.2529 29.5644 36.2827 30.3843 36.4189C31.2043 36.5552 37.5389 36.4189 37.5389 36.4189L27.8959 18.2529H25.8174Z" fill="white"/>
</g>
<g opacity="0.3">
<path d="M9.10181 39.5822H40.9536C40.7905 40.5241 39.349 42.5835 37.1911 42.6368H12.9149C11.0701 42.6368 9.30459 41.0315 9.10181 39.5822Z" fill="black"/>
</g>
<path d="M18.8255 23.4519C18.8262 23.4598 18.8262 23.4677 18.8255 23.4756L18.7924 23.5447L18.6579 23.8074C18.5411 24.0364 18.3648 24.3642 18.1444 24.767C17.7036 25.5746 17.0754 26.6803 16.3811 27.8967C15.6868 29.113 15.0454 30.2168 14.6178 31.0244C14.3974 31.4193 14.2188 31.755 14.0998 31.9821L13.9279 32.2506L13.8882 32.3177L13.875 32.3395C13.875 32.3395 13.875 32.3395 13.875 32.3158L13.9081 32.2466L14.0381 31.9821C14.1527 31.753 14.3224 31.4233 14.5406 31.0165C14.9815 30.2069 15.5964 29.0992 16.3039 27.8809C17.0115 26.6626 17.6463 25.5548 18.0981 24.7472C18.3185 24.3523 18.5015 24.0246 18.6271 23.7955L18.7704 23.5368L18.81 23.4697C18.8188 23.4579 18.8233 23.4519 18.8255 23.4519Z" fill="#263238"/>
<g opacity="0.3">
<path d="M22.7163 18.2529H22.3195C22.1608 18.5866 12.4451 37.0232 12.4451 37.0232H16.3508L24.2239 18.2529H22.7163Z" fill="white"/>
</g>
<g opacity="0.3">
<path d="M20.6061 35.6193C20.5946 35.7159 20.5514 35.8073 20.482 35.882C20.4125 35.9567 20.32 36.0112 20.2159 36.0388C20.1119 36.0663 20.0011 36.0657 19.8975 36.0368C19.7939 36.008 19.7022 35.9523 19.6339 35.8768C19.5656 35.8013 19.5238 35.7094 19.5138 35.6126C19.5038 35.5158 19.5261 35.4186 19.5777 35.3331C19.6294 35.2477 19.7082 35.1778 19.8041 35.1325C19.9 35.0871 20.0088 35.0682 20.1167 35.0782C20.1886 35.0849 20.2582 35.1042 20.3217 35.135C20.3852 35.1658 20.4413 35.2075 20.4867 35.2578C20.5322 35.308 20.5661 35.3658 20.5866 35.4279C20.6071 35.4899 20.6137 35.5549 20.6061 35.6193Z" fill="black"/>
</g>
<g opacity="0.3">
<path d="M28.2938 33.6723C28.2823 33.769 28.239 33.8605 28.1694 33.9352C28.0999 34.0098 28.0071 34.0644 27.903 34.0918C27.7988 34.1193 27.6879 34.1184 27.5843 34.0894C27.4807 34.0604 27.389 34.0045 27.3209 33.9288C27.2527 33.8531 27.2111 33.761 27.2014 33.6641C27.1917 33.5673 27.2143 33.47 27.2663 33.3846C27.3183 33.2993 27.3974 33.2296 27.4936 33.1845C27.5898 33.1394 27.6987 33.1209 27.8067 33.1313C27.9513 33.1452 28.0839 33.21 28.1752 33.3115C28.2666 33.4129 28.3092 33.5427 28.2938 33.6723Z" fill="black"/>
</g>
<g opacity="0.3">
<path d="M21.2737 34.081C21.4527 34.081 21.5977 33.9511 21.5977 33.7908C21.5977 33.6305 21.4527 33.5005 21.2737 33.5005C21.0948 33.5005 20.9497 33.6305 20.9497 33.7908C20.9497 33.9511 21.0948 34.081 21.2737 34.081Z" fill="black"/>
</g>
<g opacity="0.3">
<path d="M29.1959 35.2125C29.1963 35.27 29.1777 35.3263 29.1423 35.3743C29.107 35.4223 29.0565 35.4598 28.9974 35.4821C28.9382 35.5043 28.873 35.5104 28.81 35.4994C28.747 35.4884 28.6891 35.4609 28.6435 35.4204C28.598 35.3799 28.5669 35.3282 28.5542 35.2718C28.5416 35.2155 28.5478 35.157 28.5723 35.1038C28.5968 35.0507 28.6383 35.0052 28.6916 34.9733C28.7449 34.9413 28.8077 34.9242 28.8718 34.9242C28.9574 34.9242 29.0395 34.9545 29.1002 35.0085C29.1609 35.0625 29.1953 35.1358 29.1959 35.2125Z" fill="black"/>
</g>
<g opacity="0.3">
<path d="M25.9268 31.1449C25.9273 31.2023 25.9086 31.2587 25.8733 31.3066C25.8379 31.3546 25.7875 31.3922 25.7283 31.4144C25.6692 31.4367 25.604 31.4427 25.541 31.4318C25.478 31.4208 25.42 31.3933 25.3745 31.3528C25.329 31.3123 25.2979 31.2605 25.2852 31.2042C25.2725 31.1478 25.2788 31.0894 25.3033 31.0362C25.3277 30.9831 25.3692 30.9376 25.4226 30.9056C25.4759 30.8736 25.5386 30.8566 25.6028 30.8566C25.6884 30.8566 25.7704 30.8869 25.8311 30.9409C25.8918 30.9949 25.9262 31.0682 25.9268 31.1449Z" fill="black"/>
</g>
<g opacity="0.3">
<path d="M23.5974 37.4733C23.5974 37.5624 23.5679 37.6494 23.5127 37.7235C23.4575 37.7975 23.379 37.8552 23.2871 37.8893C23.1953 37.9233 23.0943 37.9323 22.9968 37.9149C22.8993 37.8975 22.8098 37.8546 22.7395 37.7917C22.6692 37.7287 22.6213 37.6485 22.6019 37.5612C22.5826 37.4738 22.5925 37.3833 22.6305 37.301C22.6686 37.2188 22.733 37.1485 22.8156 37.099C22.8983 37.0495 22.9954 37.0231 23.0948 37.0231C23.2281 37.0231 23.3559 37.0706 23.4502 37.155C23.5444 37.2394 23.5974 37.3539 23.5974 37.4733Z" fill="black"/>
</g>
<path d="M22.7382 14.2524H20.4768C20.3768 14.2524 20.2809 14.2169 20.2102 14.1536C20.1396 14.0902 20.0999 14.0043 20.0999 13.9148C20.1004 13.8254 20.1403 13.7398 20.2109 13.6766C20.2814 13.6134 20.377 13.5777 20.4768 13.5771H22.7382C22.8381 13.5771 22.934 13.6127 23.0047 13.676C23.0754 13.7394 23.1151 13.8252 23.1151 13.9148C23.1154 13.9592 23.1058 14.0032 23.087 14.0443C23.0682 14.0854 23.0404 14.1227 23.0054 14.1541C22.9703 14.1855 22.9286 14.2104 22.8828 14.2273C22.8369 14.2442 22.7878 14.2527 22.7382 14.2524Z" fill="#E0E0E0"/>
<path d="M23.9342 14.2663C24.1241 14.2663 24.278 14.1284 24.278 13.9582C24.278 13.7881 24.1241 13.6502 23.9342 13.6502C23.7443 13.6502 23.5903 13.7881 23.5903 13.9582C23.5903 14.1284 23.7443 14.2663 23.9342 14.2663Z" fill="#E0E0E0"/>
</svg>
