<svg width="50" height="50" viewBox="0 0 50 50" fill="none" xmlns="http://www.w3.org/2000/svg">
<rect width="50" height="50" rx="25" fill="#F5F5F5"/>
<path d="M21.2884 7.70695L22.0995 15.7908H27.4908L28.9367 7.66352C28.9367 7.66352 26.7325 6.87961 21.2884 7.70695Z" fill="#AE7461"/>
<path d="M26.4404 7.3158C26.4022 7.45679 26.4068 7.60437 26.4537 7.74325C26.5006 7.88212 26.5881 8.00724 26.7071 8.10562C26.8226 8.19126 26.9632 8.24535 27.1121 8.26146C27.261 8.27756 27.4119 8.255 27.5469 8.19645C27.6826 8.11916 27.7931 8.01101 27.8671 7.88303C27.941 7.75504 27.9758 7.61178 27.9679 7.46784L26.4404 7.3158Z" fill="#6F4439"/>
<path d="M23.2196 9.58455C23.5094 9.58455 23.7442 9.37415 23.7442 9.1146C23.7442 8.85506 23.5094 8.64465 23.2196 8.64465C22.9299 8.64465 22.6951 8.85506 22.6951 9.1146C22.6951 9.37415 22.9299 9.58455 23.2196 9.58455Z" fill="#6F4439"/>
<path d="M25.8436 12.2542C26.4023 12.2542 26.8553 11.8484 26.8553 11.3479C26.8553 10.8473 26.4023 10.4415 25.8436 10.4415C25.2849 10.4415 24.8319 10.8473 24.8319 11.3479C24.8319 11.8484 25.2849 12.2542 25.8436 12.2542Z" fill="#6F4439"/>
<path d="M25.877 10.4455C25.7509 10.4509 25.6262 10.4722 25.5067 10.5087C25.3783 10.5541 25.2609 10.6211 25.1607 10.7062C25.0394 10.8079 24.9491 10.9357 24.8984 11.0774C24.8509 11.2206 24.8471 11.3727 24.8874 11.5177C24.9178 11.6369 24.974 11.7496 25.0527 11.8494C25.1319 11.938 25.2221 12.0181 25.3216 12.0884C25.2886 12.0778 25.2574 12.0632 25.229 12.0449C25.1505 11.9959 25.0807 11.9367 25.0218 11.8692C24.9342 11.7681 24.8712 11.6517 24.8367 11.5276C24.7906 11.3757 24.7906 11.2155 24.8367 11.0636C24.8879 10.911 24.9856 10.7742 25.1188 10.6686C25.2236 10.5801 25.3484 10.5128 25.4847 10.4712C25.5749 10.4439 25.6693 10.4292 25.7646 10.4277C25.8031 10.4261 25.8415 10.4322 25.877 10.4455Z" fill="#263238"/>
<path d="M23.3004 8.63873C23.2257 8.64692 23.152 8.66079 23.0799 8.6802C22.9959 8.70584 22.9204 8.74986 22.8601 8.80827C22.7999 8.86667 22.7569 8.93763 22.735 9.01469C22.7131 9.09176 22.713 9.1725 22.7348 9.24959C22.7565 9.32669 22.7994 9.3977 22.8595 9.4562C22.912 9.50317 22.9688 9.54611 23.0292 9.58455C22.9519 9.57053 22.8821 9.53368 22.8309 9.4799C22.7615 9.41931 22.7111 9.34346 22.6847 9.25995C22.6583 9.17643 22.6569 9.08817 22.6806 9.004C22.7042 8.91983 22.7521 8.8427 22.8195 8.78033C22.8869 8.71796 22.9714 8.67254 23.0645 8.64861C23.1394 8.62065 23.2229 8.61715 23.3004 8.63873Z" fill="#263238"/>
<path d="M27.2362 8.27739C27.1674 8.29293 27.0955 8.29293 27.0268 8.27739C26.8572 8.25424 26.7016 8.17966 26.5859 8.06611C26.4708 7.95076 26.4024 7.80396 26.392 7.64948C26.3848 7.58644 26.3946 7.52278 26.4206 7.46387C26.4316 7.46387 26.4206 7.53495 26.4317 7.6475C26.4506 7.791 26.5197 7.92549 26.6289 8.03184C26.7381 8.13818 26.8819 8.21098 27.04 8.23987C27.1546 8.27541 27.2339 8.26949 27.2362 8.27739Z" fill="#263238"/>
<path d="M20.6113 14.4795V18.3496L9.51795 37.3055C9.1939 37.8606 9.0351 38.4812 9.05691 39.1073C9.07872 39.7335 9.28038 40.344 9.64244 40.88C10.0045 41.4159 10.5147 41.8591 11.1238 42.1669C11.7328 42.4746 12.4202 42.6365 13.1195 42.6368H36.8799C37.5824 42.637 38.273 42.4741 38.8843 42.1641C39.4956 41.854 40.0069 41.4074 40.3683 40.8677C40.7296 40.3281 40.9288 39.7137 40.9463 39.0846C40.9638 38.4555 40.7991 37.833 40.4682 37.2778L29.3991 18.6833V14.4795H20.6113Z" fill="white"/>
<path d="M36.8795 42.6842H13.119C12.4101 42.6841 11.7132 42.5202 11.0958 42.2082C10.4783 41.8962 9.96116 41.4467 9.59435 40.9033C9.22754 40.3598 9.02348 39.7408 9.00191 39.106C8.98034 38.4712 9.14198 37.8422 9.47121 37.2798L20.5579 18.3378V14.436H29.4516V18.6715L40.5163 37.2561C40.8507 37.8186 41.0169 38.4492 40.9986 39.0863C40.9804 39.7235 40.7784 40.3455 40.4123 40.892C40.0462 41.4385 39.5284 41.8907 38.9093 42.2048C38.2902 42.5188 37.5909 42.684 36.8795 42.6842ZM20.6637 14.5308V18.3615V18.3713L9.57039 37.3272C9.25009 37.8753 9.093 38.4882 9.1143 39.1066C9.1356 39.7251 9.33457 40.3281 9.69198 40.8575C10.0494 41.3869 10.5532 41.8248 11.1547 42.1289C11.7561 42.433 12.435 42.5929 13.1256 42.5934H36.8861C37.5793 42.5934 38.2606 42.4327 38.8639 42.1268C39.4671 41.8209 39.9716 41.3803 40.3283 40.8478C40.6849 40.3153 40.8816 39.7092 40.8991 39.0884C40.9166 38.4676 40.7543 37.8534 40.4281 37.3055L29.3524 18.6991V14.5308H20.6637Z" fill="#263238"/>
<path d="M21.7922 16.6516L21.7525 18.2529L10.765 37.7794C10.5457 38.1534 10.4379 38.5718 10.452 38.994C10.4661 39.4163 10.6016 39.8281 10.8454 40.1897C11.0892 40.5513 11.4331 40.8504 11.8437 41.0581C12.2544 41.2658 12.7179 41.3749 13.1895 41.3751H36.8089C37.2826 41.3762 37.7486 41.2673 38.1613 41.0589C38.574 40.8505 38.9193 40.5498 39.1636 40.1862C39.4078 39.8226 39.5427 39.4084 39.5549 38.9841C39.5671 38.5599 39.4564 38.14 39.2334 37.7656L28.4332 18.2588L28.3759 16.6575L21.7922 16.6516Z" fill="#E0E0E0"/>
<path d="M39.2268 37.7597L34.1309 28.5602H15.9491L10.765 37.7794C10.5457 38.1534 10.4379 38.5718 10.452 38.9941C10.4661 39.4163 10.6016 39.8282 10.8454 40.1898C11.0892 40.5514 11.4331 40.8505 11.8437 41.0581C12.2544 41.2658 12.7179 41.375 13.1895 41.3751H36.8089C37.283 41.3757 37.7492 41.2662 38.1618 41.0571C38.5745 40.848 38.9195 40.5465 39.1632 40.1821C39.4069 39.8178 39.5408 39.403 39.552 38.9784C39.5631 38.5538 39.4511 38.1339 39.2268 37.7597Z" fill="#17474C"/>
<path d="M30.031 15.0403H19.9692C19.6489 15.0403 19.3416 14.9263 19.1151 14.7234C18.8886 14.5205 18.7614 14.2452 18.7614 13.9583C18.7614 13.8163 18.7926 13.6756 18.8533 13.5445C18.9141 13.4133 19.0031 13.2941 19.1153 13.1938C19.2274 13.0935 19.3606 13.014 19.5072 12.9598C19.6537 12.9057 19.8107 12.8779 19.9692 12.8782H30.031C30.3508 12.8782 30.6575 12.992 30.8836 13.1945C31.1097 13.3971 31.2367 13.6718 31.2367 13.9583C31.237 14.1003 31.206 14.2409 31.1455 14.3722C31.0851 14.5035 30.9963 14.6228 30.8843 14.7233C30.7724 14.8238 30.6393 14.9035 30.4929 14.9579C30.3465 15.0123 30.1895 15.0403 30.031 15.0403Z" fill="white"/>
<path d="M30.0313 15.0403C30.1247 15.0339 30.2174 15.022 30.309 15.0047C30.5332 14.9547 30.7367 14.8481 30.8953 14.6976C31.0539 14.5471 31.161 14.359 31.2039 14.1557C31.2228 14.0586 31.2273 13.9596 31.2171 13.8615C31.2052 13.7558 31.177 13.6522 31.1334 13.5534C31.0302 13.3353 30.8508 13.153 30.622 13.0341C30.4971 12.9711 30.3604 12.929 30.2187 12.9097C30.0693 12.8956 29.919 12.8923 29.769 12.8998H19.9739C19.8575 12.9026 19.742 12.9185 19.6301 12.9472C19.5195 12.9783 19.4142 13.0229 19.3171 13.0795C19.122 13.1933 18.9686 13.3561 18.8763 13.5475C18.8342 13.6419 18.806 13.7408 18.7925 13.8417C18.7771 13.9419 18.7771 14.0436 18.7925 14.1438C18.8354 14.3446 18.9426 14.5299 19.1011 14.677C19.1738 14.754 19.2593 14.8206 19.3546 14.8744C19.4476 14.9248 19.5476 14.964 19.6521 14.9909C19.8644 15.0299 20.0816 15.0432 20.2979 15.0304H21.5697H19.9717C19.8585 15.0294 19.7459 15.0154 19.6367 14.9889C19.4165 14.9323 19.2176 14.8231 19.0614 14.673C18.9031 14.5183 18.7969 14.3266 18.755 14.1201C18.7351 14.0165 18.7306 13.9109 18.7418 13.8062C18.7566 13.7006 18.7862 13.5971 18.83 13.4981C18.8778 13.3997 18.9401 13.3074 19.0151 13.2237C19.0925 13.1407 19.1823 13.0676 19.2818 13.0065C19.3833 12.9478 19.493 12.9014 19.608 12.8683C19.7257 12.8381 19.8472 12.8215 19.9695 12.8189H29.7646C29.9184 12.8143 30.0724 12.8195 30.2253 12.8347C30.4319 12.8645 30.6266 12.9414 30.7906 13.0579C30.9546 13.1744 31.0825 13.3267 31.162 13.5001C31.2487 13.6964 31.2724 13.9105 31.2304 14.1182C31.1925 14.2914 31.1086 14.454 30.9857 14.592C30.8164 14.7847 30.5782 14.9192 30.3112 14.9731C30.239 14.9883 30.1651 14.9962 30.0908 14.9968L30.0313 15.0403Z" fill="#263238"/>
<path d="M29.875 15.0502H20.3466V18.2509H29.875V15.0502Z" fill="#263238"/>
<path d="M34.1307 28.5602C34.1307 29.1624 30.0618 29.6501 25.0409 29.6501C20.0199 29.6501 15.9489 29.1624 15.9489 28.5602C15.9489 27.9579 20.0199 27.4702 25.0409 27.4702C30.0618 27.4702 34.1307 27.9579 34.1307 28.5602Z" fill="#103235"/>
<g opacity="0.3">
<path d="M33.919 28.6163C33.919 29.2185 29.8502 29.7062 24.8292 29.7062C19.8082 29.7062 15.7372 29.2185 15.7372 28.6163C15.7372 28.014 19.8082 27.5263 24.8292 27.5263C29.8502 27.5263 33.919 28.014 33.919 28.6163Z" fill="#103235"/>
</g>
<g opacity="0.3">
<path d="M25.8173 18.2529C25.7159 18.2529 29.5643 36.2827 30.3842 36.4189C31.2042 36.5552 37.5388 36.4189 37.5388 36.4189L27.8958 18.2529H25.8173Z" fill="white"/>
</g>
<g opacity="0.3">
<path d="M9.10181 39.5822H40.9536C40.7905 40.524 39.349 42.5835 37.1911 42.6368H12.9149C11.0701 42.6368 9.30459 41.0315 9.10181 39.5822Z" fill="black"/>
</g>
<path d="M18.8255 23.452C18.8262 23.4598 18.8262 23.4678 18.8255 23.4757L18.7924 23.5448L18.6579 23.8074C18.5411 24.0364 18.3648 24.3642 18.1444 24.767C17.7036 25.5746 17.0754 26.6804 16.3811 27.8967C15.6868 29.113 15.0454 30.2168 14.6178 31.0244C14.3974 31.4193 14.2188 31.755 14.0998 31.9821L13.9279 32.2506L13.8882 32.3178L13.875 32.3395C13.875 32.3395 13.875 32.3395 13.875 32.3158L13.9081 32.2467L14.0381 31.9821C14.1527 31.753 14.3224 31.4233 14.5406 31.0165C14.9815 30.207 15.5964 29.0992 16.3039 27.8809C17.0115 26.6626 17.6463 25.5549 18.0981 24.7473C18.3185 24.3524 18.5015 24.0246 18.6271 23.7955L18.7704 23.5369L18.81 23.4697C18.8188 23.4579 18.8233 23.452 18.8255 23.452Z" fill="#263238"/>
<g opacity="0.3">
<path d="M22.7163 18.2529H22.3195C22.1608 18.5866 12.4451 37.0232 12.4451 37.0232H16.3508L24.2239 18.2529H22.7163Z" fill="white"/>
</g>
<g opacity="0.3">
<path d="M20.6059 35.6193C20.5945 35.7159 20.5513 35.8073 20.4819 35.882C20.4124 35.9567 20.3198 36.0112 20.2158 36.0388C20.1118 36.0663 20.001 36.0657 19.8974 36.0368C19.7938 36.008 19.702 35.9523 19.6338 35.8768C19.5655 35.8013 19.5237 35.7094 19.5137 35.6126C19.5037 35.5158 19.5259 35.4186 19.5776 35.3331C19.6293 35.2477 19.708 35.1778 19.804 35.1325C19.8999 35.0871 20.0087 35.0682 20.1166 35.0782C20.1884 35.0849 20.2581 35.1042 20.3216 35.135C20.3851 35.1658 20.4412 35.2075 20.4866 35.2578C20.5321 35.308 20.566 35.3658 20.5865 35.4279C20.607 35.4899 20.6136 35.5549 20.6059 35.6193Z" fill="black"/>
</g>
<g opacity="0.3">
<path d="M28.2939 33.6723C28.2824 33.769 28.2391 33.8605 28.1695 33.9352C28.1 34.0098 28.0073 34.0644 27.9031 34.0918C27.799 34.1193 27.6881 34.1184 27.5844 34.0894C27.4808 34.0604 27.3891 34.0045 27.321 33.9288C27.2528 33.8531 27.2113 33.761 27.2015 33.6641C27.1918 33.5673 27.2144 33.47 27.2664 33.3846C27.3184 33.2993 27.3975 33.2296 27.4937 33.1845C27.5899 33.1394 27.6988 33.1209 27.8068 33.1313C27.9514 33.1452 28.084 33.21 28.1754 33.3115C28.2667 33.4129 28.3093 33.5427 28.2939 33.6723Z" fill="black"/>
</g>
<g opacity="0.3">
<path d="M21.2738 34.0811C21.4527 34.0811 21.5978 33.9511 21.5978 33.7908C21.5978 33.6305 21.4527 33.5005 21.2738 33.5005C21.0949 33.5005 20.9498 33.6305 20.9498 33.7908C20.9498 33.9511 21.0949 34.0811 21.2738 34.0811Z" fill="black"/>
</g>
<g opacity="0.3">
<path d="M29.1958 35.2125C29.1963 35.27 29.1776 35.3263 29.1423 35.3743C29.107 35.4223 29.0565 35.4598 28.9973 35.4821C28.9382 35.5043 28.873 35.5104 28.81 35.4994C28.747 35.4884 28.689 35.4609 28.6435 35.4204C28.598 35.3799 28.5669 35.3282 28.5542 35.2718C28.5415 35.2155 28.5478 35.157 28.5723 35.1038C28.5967 35.0507 28.6383 35.0052 28.6916 34.9733C28.7449 34.9413 28.8076 34.9242 28.8718 34.9242C28.9574 34.9242 29.0395 34.9545 29.1002 35.0085C29.1609 35.0625 29.1952 35.1358 29.1958 35.2125Z" fill="black"/>
</g>
<g opacity="0.3">
<path d="M25.9269 31.1449C25.9273 31.2023 25.9087 31.2587 25.8733 31.3066C25.838 31.3546 25.7876 31.3922 25.7284 31.4144C25.6692 31.4367 25.604 31.4427 25.541 31.4318C25.478 31.4208 25.4201 31.3933 25.3746 31.3528C25.329 31.3123 25.2979 31.2605 25.2853 31.2042C25.2726 31.1478 25.2789 31.0894 25.3033 31.0362C25.3278 30.9831 25.3693 30.9376 25.4226 30.9056C25.476 30.8736 25.5387 30.8566 25.6029 30.8566C25.6884 30.8566 25.7705 30.8869 25.8312 30.9409C25.8919 30.9949 25.9263 31.0682 25.9269 31.1449Z" fill="black"/>
</g>
<g opacity="0.3">
<path d="M23.5974 37.4733C23.5974 37.5624 23.5679 37.6494 23.5127 37.7235C23.4575 37.7975 23.379 37.8552 23.2872 37.8893C23.1953 37.9233 23.0943 37.9323 22.9968 37.9149C22.8993 37.8975 22.8098 37.8546 22.7395 37.7917C22.6692 37.7287 22.6214 37.6485 22.602 37.5612C22.5826 37.4738 22.5925 37.3833 22.6306 37.301C22.6686 37.2188 22.733 37.1485 22.8157 37.099C22.8983 37.0495 22.9955 37.0231 23.0949 37.0231C23.2281 37.0231 23.356 37.0706 23.4502 37.155C23.5444 37.2394 23.5974 37.3539 23.5974 37.4733Z" fill="black"/>
</g>
<path d="M22.7382 14.2524H20.4768C20.3769 14.2524 20.281 14.2169 20.2103 14.1536C20.1396 14.0902 20.0999 14.0043 20.0999 13.9148C20.1005 13.8254 20.1404 13.7398 20.2109 13.6766C20.2815 13.6134 20.377 13.5777 20.4768 13.5771H22.7382C22.8382 13.5771 22.9341 13.6127 23.0048 13.676C23.0754 13.7394 23.1152 13.8252 23.1152 13.9148C23.1154 13.9592 23.1059 14.0032 23.0871 14.0443C23.0682 14.0854 23.0405 14.1227 23.0054 14.1541C22.9704 14.1855 22.9287 14.2104 22.8828 14.2273C22.837 14.2442 22.7878 14.2527 22.7382 14.2524Z" fill="#E0E0E0"/>
<path d="M23.9343 14.2663C24.1242 14.2663 24.2781 14.1284 24.2781 13.9582C24.2781 13.7881 24.1242 13.6502 23.9343 13.6502C23.7444 13.6502 23.5904 13.7881 23.5904 13.9582C23.5904 14.1284 23.7444 14.2663 23.9343 14.2663Z" fill="#E0E0E0"/>
</svg>
