<svg width="50" height="50" viewBox="0 0 50 50" fill="none" xmlns="http://www.w3.org/2000/svg">
<rect width="50" height="50" rx="25" fill="#F5F5F5"/>
<path d="M36.4832 14.7341H13.7332L15.3117 40.9692H35.1213L36.4832 14.7341Z" fill="white"/>
<path d="M12 14.7341V9.55493H38V14.7341H12Z" fill="#EB5463"/>
<ellipse cx="14.5379" cy="9.80154" rx="0.804762" ry="0.801541" fill="white"/>
<ellipse cx="17.8812" cy="9.80154" rx="0.804762" ry="0.801541" fill="white"/>
<ellipse cx="21.6573" cy="9.80154" rx="0.804762" ry="0.801541" fill="white"/>
<ellipse cx="24.7525" cy="9.80154" rx="0.804762" ry="0.801541" fill="white"/>
<ellipse cx="28.0953" cy="9.80154" rx="0.804762" ry="0.801541" fill="white"/>
<ellipse cx="31.1905" cy="9.80154" rx="0.804762" ry="0.801541" fill="white"/>
<ellipse cx="35.2142" cy="9.80154" rx="0.804762" ry="0.801541" fill="white"/>
<path fill-rule="evenodd" clip-rule="evenodd" d="M16.2555 24.4298C17.3891 24.3585 18.4697 24.5331 19.4977 24.9534C20.9778 25.6348 22.3114 26.4972 23.4987 27.5406C24.8826 28.5693 26.4463 29.3085 28.1895 29.7582C31.2006 30.217 33.5937 29.6194 35.8023 27.7438C35.5286 32.2005 35.4349 36.5454 35.0877 41C28.6494 41 21.7502 40.9692 15.3119 40.9692C14.945 35.732 14.7982 30.6972 14.3833 25.4625C14.386 25.3437 14.6257 25.0605 14.6689 24.9534C15.1879 24.7342 15.7167 24.5596 16.2555 24.4298Z" fill="#EEE3CB"/>
</svg>

