<svg width="50" height="50" viewBox="0 0 50 50" fill="none" xmlns="http://www.w3.org/2000/svg">
<rect width="50" height="50" rx="25" fill="#F5F5F5"/>
<path fill-rule="evenodd" clip-rule="evenodd" d="M25.4688 10.0937C25.4792 11.1148 25.4688 12.1356 25.4375 13.1562C25.2492 13.4709 24.9888 13.5439 24.6563 13.375C24.5812 13.3186 24.5291 13.2457 24.5 13.1562C24.4688 12.1356 24.4583 11.1148 24.4688 10.0937C24.8076 9.92839 25.1409 9.92839 25.4688 10.0937Z" fill="#545D66"/>
<path opacity="0.997" fill-rule="evenodd" clip-rule="evenodd" d="M24.4688 10.0938C24.4583 11.1148 24.4688 12.1356 24.5 13.1562C24.5291 13.2457 24.5812 13.3186 24.6562 13.375C24.9888 13.5439 25.2492 13.471 25.4375 13.1562C25.4688 12.1356 25.4792 11.1148 25.4688 10.0938C27.5394 10.6521 29.6019 11.2354 31.6562 11.8438C31.5801 11.8851 31.4968 11.9268 31.4062 11.9688C31.1042 12.5729 30.8021 13.1771 30.5 13.7812C30.4088 14.1829 30.5651 14.412 30.9688 14.4688C31.1319 14.4653 31.2674 14.4028 31.375 14.2812C31.6948 13.6625 31.9969 13.0375 32.2812 12.4062C32.8897 13.2267 33.4522 14.0808 33.9688 14.9688C33.4902 15.8017 33.0111 16.635 32.5312 17.4688C27.5104 17.4688 22.4896 17.4688 17.4688 17.4688C16.9379 16.6578 16.4379 15.8244 15.9688 14.9688C16.5082 14.0966 17.0707 13.2425 17.6562 12.4062C17.9455 13.0681 18.2684 13.714 18.625 14.3438C19.1978 14.5887 19.4686 14.4012 19.4375 13.7812C19.0969 13.1209 18.7739 12.4542 18.4688 11.7812C20.4688 11.2187 22.4688 10.6562 24.4688 10.0938Z" fill="#EDC92C"/>
<path fill-rule="evenodd" clip-rule="evenodd" d="M18.4688 11.7812C18.7739 12.4542 19.0969 13.1209 19.4375 13.7813C19.4686 14.4013 19.1978 14.5888 18.625 14.3438C18.2684 13.714 17.9455 13.0681 17.6562 12.4063C17.7815 12.0104 18.0523 11.802 18.4688 11.7812Z" fill="#545D66"/>
<path fill-rule="evenodd" clip-rule="evenodd" d="M31.6562 11.8438C31.9845 11.8945 32.1928 12.082 32.2812 12.4062C31.9969 13.0375 31.6948 13.6625 31.375 14.2812C31.2674 14.4028 31.1319 14.4653 30.9687 14.4688C30.5651 14.412 30.4088 14.1829 30.5 13.7812C30.8021 13.1771 31.1042 12.5729 31.4062 11.9688C31.4968 11.9268 31.5801 11.8851 31.6562 11.8438Z" fill="#545D66"/>
<path opacity="0.996" fill-rule="evenodd" clip-rule="evenodd" d="M17.4688 17.4688C22.4896 17.4688 27.5104 17.4688 32.5312 17.4688C32.5312 18.3021 32.5312 19.1354 32.5312 19.9688C27.5104 19.9688 22.4896 19.9688 17.4688 19.9688C17.4688 19.1354 17.4688 18.3021 17.4688 17.4688Z" fill="#545C65"/>
<path opacity="0.998" fill-rule="evenodd" clip-rule="evenodd" d="M17.4688 19.9688C22.4896 19.9688 27.5104 19.9688 32.5312 19.9688C32.5104 20.0104 32.4896 20.0521 32.4688 20.0937C32.2341 20.4225 31.9632 20.7246 31.6562 21C31.2459 21.2571 30.8292 21.4966 30.4062 21.7187C27.7213 22.4789 24.9921 22.6768 22.2188 22.3125C21.1357 22.198 20.094 21.9271 19.0938 21.5C18.4213 21.1706 17.8797 20.7018 17.4688 20.0937C17.4688 20.0521 17.4688 20.0104 17.4688 19.9688Z" fill="#656D78"/>
<path opacity="0.998" fill-rule="evenodd" clip-rule="evenodd" d="M17.4688 20.0938C17.8797 20.7018 18.4213 21.1706 19.0938 21.5C20.094 21.9271 21.1357 22.198 22.2188 22.3125C24.9921 22.6768 27.7213 22.4789 30.4062 21.7188C30.7563 25.0288 29.548 27.6017 26.7812 29.4375C25.8669 29.9611 24.8878 30.2632 23.8438 30.3438C23.0144 30.2469 22.2331 29.9969 21.5 29.5938C21.4751 29.608 21.4647 29.6289 21.4688 29.6562C19.2219 28.4149 17.899 26.5191 17.5 23.9688C17.4688 22.6772 17.4583 21.3856 17.4688 20.0938Z" fill="#E9C5BA"/>
<path fill-rule="evenodd" clip-rule="evenodd" d="M32.4688 20.0938C32.4792 21.3648 32.4688 22.6356 32.4375 23.9062C32.0567 26.4825 30.7338 28.3992 28.4688 29.6562C28.1309 29.7664 27.7768 29.9019 27.4063 30.0625C26.2303 30.4447 25.0428 30.5384 23.8438 30.3438C24.8878 30.2632 25.8669 29.9611 26.7813 29.4375C29.548 27.6017 30.7563 25.0288 30.4063 21.7188C30.8292 21.4966 31.2459 21.2571 31.6563 21C31.9632 20.7246 32.2341 20.4225 32.4688 20.0938Z" fill="#D3B1A9"/>
<path opacity="0.999" fill-rule="evenodd" clip-rule="evenodd" d="M23.8438 30.3438C25.0428 30.5384 26.2303 30.4447 27.4063 30.0625C27.7768 29.9019 28.1309 29.7664 28.4688 29.6562C28.4688 30.4271 28.4688 31.1979 28.4688 31.9688C27.9688 32.3021 27.4688 32.6354 26.9688 32.9688C26.2939 32.7974 25.6169 32.6308 24.9375 32.4688C24.3426 32.6097 23.7488 32.7555 23.1563 32.9062C23.0804 32.9217 23.0388 32.9634 23.0313 33.0312C22.5236 32.6624 22.0028 32.3082 21.4688 31.9688C21.4688 31.1979 21.4688 30.4271 21.4688 29.6562C21.4647 29.6289 21.4751 29.608 21.5 29.5938C22.2331 29.9969 23.0144 30.2469 23.8438 30.3438Z" fill="#29636D"/>
<path opacity="0.999" fill-rule="evenodd" clip-rule="evenodd" d="M21.4687 31.9688C22.0027 32.3083 22.5236 32.6624 23.0312 33.0313C23.5312 33.4896 24.0104 33.9688 24.4687 34.4688C24.1527 36.3057 23.8194 38.1391 23.4687 39.9688C20.3021 39.9688 17.1354 39.9688 13.9687 39.9688C13.9583 38.3853 13.9687 36.8019 14 35.2188C14.4062 33.4792 15.4792 32.4063 17.2187 32C18.6352 31.9688 20.0519 31.9583 21.4687 31.9688Z" fill="#4B93A0"/>
<path fill-rule="evenodd" clip-rule="evenodd" d="M28.4688 31.9688C28.9271 31.9688 29.3854 31.9688 29.8438 31.9688C31.6431 32.2077 32.9452 33.1452 33.75 34.7812C33.851 35.0217 33.9135 35.2717 33.9375 35.5312C33.9688 37.0103 33.9792 38.4894 33.9688 39.9688C31.4688 39.9688 28.9688 39.9688 26.4688 39.9688C26.1427 38.1376 25.8302 36.3042 25.5312 34.4688C26.0104 33.9688 26.4896 33.4688 26.9688 32.9688C27.4688 32.6354 27.9688 32.3021 28.4688 31.9688Z" fill="#4B93A0"/>
<path fill-rule="evenodd" clip-rule="evenodd" d="M29.8438 31.9688C31.9561 31.5876 33.7373 32.1709 35.1875 33.7188C35.5721 34.1963 35.8221 34.738 35.9375 35.3438C35.9687 36.8853 35.9792 38.4269 35.9687 39.9688C35.3021 39.9688 34.6354 39.9688 33.9687 39.9688C33.9792 38.4894 33.9687 37.0103 33.9375 35.5313C33.9135 35.2717 33.851 35.0217 33.75 34.7813C32.9452 33.1452 31.6431 32.2077 29.8438 31.9688Z" fill="#214E56"/>
<path opacity="0.999" fill-rule="evenodd" clip-rule="evenodd" d="M26.9688 32.9688C26.4896 33.4688 26.0104 33.9688 25.5312 34.4688C25.1771 34.4688 24.8229 34.4688 24.4688 34.4688C24.0104 33.9688 23.5312 33.4896 23.0312 33.0312C23.0387 32.9634 23.0804 32.9217 23.1562 32.9062C23.7488 32.7555 24.3426 32.6097 24.9375 32.4688C25.6169 32.6308 26.2939 32.7974 26.9688 32.9688Z" fill="#549A93"/>
<path opacity="0.999" fill-rule="evenodd" clip-rule="evenodd" d="M24.4688 34.4688C24.8229 34.4688 25.1771 34.4688 25.5312 34.4688C25.8302 36.3042 26.1427 38.1376 26.4688 39.9688C25.4688 39.9688 24.4688 39.9688 23.4688 39.9688C23.8194 38.1391 24.1528 36.3057 24.4688 34.4688Z" fill="#6FC5BC"/>
<path fill-rule="evenodd" clip-rule="evenodd" d="M31.9687 36.4688C31.4687 36.4688 30.9687 36.4688 30.4687 36.4688C30.4584 36.0724 30.4687 35.6766 30.5 35.2813C30.6471 35.01 30.8762 34.9058 31.1875 34.9688C31.445 34.943 31.6742 35.0055 31.875 35.1563C31.9641 35.5866 31.9953 36.0241 31.9687 36.4688Z" fill="#646D78"/>
<path fill-rule="evenodd" clip-rule="evenodd" d="M30.4687 36.4687C30.9687 36.4687 31.4687 36.4687 31.9687 36.4687C32.3443 36.4584 32.7193 36.4688 33.0937 36.5C33.2081 36.517 33.3018 36.5692 33.375 36.6562C33.4982 37.1963 33.4982 37.738 33.375 38.2812C33.3018 38.3683 33.2081 38.4204 33.0937 38.4375C31.8229 38.4792 30.5521 38.4792 29.2812 38.4375C29.1918 38.4084 29.1189 38.3563 29.0625 38.2812C28.9393 37.738 28.9393 37.1963 29.0625 36.6562C29.1189 36.5812 29.1918 36.529 29.2812 36.5C29.6766 36.4687 30.0724 36.4584 30.4687 36.4687Z" fill="white"/>
</svg>

