<svg width="50" height="50" viewBox="0 0 50 50" fill="none" xmlns="http://www.w3.org/2000/svg">
<circle cx="25" cy="25" r="25" fill="#F5F5F5"/>
<path opacity="0.994" fill-rule="evenodd" clip-rule="evenodd" d="M26.832 17.3711C25.5924 17.3711 24.3529 17.3711 23.1133 17.3711C20.6705 17.3802 18.2278 17.3711 15.7852 17.3437C14.1935 17.0829 13.1089 16.1988 12.5312 14.6914C12.4679 14.4564 12.4132 14.2194 12.3672 13.9805C12.3398 13.4339 12.3307 12.887 12.3398 12.3398C20.7617 12.3398 29.1836 12.3398 37.6055 12.3398C37.8612 14.009 37.3691 15.4035 36.1289 16.5234C35.5501 16.9767 34.8938 17.2502 34.1602 17.3437C31.7175 17.3711 29.2748 17.3802 26.832 17.3711Z" fill="#F45857"/>
<path fill-rule="evenodd" clip-rule="evenodd" d="M15.6211 13.5977C17.0249 13.5885 18.4285 13.5977 19.8321 13.625C20.1122 13.762 20.176 13.9717 20.0235 14.2539C19.9825 14.2881 19.9369 14.3155 19.8868 14.3359C18.4649 14.3724 17.043 14.3724 15.6211 14.3359C15.4471 14.2802 15.3742 14.1618 15.4024 13.9805C15.3858 13.7976 15.4587 13.67 15.6211 13.5977Z" fill="#DD4E4E"/>
<path fill-rule="evenodd" clip-rule="evenodd" d="M21.1992 13.5977C21.7323 13.5747 22.2609 13.6021 22.7852 13.6798C22.8948 13.8351 22.9221 14.0083 22.8672 14.1993C22.8178 14.265 22.7541 14.3106 22.6758 14.336C22.1836 14.3725 21.6914 14.3725 21.1992 14.336C20.917 14.0945 20.917 13.8485 21.1992 13.5977Z" fill="#DD4E4E"/>
<path opacity="0.999" fill-rule="evenodd" clip-rule="evenodd" d="M23.1133 17.3711C24.3529 17.3711 25.5924 17.3711 26.832 17.3711C26.832 18.4284 26.832 19.4857 26.832 20.543C25.5924 20.6159 24.3529 20.6159 23.1133 20.543C23.1133 19.4857 23.1133 18.4284 23.1133 17.3711Z" fill="#F2D930"/>
<path opacity="0.998" fill-rule="evenodd" clip-rule="evenodd" d="M23.1133 20.5431C24.3529 20.616 25.5924 20.616 26.832 20.5431C29.0026 20.5191 31.1719 20.5464 33.3398 20.6251C34.54 20.932 35.2782 21.6885 35.5547 22.8946C36.2502 27.0678 36.9338 31.2424 37.6055 35.4181C37.0404 35.4181 36.4752 35.4181 35.9102 35.4181C28.6185 35.3452 21.3268 35.3452 14.0352 35.4181C13.4701 35.4181 12.9049 35.4181 12.3398 35.4181C13.0115 31.2424 13.6951 27.0678 14.3906 22.8946C14.6671 21.6885 15.4054 20.932 16.6055 20.6251C18.7734 20.5464 20.9427 20.5191 23.1133 20.5431Z" fill="#F35858"/>
<path fill-rule="evenodd" clip-rule="evenodd" d="M24.59 22.7851C24.5809 23.1501 24.59 23.5147 24.6173 23.8789C24.6563 24.0675 24.7747 24.1586 24.9728 24.1523C25.1709 24.1586 25.2893 24.0675 25.3283 23.8789C25.3556 23.5147 25.3647 23.1501 25.3556 22.7851C27.4414 23.0028 28.9271 24.0601 29.8127 25.957C30.0503 26.4785 30.1688 27.0254 30.1681 27.5976C29.7849 27.5885 29.4021 27.5976 29.0197 27.6249C28.7902 27.788 28.7447 27.9976 28.883 28.2539C28.924 28.2881 28.9696 28.3154 29.0197 28.3359C29.4021 28.3632 29.7849 28.3723 30.1681 28.3632C29.8859 30.8786 28.5188 32.4554 26.0666 33.0937C25.833 33.1525 25.5961 33.1798 25.3556 33.1757C25.3647 32.7925 25.3556 32.4097 25.3283 32.0273C25.0913 31.7356 24.8543 31.7356 24.6173 32.0273C24.59 32.4097 24.5809 32.7925 24.59 33.1757C22.0761 32.8952 20.4992 31.528 19.8595 29.0742C19.8007 28.8406 19.7734 28.6037 19.7775 28.3632C20.1608 28.3723 20.5436 28.3632 20.9259 28.3359C21.2162 28.1042 21.2162 27.8672 20.9259 27.6249C20.5436 27.5976 20.1608 27.5885 19.7775 27.5976C20.087 25.0182 21.5089 23.4231 24.0431 22.8124C24.2245 22.7852 24.4068 22.7761 24.59 22.7851Z" fill="#DEEDF3"/>
<path fill-rule="evenodd" clip-rule="evenodd" d="M25.3555 22.7851C25.3645 23.1502 25.3555 23.5148 25.3281 23.8789C25.2892 24.0676 25.1707 24.1587 24.9726 24.1523C24.7746 24.1587 24.6561 24.0676 24.6172 23.8789C24.5898 23.5148 24.5808 23.1502 24.5898 22.7851C24.8451 22.7122 25.1002 22.7122 25.3555 22.7851Z" fill="#6F7B85"/>
<path fill-rule="evenodd" clip-rule="evenodd" d="M27.0508 25.3556C27.4331 25.2759 27.6246 25.4218 27.625 25.7931C27.1163 26.3566 26.5876 26.9034 26.0391 27.4337C26.2804 28.2002 26.0343 28.7561 25.3008 29.1017C24.6103 29.2167 24.1273 28.9524 23.8516 28.3087C23.7365 27.6182 24.0009 27.1351 24.6446 26.8595C24.9449 26.8223 25.2366 26.8405 25.5196 26.9142C26.0411 26.4018 26.5515 25.8823 27.0508 25.3556Z" fill="#6E7B85"/>
<path fill-rule="evenodd" clip-rule="evenodd" d="M24.8085 27.5978C25.3198 27.5904 25.4656 27.8183 25.246 28.2814C24.7787 28.4631 24.5691 28.3082 24.617 27.8166C24.6548 27.7154 24.7185 27.6425 24.8085 27.5978Z" fill="#DBEAF0"/>
<path fill-rule="evenodd" clip-rule="evenodd" d="M19.7773 27.5976C20.1606 27.5886 20.5434 27.5976 20.9258 27.625C21.216 27.8672 21.216 28.1042 20.9258 28.3359C20.5434 28.3633 20.1606 28.3723 19.7773 28.3633C19.7044 28.108 19.7044 27.8529 19.7773 27.5976Z" fill="#6F7B85"/>
<path fill-rule="evenodd" clip-rule="evenodd" d="M30.1679 27.5976C30.2408 27.8529 30.2408 28.108 30.1679 28.3633C29.7846 28.3723 29.4018 28.3633 29.0194 28.3359C28.9693 28.3155 28.9237 28.2881 28.8827 28.2539C28.7444 27.9976 28.79 27.788 29.0194 27.625C29.4018 27.5976 29.7846 27.5886 30.1679 27.5976Z" fill="#6F7B85"/>
<path fill-rule="evenodd" clip-rule="evenodd" d="M25.3555 33.1758C25.1002 33.2487 24.8451 33.2487 24.5898 33.1758C24.5808 32.7925 24.5898 32.4097 24.6172 32.0273C24.8541 31.7357 25.0911 31.7357 25.3281 32.0273C25.3555 32.4097 25.3645 32.7925 25.3555 33.1758Z" fill="#6F7B85"/>
<path fill-rule="evenodd" clip-rule="evenodd" d="M35.9102 35.418C35.9102 36.1471 35.9102 36.8763 35.9102 37.6055C28.6185 37.6055 21.3268 37.6055 14.0352 37.6055C14.0352 36.8763 14.0352 36.1471 14.0352 35.418C21.3268 35.3451 28.6185 35.3451 35.9102 35.418Z" fill="#6D7983"/>
</svg>

